<svg width="32" height="33" viewBox="0 0 32 33" fill="none" xmlns="http://www.w3.org/2000/svg">
<g clip-path="url(#clip0_4590_42160)">
<path d="M9 18.3564C7.14864 19.1731 6 20.3112 6 21.5701C6 24.0553 10.4772 26.0701 16 26.0701C21.5228 26.0701 26 24.0553 26 21.5701C26 20.3112 24.8514 19.1731 23 18.3564M22 12.0701C22 16.1338 17.5 18.0701 16 21.0701C14.5 18.0701 10 16.1338 10 12.0701C10 8.75636 12.6863 6.07007 16 6.07007C19.3137 6.07007 22 8.75636 22 12.0701ZM17 12.0701C17 12.6224 16.5523 13.0701 16 13.0701C15.4477 13.0701 15 12.6224 15 12.0701C15 11.5178 15.4477 11.0701 16 11.0701C16.5523 11.0701 17 11.5178 17 12.0701Z" stroke="#989898" stroke-width="1.5" stroke-linecap="round" stroke-linejoin="round"/>
</g>
<defs>
<clipPath id="clip0_4590_42160">
<path d="M0 2.07007C0 0.965499 0.895431 0.0700684 2 0.0700684H30C31.1046 0.0700684 32 0.965499 32 2.07007V30.0701C32 31.1746 31.1046 32.0701 30 32.0701H2C0.895431 32.0701 0 31.1746 0 30.0701V2.07007Z" fill="white"/>
</clipPath>
</defs>
</svg>
