<svg width="32" height="33" viewBox="0 0 32 33" fill="none" xmlns="http://www.w3.org/2000/svg">
<g clip-path="url(#clip0_4591_42171)">
<path d="M15.5 9.07007H15.9344C18.9816 9.07007 20.5053 9.07007 21.0836 9.61736C21.5836 10.0904 21.8051 10.7873 21.6702 11.4623C21.514 12.2431 20.2701 13.1229 17.7823 14.8826L13.7177 17.7575C11.2299 19.5172 9.98599 20.3971 9.82984 21.1779C9.69486 21.8528 9.91642 22.5497 10.4164 23.0228C10.9947 23.5701 12.5184 23.5701 15.5656 23.5701H16.5M12 9.07007C12 10.7269 10.6569 12.0701 9 12.0701C7.34315 12.0701 6 10.7269 6 9.07007C6 7.41321 7.34315 6.07007 9 6.07007C10.6569 6.07007 12 7.41321 12 9.07007ZM26 23.0701C26 24.7269 24.6569 26.0701 23 26.0701C21.3431 26.0701 20 24.7269 20 23.0701C20 21.4132 21.3431 20.0701 23 20.0701C24.6569 20.0701 26 21.4132 26 23.0701Z" stroke="#989898" stroke-width="1.5" stroke-linecap="round" stroke-linejoin="round"/>
</g>
<defs>
<clipPath id="clip0_4591_42171">
<path d="M0 2.07007C0 0.965499 0.895431 0.0700684 2 0.0700684H30C31.1046 0.0700684 32 0.965499 32 2.07007V30.0701C32 31.1746 31.1046 32.0701 30 32.0701H2C0.895431 32.0701 0 31.1746 0 30.0701V2.07007Z" fill="white"/>
</clipPath>
</defs>
</svg>
