<svg width="18" height="18" viewBox="0 0 18 18" fill="none" xmlns="http://www.w3.org/2000/svg">
<g clip-path="url(#clip0_132_463999)">
<g clip-path="url(#clip1_132_463999)">
<path d="M13.0003 7.66622L10.3337 4.99955M2.66699 15.3329L4.92324 15.0822C5.1989 15.0516 5.33673 15.0362 5.46556 14.9945C5.57985 14.9575 5.68862 14.9053 5.78892 14.8391C5.90196 14.7646 6.00002 14.6665 6.19614 14.4704L15.0003 5.66622C15.7367 4.92984 15.7367 3.73593 15.0003 2.99955C14.264 2.26317 13.0701 2.26317 12.3337 2.99955L3.52948 11.8037C3.33336 11.9999 3.2353 12.0979 3.16075 12.211C3.09461 12.3113 3.04234 12.42 3.00533 12.5343C2.96363 12.6632 2.94831 12.801 2.91769 13.0766L2.66699 15.3329Z" stroke="#989898" stroke-width="1.5" stroke-linecap="round" stroke-linejoin="round"/>
</g>
</g>
<defs>
<clipPath id="clip0_132_463999">
<path d="M0 2C0 0.89543 0.895431 0 2 0H16C17.1046 0 18 0.895431 18 2V16C18 17.1046 17.1046 18 16 18H2C0.89543 18 0 17.1046 0 16V2Z" fill="white"/>
</clipPath>
<clipPath id="clip1_132_463999">
<rect width="16" height="16" fill="white" transform="translate(1 1)"/>
</clipPath>
</defs>
</svg>
