<svg width="16" height="16" viewBox="0 0 16 16" fill="none" xmlns="http://www.w3.org/2000/svg">
<path d="M14 12L13.3332 12.7293C12.9796 13.116 12.5001 13.3333 12.0001 13.3333C11.5001 13.3333 11.0205 13.116 10.6669 12.7293C10.3128 12.3434 9.83332 12.1267 9.33345 12.1267C8.83359 12.1267 8.35409 12.3434 7.99998 12.7293M2 13.3333H3.11636C3.44248 13.3333 3.60554 13.3333 3.75899 13.2964C3.89504 13.2638 4.0251 13.2099 4.1444 13.1368C4.27895 13.0543 4.39425 12.939 4.62486 12.7084L13 4.33328C13.5523 3.781 13.5523 2.88557 13 2.33328C12.4477 1.781 11.5523 1.781 11 2.33328L2.62484 10.7084C2.39424 10.939 2.27894 11.0543 2.19648 11.1889C2.12338 11.3082 2.0695 11.4383 2.03684 11.5743C2 11.7278 2 11.8908 2 12.2169V13.3333Z" stroke="#373737" stroke-width="1.46667" stroke-linecap="round" stroke-linejoin="round"/>
</svg>
