<svg width="137" height="112" viewBox="0 0 137 112" fill="none" xmlns="http://www.w3.org/2000/svg">
<g clip-path="url(#clip0_4462_37769)">
<path d="M38.9528 70.2929C38.7436 70.2146 38.5542 70.0914 38.3978 69.932C38.2415 69.7726 38.122 69.5808 38.0477 69.3702C37.9735 69.1596 37.9464 68.9353 37.9682 68.713C37.99 68.4908 38.0604 68.276 38.1742 68.0839L34.6689 63.9391L37.4698 63.6042L40.369 67.5915C40.6791 67.8041 40.9004 68.1231 40.9911 68.488C41.0817 68.8529 41.0353 69.2383 40.8608 69.5713C40.6862 69.9043 40.3955 70.1617 40.0439 70.2947C39.6922 70.4277 39.304 70.4271 38.9528 70.2929Z" fill="#FFB6B6"/>
<path d="M24.521 109.139L26.3831 109.139L27.2692 101.956L24.5205 101.956L24.521 109.139Z" fill="#FFB6B6"/>
<path d="M24.0459 108.532L24.5701 108.531L26.6166 107.699L27.7134 108.531H27.7136C28.3335 108.531 28.9279 108.778 29.3662 109.216C29.8045 109.654 30.0508 110.249 30.0508 110.869V110.945L24.046 110.945L24.0459 108.532Z" fill="#2F2E41"/>
<path d="M31.7383 107.966L33.5549 108.376L36.0013 101.564L33.3202 100.959L31.7383 107.966Z" fill="#FFB6B6"/>
<path d="M31.4084 107.268L31.9197 107.384L34.0993 107.023L34.9859 108.076C35.5906 108.213 36.1163 108.584 36.4473 109.108C36.7783 109.632 36.8876 110.266 36.7511 110.871L36.7343 110.945L30.877 109.622L31.4084 107.268Z" fill="#2F2E41"/>
<path d="M21.1123 72.1903L22.7963 91.058C22.7963 91.058 22.1654 102.385 24.2014 106.371H27.1543L28.6164 90.0236L28.7999 79.0508L35.1306 88.3081L31.0984 106.104L34.7327 106.429L41.2759 87.1162L34.0874 68.9861L21.1123 72.1903Z" fill="#2F2E41"/>
<path d="M22.8753 42.1438C25.2738 42.1438 27.2183 40.1994 27.2183 37.8008C27.2183 35.4022 25.2738 33.4578 22.8753 33.4578C20.4767 33.4578 18.5322 35.4022 18.5322 37.8008C18.5322 40.1994 20.4767 42.1438 22.8753 42.1438Z" fill="#FFB8B8"/>
<path d="M31.993 46.2826L26.9474 44.7538L26.2908 42.7346L20.88 43.6129L19.7303 45.5841L16.0088 49.0446L20.369 68.7594L20.237 73.0653C20.237 73.0653 23.0277 74.3216 35.1303 71.4291C35.2754 71.3944 34.9716 71.2425 34.9716 71.2425L31.993 46.2826Z" fill="#3F3D56"/>
<path d="M36.7847 68.0146L30.8701 60.0945L29.1934 46.0578L29.2423 46.0342C29.7002 45.8137 30.2058 45.7105 30.7135 45.734C31.2212 45.7574 31.7151 45.9067 32.1508 46.1684C32.5865 46.4302 32.9502 46.7961 33.2094 47.2333C33.4685 47.6706 33.6149 48.1654 33.6353 48.6732L33.9839 57.347L39.8581 65.0988L36.7847 68.0146Z" fill="#3F3D56"/>
<path d="M18.3594 40.2651C18.3291 40.2238 18.2991 40.1821 18.2695 40.1401C18.2575 40.1654 18.248 40.1914 18.2344 40.216L18.3594 40.2651Z" fill="#2F2E41"/>
<path d="M27.1955 34.624C26.9052 33.9916 26.3876 33.4915 25.7456 33.2232C25.1092 32.9665 24.3979 32.9671 23.762 33.2249C23.1878 32.8622 22.5499 32.5746 21.8781 32.539C21.2062 32.5034 20.4959 32.7526 20.0818 33.3013C19.9894 33.4461 19.8844 33.5825 19.768 33.709C19.4352 34.0172 18.9294 33.9727 18.4871 33.9097C18.6855 34.0797 18.884 34.2498 19.0825 34.4198C18.8423 34.4826 18.6021 34.5453 18.3619 34.6081C18.6422 34.7781 18.9224 34.948 19.2027 35.118C18.389 35.6064 18.0192 36.6724 18.1169 37.6405C18.2093 38.557 18.6518 39.3952 19.1808 40.1401C19.3918 39.6948 19.3464 39.162 19.3429 38.6604C19.3392 38.1305 19.433 37.5288 19.8576 37.2326C20.1441 37.0328 20.5124 37.0239 20.8578 37.0258C22.6002 37.0353 24.3406 37.144 26.0706 37.3512C26.3053 37.3614 26.5342 37.4277 26.738 37.5448C27.1206 37.8058 27.1951 38.3444 27.2335 38.8169C27.4356 38.0367 27.5346 37.2333 27.5278 36.4274C27.5448 35.8096 27.4316 35.1951 27.1955 34.624Z" fill="#2F2E41"/>
<path d="M26.7692 87.3441C30.5444 87.3441 33.6049 84.2837 33.6049 80.5085C33.6049 76.7333 30.5444 73.6729 26.7692 73.6729C22.994 73.6729 19.9336 76.7333 19.9336 80.5085C19.9336 84.2837 22.994 87.3441 26.7692 87.3441Z" fill="#F0F0F0"/>
<path d="M26.7688 73.521C26.4174 73.521 26.0665 73.5474 25.7191 73.6C25.5414 73.6258 25.3683 73.6592 25.1966 73.7002C23.9355 73.9909 22.78 74.6263 21.859 75.5354C20.938 76.4445 20.2877 77.5916 19.9807 78.8488C19.6736 80.106 19.7219 81.4237 20.1202 82.6551C20.5184 83.8864 21.2509 84.9828 22.236 85.8221C22.353 85.9208 22.4714 86.0165 22.5945 86.1077C23.4813 86.7689 24.5125 87.21 25.6031 87.3948C26.6937 87.5797 27.8127 87.5029 28.8678 87.1707C29.9229 86.8386 30.8841 86.2607 31.6723 85.4845C32.4604 84.7083 33.053 83.7561 33.4012 82.7061C33.7494 81.6562 33.8433 80.5385 33.6752 79.4452C33.507 78.3519 33.0817 77.3141 32.4341 76.4173C31.7865 75.5205 30.9353 74.7903 29.9503 74.2867C28.9654 73.7832 27.875 73.5208 26.7688 73.521ZM26.7688 87.1923C25.3476 87.1938 23.9634 86.7396 22.8193 85.8965C22.6948 85.8054 22.5748 85.7112 22.4578 85.611C21.4981 84.8013 20.7859 83.7376 20.4031 82.5418C20.0203 81.346 19.9822 80.0664 20.2934 78.85C20.6045 77.6335 21.2522 76.5294 22.1622 75.6642C23.0722 74.799 24.2075 74.2079 25.4382 73.9585C25.6082 73.9235 25.7784 73.8962 25.9516 73.8749C26.2227 73.8414 26.4956 73.8246 26.7688 73.8248C28.5414 73.8248 30.2415 74.529 31.4949 75.7824C32.7483 77.0359 33.4525 78.7359 33.4525 80.5085C33.4525 82.2812 32.7483 83.9812 31.4949 85.2346C30.2415 86.4881 28.5414 87.1923 26.7688 87.1923Z" fill="#3F3D56"/>
<path d="M23.427 79.1414H30.1107C30.3624 79.1414 30.5664 78.9373 30.5664 78.6856C30.5664 78.434 30.3624 78.2299 30.1107 78.2299H23.427C23.1753 78.2299 22.9713 78.434 22.9713 78.6856C22.9713 78.9373 23.1753 79.1414 23.427 79.1414Z" fill="#8F53F0"/>
<path d="M23.427 80.9644H30.1107C30.3624 80.9644 30.5664 80.7603 30.5664 80.5086C30.5664 80.257 30.3624 80.0529 30.1107 80.0529H23.427C23.1753 80.0529 22.9713 80.257 22.9713 80.5086C22.9713 80.7603 23.1753 80.9644 23.427 80.9644Z" fill="#8F53F0"/>
<path d="M23.427 82.7871H30.1107C30.3624 82.7871 30.5664 82.5831 30.5664 82.3314C30.5664 82.0797 30.3624 81.8757 30.1107 81.8757H23.427C23.1753 81.8757 22.9713 82.0797 22.9713 82.3314C22.9713 82.5831 23.1753 82.7871 23.427 82.7871Z" fill="#8F53F0"/>
<path d="M27.2059 75.6134C26.9852 75.5793 26.7746 75.4973 26.5891 75.3731C26.4035 75.2488 26.2475 75.0854 26.1319 74.8943C26.0163 74.7032 25.944 74.4892 25.9202 74.2671C25.8963 74.0451 25.9214 73.8205 25.9937 73.6092L21.7178 70.2653L24.3917 69.3669L28.0422 72.6802C28.3891 72.8252 28.6708 73.0924 28.8338 73.4311C28.9969 73.7699 29.03 74.1567 28.9269 74.5183C28.8238 74.8799 28.5917 75.191 28.2745 75.3929C27.9573 75.5947 27.5771 75.6732 27.2059 75.6134Z" fill="#FFB6B6"/>
<path d="M18.6422 48.9888L16.0089 49.0446C15.4924 49.5204 15.0813 50.0993 14.8022 50.7437C14.5232 51.3882 14.3824 52.0841 14.3889 52.7863V65.2286L24.2699 73.4897L27.465 70.3957L20.1104 62.383L18.6422 48.9888Z" fill="#3F3D56"/>
<path d="M136.692 19.3787H38.8877V82.017H136.692V19.3787Z" fill="#E6E6E6"/>
<path d="M133.896 27.2351H41.6846V78.3113H133.896V27.2351Z" fill="white"/>
<path d="M136.65 19.3232H38.8457V23.4783H136.65V19.3232Z" fill="#8F53F0"/>
<path d="M41.9342 22.2177C42.3595 22.2177 42.7043 21.8729 42.7043 21.4476C42.7043 21.0223 42.3595 20.6775 41.9342 20.6775C41.5089 20.6775 41.1641 21.0223 41.1641 21.4476C41.1641 21.8729 41.5089 22.2177 41.9342 22.2177Z" fill="white"/>
<path d="M44.857 22.2177C45.2824 22.2177 45.6271 21.8729 45.6271 21.4476C45.6271 21.0223 45.2824 20.6775 44.857 20.6775C44.4317 20.6775 44.0869 21.0223 44.0869 21.4476C44.0869 21.8729 44.4317 22.2177 44.857 22.2177Z" fill="white"/>
<path d="M47.7799 22.2177C48.2052 22.2177 48.55 21.8729 48.55 21.4476C48.55 21.0223 48.2052 20.6775 47.7799 20.6775C47.3546 20.6775 47.0098 21.0223 47.0098 21.4476C47.0098 21.8729 47.3546 22.2177 47.7799 22.2177Z" fill="white"/>
<path d="M97.5916 32.5347H77.8467V43.6764H97.5916V32.5347Z" fill="#8F53F0"/>
<path d="M97.5916 46.7793H77.8467V58.7673H97.5916V46.7793Z" fill="#E6E6E6"/>
<path d="M125.517 32.5347H101.823V50.1744H125.517V32.5347Z" fill="#E6E6E6"/>
<path d="M125.517 55.3721H101.823V73.0118H125.517V55.3721Z" fill="#8F53F0"/>
<path d="M73.8697 32.5347H50.1758V50.1744H73.8697V32.5347Z" fill="#E6E6E6"/>
<path d="M94.3629 12.0979L87.6133 37.4891L87.9226 37.5713L94.6089 12.4178L94.3629 12.0979Z" fill="#3F3D56"/>
<path d="M113.845 64.041L107.159 89.1946L107.405 89.5145L114.155 64.1232L113.845 64.041Z" fill="#3F3D56"/>
<path d="M73.403 60.8595H50.6176C50.4766 60.8595 50.3414 60.8035 50.2417 60.7037C50.142 60.604 50.0859 60.4688 50.0859 60.3278C50.0859 60.1868 50.142 60.0516 50.2417 59.9519C50.3414 59.8522 50.4766 59.7961 50.6176 59.7961H73.403C73.544 59.7961 73.6793 59.8522 73.779 59.9519C73.8787 60.0516 73.9347 60.1868 73.9347 60.3278C73.9347 60.4688 73.8787 60.604 73.779 60.7037C73.6793 60.8035 73.544 60.8595 73.403 60.8595Z" fill="#E6E6E6"/>
<path d="M73.403 57.8214H50.6176C50.4766 57.8214 50.3414 57.7654 50.2417 57.6657C50.142 57.566 50.0859 57.4307 50.0859 57.2897C50.0859 57.1487 50.142 57.0135 50.2417 56.9138C50.3414 56.8141 50.4766 56.7581 50.6176 56.7581H73.403C73.544 56.7581 73.6793 56.8141 73.779 56.9138C73.8787 57.0135 73.9347 57.1487 73.9347 57.2897C73.9347 57.4307 73.8787 57.566 73.779 57.6657C73.6793 57.7654 73.544 57.8214 73.403 57.8214Z" fill="#E6E6E6"/>
<path d="M73.403 63.8975H50.6176C50.4766 63.8975 50.3414 63.8415 50.2417 63.7418C50.142 63.6421 50.0859 63.5069 50.0859 63.3659C50.0859 63.2249 50.142 63.0897 50.2417 62.9899C50.3414 62.8902 50.4766 62.8342 50.6176 62.8342H73.403C73.544 62.8342 73.6793 62.8902 73.779 62.9899C73.8787 63.0897 73.9347 63.2249 73.9347 63.3659C73.9347 63.5069 73.8787 63.6421 73.779 63.7418C73.6793 63.8415 73.544 63.8975 73.403 63.8975Z" fill="#E6E6E6"/>
<path d="M73.403 66.9356H50.6176C50.4766 66.9356 50.3414 66.8796 50.2417 66.7799C50.142 66.6802 50.0859 66.545 50.0859 66.404C50.0859 66.263 50.142 66.1277 50.2417 66.028C50.3414 65.9283 50.4766 65.8723 50.6176 65.8723H73.403C73.544 65.8723 73.6793 65.9283 73.779 66.028C73.8787 66.1277 73.9347 66.263 73.9347 66.404C73.9347 66.545 73.8787 66.6802 73.779 66.7799C73.6793 66.8796 73.544 66.9356 73.403 66.9356Z" fill="#E6E6E6"/>
<path d="M73.403 69.9737H50.6176C50.4766 69.9737 50.3414 69.9177 50.2417 69.818C50.142 69.7183 50.0859 69.5831 50.0859 69.4421C50.0859 69.3011 50.142 69.1658 50.2417 69.0661C50.3414 68.9664 50.4766 68.9104 50.6176 68.9104H73.403C73.544 68.9104 73.6793 68.9664 73.779 69.0661C73.8787 69.1658 73.9347 69.3011 73.9347 69.4421C73.9347 69.5831 73.8787 69.7183 73.779 69.818C73.6793 69.9177 73.544 69.9737 73.403 69.9737Z" fill="#E6E6E6"/>
<path d="M73.403 73.0118H50.6176C50.4766 73.0118 50.3414 72.9558 50.2417 72.8561C50.142 72.7564 50.0859 72.6212 50.0859 72.4801C50.0859 72.3391 50.142 72.2039 50.2417 72.1042C50.3414 72.0045 50.4766 71.9485 50.6176 71.9485H73.403C73.544 71.9485 73.6793 72.0045 73.779 72.1042C73.8787 72.2039 73.9347 72.3391 73.9347 72.4801C73.9347 72.6212 73.8787 72.7564 73.779 72.8561C73.6793 72.9558 73.544 73.0118 73.403 73.0118Z" fill="#E6E6E6"/>
<path d="M97.1372 63.8975H78.3012C78.1602 63.8975 78.025 63.8415 77.9252 63.7418C77.8255 63.6421 77.7695 63.5069 77.7695 63.3659C77.7695 63.2249 77.8255 63.0897 77.9252 62.9899C78.025 62.8902 78.1602 62.8342 78.3012 62.8342H97.1372C97.2782 62.8342 97.4134 62.8902 97.5131 62.9899C97.6128 63.0897 97.6688 63.2249 97.6688 63.3659C97.6688 63.5069 97.6128 63.6421 97.5131 63.7418C97.4134 63.8415 97.2782 63.8975 97.1372 63.8975Z" fill="#E6E6E6"/>
<path d="M97.1372 66.9356H78.3012C78.1602 66.9356 78.025 66.8796 77.9252 66.7799C77.8255 66.6802 77.7695 66.545 77.7695 66.404C77.7695 66.263 77.8255 66.1277 77.9252 66.028C78.025 65.9283 78.1602 65.8723 78.3012 65.8723H97.1372C97.2782 65.8723 97.4134 65.9283 97.5131 66.028C97.6128 66.1277 97.6688 66.263 97.6688 66.404C97.6688 66.545 97.6128 66.6802 97.5131 66.7799C97.4134 66.8796 97.2782 66.9356 97.1372 66.9356Z" fill="#E6E6E6"/>
<path d="M97.1372 69.9737H78.3012C78.1602 69.9737 78.025 69.9177 77.9252 69.818C77.8255 69.7183 77.7695 69.5831 77.7695 69.4421C77.7695 69.3011 77.8255 69.1658 77.9252 69.0661C78.025 68.9664 78.1602 68.9104 78.3012 68.9104H97.1372C97.2782 68.9104 97.4134 68.9664 97.5131 69.0661C97.6128 69.1658 97.6688 69.3011 97.6688 69.4421C97.6688 69.5831 97.6128 69.7183 97.5131 69.818C97.4134 69.9177 97.2782 69.9737 97.1372 69.9737Z" fill="#E6E6E6"/>
<path d="M97.1372 73.0118H78.3012C78.1602 73.0118 78.025 72.9558 77.9252 72.8561C77.8255 72.7564 77.7695 72.6212 77.7695 72.4801C77.7695 72.3391 77.8255 72.2039 77.9252 72.1042C78.025 72.0045 78.1602 71.9485 78.3012 71.9485H97.1372C97.2782 71.9485 97.4134 72.0045 97.5131 72.1042C97.6128 72.2039 97.6688 72.3391 97.6688 72.4801C97.6688 72.6212 97.6128 72.7564 97.5131 72.8561C97.4134 72.9558 97.2782 73.0118 97.1372 73.0118Z" fill="#E6E6E6"/>
<path d="M94.821 13.8231C98.5962 13.8231 101.657 10.7627 101.657 6.98749C101.657 3.21227 98.5962 0.151855 94.821 0.151855C91.0458 0.151855 87.9854 3.21227 87.9854 6.98749C87.9854 10.7627 91.0458 13.8231 94.821 13.8231Z" fill="#F0F0F0"/>
<path d="M94.8215 1.61964e-07C94.4702 4.20016e-05 94.1193 0.0264454 93.7719 0.0789892C93.5941 0.104813 93.421 0.138224 93.2493 0.179246C91.9883 0.469925 90.8328 1.10527 89.9118 2.01438C88.9908 2.9235 88.3404 4.07064 88.0334 5.32781C87.7264 6.58498 87.7747 7.90274 88.1729 9.13406C88.5711 10.3654 89.3037 11.4618 90.2888 12.3011C90.4057 12.3998 90.5242 12.4955 90.6472 12.5867C91.5341 13.2479 92.5652 13.689 93.6558 13.8739C94.7465 14.0587 95.8654 13.9819 96.9205 13.6497C97.9757 13.3176 98.9369 12.7397 99.725 11.9635C100.513 11.1873 101.106 10.2351 101.454 9.18512C101.802 8.13517 101.896 7.01755 101.728 5.92422C101.56 4.83089 101.134 3.79312 100.487 2.8963C99.8393 1.99949 98.988 1.26927 98.0031 0.765737C97.0181 0.262207 95.9277 -0.000238011 94.8215 1.61964e-07ZM94.8215 13.6713C93.4004 13.6728 92.0161 13.2187 90.8721 12.3755C90.7475 12.2844 90.6275 12.1902 90.5105 12.09C89.5508 11.2803 88.8387 10.2166 88.4558 9.02079C88.073 7.82496 88.035 6.54544 88.3461 5.32898C88.6573 4.11252 89.305 3.00839 90.2149 2.14321C91.1249 1.27804 92.2603 0.686861 93.4909 0.43748C93.661 0.402543 93.8311 0.375199 94.0043 0.353933C94.2754 0.320358 94.5483 0.303618 94.8215 0.303806C96.5942 0.303806 98.2942 1.00798 99.5476 2.26142C100.801 3.51487 101.505 5.2149 101.505 6.98753C101.505 8.76017 100.801 10.4602 99.5476 11.7136C98.2942 12.9671 96.5942 13.6713 94.8215 13.6713Z" fill="#3F3D56"/>
<path d="M91.4797 5.62036L98.1634 5.62036C98.4151 5.62036 98.6191 5.41633 98.6191 5.16465C98.6191 4.91297 98.4151 4.70894 98.1634 4.70894L91.4797 4.70894C91.228 4.70894 91.024 4.91297 91.024 5.16465C91.024 5.41633 91.228 5.62036 91.4797 5.62036Z" fill="#8F53F0"/>
<path d="M91.4797 7.44336L98.1634 7.44336C98.4151 7.44336 98.6191 7.23933 98.6191 6.98765C98.6191 6.73597 98.4151 6.53194 98.1634 6.53194L91.4797 6.53194C91.228 6.53194 91.024 6.73597 91.024 6.98765C91.024 7.23933 91.228 7.44336 91.4797 7.44336Z" fill="#8F53F0"/>
<path d="M91.4797 9.26611H98.1634C98.4151 9.26611 98.6191 9.06209 98.6191 8.8104C98.6191 8.55872 98.4151 8.3547 98.1634 8.3547H91.4797C91.228 8.3547 91.024 8.55872 91.024 8.8104C91.024 9.06209 91.228 9.26611 91.4797 9.26611Z" fill="#8F53F0"/>
<path d="M106.366 102.231C110.141 102.231 113.202 99.1702 113.202 95.395C113.202 91.6197 110.141 88.5593 106.366 88.5593C102.591 88.5593 99.5303 91.6197 99.5303 95.395C99.5303 99.1702 102.591 102.231 106.366 102.231Z" fill="#F0F0F0"/>
<path d="M106.366 88.4075C106.015 88.4075 105.664 88.4339 105.317 88.4865C105.139 88.5123 104.966 88.5457 104.794 88.5867C103.533 88.8774 102.378 89.5127 101.457 90.4219C100.536 91.331 99.8854 92.4781 99.5783 93.7353C99.2713 94.9925 99.3196 96.3102 99.7178 97.5415C100.116 98.7729 100.849 99.8693 101.834 100.709C101.951 100.807 102.069 100.903 102.192 100.994C103.079 101.655 104.11 102.097 105.201 102.281C106.291 102.466 107.41 102.389 108.465 102.057C109.521 101.725 110.482 101.147 111.27 100.371C112.058 99.5948 112.651 98.6425 112.999 97.5926C113.347 96.5426 113.441 95.425 113.273 94.3317C113.105 93.2384 112.679 92.2006 112.032 91.3038C111.384 90.407 110.533 89.6767 109.548 89.1732C108.563 88.6697 107.473 88.4072 106.366 88.4075ZM106.366 102.079C104.945 102.08 103.561 101.626 102.417 100.783C102.292 100.692 102.172 100.598 102.055 100.497C101.096 99.6878 100.384 98.6241 100.001 97.4283C99.6179 96.2324 99.5799 94.9529 99.891 93.7365C100.202 92.52 100.85 91.4159 101.76 90.5507C102.67 89.6855 103.805 89.0943 105.036 88.845C105.206 88.81 105.376 88.7827 105.549 88.7614C105.82 88.7278 106.093 88.7111 106.366 88.7113C108.139 88.7113 109.839 89.4155 111.093 90.6689C112.346 91.9223 113.05 93.6224 113.05 95.395C113.05 97.1676 112.346 98.8677 111.093 100.121C109.839 101.375 108.139 102.079 106.366 102.079Z" fill="#3F3D56"/>
<path d="M103.024 94.0278H109.707C109.959 94.0278 110.163 93.8238 110.163 93.5721C110.163 93.3204 109.959 93.1164 109.707 93.1164H103.024C102.772 93.1164 102.568 93.3204 102.568 93.5721C102.568 93.8238 102.772 94.0278 103.024 94.0278Z" fill="#8F53F0"/>
<path d="M103.024 95.8508H109.707C109.959 95.8508 110.163 95.6468 110.163 95.3951C110.163 95.1434 109.959 94.9394 109.707 94.9394H103.024C102.772 94.9394 102.568 95.1434 102.568 95.3951C102.568 95.6468 102.772 95.8508 103.024 95.8508Z" fill="#8F53F0"/>
<path d="M103.024 97.6736H109.707C109.959 97.6736 110.163 97.4696 110.163 97.2179C110.163 96.9662 109.959 96.7622 109.707 96.7622H103.024C102.772 96.7622 102.568 96.9662 102.568 97.2179C102.568 97.4696 102.772 97.6736 103.024 97.6736Z" fill="#8F53F0"/>
<path d="M52.7844 111.07H0.181322C0.133443 111.07 0.0875743 111.051 0.053768 111.017C0.0199618 110.983 0.000976562 110.937 0.000976562 110.889C0.000976562 110.841 0.0199618 110.795 0.053768 110.761C0.0875743 110.728 0.133443 110.708 0.181322 110.708H52.7844C52.8323 110.708 52.8781 110.728 52.9119 110.761C52.9458 110.795 52.9647 110.841 52.9647 110.889C52.9647 110.937 52.9458 110.983 52.9119 111.017C52.8781 111.051 52.8323 111.07 52.7844 111.07Z" fill="#CACACA"/>
</g>
<defs>
<clipPath id="clip0_4462_37769">
<rect width="136.692" height="111.07" fill="white"/>
</clipPath>
</defs>
</svg>
