<svg width="42" height="23" viewBox="0 0 42 23" fill="none" xmlns="http://www.w3.org/2000/svg">
<path fill-rule="evenodd" clip-rule="evenodd" d="M24.0385 0.0160392C24.685 0.0131961 25.3315 0.0110061 25.9779 0.00969401L26.2068 0.00921359L26.2528 0.00911482C26.4989 0.0085739 26.7449 0.00759406 26.991 0.00645247C27.2434 0.00529115 27.4958 0.00460044 27.7482 0.00434809C27.904 0.00417745 28.0598 0.00363821 28.2156 0.00262987C28.3224 0.00197388 28.4292 0.00177435 28.5359 0.00193591C28.5976 0.00201563 28.6592 0.00189205 28.7209 0.00122714C28.7773 0.000622823 28.8337 0.000591575 28.8901 0.00101672C28.9202 0.00109417 28.9503 0.000557799 28.9804 0C29.0631 0.00114312 29.0924 0.00154716 29.1163 0.0129988C29.1294 0.019253 29.1409 0.0288025 29.1587 0.0435673L29.1588 0.0435978L29.1588 0.0436092C29.1973 0.0931661 29.211 0.110821 29.2159 0.130654C29.2186 0.14163 29.2186 0.153273 29.2186 0.17136H29.2496C29.2934 0.230658 29.3063 0.248124 29.3101 0.267382C29.3117 0.275423 29.3117 0.283776 29.3117 0.295617H29.3427C29.3652 0.325186 29.3863 0.355799 29.4067 0.386868L29.4407 0.438197C29.4567 0.465081 29.4629 0.475466 29.4653 0.486659C29.4668 0.493703 29.4668 0.501067 29.4668 0.513066H29.4978C29.5083 0.52635 29.5141 0.53365 29.5196 0.541178C29.5262 0.550342 29.5324 0.559844 29.5462 0.580892L29.5462 0.580939L29.5463 0.581019L29.5716 0.619242C29.5822 0.637783 29.587 0.646097 29.5891 0.655039C29.5908 0.662307 29.5908 0.66999 29.5908 0.683919H29.6219C29.6294 0.693107 29.6336 0.698282 29.6376 0.703666C29.6427 0.7106 29.6473 0.717882 29.6578 0.734533L29.6578 0.73458L29.679 0.767582L29.7013 0.803322L29.7242 0.839395C29.7471 0.875514 29.7698 0.911733 29.7925 0.947964L29.8313 1.00936C29.8998 1.11865 29.9133 1.1401 29.9159 1.1628C29.9165 1.16834 29.9165 1.17396 29.9165 1.18095H29.9476C29.9665 1.20999 29.984 1.23994 30.0009 1.27026L30.0009 1.27028C30.0197 1.30425 30.0291 1.32121 30.0394 1.33764C30.0496 1.35401 30.0607 1.36986 30.0828 1.40148L30.0828 1.40155C30.0914 1.41355 30.0962 1.42039 30.099 1.42799C30.1026 1.43807 30.1026 1.44949 30.1026 1.47606H30.1337L30.1337 1.47612C30.1424 1.4882 30.1473 1.49506 30.152 1.50212C30.158 1.51136 30.1636 1.52094 30.1763 1.54304L30.2013 1.58605C30.2336 1.64371 30.2652 1.70179 30.2965 1.76C30.3189 1.80059 30.3423 1.84028 30.3663 1.87989C30.4539 2.02465 30.5311 2.17532 30.6082 2.3259L30.6319 2.37206L30.6494 2.40604C30.8426 2.78247 30.9065 2.90695 30.9653 3.03375C30.9944 3.0964 31.0223 3.15961 31.064 3.25406C31.0876 3.30745 31.112 3.3603 31.1372 3.41297C31.1911 3.52591 31.238 3.64081 31.2838 3.75726C31.3104 3.82483 31.3377 3.89153 31.3686 3.95731C31.4043 4.03381 31.4337 4.1123 31.4628 4.19147C31.4886 4.26153 31.5158 4.33084 31.544 4.39997C31.5944 4.52465 31.6385 4.65123 31.682 4.77841C31.6994 4.82879 31.7169 4.8791 31.7345 4.9294C31.8409 5.23434 31.9401 5.53978 32.0268 5.85094C32.0402 5.89857 32.0539 5.94606 32.0678 5.99353C32.1106 6.13988 32.1492 6.28659 32.1837 6.43516C32.204 6.52287 32.2262 6.60986 32.2497 6.69678C32.3335 7.01147 32.3955 7.33035 32.4531 7.65069L32.4596 7.68691L32.4724 7.75814C32.4856 7.83128 32.5 7.90407 32.5151 7.97684C32.5412 8.10601 32.559 8.23592 32.5764 8.36648L32.5917 8.47929L32.6016 8.55293C32.61 8.61482 32.6187 8.67662 32.6283 8.73834C32.7464 9.49796 32.7733 10.2703 32.7723 11.0377C32.7722 11.1075 32.7722 11.1772 32.7723 11.247C32.7728 11.6909 32.7634 12.1321 32.7266 12.5747L32.7225 12.6249C32.6983 12.9219 32.6686 13.2179 32.6307 13.5134L32.6237 13.5687C32.5811 13.8992 32.5208 14.2266 32.4601 14.5541L32.4491 14.6135C32.3876 14.9448 32.3227 15.2765 32.2375 15.6026C32.2246 15.6523 32.212 15.7021 32.1993 15.7519C32.1437 15.9703 32.0872 16.1884 32.0234 16.4046L31.9952 16.5008C31.9157 16.7743 31.8288 17.0439 31.7341 17.3126L31.7103 17.3811L31.681 17.4665C31.6348 17.6014 31.5886 17.7354 31.5318 17.8663C31.5052 17.9301 31.4831 17.9953 31.461 18.0607L31.4583 18.0688C31.4404 18.116 31.4211 18.161 31.4 18.2067C31.3575 18.299 31.3203 18.393 31.2833 18.4876C31.2159 18.6581 31.1435 18.8241 31.0604 18.9875C31.0463 19.015 31.0392 19.0287 31.0332 19.0428C31.0272 19.057 31.0222 19.0716 31.0122 19.1008C30.9879 19.1668 30.9565 19.227 30.9227 19.2884C30.871 19.3842 30.823 19.4809 30.7773 19.5797C30.729 19.6838 30.6766 19.7841 30.6194 19.8835C30.5559 19.9943 30.4999 20.1086 30.4439 20.2233L30.4128 20.2854H30.3818L30.3767 20.312C30.3647 20.3531 30.3465 20.3832 30.3237 20.4194C30.276 20.4968 30.235 20.5763 30.1957 20.6582H30.1647L30.1596 20.6846C30.1475 20.7262 30.1292 20.7572 30.1063 20.7939L30.0799 20.8364L30.0522 20.8805L30.0253 20.924C29.9862 20.9867 29.9468 21.0486 29.9032 21.1083C29.8849 21.1317 29.8762 21.1428 29.87 21.1551C29.8645 21.1663 29.8611 21.1785 29.8545 21.2018L29.8545 21.2018H29.8235L29.8114 21.2435C29.7923 21.2954 29.7708 21.3292 29.7372 21.3727C29.6784 21.4507 29.6257 21.5312 29.5749 21.6147C29.5603 21.638 29.5446 21.6608 29.5288 21.6833H29.4978L29.4842 21.7192L29.4842 21.7193C29.4764 21.7379 29.4721 21.7482 29.4669 21.7581C29.4606 21.7703 29.4529 21.7818 29.4357 21.8076H29.4047L29.3923 21.8419C29.3657 21.9039 29.3261 21.9565 29.2859 22.0099L29.2651 22.0376L29.235 22.0792L29.206 22.1185L29.1795 22.1545L29.1566 22.1803H29.1256L29.1101 22.2269H24.0385C24.0616 22.1806 24.0706 22.1627 24.0832 22.1481C24.0912 22.1389 24.1007 22.131 24.116 22.1182H24.1471V22.0871H24.1781V22.0561H24.2091V22.025H24.2401V21.9939H24.2711V21.9629H24.3022L24.3141 21.9355C24.3352 21.897 24.3586 21.8727 24.3904 21.8425C24.4525 21.7818 24.5096 21.7184 24.5658 21.6522L24.5869 21.6276L24.6569 21.5455L24.6799 21.5185L24.6799 21.5185L24.6799 21.5185C24.7 21.4951 24.7101 21.4834 24.7191 21.471C24.7281 21.4586 24.736 21.4454 24.7519 21.4193H24.7829L24.7946 21.3853C24.8159 21.3373 24.8407 21.3026 24.876 21.2639H24.907L24.9206 21.228C24.9284 21.2093 24.9327 21.199 24.9379 21.1891C24.9443 21.177 24.9519 21.1654 24.969 21.1397L24.9691 21.1397H25.0001L25.0136 21.1038C25.0215 21.0851 25.0258 21.0748 25.0309 21.0649C25.0373 21.0527 25.045 21.0412 25.0621 21.0154H25.0931L25.1048 20.9824C25.1268 20.9316 25.1532 20.889 25.1862 20.8446H25.2172L25.2482 20.7514H25.2792L25.3103 20.6582H25.3413L25.351 20.6203C25.3779 20.5504 25.4176 20.4936 25.4601 20.4328L25.4654 20.4252C25.5244 20.3397 25.5772 20.2532 25.6261 20.1615C25.6546 20.1087 25.6845 20.0568 25.7145 20.0049C25.764 19.9188 25.8102 19.8314 25.8531 19.7418H25.8841L25.8901 19.7146C25.8996 19.6799 25.9119 19.6502 25.9273 19.6178L25.9443 19.5819L25.9626 19.5438L25.9814 19.5043C26.0315 19.3997 26.0828 19.2957 26.135 19.1922L26.1489 19.1646L26.1797 19.1037C26.2062 19.0511 26.2317 18.9991 26.2525 18.9438C26.2818 18.8686 26.3144 18.7951 26.3475 18.7215C26.3986 18.6073 26.4463 18.4922 26.492 18.3756C26.5057 18.3407 26.5198 18.306 26.534 18.2713C26.5936 18.1244 26.6498 17.977 26.7007 17.8268C26.7188 17.7738 26.7372 17.7224 26.7598 17.6711C26.7907 17.5969 26.8134 17.5208 26.8363 17.4439L26.8363 17.4439L26.8418 17.4256C26.8803 17.2983 26.92 17.1718 26.963 17.046C27.0182 16.8828 27.0645 16.7175 27.1097 16.5512C27.1233 16.5013 27.1371 16.4515 27.1509 16.4017C27.2141 16.1743 27.2756 15.947 27.3254 15.7163C27.3373 15.6611 27.3506 15.6064 27.3645 15.5518C27.39 15.4504 27.4123 15.3485 27.4341 15.2462L27.4463 15.1888C27.498 14.9445 27.5443 14.6994 27.5839 14.4528C27.5907 14.4108 27.5977 14.3689 27.6046 14.3269C27.6972 13.7646 27.765 13.1965 27.8073 12.6281L27.8113 12.575C27.872 11.7486 27.8789 10.9086 27.8383 10.0808L27.8355 10.0238C27.8043 9.4186 27.7362 8.81684 27.6522 8.21698L27.6469 8.17956C27.5812 7.71041 27.4938 7.24782 27.3869 6.78638C27.3727 6.72472 27.3589 6.66299 27.3453 6.60122C27.272 6.27054 27.1907 5.94414 27.0906 5.62051C27.0618 5.52722 27.0346 5.43348 27.0076 5.33966C26.9437 5.11892 26.8747 4.90001 26.8015 4.68222C26.79 4.64814 26.7788 4.61401 26.7678 4.5798C26.7376 4.48653 26.7031 4.39654 26.6648 4.30635C26.6424 4.25226 26.6217 4.19763 26.6014 4.14272C26.5619 4.03624 26.5214 3.93018 26.4803 3.82431L26.4632 3.77997C26.4287 3.69169 26.3916 3.60518 26.352 3.51912C26.3277 3.4662 26.3046 3.41278 26.2815 3.35932C26.2333 3.24824 26.1828 3.13835 26.1311 3.02882C26.1158 2.99624 26.1007 2.96358 26.0856 2.93091C26.0277 2.80587 25.9676 2.68327 25.8996 2.5633L25.8661 2.50366L25.8115 2.4066C25.7777 2.3465 25.7443 2.28618 25.7116 2.22548C25.4942 1.82447 25.2437 1.43925 24.9641 1.07908L24.942 1.05063C24.926 1.03005 24.9098 1.00959 24.8936 0.989161C24.8848 0.976321 24.8804 0.969905 24.8782 0.96281C24.876 0.955722 24.876 0.947956 24.876 0.932432H24.845C24.8344 0.920615 24.8286 0.91415 24.8231 0.907445C24.8165 0.899347 24.8102 0.890898 24.7965 0.872246L24.7712 0.83839C24.7609 0.822284 24.7561 0.814763 24.7539 0.806546C24.7519 0.799349 24.7519 0.791616 24.7519 0.777112H24.7209L24.7209 0.777097L24.7209 0.77706L24.7207 0.776878C24.7113 0.766119 24.706 0.759991 24.7009 0.753675C24.6942 0.745384 24.6879 0.736769 24.6734 0.716925C24.6109 0.634272 24.543 0.55816 24.4728 0.482002L24.4488 0.455898C24.3368 0.333914 24.2229 0.214427 24.1047 0.0984169C24.0824 0.0763998 24.0604 0.0540228 24.0385 0.0315713V0.0160392ZM18.4706 0.0160567H23.5422V22.2269H18.4706V0.0160567ZM12.9744 0.00648984L12.9277 0.00640048C12.8583 0.0229987 12.8335 0.0752294 12.8059 0.13739L12.7943 0.171367H12.7633L12.7633 0.171386L12.7632 0.171429C12.7461 0.197132 12.7385 0.208644 12.7321 0.220831C12.7269 0.230694 12.7226 0.240999 12.7149 0.259628L12.7148 0.259696L12.7148 0.259705L12.7013 0.295623H12.6702L12.6479 0.323472L12.6237 0.360664C12.5979 0.399546 12.577 0.435899 12.5588 0.478914L12.5462 0.513073H12.5151C12.4821 0.557477 12.4558 0.600128 12.4337 0.65092L12.4221 0.683926H12.3911C12.3744 0.706157 12.358 0.728584 12.3426 0.751765L12.3232 0.781972C12.2454 0.900877 12.1694 1.02088 12.094 1.14133C12.0727 1.17552 12.0513 1.2097 12.0298 1.24379L11.9935 1.30144L11.9772 1.32754L11.9755 1.33024C11.9503 1.37024 11.9285 1.40489 11.9148 1.4504L11.9103 1.47606H11.8793L11.6311 1.91096L11.63 1.91292C11.6097 1.94854 11.5895 1.98415 11.5691 2.01969C11.4733 2.18269 11.3871 2.34918 11.3033 2.5186L11.261 2.60397L11.1779 2.77137C11.1523 2.82294 11.1268 2.87451 11.101 2.92597L11.0834 2.96093L11.0505 3.02642C11.0057 3.11497 10.965 3.20486 10.9259 3.29602C10.8999 3.35677 10.8727 3.41681 10.8444 3.47653C10.8057 3.55807 10.7693 3.63979 10.7374 3.72433C10.72 3.77112 10.7025 3.8172 10.6818 3.86266C10.6438 3.94299 10.6111 4.02369 10.5823 4.10778C10.5476 4.20932 10.5094 4.30908 10.4696 4.40873C10.3917 4.60397 10.3206 4.80018 10.2557 5.00015C10.2337 5.06808 10.2113 5.13585 10.1884 5.20346C10.0707 5.5502 9.96353 5.89841 9.87564 6.25412L9.86849 6.28349L9.86849 6.28353C9.85116 6.35478 9.83385 6.42599 9.81342 6.49645C9.44161 7.76919 9.28446 9.1455 9.24078 10.467L9.23879 10.5284C9.2271 10.8889 9.22458 11.2473 9.23667 11.6079C9.2387 11.6668 9.24071 11.7258 9.24258 11.7848C9.36303 13.7193 9.58766 15.0717 9.97621 16.3598C9.98814 16.3993 9.99987 16.4389 10.0107 16.4787C10.0571 16.6512 10.1092 16.8204 10.1679 16.989L10.2071 17.1022L10.2328 17.1768C10.2641 17.2668 10.2947 17.3571 10.3244 17.4477C10.3464 17.5151 10.3704 17.5806 10.3981 17.6459C10.4188 17.6941 10.4383 17.7422 10.4563 17.7915C10.4864 17.8775 10.5167 17.9629 10.5522 18.0469C10.5787 18.109 10.6033 18.1715 10.6266 18.2348C10.657 18.3174 10.6877 18.399 10.7248 18.4788C10.7455 18.523 10.7647 18.5669 10.7825 18.6123L10.793 18.6406C10.8161 18.7026 10.8391 18.7644 10.8692 18.8235C10.8936 18.8704 10.9166 18.9178 10.9389 18.9657L10.9526 18.9953L10.9558 19.0021L10.956 19.0026C10.9792 19.0524 11.0023 19.1022 11.0253 19.1522C11.0843 19.2807 11.1459 19.4072 11.2124 19.5321C11.2571 19.616 11.3003 19.7001 11.3402 19.7864C11.3779 19.8685 11.4151 19.9491 11.4624 20.0262C11.5078 20.0984 11.5455 20.1736 11.583 20.2501L11.6001 20.2854H11.6311C11.6311 20.3113 11.6311 20.3228 11.634 20.3335C11.6364 20.3421 11.6406 20.3501 11.6482 20.3645C11.7023 20.4501 11.7521 20.5372 11.8001 20.6263L11.8172 20.6582H11.8482C11.8482 20.6811 11.8482 20.6928 11.8511 20.7037C11.8541 20.7149 11.86 20.7253 11.8722 20.7465L11.9251 20.8264L11.9449 20.8566C11.9833 20.9151 12.0207 20.9742 12.0579 21.0335C12.1163 21.1268 12.1749 21.2199 12.236 21.3115C12.2645 21.3538 12.293 21.396 12.3208 21.4387L12.3459 21.4772L12.3969 21.5552L12.4215 21.5934L12.4447 21.6287C12.4564 21.6467 12.4615 21.6545 12.4671 21.662C12.4714 21.6678 12.476 21.6734 12.4841 21.6833H12.5151C12.5151 21.6951 12.5151 21.7035 12.5167 21.7115C12.5205 21.7308 12.5334 21.7483 12.5772 21.8076H12.6082C12.6082 21.8228 12.6082 21.8306 12.6102 21.8378C12.6123 21.8452 12.6166 21.8521 12.6252 21.8661L12.649 21.899L12.6753 21.9354L12.7032 21.9736L12.7406 22.0254L12.7807 22.0807L12.8098 22.1182C12.8282 22.1492 12.847 22.1759 12.8707 22.2032C12.8872 22.2154 12.8982 22.2235 12.9103 22.2289C12.9343 22.2396 12.9628 22.2399 13.0476 22.241C13.0776 22.2405 13.1076 22.24 13.1376 22.2401C13.1939 22.2404 13.2501 22.2404 13.3064 22.2399C13.3678 22.2393 13.4293 22.2392 13.4907 22.2393C13.5972 22.2394 13.7036 22.2392 13.8101 22.2387C13.9654 22.2378 14.1207 22.2373 14.276 22.2372C14.5277 22.2369 14.7793 22.2363 15.0309 22.2353C15.2762 22.2343 15.5215 22.2335 15.7668 22.233L15.8127 22.2329L16.0409 22.2325C16.6854 22.2313 17.3299 22.2294 17.9744 22.2269V22.1959C17.9498 22.1663 17.9279 22.1493 17.894 22.1308L17.8659 22.1182V22.0871H17.8348V22.0561H17.8038V22.025H17.7728V21.9939H17.7418V21.9629H17.7108L17.7108 21.9629C17.7017 21.9358 17.698 21.9244 17.692 21.9144C17.6877 21.9072 17.6823 21.9007 17.6729 21.8895L17.6444 21.86L17.6127 21.8269C17.5261 21.7374 17.4413 21.6479 17.3637 21.5503C17.3457 21.5268 17.3272 21.5036 17.3075 21.4814H17.2765C17.2765 21.4702 17.2765 21.4626 17.275 21.4553C17.2716 21.4397 17.2612 21.4256 17.2284 21.3814L17.2284 21.3813L17.2087 21.3552C17.1856 21.3236 17.1622 21.2939 17.1369 21.2639H17.1059C17.1059 21.2521 17.1059 21.2437 17.1043 21.2357C17.1005 21.2164 17.0876 21.199 17.0439 21.1397H17.0128C17.0128 21.1278 17.0128 21.1195 17.0113 21.1115C17.0075 21.0922 16.9946 21.0747 16.9508 21.0154H16.9198C16.9198 21.0015 16.9198 20.9938 16.9181 20.9865C16.9159 20.9776 16.9111 20.9693 16.9005 20.9508L16.8752 20.9125L16.8751 20.9124C16.8614 20.8913 16.8552 20.8818 16.8485 20.8727C16.8431 20.8652 16.8373 20.8579 16.8267 20.8446H16.7957L16.7647 20.7514H16.7337L16.7027 20.6582H16.6716L16.6406 20.565H16.6096C16.6096 20.5496 16.6096 20.5418 16.6078 20.5345C16.606 20.5271 16.6023 20.5201 16.595 20.5061L16.5743 20.4722L16.5513 20.4342L16.5007 20.351L16.4748 20.3081C16.3699 20.1348 16.2669 19.9623 16.1781 19.7801L16.1598 19.7418H16.1288C16.1288 19.7166 16.1288 19.705 16.1264 19.694C16.1243 19.6846 16.1205 19.6757 16.1134 19.6592L16.1134 19.6592L16.091 19.6156C16.0676 19.5698 16.044 19.5241 16.0196 19.4788C15.9415 19.334 15.869 19.1886 15.8036 19.0376C15.7877 19.0008 15.7716 18.9641 15.7551 18.9276C15.6723 18.7462 15.5941 18.5637 15.5216 18.3779L15.5084 18.3439C15.4784 18.2669 15.4487 18.1898 15.4199 18.1124L15.3964 18.0491L15.3844 18.0168C15.3635 17.9605 15.3426 17.9046 15.3191 17.8494C15.2234 17.6305 15.1534 17.3995 15.0875 17.1701C15.0658 17.0944 15.0432 17.019 15.0202 16.9437C14.887 16.5086 14.763 16.0717 14.6645 15.6272C14.6525 15.5732 14.6405 15.5194 14.6271 15.4657C14.577 15.2734 14.5409 15.0779 14.5071 14.8822C14.497 14.8229 14.4865 14.7638 14.4738 14.7049C14.4363 14.539 14.41 14.3717 14.3843 14.2036L14.3763 14.1502C14.2788 13.5062 14.2109 12.8543 14.1774 12.2037L14.1746 12.1466C14.134 11.3189 14.1409 10.4789 14.2017 9.65248L14.2057 9.59934C14.2515 8.9836 14.3185 8.36298 14.4324 7.75594C14.4463 7.68286 14.4597 7.60972 14.4729 7.53651C14.5499 7.10617 14.6401 6.68078 14.7487 6.25718L14.764 6.19782C14.8297 5.94237 14.8957 5.68725 14.9742 5.43537C14.9951 5.36848 15.0155 5.3016 15.0341 5.23404C15.0763 5.08022 15.1234 4.92861 15.1752 4.77777L15.1857 4.74751L15.1902 4.73415C15.2131 4.66786 15.2359 4.60159 15.2603 4.53588C15.2835 4.48218 15.3061 4.42928 15.3251 4.3739C15.3637 4.25287 15.4062 4.13431 15.4536 4.01641L15.4894 3.92739C15.5283 3.8297 15.5679 3.73246 15.6116 3.63678C15.634 3.58826 15.6558 3.5397 15.6762 3.49032C15.7927 3.20648 15.9179 2.92557 16.0644 2.65583C16.088 2.6126 16.1112 2.56921 16.1341 2.52563L16.2058 2.38997L16.2374 2.33033C16.4644 1.89788 16.7327 1.4596 17.0458 1.08388C17.0797 1.04486 17.1042 1.01397 17.1252 0.966658L17.1369 0.932439H17.1679L17.1936 0.900647L17.2222 0.858662C17.2488 0.820119 17.2737 0.782448 17.2954 0.740957L17.3075 0.71499H17.3385C17.3454 0.699816 17.3492 0.691441 17.3541 0.683829C17.3602 0.674451 17.3681 0.666232 17.3857 0.647886L17.413 0.618263C17.4538 0.574084 17.4946 0.529909 17.5339 0.484333C17.5922 0.416476 17.6529 0.352285 17.7164 0.289344L17.7848 0.222119L17.8184 0.18878C17.8484 0.159281 17.8774 0.129386 17.905 0.097607L17.93 0.068245L17.9744 0.0160458C17.3426 0.0143109 16.7107 0.0129429 16.0788 0.0121376L15.8504 0.0118416L15.8044 0.0117798C15.5581 0.0114496 15.3118 0.0108998 15.0655 0.0101871C14.8119 0.00945277 14.5584 0.00893577 14.3049 0.00876574C14.1486 0.00866811 13.9923 0.00846548 13.836 0.00783474C13.7279 0.00739822 13.6199 0.00715424 13.5118 0.00719499L13.4916 0.00721528C13.436 0.00727312 13.3803 0.00733096 13.3246 0.00703208C13.2668 0.00664304 13.2089 0.00633177 13.1511 0.00650569L13.0879 0.00670677L13.0285 0.00602128L12.9744 0.00648984ZM29.6219 0.0160121C30.4244 0.0145908 31.227 0.0134957 32.0296 0.0128395L32.3137 0.0125993L32.3708 0.0125499C32.6763 0.0122794 32.9817 0.0117895 33.2872 0.0112187C33.6005 0.0106382 33.9139 0.0102928 34.2272 0.0101666C34.4206 0.0100812 34.614 0.00981141 34.8074 0.00930745C34.94 0.00897965 35.0725 0.00887965 35.2051 0.00896047C35.2816 0.00900036 35.3581 0.00893819 35.4347 0.00860608C35.5047 0.00830438 35.5747 0.00828807 35.6447 0.00850087C35.6701 0.00852719 35.6955 0.00844783 35.7208 0.00825334C35.7553 0.00800455 35.7897 0.00813802 35.8241 0.00836737L35.8821 0.00829588C35.9445 0.017539 35.9788 0.0384133 36.0272 0.0781405V0.109205L36.0604 0.120854C36.1105 0.14277 36.1507 0.170169 36.1949 0.202397L36.2408 0.235403L36.2754 0.264526V0.29559L36.3093 0.307239C36.3572 0.32856 36.3918 0.353424 36.4305 0.388782V0.419846L36.508 0.450911V0.481975H36.539V0.513039L36.5652 0.524749C36.6073 0.547466 36.6416 0.574933 36.6786 0.605261C36.7065 0.628043 36.7204 0.639431 36.7346 0.650484C36.7487 0.661531 36.7632 0.672243 36.792 0.69366L36.8182 0.714956V0.74602L36.8428 0.755728C36.8917 0.783643 36.9302 0.820599 36.9703 0.859106L36.982 0.870277L37.0354 0.920756L37.059 0.943326L37.0591 0.943353C37.0693 0.95279 37.0755 0.958435 37.082 0.96361C37.0917 0.97131 37.1022 0.977972 37.1284 0.994534V1.0256H37.1594C37.1775 1.04745 37.1955 1.06937 37.2132 1.09154C37.2379 1.11989 37.2639 1.14322 37.2926 1.16745C37.3677 1.23248 37.4381 1.30186 37.5084 1.37216L37.547 1.41029L37.5835 1.44672L37.6165 1.47963C37.6292 1.4943 37.6351 1.50114 37.6378 1.50906C37.6402 1.51596 37.6402 1.52369 37.6402 1.53816H37.6712V1.56922H37.7022V1.60029H37.7332V1.63135H37.7643V1.66241H37.7953C37.8036 1.67046 37.8084 1.67509 37.813 1.67994C37.8193 1.68653 37.8251 1.69351 37.8389 1.70998C37.8773 1.7554 37.9159 1.80055 37.9553 1.84516L38.0105 1.90801L38.0379 1.93899L38.0637 1.9685L38.0869 1.99495C38.0941 2.00455 38.0985 2.01042 38.1021 2.01675C38.1078 2.0267 38.1115 2.03777 38.121 2.06625H38.152L38.1521 2.06633C38.1627 2.07662 38.1685 2.08224 38.174 2.0881C38.1806 2.09512 38.1868 2.10249 38.2005 2.11867L38.2258 2.14816C38.2357 2.16194 38.2405 2.16864 38.2428 2.17611C38.2451 2.18318 38.2451 2.19094 38.2451 2.20604H38.2761C38.2896 2.22083 38.2971 2.22897 38.3043 2.23735C38.3131 2.24759 38.3215 2.25819 38.34 2.28176L38.3741 2.32435C38.3893 2.34601 38.3957 2.355 38.3983 2.36495C38.4001 2.372 38.4001 2.37954 38.4001 2.39242H38.4312C38.4418 2.40424 38.4476 2.4107 38.4531 2.41741C38.4597 2.42549 38.4659 2.43392 38.4795 2.4525L38.4796 2.45261L38.505 2.48646C38.5152 2.50257 38.52 2.51009 38.5223 2.51831C38.5242 2.52551 38.5242 2.53324 38.5242 2.54774H38.5552L38.5553 2.54778C38.5645 2.55826 38.5697 2.56419 38.5747 2.57032C38.5811 2.57829 38.5871 2.58662 38.6009 2.60575L38.6281 2.64324L38.657 2.68365L38.7158 2.76489L38.7449 2.8052C38.7918 2.8696 38.8404 2.93269 38.8891 2.99581C38.9019 3.01456 38.9075 3.02279 38.91 3.03188C38.912 3.03901 38.912 3.04666 38.912 3.0603H38.943C38.9867 3.1196 38.9996 3.13707 39.0034 3.15632C39.005 3.16436 39.005 3.17272 39.005 3.18456H39.036L39.067 3.27775H39.0981C39.1235 3.3124 39.147 3.34703 39.1702 3.3832L39.1915 3.41596C39.2141 3.45072 39.2365 3.48558 39.259 3.52044L39.304 3.58991C39.3381 3.64231 39.372 3.69476 39.4058 3.74734C39.4177 3.76547 39.4298 3.78343 39.4423 3.80118C39.4858 3.86333 39.4858 3.86333 39.4858 3.91457H39.5168L39.5424 3.96128C39.6017 4.06847 39.662 4.17417 39.7291 4.27666C39.7874 4.3659 39.8395 4.45701 39.889 4.55138L39.9334 4.63362C40.0347 4.82243 40.1298 5.01413 40.2194 5.20885C40.246 5.26634 40.2749 5.32033 40.3078 5.37458C40.3183 5.40304 40.3288 5.43151 40.3391 5.46007C40.357 5.50554 40.3779 5.54906 40.399 5.59307L40.4008 5.59689C40.4676 5.73687 40.5252 5.88092 40.5827 6.02494L40.6156 6.10706C40.6298 6.14209 40.6443 6.17692 40.6593 6.21162C40.9514 6.89242 41.1613 7.64993 41.2905 8.37864C41.3003 8.43401 41.3114 8.48902 41.3227 8.5441C41.4046 8.9543 41.4644 9.36904 41.502 9.7857L41.506 9.82948C41.5103 9.87765 41.5144 9.92583 41.5185 9.97402L41.5222 10.0168C41.5499 10.36 41.5511 10.704 41.5506 11.0481C41.5505 11.1092 41.5505 11.1703 41.5506 11.2315C41.5511 11.6217 41.5427 12.0093 41.5049 12.398L41.5008 12.4411C41.454 12.9325 41.3829 13.4186 41.2793 13.9013C41.2692 13.9491 41.2595 13.9969 41.2499 14.0448C41.2173 14.2072 41.1816 14.3674 41.1354 14.5266C41.1196 14.5811 41.1049 14.6358 41.0907 14.6907C41.0253 14.9421 40.9483 15.1884 40.8671 15.4349C40.8525 15.4801 40.8389 15.5254 40.8257 15.5709C40.8074 15.6329 40.7835 15.6907 40.7576 15.75C40.7409 15.7957 40.7252 15.8417 40.7096 15.8877L40.7094 15.8881L40.7052 15.9005C40.6463 16.0709 40.5777 16.2341 40.5014 16.3974C40.4708 16.4659 40.4447 16.5358 40.4191 16.6062C40.4008 16.6509 40.4008 16.6509 40.3783 16.6878C40.3528 16.7311 40.337 16.7737 40.32 16.8208C40.301 16.8705 40.277 16.9171 40.2526 16.9643L40.2526 16.9644L40.2516 16.9664C40.2098 17.0485 40.1695 17.1311 40.1307 17.2146C40.079 17.3258 40.0252 17.4329 39.9616 17.5379C39.9324 17.5883 39.9067 17.6401 39.8813 17.6925C39.8398 17.7771 39.7935 17.8558 39.7419 17.9345C39.7149 17.9766 39.6927 18.0189 39.6719 18.0643H39.6409L39.636 18.0895C39.6228 18.1355 39.6018 18.1756 39.5798 18.2179L39.5798 18.2179L39.5789 18.2196H39.5478L39.5437 18.2447C39.5295 18.2911 39.5062 18.3278 39.4806 18.3682L39.4751 18.3769L39.4414 18.4306L39.4244 18.4575C39.3952 18.5047 39.3678 18.5529 39.3404 18.6012L39.3342 18.6121L39.3152 18.639H39.2842L39.2532 18.7322H39.2221L39.1911 18.8254H39.1601L39.149 18.8577C39.125 18.9123 39.0928 18.9587 39.0583 19.0069C39.0128 19.0694 39.0128 19.0694 38.974 19.136H38.943L38.9294 19.1719C38.9216 19.1906 38.9173 19.2009 38.9121 19.2108C38.9084 19.2178 38.9044 19.2246 38.8983 19.234C38.8938 19.241 38.8882 19.2493 38.8809 19.2603H38.8499L38.8402 19.2913C38.8113 19.3546 38.7727 19.4107 38.7258 19.4622H38.6948L38.6842 19.4942C38.659 19.5507 38.6277 19.6024 38.5863 19.6486H38.5552L38.5436 19.6738C38.5195 19.7197 38.4927 19.7619 38.4622 19.8039H38.4312L38.4186 19.8308C38.3995 19.8672 38.378 19.899 38.3536 19.932L38.3294 19.9653L38.3071 19.9903H38.2761L38.2625 20.0184C38.2554 20.0322 38.2512 20.0404 38.2466 20.0484C38.2399 20.0601 38.2325 20.0713 38.2141 20.099L38.214 20.099H38.183L38.1729 20.1241C38.1459 20.1719 38.1099 20.2098 38.0725 20.2491L38.0725 20.2492L38.0657 20.2563C38.0375 20.2847 38.0234 20.2988 38.0109 20.3142C37.9985 20.3294 37.9876 20.3458 37.9659 20.3786H37.9349L37.9223 20.4058C37.9034 20.4416 37.8836 20.4721 37.8573 20.5028H37.8263V20.5339H37.7953V20.565H37.7643L37.7522 20.5923C37.7314 20.6305 37.7082 20.6561 37.6775 20.6869L37.643 20.7218L37.6058 20.7589L37.5675 20.7973L37.4874 20.8773C37.4647 20.9 37.442 20.9227 37.4193 20.9455C37.4011 20.9638 37.3828 20.9822 37.3646 21.0005L37.2869 21.0783L37.2496 21.1158L37.2151 21.15L37.1847 21.1804C37.1594 21.2018 37.1594 21.2018 37.1284 21.2018V21.2328H37.0974V21.2639H37.0663V21.295C37.0436 21.318 37.0436 21.318 37.0121 21.3444L37.0121 21.3445C36.9551 21.3928 36.8993 21.4422 36.844 21.4925L36.844 21.4925C36.8308 21.5027 36.8243 21.5077 36.8171 21.5101C36.8101 21.5124 36.8023 21.5124 36.7872 21.5124V21.5435H36.7562V21.5746C36.7212 21.605 36.6862 21.6336 36.6495 21.6619L36.6189 21.6862C36.5647 21.7285 36.5493 21.7406 36.532 21.744C36.5252 21.7454 36.518 21.7454 36.508 21.7454V21.7765H36.477V21.8075L36.3994 21.8386V21.8697L36.3993 21.8698C36.3876 21.8803 36.3812 21.8861 36.3745 21.8916C36.3664 21.8982 36.358 21.9044 36.3394 21.9181L36.3393 21.9182L36.3055 21.9436C36.2895 21.9538 36.2819 21.9586 36.2737 21.9609C36.2694 21.9621 36.2648 21.9626 36.2586 21.9627C36.2546 21.9629 36.25 21.9629 36.2443 21.9629V21.9939C36.1851 22.0378 36.1677 22.0507 36.1485 22.0545C36.1455 22.055 36.1426 22.0554 36.1394 22.0556C36.1339 22.056 36.1278 22.056 36.1203 22.056V22.0871C36.0363 22.1492 36.0363 22.1492 35.9962 22.1492V22.1803C35.9255 22.2212 35.8749 22.2327 35.7936 22.2326L35.7611 22.2328C35.7361 22.2329 35.7111 22.2328 35.6861 22.2327C35.6756 22.2326 35.6652 22.2326 35.6547 22.2325L35.6535 22.2325L35.5755 22.2326C35.5041 22.2327 35.4327 22.2325 35.3613 22.2323C35.2843 22.2321 35.2073 22.2322 35.1303 22.2322C34.9969 22.2322 34.8635 22.2321 34.73 22.2318C34.5371 22.2314 34.3442 22.2313 34.1513 22.2313C33.8384 22.2312 33.5254 22.2309 33.2125 22.2304C32.9084 22.23 32.6044 22.2297 32.3004 22.2295L32.2436 22.2294L31.9616 22.2292C31.1817 22.2288 30.4018 22.2279 29.6219 22.2269V22.1958L29.6517 22.1838C29.7586 22.1398 29.8644 22.0936 29.9699 22.0463L30.0105 22.0283C30.0614 22.0053 30.1107 21.9829 30.1584 21.9538C30.1987 21.9301 30.24 21.9151 30.2837 21.8993L30.2837 21.8993L30.2861 21.8984C30.3416 21.8766 30.3938 21.8484 30.4461 21.8201L30.4603 21.8124L30.4991 21.7917L30.5773 21.7498L30.6793 21.6953C30.8813 21.5887 30.8814 21.5887 31.0796 21.4756L31.0797 21.4755C31.1085 21.4599 31.1195 21.4636 31.1347 21.4687C31.144 21.4719 31.155 21.4755 31.1728 21.4755V21.4192L31.2052 21.4021C31.2918 21.3557 31.3741 21.3073 31.4539 21.25C31.483 21.2328 31.483 21.2328 31.5295 21.2328H31.5295V21.2018C31.5425 21.1933 31.55 21.1883 31.5577 21.1836C31.5683 21.1772 31.5792 21.1713 31.605 21.1572L31.6051 21.1571C31.7064 21.0999 31.8023 21.0361 31.8981 20.9702C31.9546 20.9317 32.0068 20.8971 32.0723 20.8756V20.8445C32.1019 20.822 32.1324 20.8009 32.1635 20.7805L32.2147 20.7464C32.2416 20.7304 32.2519 20.7242 32.2631 20.7218C32.2701 20.7203 32.2775 20.7203 32.2895 20.7203V20.6892L32.2895 20.6892C32.3487 20.6454 32.3661 20.6325 32.3854 20.6287C32.3934 20.6271 32.4017 20.6271 32.4135 20.6271V20.596C32.4396 20.5749 32.4666 20.5551 32.494 20.5358C32.5394 20.5038 32.5838 20.4721 32.6266 20.4367C32.6617 20.4096 32.6617 20.4096 32.6927 20.4096V20.3786C32.7048 20.3676 32.7117 20.3614 32.7188 20.3554C32.728 20.3476 32.7375 20.3402 32.7596 20.3232C32.8357 20.264 32.9098 20.2028 32.9835 20.1407C33.0184 20.1145 33.0184 20.1145 33.0494 20.1145V20.0835H33.0804V20.0524C33.1071 20.0285 33.1348 20.0057 33.1628 19.9835C33.1927 19.96 33.2077 19.9483 33.2221 19.936C33.2364 19.9237 33.2503 19.9107 33.2779 19.8849C33.2872 19.876 33.2921 19.8713 33.2979 19.8688C33.3045 19.866 33.3122 19.866 33.3286 19.866V19.835H33.3596V19.8039H33.3906V19.7728H33.4216V19.7418H33.4527V19.7107L33.4527 19.7107C33.4752 19.6884 33.4752 19.6884 33.5065 19.6625C33.577 19.6025 33.6424 19.5385 33.7076 19.4729L33.7414 19.4392L33.7735 19.407L33.8023 19.3781C33.8263 19.3542 33.8263 19.3542 33.8404 19.3224H33.8714V19.2913H33.9024V19.2603H33.9335V19.2292H33.9645V19.1981H33.9955L34.0066 19.1721C34.0312 19.1276 34.062 19.0944 34.0964 19.0573L34.0973 19.0564C34.145 19.0069 34.145 19.0069 34.1816 18.9496H34.2126V18.9186H34.2436L34.2556 18.892C34.2772 18.8517 34.3029 18.8191 34.3319 18.7836C34.3845 18.719 34.4352 18.6533 34.4849 18.5864L34.5073 18.5613H34.5383L34.55 18.5361C34.5741 18.4902 34.6009 18.448 34.6314 18.406H34.6624L34.676 18.3701L34.676 18.3701C34.6838 18.3514 34.6881 18.3411 34.6932 18.3312C34.6996 18.319 34.7073 18.3075 34.7244 18.2819L34.7244 18.2817H34.7555L34.769 18.2458L34.769 18.2458C34.7768 18.2271 34.7811 18.2168 34.7863 18.207C34.7927 18.1948 34.8003 18.1833 34.8174 18.1576L34.8175 18.1575H34.8485L34.8612 18.1229C34.8788 18.0814 34.8985 18.049 34.9246 18.0125L34.9516 17.9743L34.9803 17.9342L35.0392 17.8509L35.0686 17.8093C35.1087 17.752 35.148 17.6943 35.1868 17.6362L35.2063 17.6074C35.2323 17.5682 35.2523 17.5345 35.2673 17.4896H35.2983L35.3081 17.4521C35.3352 17.3808 35.3745 17.3209 35.416 17.2576L35.4204 17.2508C35.4785 17.1616 35.5317 17.0733 35.5774 16.9771H35.6085L35.6131 16.9525C35.6273 16.9034 35.6497 16.8594 35.6728 16.8142L35.6744 16.8111L35.6905 16.7792C35.7513 16.6589 35.8137 16.5394 35.8761 16.42L35.8761 16.42C35.9918 16.1999 35.9918 16.1999 36.0904 15.9719C36.1036 15.9392 36.1185 15.9084 36.1348 15.8772C36.1669 15.8148 36.1911 15.7499 36.2156 15.6844L36.2157 15.6843L36.2225 15.6661C36.2414 15.6178 36.2616 15.5706 36.283 15.5233C36.3451 15.3853 36.3958 15.2449 36.4442 15.1016C36.4606 15.0536 36.4773 15.0056 36.4941 14.9577C36.5864 14.694 36.6737 14.4306 36.7452 14.1602C36.7555 14.1218 36.7662 14.0835 36.7772 14.0452C36.8178 13.9035 36.8524 13.7611 36.8843 13.6172C36.8997 13.5477 36.9157 13.4789 36.9355 13.4105C37.0609 12.9651 37.1156 12.4852 37.1623 12.0262L37.1657 11.9933C37.1692 11.9564 37.1721 11.9195 37.1749 11.8825L37.1791 11.8326C37.1934 11.633 37.193 11.4331 37.1925 11.2331L37.1924 11.1817C37.1924 11.1251 37.1924 11.0684 37.1925 11.0118C37.1929 10.7003 37.1833 10.3934 37.1487 10.0837L37.1448 10.0479C37.0648 9.3351 36.917 8.62388 36.7096 7.93738L36.6958 7.8913C36.6375 7.69676 36.5765 7.50315 36.5129 7.31027L36.4961 7.25914C36.4633 7.1605 36.4263 7.06467 36.3856 6.96899C36.3654 6.92064 36.3482 6.87166 36.3316 6.82198C36.2971 6.72362 36.2553 6.63088 36.2105 6.537C36.182 6.47723 36.1553 6.41676 36.129 6.35602L36.1155 6.32492C36.0967 6.28179 36.0779 6.23864 36.0594 6.19542C35.9798 6.00997 35.8902 5.83182 35.7946 5.65416C35.7654 5.59986 35.7363 5.54549 35.7073 5.49107L35.6867 5.45307L35.668 5.41778L35.6513 5.38675C35.6466 5.37577 35.6438 5.36914 35.6421 5.36224C35.6395 5.35173 35.6395 5.34058 35.6395 5.31245H35.6085C35.5928 5.28502 35.5774 5.2575 35.5619 5.22994L35.5358 5.18353C35.5256 5.16256 35.5205 5.15208 35.518 5.14101C35.5154 5.12995 35.5154 5.1183 35.5154 5.09501H35.4844L35.4379 5.01152L35.4117 4.96456L35.4117 4.96449C35.3997 4.94077 35.3948 4.93099 35.3928 4.92064C35.3913 4.9134 35.3913 4.90588 35.3913 4.89309H35.3603L35.345 4.86524C35.3157 4.81214 35.2865 4.75932 35.2547 4.70767C35.2362 4.67564 35.2362 4.67564 35.2362 4.64457H35.2052L35.1742 4.55138H35.1432L35.1122 4.45819H35.0811C35.0605 4.42803 35.0605 4.42804 35.0375 4.38732C35.0082 4.3365 34.9784 4.28787 34.9435 4.24074C34.9225 4.21111 34.9149 4.20032 34.9121 4.1884C34.9105 4.18158 34.9105 4.17439 34.9105 4.16308H34.8795C34.8566 4.13279 34.8354 4.10257 34.8146 4.07086C34.7628 3.99375 34.709 3.91985 34.6502 3.84789C34.6314 3.82137 34.6314 3.82137 34.6314 3.79031H34.6004C34.577 3.76422 34.577 3.76422 34.5519 3.73012L34.5266 3.69627C34.5163 3.68016 34.5115 3.67264 34.5093 3.66442C34.5073 3.65723 34.5073 3.64949 34.5073 3.63499H34.4763C34.455 3.61096 34.455 3.61096 34.4298 3.57674C34.3765 3.50576 34.3202 3.43792 34.2623 3.37075C34.2126 3.3122 34.2126 3.3122 34.2126 3.27775H34.1816V3.24669H34.1506C34.1274 3.22062 34.1053 3.19357 34.0837 3.16611C34.0467 3.11906 34.0104 3.07529 33.9677 3.0333C33.9472 3.01227 33.939 3.00383 33.9357 2.99377C33.9335 2.98704 33.9335 2.97957 33.9335 2.96711H33.9024V2.93604H33.8714V2.90498H33.8404V2.87392H33.8094V2.84285H33.7784V2.81179H33.7473V2.78072H33.7163V2.74966L33.6902 2.73898C33.644 2.71276 33.6121 2.68028 33.5767 2.64093V2.60987L33.5147 2.57881V2.54774H33.4837V2.51668H33.4527V2.48561H33.4216V2.45455L33.3966 2.44442C33.3489 2.41741 33.311 2.38127 33.2717 2.34386L33.2646 2.33709L33.2645 2.33699C33.2362 2.30877 33.2221 2.29472 33.2068 2.28219C33.1916 2.26977 33.1752 2.25884 33.1425 2.2371V2.20604H33.1115V2.17497H33.0804V2.14391L33.0545 2.1325C33.0105 2.10856 32.9753 2.07908 32.937 2.04683C32.8745 1.99471 32.8113 1.94519 32.7449 1.89837L32.7237 1.87986V1.8488L32.6985 1.83715C32.6527 1.81297 32.6106 1.78614 32.5686 1.75561V1.72454L32.5328 1.71095C32.5141 1.70313 32.5038 1.69881 32.494 1.69365C32.4818 1.68727 32.4703 1.6796 32.4446 1.66246L32.4446 1.66241V1.63135L32.4087 1.61776C32.39 1.60994 32.3797 1.60562 32.3699 1.60045C32.3577 1.59407 32.3462 1.58639 32.3205 1.56922V1.53816L32.2846 1.52457C32.2429 1.50709 32.2429 1.50709 32.1964 1.47603V1.44496L32.1619 1.4324C32.1195 1.41417 32.0872 1.39361 32.05 1.36633C31.9837 1.31872 31.9162 1.27357 31.8475 1.22946L31.8187 1.21095C31.7935 1.19475 31.7808 1.18666 31.7679 1.17902C31.7551 1.17139 31.7419 1.16421 31.7157 1.14987L31.7156 1.14985V1.11879L31.6879 1.11297C31.6404 1.09954 31.6001 1.07302 31.5594 1.04621L31.5382 1.03239L31.4708 0.989619L31.4371 0.968134C31.3019 0.881954 31.165 0.801088 31.0246 0.723882C30.9641 0.690582 30.9046 0.656592 30.8461 0.619822C30.7689 0.572602 30.6873 0.534989 30.6053 0.497223L30.5746 0.483067C30.5097 0.452922 30.4457 0.42114 30.3818 0.388782C30.2644 0.329437 30.1456 0.273089 30.0264 0.217467L29.9307 0.172607C29.8282 0.124499 29.7255 0.0770675 29.6219 0.0315442V0.0160121ZM6.22126 0.0081687L6.18863 0.00838593C6.10113 0.00827808 6.05391 0.0220732 5.98555 0.078159V0.109223C5.95043 0.109223 5.95043 0.109223 5.87462 0.162918L5.84402 0.184942C5.80739 0.210575 5.77242 0.236613 5.7374 0.264544V0.295608C5.72292 0.295608 5.7152 0.295608 5.70801 0.29757C5.69981 0.299811 5.6923 0.304614 5.67621 0.314902L5.6424 0.340263C5.62378 0.354002 5.61534 0.360226 5.60726 0.366878C5.60056 0.372388 5.59411 0.378191 5.5823 0.388801V0.419865C5.57078 0.419865 5.56354 0.419865 5.5568 0.421707C5.5454 0.424823 5.53544 0.43321 5.50863 0.455783C5.47851 0.482608 5.44812 0.508813 5.4164 0.533739L5.38729 0.556195L5.32737 0.602367C5.29249 0.628784 5.25897 0.655533 5.22559 0.68391V0.714975H5.19457V0.746039C5.17942 0.746039 5.17167 0.746039 5.16469 0.748367C5.15739 0.750803 5.15094 0.755791 5.13774 0.766C5.08242 0.81622 5.02667 0.865648 4.96969 0.913979C4.95205 0.928821 4.94429 0.935355 4.93687 0.942264C4.93104 0.947698 4.92543 0.953365 4.9154 0.963488V0.994552H4.88438V1.02562H4.85336V1.05668H4.82235V1.08774H4.79133V1.11881C4.77971 1.11881 4.77199 1.11881 4.76484 1.12081C4.7507 1.12478 4.73876 1.13657 4.7032 1.17168L4.68034 1.19477L4.6323 1.24276C4.60714 1.26815 4.58197 1.29352 4.55664 1.31873L4.5072 1.36807L4.48356 1.39183L4.48356 1.39184C4.44541 1.42973 4.40975 1.46514 4.38309 1.51237L4.37258 1.53818H4.34156V1.56924H4.31054V1.6003H4.27952V1.63137H4.2485V1.66243H4.21748V1.6935H4.18646L4.1612 1.72201C4.10575 1.79494 4.04881 1.86486 3.98678 1.9323C3.95413 1.96728 3.92632 1.99772 3.9033 2.03969L3.89179 2.06627H3.86077C3.82874 2.10236 3.80229 2.13734 3.77934 2.17984L3.76771 2.20605H3.73669L3.7144 2.23105L3.69017 2.2643C3.66574 2.29732 3.64428 2.32909 3.62522 2.3655L3.61262 2.39244H3.5816C3.54629 2.43111 3.52147 2.46581 3.50018 2.51378L3.48854 2.54776H3.45753C3.42704 2.58974 3.40024 2.63191 3.3761 2.67784L3.36447 2.70308H3.33345C3.31631 2.72883 3.30864 2.74035 3.30227 2.75255C3.2971 2.76242 3.29279 2.77274 3.28498 2.79142L3.27141 2.82734H3.24039L3.21471 2.85858L3.18611 2.90015C3.15707 2.94173 3.13297 2.97999 3.11293 3.02665L3.10081 3.06032H3.06979C3.05265 3.08607 3.04498 3.09759 3.03861 3.10978C3.03345 3.11966 3.02913 3.12998 3.02132 3.14866L3.00775 3.18458H2.97674L2.94572 3.27777H2.9147C2.89871 3.29869 2.88293 3.31981 2.86825 3.34167L2.84981 3.36987C2.82965 3.40017 2.80953 3.43049 2.78955 3.46091L2.74694 3.52569C2.64644 3.67789 2.5476 3.83088 2.45479 3.98794L2.4089 4.06529L2.35503 4.15582L2.32825 4.20096C2.27089 4.29762 2.21535 4.395 2.16191 4.49389L2.11743 4.5757L2.05393 4.69119L1.96863 4.84651C1.87371 5.01576 1.78615 5.18971 1.71563 5.37072C1.70745 5.39293 1.69874 5.41495 1.68946 5.43673C1.65595 5.49113 1.62944 5.54411 1.60576 5.60326C1.57023 5.69308 1.53356 5.78195 1.49194 5.86913C1.45193 5.95242 1.41569 6.03571 1.38509 6.12305C1.36727 6.17507 1.34924 6.22645 1.32844 6.27734C1.29733 6.35018 1.26733 6.42248 1.2426 6.49777C1.22726 6.54542 1.21171 6.59296 1.19515 6.6402C1.13795 6.80132 1.08102 6.96173 1.03697 7.12702C1.02293 7.17992 1.00871 7.23272 0.993495 7.2853C0.920533 7.53362 0.855363 7.78209 0.79834 8.03447C0.786643 8.08642 0.774683 8.13822 0.761748 8.18988L0.758679 8.20189C0.742691 8.2644 0.726772 8.32664 0.715886 8.39031C0.699941 8.4939 0.683168 8.59718 0.663361 8.70011C0.614988 8.95117 0.57463 9.20235 0.545637 9.45643L0.54177 9.4906C0.462351 10.1883 0.436062 10.8897 0.459307 11.5914L0.460346 11.6224C0.472028 11.9744 0.495237 12.3247 0.535162 12.6746L0.538862 12.7067C0.565761 12.9421 0.6002 13.1756 0.640392 13.4092L0.650335 13.4668C0.689007 13.696 0.729959 13.9233 0.786042 14.1489C0.799748 14.204 0.812584 14.2592 0.824815 14.3147C0.853958 14.447 0.883676 14.5785 0.922718 14.7084C0.940788 14.767 0.958324 14.8253 0.97393 14.8846C1.00622 15.0086 1.0415 15.131 1.08087 15.2529L1.11129 15.347L1.13158 15.4101L1.14136 15.4404C1.15949 15.4964 1.17862 15.5504 1.20178 15.6046C1.21407 15.632 1.21954 15.6443 1.22417 15.6568C1.22789 15.6669 1.23106 15.6772 1.23679 15.6957C1.25913 15.7765 1.28533 15.8548 1.31498 15.9331L1.33081 15.9743C1.36396 16.061 1.39741 16.1472 1.43646 16.2315C1.45637 16.2736 1.47471 16.3153 1.49153 16.3588C1.52152 16.439 1.55156 16.5173 1.59059 16.5936C1.6139 16.6386 1.63453 16.6828 1.65166 16.7305C1.66236 16.7608 1.67357 16.7899 1.68742 16.8189C1.71514 16.8729 1.74203 16.9273 1.76767 16.9823C1.8355 17.1281 1.90619 17.2715 1.98226 17.4131L2.01516 17.4741C2.07097 17.5791 2.12757 17.6835 2.18673 17.7867C2.23388 17.8687 2.27983 17.9513 2.32486 18.0346L2.34085 18.0643H2.37187C2.37187 18.0808 2.37187 18.0922 2.37381 18.1031C2.37803 18.127 2.39143 18.1492 2.43391 18.2196H2.46493C2.46493 18.2401 2.46493 18.2524 2.4677 18.2642C2.47195 18.2821 2.48269 18.2984 2.50985 18.3398L2.54811 18.3973L2.56737 18.4266C2.59927 18.4751 2.62885 18.5246 2.65782 18.5749C2.67002 18.5966 2.67522 18.6058 2.68093 18.6147C2.68517 18.6213 2.68969 18.6278 2.69757 18.639H2.72859L2.7596 18.7322H2.79062L2.82164 18.8254H2.85266C2.85266 18.8368 2.85266 18.8441 2.85427 18.8509C2.85702 18.8627 2.86446 18.8733 2.88465 18.9021C2.9218 18.9523 2.95469 19.0042 2.9874 19.0574C3.00272 19.0827 3.00945 19.0938 3.01665 19.1046C3.02228 19.113 3.02821 19.1213 3.03877 19.136H3.06979C3.06979 19.1479 3.06979 19.1562 3.07138 19.1643C3.07517 19.1835 3.08806 19.201 3.13183 19.2603H3.16285C3.16285 19.2731 3.16285 19.2806 3.16466 19.2876C3.16727 19.2977 3.1736 19.3069 3.18902 19.3291L3.24385 19.4006L3.26323 19.426C3.30047 19.4747 3.33587 19.5247 3.37125 19.5748C3.38828 19.5992 3.39564 19.6097 3.40345 19.6199C3.40939 19.6277 3.41559 19.6353 3.42651 19.6486H3.45753C3.45753 19.6631 3.45753 19.6708 3.45949 19.678C3.46173 19.6862 3.46652 19.6938 3.47679 19.7099L3.50211 19.7437C3.51583 19.7624 3.52205 19.7708 3.52869 19.7789C3.53419 19.7856 3.53999 19.7921 3.55058 19.8039H3.5816C3.5816 19.8168 3.5816 19.8243 3.58346 19.8314C3.58608 19.8413 3.5924 19.8503 3.60765 19.872L3.6417 19.9146C3.66029 19.9381 3.66866 19.9487 3.67745 19.959C3.68463 19.9674 3.6921 19.9755 3.70567 19.9903H3.73669C3.73669 19.9985 3.73669 20.0049 3.73776 20.0112C3.7418 20.0351 3.76119 20.0563 3.85422 20.1584C3.92684 20.2363 3.99692 20.3147 4.06336 20.398C4.08299 20.4232 4.10315 20.448 4.12443 20.4718H4.15545V20.5029H4.18646V20.5339H4.21748V20.565H4.2485C4.2485 20.5801 4.2485 20.5878 4.25095 20.5947C4.25354 20.602 4.25887 20.6084 4.26987 20.6214L4.30019 20.6518L4.3344 20.6864L4.37185 20.7237L4.44946 20.8015C4.49054 20.8425 4.5316 20.8834 4.57249 20.9246L4.65243 21.0048L4.69076 21.0431L4.72783 21.0804L4.76263 21.1149C4.79341 21.1457 4.81891 21.1688 4.8571 21.1898L4.88438 21.2018V21.2329H4.9154V21.2639H4.94642V21.295H4.97744V21.3261C5.00584 21.3443 5.02013 21.3535 5.03339 21.3639C5.04681 21.3745 5.05918 21.3865 5.08407 21.4105L5.085 21.4114C5.12205 21.4459 5.15517 21.4767 5.19954 21.5013L5.22559 21.5124V21.5435H5.25661V21.5746L5.2783 21.5931C5.34372 21.6385 5.40284 21.6872 5.46114 21.7415C5.50008 21.7786 5.53017 21.805 5.57921 21.8272L5.61332 21.8386V21.8697C5.65194 21.905 5.68659 21.9299 5.73449 21.9512L5.76842 21.9629V21.9939C5.79413 22.0111 5.80563 22.0188 5.81781 22.0252C5.82767 22.0303 5.83798 22.0347 5.85663 22.0425L5.89249 22.0561V22.0871C5.91821 22.1043 5.92971 22.112 5.94189 22.1184C5.95175 22.1235 5.96205 22.1278 5.9807 22.1357L6.01657 22.1493V22.1803C6.06617 22.209 6.10418 22.2263 6.16145 22.2327L6.21917 22.2326C6.25344 22.2328 6.28769 22.2329 6.32196 22.2327L6.39767 22.2325C6.46736 22.2327 6.53704 22.2327 6.60673 22.2325C6.68288 22.2322 6.75903 22.2322 6.83518 22.2322C6.96707 22.2323 7.09896 22.2322 7.23085 22.2319C7.42332 22.2316 7.61578 22.2314 7.80825 22.2313C8.12003 22.2312 8.43182 22.2309 8.7436 22.2305C9.04757 22.2301 9.35154 22.2297 9.65551 22.2295L9.71236 22.2295L9.99506 22.2293C10.7937 22.2288 11.5923 22.228 12.3909 22.2269V22.1959C12.2584 22.1538 12.1346 22.0914 12.0109 22.0286C12.005 22.0256 11.9991 22.0226 11.9933 22.0196C11.943 21.994 11.8929 21.9685 11.8406 21.9473L11.755 21.9163C11.6979 21.8814 11.6407 21.8518 11.5801 21.8238C11.4393 21.7589 11.3034 21.6877 11.1686 21.6114C11.127 21.5878 11.0854 21.5643 11.0435 21.5411L10.9892 21.5115C10.9479 21.4887 10.9108 21.4684 10.8655 21.4552L10.84 21.4503V21.4192C10.7717 21.3864 10.7081 21.3492 10.6442 21.3086C10.6403 21.3061 10.6364 21.3036 10.6326 21.3012C10.5921 21.2753 10.5548 21.2513 10.5081 21.2369L10.4833 21.2329V21.2018C10.4352 21.1796 10.3917 21.1522 10.3476 21.123L10.2901 21.0847L10.1973 21.0232L10.1047 20.9616L10.0752 20.9421C10.0268 20.9097 9.97982 20.8793 9.92619 20.8559L9.8939 20.8446V20.8135C9.84956 20.7804 9.80697 20.754 9.75625 20.732L9.7233 20.7203V20.6892C9.69758 20.6721 9.68608 20.6644 9.6739 20.658C9.66404 20.6528 9.65373 20.6485 9.63509 20.6407L9.59922 20.6271V20.596C9.56941 20.5774 9.55444 20.5681 9.54032 20.5576C9.52607 20.547 9.51269 20.5352 9.48581 20.5116C9.44233 20.4746 9.40541 20.4442 9.35331 20.4208L9.32005 20.4097V20.3786C9.28144 20.3432 9.24679 20.3184 9.19889 20.2971L9.16496 20.2854V20.2543L9.13661 20.2286L9.09905 20.2C9.06341 20.1725 9.02952 20.1478 8.98975 20.1267L8.96334 20.1146V20.0835H8.93232V20.0524C8.90392 20.0342 8.88963 20.025 8.87637 20.0145C8.86295 20.0039 8.85058 19.992 8.82569 19.968L8.82475 19.9671C8.7877 19.9326 8.75459 19.9017 8.71022 19.8771L8.68417 19.866V19.835H8.65315V19.8039H8.62213V19.7728H8.59111V19.7418H8.5601V19.7107C8.54403 19.7036 8.5361 19.7001 8.52909 19.6952C8.52225 19.6905 8.51628 19.6844 8.5045 19.6726L8.47558 19.6437L8.44344 19.6115L8.40985 19.5777C8.3443 19.5124 8.28045 19.4469 8.22053 19.3764C8.20596 19.3587 8.19958 19.351 8.19284 19.3436C8.18758 19.3379 8.18211 19.3323 8.17236 19.3224H8.14134V19.2914H8.11033V19.2603H8.07931V19.2292H8.04829V19.1982H8.01727C8.01727 19.1817 8.01727 19.174 8.01449 19.1674C8.01201 19.1616 8.00731 19.1567 7.99843 19.1474C7.97261 19.1197 7.95969 19.1059 7.9474 19.0915C7.93508 19.0771 7.92339 19.0621 7.89998 19.0322C7.8778 19.004 7.85502 18.9764 7.83116 18.9496H7.80014V18.9186H7.76912C7.76912 18.9073 7.76912 18.8997 7.76737 18.8925C7.76379 18.8778 7.75285 18.8649 7.71947 18.8256C7.6615 18.7584 7.60529 18.6906 7.55199 18.6196C7.53764 18.6001 7.53146 18.5917 7.52486 18.5837C7.51987 18.5776 7.51465 18.5717 7.50546 18.5613H7.47444C7.47444 18.5468 7.47444 18.5391 7.47248 18.5319C7.47024 18.5237 7.46545 18.5162 7.45518 18.5001L7.42985 18.4662C7.41613 18.4476 7.40992 18.4391 7.40328 18.431C7.39777 18.4243 7.39198 18.4178 7.38139 18.406H7.35037C7.35037 18.3942 7.35037 18.3858 7.34878 18.3778C7.34499 18.3585 7.3321 18.3411 7.28833 18.2818H7.25731C7.25731 18.2699 7.25731 18.2616 7.25573 18.2535C7.25193 18.2343 7.23904 18.2168 7.19527 18.1575H7.16426C7.16426 18.1455 7.16426 18.1381 7.16276 18.1311C7.16037 18.1199 7.15419 18.1095 7.13821 18.0826L7.10416 18.0313C7.08379 18.0002 7.06266 17.9696 7.04018 17.9401H7.00916C7.00916 17.925 7.00916 17.9173 7.00723 17.91C7.00517 17.9023 7.00092 17.8952 6.99215 17.8805L6.96857 17.8462L6.94272 17.8082C6.76553 17.5486 6.59704 17.281 6.44913 17.0035L6.43532 16.9771H6.4043C6.4043 16.9501 6.4043 16.9387 6.40159 16.9281C6.39963 16.9203 6.39623 16.9129 6.39036 16.9001L6.3708 16.8656L6.34916 16.827C6.28928 16.7216 6.23042 16.6158 6.17651 16.5072C6.17227 16.4986 6.16803 16.4899 6.1638 16.4813C6.14604 16.4449 6.12829 16.4086 6.11006 16.3726C6.05507 16.2645 6.00115 16.1567 5.95356 16.0451C5.92614 15.9797 5.89853 15.9144 5.86999 15.8494L5.84311 15.788L5.79943 15.6879C5.72252 15.5135 5.64954 15.3395 5.58821 15.159C5.57022 15.1059 5.55211 15.0532 5.53172 15.001C5.49072 14.8896 5.47021 14.8338 5.45143 14.7775C5.43263 14.7212 5.41556 14.6643 5.38141 14.5504C5.3661 14.4996 5.35073 14.4488 5.33497 14.398C5.27309 14.2004 5.21763 14.0024 5.16882 13.8011C5.15641 13.7497 5.14382 13.6983 5.13065 13.647C5.07643 13.4358 5.03063 13.223 4.99624 13.0076C4.98757 12.9532 4.97867 12.8989 4.9689 12.8447C4.82044 12.0353 4.76651 11.2164 4.83361 10.3953L4.83786 10.3449C4.92499 9.26758 5.15499 8.10846 5.57649 7.1074C5.5963 7.06178 5.615 7.01642 5.63204 6.96967C5.69331 6.79476 5.75821 6.6227 5.83724 6.45505C5.87042 6.38513 5.90263 6.31498 5.93323 6.24388C5.97137 6.1551 6.01087 6.06766 6.05437 5.98132C6.0892 5.9128 6.12279 5.84397 6.15512 5.77423C6.2015 5.67399 6.24973 5.5755 6.30252 5.47847C6.30435 5.47517 6.30618 5.47188 6.308 5.4686C6.33177 5.42587 6.35485 5.38437 6.36898 5.33704L6.37328 5.31247H6.4043L6.42072 5.28068L6.4421 5.2387C6.46218 5.19952 6.48008 5.16337 6.49208 5.12099L6.49735 5.09502H6.52837C6.57406 5.00811 6.62464 4.92551 6.67862 4.8436C6.71336 4.79204 6.74345 4.74333 6.76519 4.68458L6.77652 4.64459H6.80754C6.85053 4.59023 6.88122 4.53067 6.90544 4.46597L6.91611 4.42714H6.94713L6.97814 4.33395H7.00916C7.04216 4.28955 7.06854 4.2469 7.09059 4.1961L7.10222 4.1631H7.13324L7.16523 4.11165C7.19991 4.0532 7.23974 4.00248 7.28348 3.9505C7.31935 3.90879 7.34755 3.87429 7.37006 3.824L7.38139 3.79033H7.41241C7.44289 3.74835 7.46969 3.70618 7.49383 3.66025L7.50546 3.63501H7.53648C7.57526 3.59069 7.60655 3.54019 7.63438 3.48842L7.64505 3.46415H7.67606L7.69836 3.43916L7.72259 3.40591C7.74702 3.37289 7.76848 3.34112 7.78754 3.30471L7.80014 3.27777H7.83116V3.2467H7.86218C7.88389 3.21396 7.8948 3.19752 7.90721 3.18229C7.91973 3.16691 7.93378 3.15278 7.96202 3.12439C7.96427 3.12201 7.96653 3.11964 7.96878 3.11727C8.00614 3.07796 8.04222 3.04 8.06919 2.99225L8.07931 2.96713H8.11033V2.93606H8.14134V2.905H8.17236V2.87393H8.20338V2.84287H8.2344V2.81181H8.26542V2.78074H8.29644C8.30904 2.77007 8.31534 2.76473 8.32115 2.7589C8.32697 2.75308 8.3323 2.74677 8.34297 2.73415V2.70308H8.37398V2.67202H8.405V2.64095H8.43602V2.60989H8.46704V2.57883H8.49806V2.54776H8.52908V2.5167H8.5601V2.48563H8.59111V2.45457C8.60355 2.45457 8.611 2.45457 8.61773 2.45236C8.62777 2.44906 8.6362 2.44082 8.65721 2.42029C8.69913 2.37747 8.74285 2.3412 8.78983 2.3041C8.81725 2.28252 8.84425 2.26036 8.87028 2.23712V2.20605H8.9013V2.17499H8.93232V2.14393C8.9445 2.14393 8.9519 2.14393 8.95884 2.14214C8.96957 2.13938 8.97919 2.13234 9.00369 2.11444L9.05058 2.07597C9.07907 2.05287 9.10705 2.02909 9.13394 2.00414V1.97307C9.14842 1.97307 9.15614 1.97307 9.16333 1.97111C9.17153 1.96887 9.17904 1.96407 9.19513 1.95378L9.22894 1.92842C9.24756 1.91468 9.256 1.90846 9.26408 1.9018C9.27078 1.89629 9.27723 1.89049 9.28903 1.87988V1.84882C9.30351 1.84882 9.31123 1.84882 9.31842 1.84686C9.32663 1.84461 9.33414 1.83981 9.35022 1.82952L9.38403 1.80416C9.40265 1.79042 9.41109 1.7842 9.41917 1.77755C9.42587 1.77204 9.43233 1.76623 9.44413 1.75562V1.72456C9.45595 1.72456 9.46429 1.72456 9.47231 1.72297C9.49154 1.71918 9.50898 1.70627 9.5682 1.66243V1.63137C9.58002 1.63137 9.58836 1.63137 9.59639 1.62978C9.61562 1.62598 9.63306 1.61308 9.69228 1.56924V1.53818C9.7041 1.53818 9.71243 1.53818 9.72046 1.53659C9.73969 1.53279 9.75713 1.51988 9.81635 1.47605V1.44498C9.82667 1.44498 9.83414 1.44498 9.84137 1.44367C9.86032 1.44025 9.87766 1.42783 9.94043 1.38285C10.0297 1.3163 10.1178 1.25334 10.2147 1.19841C10.2427 1.18311 10.2704 1.16718 10.2971 1.14987V1.11881C10.3176 1.11881 10.3291 1.11881 10.3398 1.1159C10.3533 1.11219 10.3656 1.10377 10.3935 1.08465C10.4408 1.04934 10.489 1.01683 10.539 0.98541L10.5695 0.9664C10.7173 0.874242 10.8679 0.788003 11.0212 0.705267L11.0261 0.70267C11.0713 0.67848 11.1165 0.654294 11.1615 0.62973L11.2444 0.584347L11.2897 0.559654C11.4094 0.494111 11.5295 0.430916 11.6532 0.373269C11.7288 0.338236 11.8038 0.30249 11.8779 0.264525C11.9813 0.211557 12.0857 0.164105 12.1932 0.119902L12.2313 0.104582L12.2671 0.0899901C12.3145 0.0710596 12.3505 0.0470889 12.3909 0.0160307C11.6071 0.0146427 10.8233 0.0135483 10.0396 0.0129042L9.75617 0.0126673L9.69911 0.0126179C9.39358 0.0123538 9.08805 0.011914 8.78253 0.0113438C8.46802 0.0107562 8.15352 0.0103427 7.83901 0.0102067C7.64516 0.0101286 7.45131 0.00996662 7.25745 0.00946186C7.12338 0.00911251 6.9893 0.00891746 6.85523 0.00895005L6.83017 0.00896635C6.76113 0.00901262 6.6921 0.0090589 6.62306 0.00881973C6.5513 0.00850831 6.47955 0.00825962 6.40778 0.00839861L6.32943 0.00855948L6.3289 0.00855536C6.29301 0.00828016 6.25714 0.00800509 6.22126 0.0081687Z" fill="#BDBDBD"/>
</svg>
