<svg width="144" height="112" viewBox="0 0 144 112" fill="none" xmlns="http://www.w3.org/2000/svg">
<g clip-path="url(#clip0_4462_19932)">
<path d="M141.44 96.3601C140.836 91.4975 137.822 86.7064 133.185 85.124C135.014 90.129 135.013 95.6195 133.184 100.624C132.471 102.552 131.478 104.621 132.148 106.564C132.565 107.773 133.585 108.698 134.726 109.276C135.866 109.854 137.132 110.13 138.382 110.4L138.628 110.603C140.612 106.123 142.045 101.223 141.44 96.3601Z" fill="#F0F0F0"/>
<path d="M133.138 85.2161C135.839 88.242 137.517 92.042 137.935 96.0763C138.041 96.9431 138.009 97.8212 137.841 98.6782C137.65 99.5077 137.241 100.271 136.655 100.889C136.121 101.476 135.506 102.014 135.124 102.721C134.934 103.086 134.823 103.486 134.798 103.897C134.774 104.308 134.836 104.719 134.982 105.103C135.319 106.071 135.984 106.86 136.662 107.609C137.414 108.441 138.208 109.293 138.528 110.395C138.567 110.529 138.772 110.461 138.733 110.328C138.177 108.41 136.315 107.32 135.427 105.592C135.012 104.786 134.838 103.85 135.227 102.999C135.566 102.255 136.2 101.699 136.746 101.109C137.326 100.515 137.751 99.7878 137.985 98.9911C138.196 98.1455 138.262 97.2701 138.18 96.4025C138.025 94.4461 137.563 92.5263 136.812 90.7132C135.966 88.6393 134.772 86.7253 133.281 85.0541C133.189 84.9507 133.046 85.1133 133.138 85.2161Z" fill="white"/>
<path d="M137.877 94.7692C138.545 94.6071 139.133 94.2132 139.537 93.6577C139.94 93.1021 140.133 92.4212 140.081 91.7364C140.07 91.5979 139.854 91.6085 139.865 91.7472C139.915 92.3847 139.735 93.019 139.358 93.5356C138.981 94.0521 138.432 94.4169 137.81 94.5641C137.675 94.5962 137.743 94.8011 137.877 94.7692Z" fill="white"/>
<path d="M136.966 100.627C135.76 99.907 134.87 98.7595 134.474 97.413C134.434 97.2795 134.229 97.3474 134.269 97.4807C134.684 98.8811 135.613 100.073 136.868 100.82C136.988 100.891 137.085 100.697 136.966 100.627Z" fill="white"/>
<path d="M135.766 88.8439C135.521 88.9603 135.251 89.0141 134.98 89.0004C134.709 88.9866 134.445 88.9057 134.213 88.765C134.095 88.6925 133.998 88.8859 134.116 88.9579C134.373 89.1122 134.664 89.2011 134.964 89.217C135.263 89.2329 135.562 89.1752 135.834 89.0489C135.861 89.0392 135.883 89.0197 135.895 88.9943C135.908 88.969 135.911 88.9397 135.903 88.9125C135.894 88.8854 135.874 88.863 135.849 88.8502C135.823 88.8373 135.794 88.835 135.766 88.8439Z" fill="white"/>
<path d="M119.049 93.8093C119.122 93.8566 119.195 93.904 119.268 93.9533C120.244 94.5955 121.167 95.316 122.027 96.1077C122.095 96.1678 122.162 96.2298 122.228 96.2918C124.279 98.2212 125.955 100.515 127.169 103.056C127.651 104.067 128.056 105.114 128.379 106.187C128.826 107.669 129.192 109.311 130.076 110.523C130.167 110.651 130.265 110.773 130.371 110.888H138.36C138.378 110.879 138.397 110.871 138.415 110.862L138.734 110.877C138.721 110.82 138.706 110.762 138.694 110.706C138.686 110.673 138.677 110.64 138.67 110.607C138.665 110.585 138.659 110.563 138.655 110.543C138.654 110.536 138.652 110.529 138.65 110.523C138.646 110.503 138.641 110.485 138.637 110.467C138.557 110.141 138.474 109.814 138.389 109.488C138.389 109.486 138.389 109.486 138.388 109.484C137.733 107 136.866 104.549 135.653 102.307C135.617 102.239 135.581 102.17 135.54 102.102C134.989 101.095 134.355 100.134 133.647 99.2299C133.257 98.736 132.843 98.2621 132.405 97.8101C131.273 96.6442 129.964 95.6638 128.527 94.9047C125.661 93.3919 122.344 92.8123 119.282 93.7364C119.204 93.7601 119.127 93.7837 119.049 93.8093Z" fill="#F0F0F0"/>
<path d="M119.067 93.9106C123.045 94.7007 126.674 96.7242 129.436 99.6936C130.042 100.322 130.545 101.043 130.927 101.828C131.274 102.605 131.407 103.461 131.312 104.307C131.239 105.097 131.072 105.897 131.192 106.691C131.26 107.097 131.413 107.484 131.64 107.827C131.868 108.169 132.165 108.46 132.513 108.679C133.365 109.249 134.371 109.479 135.363 109.669C136.464 109.88 137.611 110.082 138.531 110.77C138.642 110.853 138.765 110.676 138.654 110.592C137.055 109.396 134.912 109.647 133.163 108.802C132.346 108.408 131.644 107.765 131.442 106.852C131.265 106.053 131.436 105.228 131.517 104.428C131.622 103.605 131.524 102.768 131.231 101.991C130.891 101.188 130.416 100.45 129.828 99.8069C128.526 98.3381 127.002 97.083 125.311 96.0876C123.387 94.9409 121.281 94.1318 119.084 93.6952C118.948 93.6682 118.932 93.8838 119.067 93.9106Z" fill="white"/>
<path d="M128.603 98.6851C129.038 98.1539 129.271 97.4853 129.258 96.7987C129.246 96.1121 128.99 95.4522 128.537 94.9368C128.444 94.8328 128.279 94.9711 128.371 95.0753C128.794 95.5544 129.033 96.1692 129.043 96.8086C129.053 97.448 128.834 98.0699 128.425 98.5621C128.337 98.6692 128.515 98.7915 128.603 98.6851Z" fill="white"/>
<path d="M131.401 103.911C130.005 104.062 128.604 103.681 127.476 102.845C127.365 102.762 127.242 102.94 127.354 103.023C128.528 103.891 129.988 104.284 131.44 104.123C131.578 104.108 131.539 103.895 131.401 103.911Z" fill="white"/>
<path d="M123.349 95.225C123.224 95.4656 123.04 95.6712 122.816 95.8235C122.591 95.9757 122.332 96.0697 122.062 96.0971C121.923 96.1107 121.963 96.3231 122.1 96.3096C122.399 96.2779 122.685 96.1737 122.933 96.0061C123.182 95.8385 123.386 95.6125 123.527 95.348C123.542 95.3241 123.548 95.2954 123.543 95.2675C123.538 95.2395 123.522 95.2146 123.5 95.1977C123.476 95.1816 123.447 95.1753 123.419 95.1805C123.391 95.1856 123.366 95.2016 123.349 95.225Z" fill="white"/>
<path d="M79.962 5.94221C79.7695 6.1824 79.6319 6.4619 79.559 6.76101C79.4861 7.06013 79.4797 7.37158 79.5402 7.67344C79.6007 7.97531 79.7267 8.26023 79.9092 8.50814C80.0917 8.75606 80.3264 8.96093 80.5967 9.10834L79.3652 16.4899L82.9198 14.9124L83.5442 8.14461C83.7618 7.67414 83.7992 7.14021 83.6494 6.644C83.4996 6.14779 83.1729 5.72378 82.7314 5.4523C82.2898 5.18083 81.764 5.08076 81.2536 5.17105C80.7432 5.26134 80.2837 5.53573 79.962 5.94221Z" fill="#9E616A"/>
<path d="M111.94 108.064L109.033 108.064L107.65 96.853L111.94 96.8532L111.94 108.064Z" fill="#9E616A"/>
<path d="M112.681 110.881L103.31 110.881V110.762C103.31 109.795 103.694 108.867 104.378 108.183C105.062 107.499 105.99 107.115 106.957 107.115H106.957L112.681 107.115L112.681 110.881Z" fill="#2F2E41"/>
<path d="M92.4366 108.064L89.5301 108.064L88.1475 96.853L92.4371 96.8532L92.4366 108.064Z" fill="#9E616A"/>
<path d="M93.1783 110.881L83.8066 110.881V110.762C83.8067 109.795 84.191 108.867 84.8751 108.183C85.5592 107.499 86.4869 107.115 87.4543 107.115H87.4546L93.1784 107.115L93.1783 110.881Z" fill="#2F2E41"/>
<path d="M91.2258 55.7515L90.1394 57.1803C90.1394 57.1803 90.041 57.8476 88.3932 63.2837L87.4893 104.144H92.9573L100.266 71.451L107.852 104.8L112.592 105.079L112.369 67.1749C112.369 67.1749 112.968 59.3769 110.846 57.9287C108.724 56.4805 91.2258 55.7515 91.2258 55.7515Z" fill="#2F2E41"/>
<path d="M98.5582 21.4153C101.727 21.4153 104.296 18.8463 104.296 15.6774C104.296 12.5084 101.727 9.93945 98.5582 9.93945C95.3893 9.93945 92.8203 12.5084 92.8203 15.6774C92.8203 18.8463 95.3893 21.4153 98.5582 21.4153Z" fill="#9E616A"/>
<path d="M104.331 16.5758L104.236 16.3863C104.09 16.0932 102.876 13.6568 102.724 13.0303L101.197 13.2099L97.221 13.2106L97.7735 12.3818L96.3128 12.5723C95.7788 12.6372 95.2682 12.8297 94.8242 13.1334C94.5519 13.3144 94.3216 13.5518 94.149 13.8295C93.6273 14.7231 92.8301 16.1846 92.822 16.1993L92.7458 16.3391L92.0834 15.2248C92.0747 15.1815 91.2537 10.8994 94.0013 9.44709C94.143 9.15927 95.3506 6.89533 98.2045 7.04814C98.5182 6.69051 98.9601 6.47082 99.4347 6.43663C100.086 6.40263 100.763 6.74501 101.442 7.45851C102.345 8.40616 103.581 9.70393 104.329 11.1449L104.535 11.4391C104.828 11.8602 104.973 12.3666 104.947 12.8789C105.106 13.6967 105.05 14.5416 104.784 15.3309L104.331 16.5758Z" fill="#2F2E41"/>
<path d="M102.93 22.4949L106.105 24.2497L112.342 25.996L110.48 42.3174L110.819 58.3943C110.819 58.3943 100.262 65.6264 90.1387 57.1803V36.9441L90.7375 25.996C90.7375 25.996 93.16 25.3079 94.3797 26.495L96.6931 23.4899L102.93 22.4949Z" fill="#E4E4E4"/>
<path d="M92.137 27.4999L90.7381 25.9962L83.0292 25.123L83.7527 13.283L79.5497 10.2847L76.4619 26.9531L90.7259 36.9442L92.137 27.4999Z" fill="#E4E4E4"/>
<path d="M107.763 63.7073C107.705 63.4048 107.715 63.0935 107.791 62.7951C107.866 62.4967 108.007 62.2186 108.202 61.9804C108.397 61.7421 108.642 61.5495 108.919 61.4161C109.197 61.2827 109.5 61.2118 109.808 61.2083L112.181 54.1111L114.581 57.1711L111.959 63.4416C111.931 63.9592 111.714 64.4483 111.349 64.8163C110.984 65.1844 110.496 65.4057 109.979 65.4385C109.462 65.4712 108.95 65.3131 108.542 64.994C108.133 64.6749 107.856 64.2171 107.763 63.7073Z" fill="#9E616A"/>
<path d="M109.999 27.8644L112.342 25.9961C112.342 25.9961 114.738 27.3176 115.467 29.6871C116.196 32.0566 117.472 45.5445 117.472 45.5445L114.008 62.86L110.136 60.174L112.003 46.4558L108.723 36.431L109.999 27.8644Z" fill="#E4E4E4"/>
<path d="M80.625 0H21.5332V14.3595H80.625V0Z" fill="#E6E6E6"/>
<path d="M23.084 12.809H79.0749V1.55054H23.084V12.809Z" fill="white"/>
<path d="M33.7482 11.469C36.117 11.469 38.0374 9.54869 38.0374 7.17983C38.0374 4.81097 36.117 2.89062 33.7482 2.89062C31.3793 2.89062 29.459 4.81097 29.459 7.17983C29.459 9.54869 31.3793 11.469 33.7482 11.469Z" fill="#8F53F0"/>
<path d="M72.7003 5.50146H44.0059V6.4339H72.7003V5.50146Z" fill="#8F53F0"/>
<path d="M72.7003 7.92578H44.0059V8.85822H72.7003V7.92578Z" fill="#8F53F0"/>
<path d="M0 21.8252L49.9988 25.4722V38.5999L0 37.6715V21.8252Z" fill="#E6E6E6"/>
<path d="M1.5752 35.9991L48.9073 37.1568V26.8163L1.5752 23.6418V35.9991Z" fill="white"/>
<path d="M11.9633 25.7565C12.5098 25.7917 13.0419 25.9458 13.5227 26.208C14.0049 26.4716 14.4326 26.8243 14.7832 27.2475C15.1476 27.6853 15.4329 28.1831 15.6266 28.7187C15.8309 29.2823 15.9351 29.8772 15.9346 30.4766C15.9368 31.067 15.8324 31.6529 15.6266 32.2062C15.4357 32.7201 15.1495 33.1933 14.7832 33.6012C14.4315 33.9931 14.0023 34.3078 13.5227 34.5253C13.0331 34.7452 12.4998 34.8508 11.9633 34.834C11.4143 34.8166 10.8758 34.6783 10.3864 34.4289C9.89057 34.1754 9.44872 33.828 9.08531 33.4061C8.70402 32.965 8.40469 32.4594 8.20144 31.913C7.98576 31.3358 7.87554 30.7246 7.87601 30.1085C7.87362 29.5016 7.98397 28.8995 8.20144 28.3329C8.40208 27.8096 8.70232 27.3302 9.08553 26.9212C9.45053 26.5315 9.89395 26.2235 10.3866 26.0176C10.8853 25.8113 11.4247 25.722 11.9633 25.7565Z" fill="#E6E6E6"/>
<path d="M21.2754 29.0049L44.3121 30.2054V31.0779L21.2754 29.9586V29.0049Z" fill="#E6E6E6"/>
<path d="M21.2754 31.4849L44.3121 32.4738V33.3463L21.2754 32.4386V31.4849Z" fill="#E6E6E6"/>
<path d="M0 48.4934L49.9988 47.5652V60.693L0 64.3399V48.4934Z" fill="#E6E6E6"/>
<path d="M1.5752 62.5229L48.9073 59.3484V49.009L1.5752 50.1667V62.5229Z" fill="white"/>
<path d="M7.87981 55.8471C7.90409 55.2314 8.03893 54.6251 8.27791 54.0572C8.50232 53.5221 8.82134 53.0318 9.21966 52.6098C9.59878 52.2066 10.0533 51.8817 10.5576 51.6537C11.0563 51.4291 11.5987 51.3183 12.1455 51.3291C12.6821 51.3401 13.2092 51.4728 13.687 51.7173C14.1569 51.9598 14.5719 52.2962 14.9064 52.7056C15.2553 53.132 15.5216 53.6198 15.6917 54.1439C15.8749 54.707 15.9557 55.2985 15.9303 55.8902C15.9073 56.489 15.7798 57.0792 15.5534 57.6341C15.3393 58.1602 15.0346 58.6446 14.653 59.0653C14.2866 59.4711 13.8455 59.8028 13.3539 60.0422C12.863 60.2804 12.3256 60.4075 11.78 60.4146C11.2397 60.421 10.7051 60.3037 10.2172 60.0716C9.73365 59.8395 9.30422 59.5086 8.95663 59.1002C8.5911 58.6711 8.31128 58.1758 8.13235 57.6412C7.93858 57.0638 7.85297 56.4555 7.87981 55.8471Z" fill="#E6E6E6"/>
<path d="M21.2754 53.7263L44.3121 52.8186V53.6911L21.2754 54.68V53.7263Z" fill="#E6E6E6"/>
<path d="M21.2754 56.2062L44.3121 55.0872V55.9597L21.2754 57.1602V56.2062Z" fill="#E6E6E6"/>
<path d="M143.697 111.07H74.2526C74.2042 111.07 74.1579 111.051 74.1237 111.017C74.0895 110.983 74.0703 110.936 74.0703 110.888C74.0703 110.839 74.0895 110.793 74.1237 110.759C74.1579 110.725 74.2042 110.706 74.2526 110.706H143.697C143.745 110.706 143.792 110.725 143.826 110.759C143.86 110.793 143.879 110.839 143.879 110.888C143.879 110.936 143.86 110.983 143.826 111.017C143.792 111.051 143.745 111.07 143.697 111.07Z" fill="#CACACA"/>
</g>
<defs>
<clipPath id="clip0_4462_19932">
<rect width="143.879" height="111.07" fill="white"/>
</clipPath>
</defs>
</svg>
