<svg width="163" height="112" viewBox="0 0 163 112" fill="none" xmlns="http://www.w3.org/2000/svg">
<g clip-path="url(#clip0_4462_41425)">
<path opacity="0.1" d="M161.852 42.6018H147.93V59.4772H160.835C160.868 59.6514 160.901 59.8255 160.938 59.9997H147.93V73.6057L147.995 73.5845C148.363 73.4558 148.728 73.3195 149.09 73.1726L149.324 73.0787C149.694 72.9243 150.059 72.7612 150.419 72.5896C150.546 72.5306 150.674 72.4685 150.799 72.4049C152.801 71.4188 154.647 70.1432 156.277 68.6191C156.324 68.5797 156.367 68.5358 156.411 68.4949C156.632 68.2814 156.85 68.0634 157.062 67.8407C157.141 67.759 157.214 67.6772 157.296 67.5924C157.546 67.3213 157.786 67.0412 158.021 66.7595C158.056 66.7171 158.089 66.6747 158.124 66.6354C159.069 65.4761 159.862 64.2008 160.483 62.8405C160.503 62.8011 160.52 62.7572 160.538 62.7163C160.729 62.2893 160.9 61.8562 161.048 61.4155C161.11 61.2308 161.171 61.0445 161.224 60.8583C161.243 60.8023 161.259 60.7462 161.275 60.6917C162.046 57.9902 162.135 55.1796 162.135 52.3857C162.135 52.0597 162.135 51.7341 162.135 51.409C162.135 50.2809 162.119 49.1451 162.099 48.0109C162.099 47.7171 162.084 47.4234 162.078 47.1281C162.058 46.38 162.032 45.6289 161.996 44.8808C161.987 44.6734 161.976 44.4644 161.964 44.2585C161.964 44.1388 161.952 44.0192 161.943 43.8996C161.916 43.4645 161.886 43.0319 161.852 42.6018Z" fill="#8F53F0"/>
<path opacity="0.1" d="M147.93 23.8126H155.568C154.317 22.0728 152.96 20.412 151.505 18.8396C150.371 17.6009 149.177 16.3925 147.93 15.2295V23.8126Z" fill="#8F53F0"/>
<path opacity="0.1" d="M147.93 24.335V42.0796H161.808C161.808 42.0282 161.808 41.9752 161.795 41.9282C161.783 41.7874 161.77 41.6481 161.757 41.5088C161.743 41.3452 161.725 41.1802 161.708 41.0166C161.692 40.8531 161.671 40.6607 161.649 40.4836C161.628 40.3064 161.61 40.1277 161.587 39.9505C161.565 39.7734 161.543 39.5962 161.519 39.4205C161.495 39.2449 161.472 39.0677 161.446 38.892C161.425 38.7406 161.404 38.5998 161.381 38.4544C161.349 38.2469 161.316 38.041 161.281 37.835C161.281 37.8048 161.271 37.773 161.266 37.7442C161.014 36.2402 160.673 34.7525 160.244 33.2891C159.791 31.7392 159.215 30.2277 158.522 28.7689C157.777 27.2245 156.911 25.7415 155.933 24.3335L147.93 24.335Z" fill="#8F53F0"/>
<path opacity="0.1" d="M114.865 42.6019V59.4773H144.603V42.6019H114.865ZM114.865 59.9982V71.4267C118.327 70.3197 122.286 70.7679 125.874 71.6765C128.653 72.3807 131.361 73.3423 134.135 74.0313C135.374 74.3485 136.632 74.5862 137.901 74.743L138.213 74.7778L138.667 74.8187L139.122 74.852C139.137 74.8506 139.153 74.8506 139.169 74.852C139.235 74.852 139.303 74.852 139.371 74.8611H139.441C139.523 74.8611 139.605 74.8702 139.686 74.8702C139.803 74.8702 139.921 74.8702 140.039 74.8808H140.191C140.307 74.8808 140.425 74.8808 140.544 74.8808H140.802H141.011C141.101 74.8808 141.189 74.8808 141.276 74.8717C141.419 74.8717 141.561 74.8596 141.705 74.8505L141.97 74.8323C142.079 74.8323 142.19 74.8172 142.297 74.8066C142.529 74.7884 142.751 74.7657 142.986 74.7369C143.077 74.7263 143.169 74.7157 143.26 74.7021L143.395 74.6854C143.624 74.6552 143.849 74.6203 144.078 74.581C144.246 74.5552 144.414 74.5249 144.584 74.4931V59.9982H114.865ZM136.983 23.8063V24.3272H114.865V42.0794H144.603V24.3333H143.112V23.8124H144.603V12.3446C138.819 7.68353 132.057 4.03406 124.527 2.35015C121.355 1.64837 118.114 1.31002 114.865 1.34163V23.8124L136.983 23.8063ZM68.991 23.7064L69.0955 23.8063H111.538V1.4976C103.982 2.12604 96.6135 4.66401 90.6728 8.86923C87.8184 10.8878 85.2546 13.2819 82.0519 14.8295C80.3712 15.6635 78.5352 16.138 76.6609 16.2227L68.991 23.7064ZM68.6987 14.5539V19.6041L72.7995 15.6018C71.2746 15.0749 70.0722 14.716 68.6927 14.56L68.6987 14.5539ZM68.5624 78.0881H68.6987V89.1592C70.2463 89.0431 71.7879 88.8846 73.3234 88.6837C80.1884 87.7972 86.9154 86.0543 93.3471 83.4957C94.0376 83.217 94.7231 82.9308 95.4035 82.637C95.8568 82.4351 96.3076 82.2332 96.7558 82.0313C97.4282 81.7224 98.0955 81.4049 98.7577 81.0788C101.69 79.6402 104.518 77.9987 107.221 76.1664C107.389 76.0513 107.559 75.9363 107.725 75.8197C108.06 75.5875 108.392 75.3532 108.723 75.117C108.888 74.9974 109.053 74.8793 109.217 74.7581L109.558 74.5068C109.897 74.2539 110.235 74.001 110.577 73.7496C110.893 73.5225 111.213 73.2953 111.537 73.0833V59.9997H77.4378C77.462 59.924 77.4847 59.8483 77.5105 59.768C77.4832 59.8453 77.459 59.9195 77.4363 59.9997H68.6927V78.0851L68.5624 78.0881ZM68.6987 24.3303V42.0794H111.538V24.3333L68.6987 24.3303ZM68.6987 42.5988V59.4773H111.538V42.6019L68.6987 42.5988ZM60.1338 15.0733L65.3672 20.1811V14.5342C63.6137 14.6433 61.8692 14.823 60.1338 15.0733ZM23.689 42.6019V59.4773H65.3672V42.6019H23.689ZM33.7621 84.2816C40.0789 86.6863 46.6835 88.2533 53.4073 88.9426H53.436C54.706 89.0769 55.9806 89.1809 57.2597 89.2546H57.3066C59.9854 89.406 62.6748 89.4408 65.3597 89.3409V59.9982H23.689L23.8404 79.4297M12.1484 59.4773H20.3681V42.6019H17.1169C16.7792 43.194 16.4521 43.7921 16.1417 44.3963C15.9751 44.7189 15.8131 45.046 15.6556 45.3731C13.5159 49.8175 12.156 54.6966 12.1484 59.4773ZM12.1484 59.9982C12.2151 63.4266 12.9874 66.7929 14.6819 69.9018C16.0902 72.4761 18.0467 74.7475 20.362 76.7161V59.9982H12.1484ZM17.4213 42.0794H20.3681V37.688C19.3042 39.0954 18.3204 40.5615 17.4213 42.0794ZM35.8791 23.8124H64.3845L64.4874 23.7124L64.336 23.561L56.3208 15.7457C53.9406 16.2404 51.5902 16.8689 49.2808 17.628C49.0627 17.6991 48.8446 17.7794 48.6281 17.8475C44.1718 19.3603 39.8962 21.3607 35.8791 23.8124ZM23.689 33.7114V42.0794H60.2413H65.3642V24.8164L64.7797 24.3409H35.0463C30.873 26.9625 27.0556 30.1121 23.689 33.7114Z" fill="#8F53F0"/>
<path opacity="0.1" d="M147.93 33.2859V42.0795H161.808C161.808 42.028 161.808 41.975 161.795 41.928C161.783 41.7872 161.77 41.6479 161.757 41.5086C161.743 41.345 161.725 41.18 161.708 41.0164C161.692 40.8529 161.671 40.6606 161.649 40.4834C161.628 40.3062 161.61 40.1275 161.587 39.9504C161.565 39.7732 161.543 39.596 161.519 39.4203C161.495 39.2447 161.472 39.0675 161.446 38.8919C161.425 38.7404 161.404 38.5996 161.381 38.4542C161.349 38.2468 161.316 38.0408 161.281 37.8349C161.281 37.8046 161.271 37.7728 161.266 37.744C161.014 36.24 160.673 34.7523 160.244 33.2889L147.93 33.2859Z" fill="#8F53F0"/>
<path opacity="0.1" d="M161.852 42.6018H147.93V59.4772H160.835C160.868 59.6514 160.901 59.8255 160.938 59.9997H147.93V73.6057L147.995 73.5845C148.363 73.4558 148.728 73.3195 149.09 73.1726L149.324 73.0787C149.694 72.9243 150.059 72.7612 150.419 72.5896C150.546 72.5306 150.674 72.4685 150.799 72.4049C152.801 71.4188 154.647 70.1432 156.277 68.6191C156.324 68.5797 156.367 68.5358 156.411 68.4949C156.632 68.2814 156.85 68.0634 157.062 67.8407C157.141 67.759 157.214 67.6772 157.296 67.5924C157.546 67.3213 157.786 67.0412 158.021 66.7595C158.056 66.7171 158.089 66.6747 158.124 66.6354C159.069 65.4761 159.862 64.2008 160.483 62.8405C160.503 62.8011 160.52 62.7572 160.538 62.7163C160.729 62.2893 160.9 61.8562 161.048 61.4155C161.11 61.2308 161.171 61.0445 161.224 60.8583C161.243 60.8023 161.259 60.7462 161.275 60.6917C162.046 57.9902 162.135 55.1796 162.135 52.3857C162.135 52.0597 162.135 51.7341 162.135 51.409C162.135 50.2809 162.119 49.1451 162.099 48.0109C162.099 47.7171 162.084 47.4234 162.078 47.1281C162.058 46.38 162.032 45.6289 161.996 44.8808C161.987 44.6734 161.976 44.4644 161.964 44.2585C161.964 44.1388 161.952 44.0192 161.943 43.8996C161.916 43.4645 161.886 43.0319 161.852 42.6018Z" fill="#8F53F0"/>
<path opacity="0.1" d="M134.137 26.8759V42.0811H144.605V26.8759H143.114V21.7273H136.985V26.8759H134.137Z" fill="#8F53F0"/>
<path opacity="0.1" d="M144.605 42.6018H134.137V59.4772H144.605V42.6018Z" fill="#8F53F0"/>
<path opacity="0.1" d="M144.605 60H134.137V74.0316C135.375 74.3481 136.633 74.5858 137.901 74.7433L138.215 74.7781L138.669 74.819C138.82 74.8311 138.972 74.8432 139.123 74.8523H139.17C139.237 74.8523 139.305 74.8523 139.373 74.8614H139.443C139.525 74.8614 139.608 74.869 139.69 74.8705C139.808 74.8705 139.924 74.8705 140.043 74.8796H140.194C140.311 74.8796 140.427 74.8796 140.547 74.8796H140.804C140.874 74.8796 140.945 74.8796 141.015 74.8796L141.28 74.8705C141.421 74.8705 141.564 74.8584 141.707 74.8493L141.97 74.8311L142.299 74.8054C142.529 74.7872 142.753 74.763 142.986 74.7357L143.26 74.7009L143.395 74.6842C143.624 74.654 143.849 74.6191 144.078 74.5798C144.248 74.554 144.416 74.5222 144.585 74.4919L144.605 60Z" fill="#8F53F0"/>
<path opacity="0.1" d="M77.3284 25.0798H68.6953V42.0795H77.3284V25.0798Z" fill="#8F53F0"/>
<path opacity="0.1" d="M68.6953 42.6018V59.4772H111.541V52.1995H88.719V56.4925H77.3269V42.6018H68.6953Z" fill="#8F53F0"/>
<path opacity="0.1" d="M68.5566 78.0942H68.6929V89.1593C70.2406 89.0432 71.7821 88.8847 73.3176 88.6838C80.1879 87.7986 86.9201 86.0552 93.3564 83.4943C95.1968 82.7573 97.0003 81.9527 98.767 81.0805C101.696 79.6397 104.521 77.9978 107.223 76.1665C107.897 75.7092 108.562 75.2403 109.217 74.7597C109.672 74.4266 110.126 74.0844 110.58 73.7542C110.897 73.5256 111.216 73.2999 111.542 73.0864V59.9998H77.4471C77.4714 59.9211 77.4941 59.8484 77.5183 59.7666C77.4926 59.8438 77.4683 59.918 77.4456 59.9998H68.6929V78.0867L68.5566 78.0942Z" fill="#8F53F0"/>
<path opacity="0.1" d="M46.1797 23.8124H51.8038V22.2572H49.281V17.6279C49.0629 17.7006 48.8434 17.7794 48.6268 17.8475V22.2572H46.1797V23.8124Z" fill="#8F53F0"/>
<path opacity="0.1" d="M32.625 42.0796H60.2445H60.2354H60.2475H65.3689V25.08H63.9182V37.6487H57.2855V30.2089H51.8052V24.335H46.1811V30.2089H40.7038V37.6457H32.625V42.0796Z" fill="#8F53F0"/>
<path opacity="0.1" d="M32.6239 42.6018V59.4772H65.3677V42.6018H32.6239ZM33.7672 84.2816C40.0839 86.6863 46.6885 88.2533 53.4123 88.9426H53.441C54.711 89.0769 55.9856 89.1809 57.2647 89.2546H57.3116C59.9904 89.406 62.6798 89.4408 65.3647 89.3409V59.9982H32.6239V65.9812H23.6895L23.7364 79.3404" fill="#8F53F0"/>
<path opacity="0.1" d="M19.7929 60H12.1562C12.2229 63.4269 12.9967 66.7917 14.6912 69.9005C16.098 72.4839 18.056 74.7463 20.3699 76.7149V65.9815H19.7929V60Z" fill="#8F53F0"/>
<path opacity="0.1" d="M12.1504 59.4775H19.7916V45.3733H15.6636C13.5178 49.8178 12.1564 54.6984 12.1504 59.4775Z" fill="#8F53F0"/>
<path opacity="0.1" d="M73.32 29.8062H68.6953V35.1365H73.32V29.8062Z" fill="#8F53F0"/>
<path opacity="0.1" d="M73.32 40.853H68.6953V42.0796H73.32V40.853Z" fill="#8F53F0"/>
<path opacity="0.1" d="M73.32 42.6018H68.6953V46.1831H73.32V42.6018Z" fill="#8F53F0"/>
<path opacity="0.1" d="M73.32 51.9014H68.6953V57.2317H73.32V51.9014Z" fill="#8F53F0"/>
<path opacity="0.1" d="M73.32 62.9497H68.6953V68.2801H73.32V62.9497Z" fill="#8F53F0"/>
<path opacity="0.1" d="M68.6929 78.0867L68.5566 78.0943H68.6929V79.3315H73.3176V73.9966H68.6929V78.0867Z" fill="#8F53F0"/>
<path opacity="0.1" d="M68.6934 85.042V89.1594C70.241 89.0433 71.7825 88.8848 73.3181 88.6839V85.0496L68.6934 85.042Z" fill="#8F53F0"/>
<path opacity="0.1" d="M111.542 59.0867H91.7227V59.4774H111.542V59.0867Z" fill="#8F53F0"/>
<path opacity="0.1" d="M111.542 60H91.7227V61.5007H111.542V60Z" fill="#8F53F0"/>
<path opacity="0.1" d="M111.542 66.4189H91.7227V68.8327H111.542V66.4189Z" fill="#8F53F0"/>
<path opacity="0.1" d="M91.7207 73.7437V76.1665H107.224C107.899 75.7092 108.563 75.2403 109.219 74.7598C109.673 74.4266 110.127 74.0859 110.581 73.7543L91.7207 73.7437Z" fill="#8F53F0"/>
<path opacity="0.1" d="M91.7207 81.0806V83.4944H93.3577C95.1991 82.7574 97.0026 81.9528 98.7683 81.0806H91.7207Z" fill="#8F53F0"/>
<path opacity="0.1" d="M53.4136 47.7068H57.3145V44.2375H53.4136V47.7068Z" fill="#8F53F0"/>
<path opacity="0.1" d="M137.894 31.5415H141.795V28.0722H137.894V31.5415Z" fill="#8F53F0"/>
<path opacity="0.1" d="M137.894 39.6006H141.795V36.1313H137.894V39.6006Z" fill="#8F53F0"/>
<path opacity="0.1" d="M137.894 47.6582H141.795V44.1889H137.894V47.6582Z" fill="#8F53F0"/>
<path opacity="0.1" d="M137.894 55.7173H141.795V52.248H137.894V55.7173Z" fill="#8F53F0"/>
<path opacity="0.1" d="M137.894 63.7766H141.795V60.3073H137.894V63.7766Z" fill="#8F53F0"/>
<path opacity="0.1" d="M137.894 71.834H141.795V68.3647H137.894V71.834Z" fill="#8F53F0"/>
<path opacity="0.1" d="M38.5191 47.7068H42.4199V44.2375H38.5191V47.7068Z" fill="#8F53F0"/>
<path opacity="0.1" d="M53.4136 56.2642H57.3145V52.7949H53.4136V56.2642Z" fill="#8F53F0"/>
<path opacity="0.1" d="M38.5191 56.2642H42.4199V52.7949H38.5191V56.2642Z" fill="#8F53F0"/>
<path opacity="0.1" d="M53.4136 64.8213H57.3145V61.352H53.4136V64.8213Z" fill="#8F53F0"/>
<path opacity="0.1" d="M38.5191 64.8213H42.4199V61.352H38.5191V64.8213Z" fill="#8F53F0"/>
<path opacity="0.1" d="M53.4136 73.3801H57.3145V69.9108H53.4136V73.3801Z" fill="#8F53F0"/>
<path opacity="0.1" d="M38.5191 73.3801H42.4199V69.9108H38.5191V73.3801Z" fill="#8F53F0"/>
<path opacity="0.1" d="M53.4136 81.9375H57.3145V78.4682H53.4136V81.9375Z" fill="#8F53F0"/>
<path opacity="0.1" d="M38.5191 81.9375H42.4199V78.4682H38.5191V81.9375Z" fill="#8F53F0"/>
<path opacity="0.1" d="M57.3169 89.2623V87.0242H53.416V88.9443L57.3169 89.2623Z" fill="#8F53F0"/>
<path opacity="0.1" d="M147.93 37.7395V39.7248H161.281V37.7395H147.93ZM159.952 37.8652H161.047V39.6006H159.952V37.8652ZM158.622 37.8652H159.717V39.6006H158.622V37.8652ZM157.296 37.8652H158.391V39.6006H157.296V37.8652ZM155.966 37.8652H157.061V39.6006H155.966V37.8652ZM154.638 37.8652H155.737V39.6006H154.643L154.638 37.8652ZM153.309 37.8652H154.403V39.6006H153.315L153.309 37.8652ZM151.979 37.8652H153.074V39.6006H151.979V37.8652ZM150.651 37.8652H151.746V39.6006H150.651V37.8652ZM149.323 37.8652H150.418V39.6006H149.323V37.8652ZM147.995 37.8652H149.09V39.6006H147.995V37.8652Z" fill="#8F53F0"/>
<path opacity="0.1" d="M147.93 43.5181V45.5033H161.281V43.5181H147.93ZM159.952 43.6438H161.047V45.3776H159.952V43.6438ZM158.622 43.6438H159.717V45.3776H158.622V43.6438ZM157.296 43.6438H158.391V45.3776H157.296V43.6438ZM155.966 43.6438H157.061V45.3776H155.966V43.6438ZM154.638 43.6438H155.737V45.3776H154.643L154.638 43.6438ZM153.309 43.6438H154.403V45.3776H153.315L153.309 43.6438ZM151.979 43.6438H153.074V45.3776H151.979V43.6438ZM150.651 43.6438H151.746V45.3776H150.651V43.6438ZM149.323 43.6438H150.418V45.3776H149.323V43.6438ZM147.995 43.6438H149.09V45.3776H147.995V43.6438Z" fill="#8F53F0"/>
<path opacity="0.1" d="M147.93 49.2969V51.2806H161.281V49.2969H147.93ZM159.952 49.421H161.047V51.1549H159.952V49.421ZM158.622 49.421H159.717V51.1549H158.622V49.421ZM157.296 49.421H158.391V51.1549H157.296V49.421ZM155.966 49.421H157.061V51.1549H155.966V49.421ZM154.638 49.421H155.737V51.1549H154.643L154.638 49.421ZM153.309 49.421H154.403V51.1549H153.315L153.309 49.421ZM151.979 49.421H153.074V51.1549H151.979V49.421ZM150.651 49.421H151.746V51.1549H150.651V49.421ZM149.323 49.421H150.418V51.1549H149.323V49.421ZM147.995 49.421H149.09V51.1549H147.995V49.421Z" fill="#8F53F0"/>
<path opacity="0.1" d="M147.93 55.0737V57.056H161.281V55.0737H147.93ZM159.952 55.1964H161.047V56.9348H159.952V55.1964ZM158.622 55.1964H159.717V56.9348H158.622V55.1964ZM157.296 55.1964H158.391V56.9348H157.296V55.1964ZM155.966 55.1964H157.061V56.9348H155.966V55.1964ZM154.638 55.1964H155.737V56.9348H154.643L154.638 55.1964ZM153.309 55.1964H154.403V56.9348H153.315L153.309 55.1964ZM151.979 55.1964H153.074V56.9348H151.979V55.1964ZM150.651 55.1964H151.746V56.9348H150.651V55.1964ZM149.323 55.1964H150.418V56.9348H149.323V55.1964ZM147.995 55.1964H149.09V56.9348H147.995V55.1964Z" fill="#8F53F0"/>
<path opacity="0.1" d="M147.93 60.8494V62.8407H160.483C160.501 62.8013 160.52 62.7574 160.536 62.7165H159.952V60.9751H161.047V61.4081C161.11 61.2234 161.171 61.0371 161.224 60.8494H147.93ZM158.622 60.9751H159.717V62.7089H158.622V60.9751ZM157.296 60.9751H158.391V62.7089H157.296V60.9751ZM155.966 60.9751H157.061V62.7089H155.966V60.9751ZM154.638 60.9751H155.737V62.7089H154.643L154.638 60.9751ZM153.309 60.9751H154.403V62.7089H153.315L153.309 60.9751ZM151.979 60.9751H153.074V62.7089H151.979V60.9751ZM150.651 60.9751H151.746V62.7089H150.651V60.9751ZM149.323 60.9751H150.418V62.7089H149.323V60.9751ZM147.995 60.9751H149.09V62.7089H147.995V60.9751Z" fill="#8F53F0"/>
<path opacity="0.1" d="M147.93 66.6265V68.6102H156.275C156.324 68.5693 156.366 68.5269 156.41 68.486H155.966V66.7522H157.061V67.8379L157.296 67.588V66.7552H158.021C158.056 66.7128 158.089 66.6704 158.124 66.631L147.93 66.6265ZM154.638 66.7506H155.737V68.486H154.643L154.638 66.7506ZM153.309 66.7506H154.403V68.486H153.315L153.309 66.7506ZM151.979 66.7506H153.074V68.486H151.979V66.7506ZM150.651 66.7506H151.746V68.486H150.651V66.7506ZM149.323 66.7506H150.418V68.486H149.323V66.7506ZM147.995 66.7506H149.09V68.486H147.995V66.7506Z" fill="#8F53F0"/>
<path opacity="0.1" d="M147.93 72.405V73.6059L147.995 73.5847V72.5247H149.09V73.1698L149.323 73.0728V72.5322H150.418V72.5928C150.546 72.5338 150.674 72.4717 150.799 72.4081L147.93 72.405Z" fill="#8F53F0"/>
<path opacity="0.1" d="M77.4365 59.9984C77.4608 59.9226 77.4835 59.8469 77.5092 59.7667C77.4835 59.8439 77.4592 59.9226 77.4365 59.9984ZM136.984 23.8125V24.3334H143.112V23.8125H136.984ZM77.4365 59.9984C77.4608 59.9226 77.4835 59.8469 77.5092 59.7667C77.4835 59.8439 77.4592 59.9226 77.4365 59.9984ZM77.4365 59.9984C77.4608 59.9226 77.4835 59.8469 77.5092 59.7667C77.4835 59.8439 77.4592 59.9226 77.4365 59.9984Z" fill="#8F53F0"/>
<path opacity="0.1" d="M163.001 105.705H11.2871V111.068H163.001V105.705Z" fill="#8F53F0"/>
<path d="M16.631 71.604H15.8633V88.8701H16.631V71.604Z" fill="#535461"/>
<path d="M21.4494 88.8171L21.4009 89.5954L21.3343 90.6933L21.3055 91.1476L21.2374 92.2455L21.2086 92.6998L21.1404 93.7961L20.3666 106.282C20.3332 106.819 20.0966 107.323 19.7048 107.693C19.3131 108.062 18.7955 108.268 18.2572 108.27H14.2367C13.6991 108.268 13.1822 108.063 12.7906 107.694C12.3989 107.326 12.1618 106.823 12.1273 106.286L11.352 93.8007L11.2853 92.7043L11.2566 92.25L11.1869 91.1521L11.1596 90.6979L11.0915 89.6L11.043 88.8216C11.034 88.6725 11.0555 88.523 11.1063 88.3825C11.1572 88.242 11.2362 88.1134 11.3387 88.0046C11.4411 87.8958 11.5647 87.8091 11.7019 87.7498C11.8391 87.6906 11.9869 87.6601 12.1364 87.6602H20.3576C20.5066 87.6599 20.6541 87.6901 20.791 87.749C20.9279 87.8079 21.0513 87.8942 21.1535 88.0026C21.2558 88.111 21.3348 88.2392 21.3857 88.3792C21.4366 88.5193 21.4583 88.6683 21.4494 88.8171Z" fill="#3F3D56"/>
<path d="M21.4032 89.5955L21.335 90.6933H11.1604L11.0938 89.5955H21.4032Z" fill="#9D9CB5"/>
<path d="M21.308 91.1506L21.2399 92.25H11.2576L11.1895 91.1506H21.308Z" fill="#9D9CB5"/>
<path d="M21.2104 92.7075L21.1437 93.8054H11.3553L11.2871 92.7075H21.2104Z" fill="#9D9CB5"/>
<path d="M9.92152 78.0759C14.3872 81.306 16.2468 86.3607 16.2468 86.3607C16.2468 86.3607 10.8649 86.176 6.40378 82.9444C1.94263 79.7129 0.0664062 74.6597 0.0664062 74.6597C0.0664062 74.6597 5.45431 74.8444 9.92152 78.0759Z" fill="#8F53F0"/>
<path d="M0.0664062 74.6597C0.0664062 74.6597 5.65268 77.761 7.44411 80.3277C9.23553 82.8945 16.2407 86.3607 16.2407 86.3607" stroke="#535461" stroke-width="2" stroke-miterlimit="10"/>
<path d="M12.8025 71.5661C15.2345 73.3242 16.246 76.0757 16.246 76.0757C16.246 76.0757 13.3174 75.9742 10.8854 74.2161C8.4534 72.458 7.44336 69.7065 7.44336 69.7065C7.44336 69.7065 10.372 69.8065 12.8025 71.5661Z" fill="#8F53F0"/>
<path d="M7.44336 69.7065C7.44336 69.7065 10.4826 71.395 11.4593 72.7912C12.436 74.1874 16.246 76.0757 16.246 76.0757" stroke="#535461" stroke-width="2" stroke-miterlimit="10"/>
<path d="M19.7794 75.935C16.9871 79.0045 16.3965 83.0144 16.3965 83.0144C16.3965 83.0144 20.3337 82.0482 23.1261 78.9787C25.9184 75.9092 26.509 71.9009 26.509 71.9009C26.509 71.9009 22.5718 72.8655 19.7794 75.935Z" fill="#8F53F0"/>
<path d="M26.509 71.9009C26.509 71.9009 22.8747 75.0461 21.9464 77.2146C21.0181 79.3831 16.3965 83.0144 16.3965 83.0144" stroke="#535461" stroke-width="2" stroke-miterlimit="10"/>
<path opacity="0.2" d="M61.5261 11.6118C63.1812 11.6118 64.5229 10.2701 64.5229 8.61498C64.5229 6.95988 63.1812 5.61816 61.5261 5.61816C59.871 5.61816 58.5293 6.95988 58.5293 8.61498C58.5293 10.2701 59.871 11.6118 61.5261 11.6118Z" stroke="#6C63FF" stroke-miterlimit="10"/>
<path opacity="0.2" d="M61.526 14.0316C64.5176 14.0316 66.9427 11.6065 66.9427 8.61491C66.9427 5.62337 64.5176 3.19824 61.526 3.19824C58.5345 3.19824 56.1094 5.62337 56.1094 8.61491C56.1094 11.6065 58.5345 14.0316 61.526 14.0316Z" stroke="#6C63FF" stroke-miterlimit="10"/>
<path opacity="0.2" d="M61.5255 17.154C66.2416 17.154 70.0647 13.3309 70.0647 8.61486C70.0647 3.8988 66.2416 0.0756836 61.5255 0.0756836C56.8095 0.0756836 52.9863 3.8988 52.9863 8.61486C52.9863 13.3309 56.8095 17.154 61.5255 17.154Z" stroke="#6C63FF" stroke-miterlimit="10"/>
<path d="M82.2309 109.821C82.1506 109.224 81.7402 108.458 81.7402 108.458L79.549 105.255H79.5687C79.5687 105.255 79.2219 103.645 79.5687 102.858C79.9155 102.07 78.3361 100.123 78.3361 100.123C78.3361 100.123 78.1437 99.6353 78.6389 99.0357C79.1341 98.436 78.3361 96.6764 78.3361 96.6764C78.3361 96.6764 77.9499 93.0042 77.9121 92.4363C77.8742 91.8685 77.5653 88.7656 77.5653 88.7656L76.8323 82.1708L75.53 64.6957L75.5058 64.3686C75.6678 64.2914 75.7526 64.243 75.7526 64.243L75.4801 54.5862L75.7057 54.3878C77.6743 52.6509 82.2036 48.6335 82.1597 48.5411C82.1006 48.429 81.61 41.8252 81.554 40.167C81.5046 38.9874 81.2424 37.8265 80.7801 36.7401C80.6666 36.519 80.3395 35.0744 80.2032 34.4565L80.1441 34.1824C80.1441 34.1824 78.8146 31.7096 78.9327 30.586C79.0508 29.4624 79.2795 28.6174 76.4462 28.2252C76.4462 28.2252 74.0566 27.8784 72.6498 26.9319C71.8098 26.3658 70.8956 25.9184 69.9332 25.6024C69.9332 25.6024 69.4123 24.6938 68.905 24.8695V22.9402C69.2945 22.7876 69.6296 22.5222 69.8672 22.1779C70.1049 21.8337 70.2344 21.4263 70.2391 21.008V14.0588C70.2311 13.4944 69.9993 12.9562 69.5946 12.5627C69.19 12.1691 68.6456 11.9523 68.0812 11.96H62.0558C61.9685 11.9622 61.8816 11.9698 61.7953 11.9827V8.80266C61.7952 8.75671 61.7858 8.71126 61.7676 8.66907C61.7494 8.62689 61.7227 8.58887 61.6893 8.55735C61.6218 8.49118 61.5309 8.4542 61.4364 8.45438C61.3427 8.45316 61.2523 8.48913 61.185 8.5544C61.1178 8.61968 61.0791 8.70895 61.0775 8.80266V12.2083C60.7415 12.3837 60.4596 12.6471 60.2619 12.9704C60.0643 13.2937 59.9583 13.6647 59.9554 14.0437V20.9928C59.9599 21.411 60.0892 21.8182 60.3266 22.1625C60.564 22.5067 60.8988 22.7723 61.288 22.9251V24.7589C61.0442 24.7301 60.6823 24.8982 60.2704 25.7372C60.2704 25.7372 58.2079 26.8986 57.4947 27.0304C56.7814 27.1621 54.2571 28.0222 54.2571 28.0222C53.8734 28.2914 53.4159 28.4353 52.9472 28.4341C52.1567 28.4341 51.501 30.1211 51.598 31.0387C51.6949 31.9564 51.5389 32.6303 50.8075 32.6681C50.0761 32.706 50.4759 34.1718 50.4789 34.1824C50.4698 34.2233 50.4456 34.3339 50.4107 34.4944C50.2684 35.1349 49.9564 36.5084 49.8474 36.7235C49.3818 37.8091 49.117 38.9702 49.066 40.1503C49.0085 41.8161 48.5163 48.4124 48.4603 48.5244C48.424 48.5986 51.5283 51.3713 53.7134 53.3081L54.0284 53.5868L53.0244 62.7529C53.0244 62.7529 53.0244 63.7796 54.0572 64.5488C54.0572 64.6533 54.0572 64.7639 54.0451 64.8759C54.0012 65.9359 53.9133 67.2458 53.7422 67.5865C53.4394 68.1923 53.5105 71.4071 53.5105 71.4071C53.5105 71.4071 53.2077 77.9656 52.817 78.6758C52.4263 79.386 52.3536 80.8867 52.4702 81.1865C52.5868 81.4864 52.084 89.3547 52.084 89.3547L51.6979 92.8755C51.6979 92.8755 51.8145 96.2478 51.4677 96.3235C51.1209 96.3993 50.9271 98.7207 50.9271 98.7207C50.9271 98.7207 49.6945 100.37 50.2336 100.969C50.7727 101.569 50.1533 101.831 50.0973 101.981C50.0412 102.131 48.9222 102.693 49.7323 104.79C49.7399 104.811 49.7505 104.829 49.7596 104.849C49.0024 105.874 46.5992 109.194 46.7446 109.695C46.8546 110.02 47.0842 110.29 47.3867 110.452C47.9515 110.782 48.9222 110.935 50.4637 110.452C53.0275 109.646 52.8351 109.065 52.8351 109.065C52.8351 109.065 52.8548 108.129 53.9148 108.053C54.9749 107.978 55.7653 107.024 55.7653 107.024L55.6411 106.569L55.47 105.944C55.4912 105.758 55.6215 105.452 56.2075 105.278C57.0949 105.016 56.8632 103.368 56.8632 103.368C56.8632 103.368 56.786 101.643 57.1661 101.419C57.5461 101.195 57.3962 98.3467 57.3962 98.3467C57.3962 98.3467 57.8217 96.2857 58.4381 94.8986C59.0544 93.5115 59.7873 85.2706 59.7873 85.2706C59.7873 85.2706 60.287 81.2244 60.7504 80.0629C61.2138 78.9014 61.6378 75.6411 61.6378 75.6411C61.6378 75.6411 64.4908 70.2457 64.5286 69.0463C64.5286 69.0463 64.8981 67.9227 65.254 69.1599C65.6098 70.3971 66.6486 73.356 66.6486 73.356L67.6511 76.9904L68.8459 82.4222L69.6167 86.9939C69.6167 86.9939 69.5031 88.7354 69.8105 89.3411C70.1179 89.9468 70.5434 91.3263 70.3117 91.5898C70.0801 91.8533 70.7751 93.0875 70.9674 93.3494C71.1598 93.6114 70.9674 99.1583 70.9674 99.1583C70.9674 99.1583 71.8533 103.878 73.1253 104.702C73.2145 104.758 73.3088 104.806 73.407 104.845C73.3888 105.356 73.3706 106.041 73.3949 106.398C73.3923 106.478 73.4057 106.558 73.4342 106.633C73.5493 106.784 74.8607 107.793 75.1303 107.793C75.3998 107.793 76.3629 108.45 76.4023 108.768C76.4417 109.086 79.2204 110.434 79.6126 110.473C80.0048 110.513 81.9144 110.847 82.1869 110.322C82.2519 110.163 82.2673 109.988 82.2309 109.821ZM75.4044 42.3052L75.6027 42.4718C75.6027 42.4718 75.8041 44.0179 75.9495 44.4797C76.0949 44.9416 75.9207 45.8426 75.9207 45.8426C75.9207 45.8426 75.9495 46.4892 76.1221 46.8254C76.2948 47.1616 75.7829 47.8945 75.7829 47.8945H75.3135L75.1621 42.1068L75.4044 42.3052ZM54.5312 47.3024C54.4591 47.1535 54.4482 46.9822 54.5009 46.8254C54.5424 46.7411 54.5754 46.6528 54.5993 46.5619C54.6562 46.3259 54.6912 46.0851 54.7038 45.8426C54.7041 45.8401 54.7041 45.8376 54.7038 45.835C54.6887 45.7472 54.5402 44.9265 54.6765 44.4722C54.8128 44.0179 55.0233 42.4642 55.0233 42.4642L55.1551 42.3536L55.4579 42.0992C55.4579 42.0992 55.467 42.0023 55.4791 41.8433C55.5442 43.2062 55.5957 44.6963 55.5124 44.7781C55.361 44.9295 54.7992 46.3893 54.934 46.4438C54.9779 46.462 54.9173 47.0495 54.8159 47.8339C54.7021 47.668 54.6067 47.4903 54.5312 47.3039V47.3024Z" fill="url(#paint0_linear_4462_41425)"/>
<path d="M61.8724 8.96157V13.5545C61.8724 13.6468 61.8357 13.7354 61.7704 13.8007C61.705 13.8661 61.6164 13.9028 61.5241 13.9028C61.4317 13.9028 61.3431 13.8661 61.2778 13.8007C61.2125 13.7354 61.1758 13.6468 61.1758 13.5545V8.96157C61.1758 8.91583 61.1848 8.87054 61.2023 8.82829C61.2198 8.78603 61.2455 8.74764 61.2778 8.71529C61.3101 8.68295 61.3485 8.6573 61.3908 8.63979C61.433 8.62229 61.4783 8.61328 61.5241 8.61328C61.6162 8.61407 61.7043 8.65102 61.7695 8.71617C61.8346 8.78131 61.8716 8.86944 61.8724 8.96157Z" fill="#6F758D"/>
<path d="M68.7692 21.2397V28.3767C68.7676 28.9469 68.5403 29.4933 68.1371 29.8965C67.7339 30.2997 67.1875 30.5269 66.6173 30.5285H63.5342C62.9637 30.5273 62.4169 30.3002 62.0134 29.897C61.6099 29.4937 61.3825 28.9471 61.3809 28.3767V21.2397C61.3829 20.6694 61.6104 20.123 62.0139 19.7198C62.4173 19.3167 62.9639 19.0895 63.5342 19.0879H66.6173C67.1875 19.0895 67.7339 19.3167 68.1371 19.7199C68.5403 20.1231 68.7676 20.6695 68.7692 21.2397Z" fill="#6F758D"/>
<path d="M56.6449 47.9838L56.0559 55.2524C56.0559 55.2524 55.1715 54.4514 54.0267 53.4065C51.9067 51.4727 48.8932 48.7031 48.928 48.6304C48.9841 48.5183 49.4611 41.9235 49.5171 40.2684C49.5666 39.0915 49.8229 37.9326 50.2742 36.8445C50.3802 36.631 50.6831 35.2606 50.8209 34.62C50.8648 34.4201 50.8906 34.2914 50.8906 34.2914L51.8734 33.8977C51.8734 33.8977 55.9983 38.4997 55.9983 38.5845C55.9983 38.6693 55.7182 42.2037 55.7182 42.2037L55.4244 42.4596L55.2972 42.5686C55.2972 42.5686 55.1003 44.1132 54.9595 44.5751C54.8278 45.0142 54.9716 45.8425 54.9868 45.9289V45.9364C54.9743 46.1783 54.9398 46.4186 54.8838 46.6542C54.8611 46.7453 54.8296 46.8341 54.7899 46.9192C54.7391 47.0757 54.7494 47.2455 54.8187 47.3947C54.8966 47.6026 54.9982 47.8007 55.1215 47.9853L56.6449 47.9838Z" fill="#3F3D56"/>
<path d="M81.6446 48.6289C81.6885 48.7167 77.288 52.7327 75.3815 54.4666L74.5168 55.251L73.9277 47.9823H75.442C75.442 47.9823 75.9478 47.2524 75.7797 46.9223C75.6116 46.5922 75.5829 45.9395 75.5829 45.9395C75.5829 45.9395 75.751 45.0415 75.6116 44.5766C75.4723 44.1117 75.274 42.5702 75.274 42.5702L75.0816 42.3976L74.853 42.1977C74.853 42.1977 74.5698 38.6678 74.5698 38.583C74.5698 38.4982 78.6948 33.8962 78.6948 33.8962L79.676 34.29C79.676 34.29 79.6987 34.396 79.7336 34.564C79.8668 35.1698 80.1879 36.6235 80.2939 36.8431C80.7457 37.9309 81.002 39.09 81.051 40.2669C81.1116 41.9221 81.5886 48.5169 81.6446 48.6289Z" fill="#3F3D56"/>
<path d="M81.6639 110.316C81.4019 110.84 79.5438 110.504 79.1683 110.467C78.7927 110.431 76.0897 109.082 76.0519 108.765C76.014 108.449 75.0782 107.791 74.8177 107.791C74.5572 107.791 73.2837 106.781 73.1701 106.631C73.143 106.557 73.1302 106.478 73.1323 106.398C73.0929 105.783 73.1701 104.199 73.1701 104.199L78.5959 104.502L81.2338 108.464C81.2338 108.464 81.6306 109.221 81.7093 109.827C81.7411 109.991 81.7253 110.16 81.6639 110.316Z" fill="#3F3D56"/>
<path opacity="0.1" d="M81.6639 110.316C81.4019 110.84 79.5438 110.504 79.1683 110.467C78.7927 110.431 76.0897 109.082 76.0519 108.765C76.014 108.449 75.0782 107.791 74.8177 107.791C74.5572 107.791 73.2837 106.781 73.1701 106.631C73.143 106.557 73.1302 106.478 73.1323 106.398C73.0929 105.783 73.1701 104.199 73.1701 104.199L78.5959 104.502L81.2338 108.464C81.2338 108.464 81.6306 109.221 81.7093 109.827C81.7411 109.991 81.7253 110.16 81.6639 110.316Z" fill="black"/>
<path opacity="0.1" d="M81.6627 110.316C81.4007 110.84 79.5426 110.503 79.1671 110.467C78.7916 110.431 76.0885 109.082 76.0507 108.765C76.0128 108.449 75.077 107.791 74.8165 107.791C74.556 107.791 73.2825 106.781 73.1689 106.631C73.1418 106.557 73.129 106.478 73.1311 106.398L74.8907 107.513C74.8907 107.513 76.0128 108.224 76.3126 108.655C76.6125 109.085 78.9718 109.964 79.1671 109.981C79.3185 109.996 80.8631 109.699 81.7081 109.83C81.7393 109.993 81.7235 110.161 81.6627 110.316Z" fill="black"/>
<path d="M56.0163 107.042C56.0163 107.042 55.2485 107.996 54.2203 108.07C53.9497 108.073 53.6904 108.179 53.4956 108.367C53.3008 108.555 53.1851 108.81 53.1724 109.08C53.1724 109.08 53.3602 109.662 50.8722 110.466C49.3745 110.95 48.4326 110.797 47.8829 110.466C47.5871 110.302 47.365 110.031 47.2621 109.708C47.094 109.11 50.4042 104.56 50.4042 104.56L53.4162 104.372L55.568 105.346L55.8966 106.577L56.0163 107.042Z" fill="#3F3D56"/>
<path opacity="0.1" d="M56.0163 107.042C56.0163 107.042 55.2485 107.996 54.2203 108.07C53.9497 108.073 53.6904 108.179 53.4956 108.367C53.3008 108.555 53.1851 108.81 53.1724 109.08C53.1724 109.08 53.3602 109.662 50.8722 110.466C49.3745 110.95 48.4326 110.797 47.8829 110.466C47.5871 110.302 47.365 110.031 47.2621 109.708C47.094 109.11 50.4042 104.56 50.4042 104.56L53.4162 104.372L55.568 105.346L55.8966 106.577L56.0163 107.042Z" fill="black"/>
<path opacity="0.1" d="M56.0161 107.042C56.0161 107.042 55.2484 107.996 54.2202 108.07C53.9496 108.073 53.6903 108.179 53.4955 108.367C53.3007 108.554 53.185 108.81 53.1723 109.08C53.1723 109.08 53.3601 109.661 50.872 110.465C49.3744 110.95 48.4325 110.797 47.8828 110.465C49.2957 110.314 52.4151 109.427 52.7286 109.118C53.1026 108.742 53.5705 107.714 53.8885 107.696C54.1081 107.682 55.2287 107.007 55.9011 106.589L56.0161 107.042Z" fill="black"/>
<path d="M79.1133 102.87C78.7771 103.656 79.1133 105.264 79.1133 105.264C79.1133 105.264 74.0994 105.528 72.8652 104.704C71.6311 103.88 70.7694 99.166 70.7694 99.166C70.7694 99.166 70.9557 93.6297 70.7694 93.3662C70.5832 93.1027 69.9093 91.87 70.1334 91.6096C70.3575 91.3491 69.9457 89.962 69.6473 89.3639C69.349 88.7657 69.4596 87.0439 69.4596 87.0439L68.7115 82.4798L67.5515 77.0541L66.5793 73.4197C66.5793 73.4197 65.5693 70.4638 65.2256 69.2281C64.8818 67.9924 64.5214 69.1161 64.5214 69.1161C64.4851 70.3139 61.7154 75.7018 61.7154 75.7018C61.7154 75.7018 61.3035 78.956 60.8538 80.116C60.404 81.2759 59.9194 85.3176 59.9194 85.3176C59.9194 85.3176 59.2092 93.5479 58.6095 94.932C58.0099 96.316 57.6101 98.3801 57.6101 98.3801C57.6101 98.3801 57.7615 101.224 57.386 101.448C57.0104 101.672 57.0831 103.394 57.0831 103.394C57.0831 103.394 57.3072 105.04 56.4456 105.303C55.584 105.567 55.7354 106.126 55.7354 106.126C55.7354 106.126 50.9471 106.907 50.1597 104.816C49.3723 102.725 50.4626 102.16 50.5141 102.01C50.5655 101.86 51.1713 101.599 50.6458 101C50.1203 100.4 51.3197 98.7541 51.3197 98.7541C51.3197 98.7541 51.5074 96.4357 51.8436 96.36C52.1798 96.2842 52.0677 92.9179 52.0677 92.9179L52.4418 89.4017C52.4418 89.4017 52.9294 81.544 52.8173 81.2442C52.7053 80.9443 52.7795 79.4482 53.1535 78.738C53.5275 78.0278 53.8243 71.4799 53.8243 71.4799C53.8243 71.4799 53.7486 68.262 54.0484 67.6638C54.2181 67.3246 54.3029 66.0208 54.3513 64.9563C54.3816 64.1461 54.3907 63.4737 54.3907 63.4737L58.5793 61.9019L63.9702 60.1816L68.498 62.3501L75.12 63.6221L75.2033 64.7654L76.4617 82.2239L77.1734 88.8096C77.1734 88.8096 77.4763 91.914 77.5111 92.4743C77.546 93.0345 77.9215 96.7037 77.9215 96.7037C77.9215 96.7037 78.7074 98.4618 78.2244 99.06C77.7413 99.6581 77.9215 100.146 77.9215 100.146C77.9215 100.146 79.4555 102.084 79.1133 102.87Z" fill="#3F3D56"/>
<path opacity="0.1" d="M71.2636 27.518L69.5433 58.1796L60.1879 56.2155L58.3359 43.9239L60.1698 27.4241L61.5508 27.6012L63.9873 27.9117L66.3996 28.0616L69.0133 27.7693L71.2636 27.518Z" fill="black"/>
<path d="M71.2636 27.7435L69.5433 58.4037L60.1879 56.4397L58.3359 44.148L60.1698 27.6497L61.5508 27.8253L63.9873 28.1358L66.3996 28.2857L69.0133 27.9934L71.2636 27.7435Z" fill="#8F53F0"/>
<path d="M63.5742 28.5659L66.942 28.678L65.9956 30.003C65.9956 30.003 66.0622 32.6803 66.512 33.448C66.9617 34.2158 66.83 46.0759 66.83 46.0759L65.9396 47.7779L64.4056 45.8699L64.4237 30.212L63.5742 28.5659Z" fill="#3F3D56"/>
<path opacity="0.1" d="M63.5742 28.5659L66.942 28.678L65.9956 30.003C65.9956 30.003 66.0622 32.6803 66.512 33.448C66.9617 34.2158 66.83 46.0759 66.83 46.0759L65.9396 47.7779L64.4056 45.8699L64.4237 30.212L63.5742 28.5659Z" fill="black"/>
<path opacity="0.1" d="M68.8492 25.0859L65.707 28.5658L67.503 30.436L70.4771 27.5376L68.8492 25.0859Z" fill="black"/>
<path d="M68.6413 25.0905L65.7051 28.3402L67.501 30.2119L70.4812 27.312L69.026 25.1193C69.0061 25.0874 68.9789 25.0607 68.9468 25.0413C68.9146 25.0219 68.8784 25.0103 68.8409 25.0075C68.8035 25.0047 68.7659 25.0108 68.7312 25.0252C68.6965 25.0396 68.6657 25.062 68.6413 25.0905Z" fill="#8F53F0"/>
<path opacity="0.1" d="M64.3783 28.3978L61.1983 25.2178L60.8984 26.882L62.3582 30.53L64.3783 28.3978Z" fill="black"/>
<path d="M64.4916 28.1737L61.3116 24.9922L61.0117 26.6579L62.4715 30.3059L64.4916 28.1737Z" fill="#8F53F0"/>
<path opacity="0.1" d="M75.1986 64.7654C73.6743 65.4948 72.041 65.97 70.3634 66.1722C67.2772 66.566 65.2572 62.6378 65.2572 62.6378L64.079 64.1718C63.705 65.7997 57.9976 66.2101 55.6792 65.5923C55.1981 65.474 54.7458 65.2598 54.3496 64.9623C54.3799 64.1522 54.389 63.4798 54.389 63.4798L58.5791 61.9019L63.97 60.1816L68.4978 62.3501L75.1198 63.6221L75.1986 64.7654Z" fill="black"/>
<path opacity="0.1" d="M71.2621 27.7422L69.5418 58.4024L60.1879 56.4338L58.3359 44.1436L60.1698 27.6377L61.5508 27.8134C61.5153 28.4127 61.4475 29.0097 61.3479 29.6018C61.1238 30.6497 62.5078 38.0955 62.5078 38.0955C62.5078 38.0955 65.1382 46.4439 66.3239 45.2415C67.5096 44.0392 69.1859 37.6836 69.1859 37.6836C70.3277 35.3258 69.2056 28.7235 69.1208 28.5826C69.0618 28.3855 69.0257 28.1823 69.0133 27.9769L71.2621 27.7422Z" fill="black"/>
<path opacity="0.1" d="M75.3027 51.4621L75.3815 54.4664L74.5168 55.2509L73.9277 47.9822H75.2179L75.3027 51.4621Z" fill="black"/>
<path opacity="0.1" d="M54.9883 45.9272V45.9348C54.9758 46.1767 54.9413 46.417 54.8853 46.6526C54.8853 46.586 54.8853 46.5481 54.8732 46.5436C54.8187 46.5193 54.8838 46.2453 54.9883 45.9272Z" fill="black"/>
<path opacity="0.1" d="M56.6456 47.9838L56.0565 55.2525C56.0565 55.2525 55.1722 54.4514 54.0273 53.4066L54.1636 52.1194C54.1636 52.1194 54.6467 48.9545 54.8224 47.3948C54.9003 47.6026 55.0019 47.8008 55.1252 47.9854L56.6456 47.9838Z" fill="black"/>
<path d="M61.7202 25.1042C61.7202 25.1042 61.1599 24.2819 60.3937 25.8719C60.3937 25.8719 58.3918 27.0319 57.6997 27.1621C57.0077 27.2923 54.5575 28.154 54.5575 28.154C54.1872 28.4223 53.7413 28.5665 53.284 28.5659C52.5178 28.5659 51.8817 30.2483 51.9756 31.1659C52.0695 32.0836 51.9196 32.7559 51.2079 32.7938C50.4962 32.8317 50.8899 34.3081 50.8899 34.3081L55.6236 39.7339C55.6236 39.7339 55.9265 44.7311 55.775 44.8825C55.6236 45.0339 55.0815 46.4907 55.2132 46.5483C55.345 46.6058 54.5015 52.1239 54.5015 52.1239L53.3597 62.8407C53.3597 62.8407 53.3597 64.6351 55.6796 65.253C57.9995 65.8708 63.7055 65.4589 64.0795 63.831L65.2576 62.297C65.2576 62.297 67.2777 66.2342 70.3639 65.833C73.45 65.4317 75.4156 64.3186 75.4156 64.3186L75.0779 51.4667L74.8538 42.2067L79.6799 34.2945C79.6799 34.2945 78.3897 31.8246 78.5018 30.7025C78.6138 29.5804 78.8395 28.734 76.0895 28.3448C76.0895 28.3448 73.7696 27.9995 72.4036 27.0546C71.5913 26.4899 70.7032 26.0428 69.7657 25.7265C69.7657 25.7265 69.1449 24.606 68.6088 25.0905C68.6088 25.0905 68.9995 26.8108 68.9525 27.1197C68.9056 27.4286 69.0358 28.7945 69.1206 28.9369C69.2054 29.0792 70.3321 35.6801 69.1857 38.0378C69.1857 38.0378 67.5094 44.3979 66.3237 45.5942C65.138 46.7905 62.5076 38.4482 62.5076 38.4482C62.5076 38.4482 61.1236 31.0039 61.3477 29.956C61.5718 28.9081 61.7202 25.1042 61.7202 25.1042Z" fill="#3F3D56"/>
<path d="M65.7261 49.6315C66.1811 49.6315 66.5499 49.2626 66.5499 48.8077C66.5499 48.3527 66.1811 47.9839 65.7261 47.9839C65.2712 47.9839 64.9023 48.3527 64.9023 48.8077C64.9023 49.2626 65.2712 49.6315 65.7261 49.6315Z" fill="#3F3D56"/>
<path d="M65.7261 53.5126C66.1811 53.5126 66.5499 53.1437 66.5499 52.6888C66.5499 52.2338 66.1811 51.865 65.7261 51.865C65.2712 51.865 64.9023 52.2338 64.9023 52.6888C64.9023 53.1437 65.2712 53.5126 65.7261 53.5126Z" fill="#3F3D56"/>
<path opacity="0.1" d="M65.7261 49.6315C66.1811 49.6315 66.5499 49.2626 66.5499 48.8077C66.5499 48.3527 66.1811 47.9839 65.7261 47.9839C65.2712 47.9839 64.9023 48.3527 64.9023 48.8077C64.9023 49.2626 65.2712 49.6315 65.7261 49.6315Z" fill="black"/>
<path opacity="0.1" d="M65.7261 53.5126C66.1811 53.5126 66.5499 53.1437 66.5499 52.6888C66.5499 52.2338 66.1811 51.865 65.7261 51.865C65.2712 51.865 64.9023 52.2338 64.9023 52.6888C64.9023 53.1437 65.2712 53.5126 65.7261 53.5126Z" fill="black"/>
<path opacity="0.1" d="M73.1211 101.748C73.1211 101.748 76.4995 102.01 76.8372 102.272C77.1749 102.534 73.1211 101.748 73.1211 101.748Z" fill="black"/>
<path opacity="0.1" d="M53.0039 99.0916C53.0039 99.0916 53.7156 99.9895 53.4158 100.401C53.116 100.813 53.0039 99.0916 53.0039 99.0916Z" fill="black"/>
<path opacity="0.1" d="M53.8633 102.325C53.8633 102.325 55.1732 101.465 55.6971 102.037C56.2211 102.61 53.8633 102.325 53.8633 102.325Z" fill="black"/>
<path opacity="0.1" d="M68.7692 21.2397V23.4006C68.499 23.5193 68.2071 23.5806 67.9121 23.5808H62.241C61.9447 23.581 61.6517 23.5191 61.3809 23.3991V21.2397C61.3829 20.6694 61.6104 20.123 62.0139 19.7198C62.4173 19.3167 62.9639 19.0895 63.5342 19.0879H66.6173C67.1874 19.0899 67.7336 19.3172 68.1367 19.7204C68.5398 20.1235 68.7672 20.6696 68.7692 21.2397Z" fill="black"/>
<path opacity="0.1" d="M61.8724 11.96V13.556C61.8724 13.6484 61.8357 13.737 61.7704 13.8023C61.705 13.8676 61.6164 13.9043 61.5241 13.9043C61.4317 13.9043 61.3431 13.8676 61.2778 13.8023C61.2125 13.737 61.1758 13.6484 61.1758 13.556V12.2128C61.3907 12.087 61.6268 12.0013 61.8724 11.96Z" fill="black"/>
<path d="M68.247 12.1055H61.9051C60.9015 12.1055 60.0879 12.919 60.0879 13.9226V21.4048C60.0879 22.4084 60.9015 23.222 61.9051 23.222H68.247C69.2506 23.222 70.0641 22.4084 70.0641 21.4048V13.9226C70.0641 12.919 69.2506 12.1055 68.247 12.1055Z" fill="#DCDFED"/>
<path opacity="0.1" d="M67.9068 19.5316V24.0639H62.2402V19.5225C62.6123 19.2403 63.0665 19.0877 63.5335 19.0879H66.6166C67.0834 19.0916 67.5364 19.2474 67.9068 19.5316Z" fill="black"/>
<path opacity="0.1" d="M67.9737 12.1055H62.127V23.6975H67.9737V12.1055Z" fill="black"/>
<path d="M67.9113 12.1055H62.2402V23.6975H67.9113V12.1055Z" fill="#6F758D"/>
<path d="M64.492 16.1047H62.6582V16.4439H64.492V16.1047Z" fill="#DCDFED"/>
<path d="M67.5409 16.1047H65.707V16.4439H67.5409V16.1047Z" fill="#DCDFED"/>
<path d="M66.6226 19.8511H63.5273V20.054H66.6226V19.8511Z" fill="#DCDFED"/>
<path d="M103.997 32.3213L106.19 43.1546C106.215 43.2747 106.278 43.3836 106.37 43.4653C106.461 43.547 106.577 43.5974 106.699 43.6089L108.16 43.7513C108.268 43.9403 108.365 44.1349 108.452 44.3343C108.713 44.94 108.882 45.6669 109.444 46.0258C109.747 46.3286 110.43 46.2756 110.821 46.2771C111.231 46.262 111.641 46.3189 112.032 46.4452C111.987 46.4399 111.941 46.4399 111.896 46.4452C112.15 46.547 112.396 46.6685 112.632 46.8087C112.65 46.8329 112.67 46.8571 112.685 46.8814C112.747 46.9768 112.797 47.0918 112.901 47.1388C112.871 47.1994 113.015 47.2009 113.245 47.1691C113.268 47.1731 113.29 47.1803 113.31 47.1903C113.372 47.2315 113.424 47.2858 113.462 47.3493C113.842 47.8551 114.547 47.9807 115.183 47.9974C115.82 48.0141 116.492 47.9701 117.052 48.2715C117.185 48.3427 117.31 48.432 117.449 48.4926C117.442 48.5587 117.444 48.6256 117.456 48.691C117.522 48.9004 117.607 49.1032 117.711 49.2967C117.762 49.395 117.79 49.5037 117.793 49.6144C117.795 49.7252 117.772 49.8351 117.726 49.9357C117.679 50.0175 117.603 50.0871 117.555 50.1629C117.49 50.2951 117.457 50.441 117.459 50.5884C117.416 51.2774 117.373 51.98 117.561 52.6433C117.67 53.0294 117.855 53.4307 117.734 53.8123C117.661 54.0425 117.481 54.2379 117.455 54.4771C117.429 54.7164 117.581 54.9678 117.67 55.2085C117.88 55.7794 117.765 56.4639 117.62 57.0529C117.629 57.0581 117.639 57.0627 117.649 57.0666C117.542 57.1923 117.453 57.3325 117.385 57.483C117.154 57.9812 117.169 58.5551 117.185 59.1033C117.217 60.1346 117.252 61.1779 117.538 62.1683C117.587 62.3091 117.621 62.4548 117.638 62.6029C117.643 62.7426 117.631 62.8825 117.602 63.0193C117.534 63.4161 117.45 63.8113 117.352 64.202C117.297 64.3693 117.275 64.5457 117.287 64.7214C117.316 64.9501 117.459 65.1484 117.555 65.3604C117.935 66.2054 117.526 67.2457 117.896 68.0953C117.983 68.2967 118.112 68.4784 118.188 68.6843C118.354 69.1386 118.261 69.6293 118.317 70.1017C118.377 70.4358 118.459 70.7656 118.562 71.0891C118.83 72.14 118.386 73.2606 118.645 74.3145C118.866 75.2231 119.09 76.1317 119.099 77.0569C119.113 77.7035 119.024 78.3502 119.099 78.9922C119.175 79.6343 119.442 80.296 119.991 80.6383C120.284 80.8048 120.611 80.9012 120.947 80.9199C121.598 84.3074 121.56 87.7994 122.127 91.2051C122.24 91.8926 122.379 92.568 122.449 93.2691C122.772 96.5097 121.562 99.6549 120.879 102.858L120.77 102.924C119.929 103.448 119.034 104.039 118.701 104.966C118.598 105.252 118.574 105.617 118.804 105.818C118.89 105.874 118.971 105.937 119.046 106.006C119.23 106.227 119.069 106.624 119.29 106.805C119.435 106.83 119.581 106.845 119.728 106.851C119.627 107.091 119.526 107.332 119.425 107.573C119.333 107.787 119.239 108.02 119.296 108.246C119.349 108.389 119.42 108.525 119.507 108.65C119.666 108.991 119.739 109.365 119.722 109.74C119.708 109.865 119.743 109.99 119.817 110.09C119.859 110.128 119.907 110.159 119.96 110.179C120.633 110.475 121.373 110.588 122.104 110.509C122.835 110.429 123.533 110.159 124.127 109.725C124.184 109.688 124.233 109.64 124.269 109.583C124.288 109.544 124.301 109.502 124.31 109.46C124.406 109.068 124.503 108.676 124.598 108.283C124.61 108.238 124.621 108.191 124.633 108.146C124.745 107.682 124.858 107.22 124.972 106.757C125.123 106.106 125.288 105.453 125.399 104.788C125.399 105.158 125.399 105.526 125.399 105.895V107.189C125.396 107.379 125.402 107.57 125.419 107.759C125.578 107.759 125.737 107.759 125.896 107.759C125.907 107.761 125.919 107.76 125.93 107.755C125.94 107.751 125.949 107.743 125.956 107.734C125.978 107.686 125.988 107.634 125.987 107.582C126.01 107.11 126.026 106.636 126.037 106.162C126.056 105.332 126.059 104.496 126.044 103.669C126.044 103.482 126.062 103.095 126.032 102.836C126.11 102.653 126.175 102.464 126.226 102.272C126.303 102.011 126.377 101.748 126.441 101.483C126.541 101.469 126.643 101.469 126.744 101.483C126.747 103.012 126.598 104.538 126.3 106.038C126.594 106.312 127.113 106.153 127.349 105.826C127.586 105.499 127.616 105.069 127.652 104.675C127.763 103.36 127.975 102.057 128.188 100.754C128.211 100.53 128.275 100.312 128.378 100.111C128.479 99.9381 128.638 99.8079 128.727 99.6231C128.821 99.3931 128.85 99.1414 128.809 98.8963C128.755 98.3223 128.612 97.7378 128.261 97.2775C127.931 96.8459 127.383 96.5521 126.845 96.6157L126.812 96.5551C126.5 95.9297 126.532 95.1923 126.571 94.5017C126.614 93.7163 126.659 92.9309 126.704 92.1455C126.833 91.2793 126.935 90.4131 126.995 89.5454C127.147 88.9882 127.351 88.446 127.487 87.8797C127.487 87.33 127.683 86.7576 127.689 86.1927C127.691 85.6052 127.647 85.0183 127.557 84.4377C127.384 83.2444 127.072 82.0769 126.813 80.9018C126.771 80.7034 126.744 80.4929 126.715 80.2854C126.89 80.1831 127.052 80.0589 127.196 79.9159C126.931 77.8565 126.691 75.6456 127.666 73.8103C127.955 73.2681 128.35 72.7502 128.452 72.1445C128.478 71.9931 128.485 71.8326 128.517 71.6796C128.562 71.4989 128.625 71.3233 128.706 71.1557L130.635 66.7869L130.947 66.0843C131.282 65.3271 131.617 64.57 131.903 63.7871C132.239 62.8785 132.509 61.9351 132.762 60.9977C132.913 60.4359 133.064 59.8635 133.054 59.282C133.026 58.7657 132.904 58.2587 132.695 57.7859C132.65 57.6784 132.601 57.5724 132.544 57.4664C132.603 57.4482 132.66 57.4346 132.718 57.4164C132.846 56.5002 132.955 55.4902 132.439 54.7239C132.338 54.6021 132.257 54.4651 132.198 54.3181C132.106 54.0047 132.306 53.6851 132.369 53.3641C132.5 52.7084 132.057 52.0921 131.679 51.5394C131.621 51.4656 131.576 51.3827 131.546 51.294C131.476 51.0427 131.629 50.7625 131.632 50.5081C131.632 50.4405 131.617 50.3737 131.588 50.3128C133.049 50.3976 134.491 50.7792 135.957 50.8352C136.885 50.8716 137.925 50.7262 138.514 50.0175C138.891 49.5632 139.026 48.965 139.063 48.3805C139.129 47.3038 138.911 46.2317 138.729 45.1672C138.611 44.4448 138.517 43.718 138.443 42.9881C138.595 43.0017 138.746 43.0093 138.898 43.0093C139.765 43.0093 140.668 42.8821 141.386 42.4036C142.103 41.925 142.583 41.0119 142.358 40.1805C142.231 39.7111 141.903 39.3235 141.664 38.901C140.819 37.4094 141.058 35.5119 141.785 33.9568C142.126 33.2208 142.577 32.4576 142.441 31.658C142.247 30.5374 141.04 29.9544 140.135 29.2579C139.347 28.6395 138.726 27.8356 138.325 26.918C137.924 26.0005 137.757 24.998 137.839 24.0002C137.909 23.2627 138.11 22.4859 137.815 21.806C137.497 21.0776 136.711 20.6945 136.049 20.2523C135.021 19.5621 134.193 18.6144 133.646 17.5038C133.308 16.8133 133.03 16.1803 132.233 15.9441C131.593 15.776 130.921 15.7636 130.275 15.9077L130.408 15.8441C130.348 15.8547 130.287 15.8668 130.23 15.8805L130.136 15.9062C129.526 15.7735 128.894 15.7771 128.285 15.9168C127.054 16.2121 125.711 17.0965 124.702 17.8248C124.401 18.0349 124.123 18.2782 123.876 18.5502C123.85 18.579 123.821 18.6047 123.795 18.6335C123.674 18.7675 123.572 18.9178 123.492 19.0802C123.44 19.1987 123.401 19.3226 123.376 19.4497C123.271 19.799 123.229 20.1639 123.25 20.5279C123.196 20.6036 123.143 20.6793 123.099 20.7596C122.455 21.7806 122.226 23.009 122.459 24.1933C122.691 25.3777 123.368 26.4283 124.35 27.1303C124.168 27.5435 123.954 27.9416 123.709 28.3205C123.449 28.7415 123.173 29.1549 122.891 29.5622L119.863 30.5011C119.672 30.5617 119.481 30.6207 119.298 30.698C119.076 30.7922 118.868 30.9166 118.68 31.0675C118.377 31.3065 118.141 31.6204 117.995 31.9783C117.85 32.3362 117.8 32.7257 117.85 33.1087C117.864 33.1875 117.882 33.2602 117.9 33.3419C117.809 33.8053 117.74 34.2763 117.67 34.7442C117.579 35.3757 117.488 36.0071 117.405 36.6401C117.094 37.2673 116.958 37.9667 117.011 38.6647C117.022 39.0866 117.058 39.5074 117.122 39.9246C117.111 40.2956 117.107 40.6666 117.122 41.0376C117.151 41.5082 117.151 41.98 117.122 42.4505C117.07 42.8802 116.986 43.3054 116.87 43.7225C116.866 43.7606 116.854 43.7974 116.835 43.8306C116.816 43.8637 116.789 43.8924 116.758 43.9148L116.724 43.9239L116.521 43.9042L116.297 43.8785C116.296 43.8466 116.294 43.8147 116.289 43.7831L113.901 32.1002C113.873 31.9709 113.802 31.8552 113.698 31.7725C113.595 31.6897 113.467 31.645 113.335 31.6459H104.562C104.478 31.6459 104.395 31.6644 104.319 31.6999C104.243 31.7354 104.176 31.7872 104.122 31.8517C104.068 31.9161 104.029 31.9915 104.007 32.0726C103.986 32.1538 103.982 32.2387 103.997 32.3213ZM131.788 46.2696C131.806 46.2213 131.828 46.1742 131.853 46.1287C131.942 45.9773 132.073 45.8531 132.156 45.7002C132.198 45.614 132.221 45.5192 132.221 45.4231C132.221 45.327 132.198 45.2321 132.156 45.146C132.07 44.9945 132.307 44.8507 132.377 44.6917C132.41 44.5636 132.417 44.4304 132.4 44.2995C132.426 44.0791 132.511 43.8699 132.646 43.6937C132.813 43.4303 132.981 43.1698 133.152 42.9093C133.202 42.8306 133.255 42.7579 133.304 42.6761C133.332 42.7283 133.362 42.7788 133.396 42.8276C133.52 42.9677 133.615 43.1315 133.675 43.3091C133.685 43.4336 133.685 43.5587 133.675 43.6831C133.675 44.0708 133.92 44.4115 134.106 44.7538C134.293 45.096 134.429 45.5245 134.235 45.8622C134.167 45.9803 134.084 46.1651 134.2 46.2196C134.265 46.2499 134.352 46.2196 134.408 46.262C134.486 46.3332 134.379 46.4528 134.28 46.4967C133.956 46.6368 133.606 46.7091 133.252 46.7091C132.899 46.7091 132.549 46.6368 132.224 46.4967C132.088 46.4256 131.939 46.3438 131.788 46.2696ZM113.162 44.2434L115.585 44.4812C115.384 44.5796 115.162 44.6254 114.938 44.6144L114.351 44.4388C114.351 44.4388 114.351 44.4781 114.331 44.5448C114.22 44.516 114.108 44.4888 113.998 44.463C113.715 44.3964 113.436 44.3222 113.159 44.2434H113.162Z" fill="url(#paint1_linear_4462_41425)"/>
<path d="M131.825 18.0172C132.365 19.1174 133.183 20.0571 134.199 20.7429C134.855 21.1836 135.63 21.5652 135.945 22.2891C136.239 22.9644 136.039 23.7382 135.971 24.4727C135.889 25.464 136.053 26.4602 136.45 27.3725C136.846 28.2849 137.462 29.085 138.242 29.7016C139.137 30.3936 140.332 30.9751 140.523 32.0896C140.659 32.8847 140.22 33.6448 139.875 34.3763C139.163 35.9239 138.919 37.8107 139.755 39.2932C139.993 39.7157 140.314 40.1003 140.441 40.5667C140.665 41.3951 140.19 42.2976 139.48 42.7791C138.769 43.2607 137.877 43.3849 137.02 43.3849C136.396 43.3849 135.721 43.291 135.279 42.8533C134.976 42.5596 134.834 42.1507 134.694 41.7585L133.61 38.6935C133.413 38.1423 133.207 37.5699 132.797 37.152C131.928 36.2646 130.507 36.3585 129.266 36.3736C127.436 36.3953 125.615 36.1081 123.881 35.5241C122.866 35.1819 121.761 34.5989 121.526 33.5555C121.294 32.5349 121.992 31.5627 122.607 30.7162C123.068 30.0852 123.503 29.4366 123.913 28.7703C124.312 28.1222 124.695 27.4407 124.804 26.6881C124.988 25.4373 124.402 24.2228 123.947 23.0432C123.493 21.8635 123.177 20.4689 123.837 19.3907C124.121 18.9712 124.485 18.6111 124.907 18.3307C125.899 17.6053 127.232 16.727 128.449 16.4317C129.102 16.2794 129.782 16.2887 130.43 16.459C131.214 16.6967 131.49 17.3252 131.825 18.0172Z" fill="#3F3D56"/>
<path d="M118.458 32.6243C118.215 33.4542 118.042 34.3032 117.942 35.1622C117.639 37.2384 117.336 39.3266 117.394 41.4224C117.422 41.8909 117.422 42.3607 117.394 42.8292C117.342 43.2562 117.259 43.6788 117.146 44.0936C117.141 44.1316 117.129 44.1682 117.11 44.2011C117.091 44.234 117.065 44.2624 117.033 44.2844C116.962 44.3192 116.882 44.2844 116.799 44.2753C116.529 44.242 116.331 44.5025 116.122 44.6781C115.919 44.8423 115.67 44.9405 115.409 44.9597C115.149 44.9789 114.889 44.9182 114.664 44.7857C114.733 45.0938 114.711 45.4153 114.6 45.7111C114.49 46.0069 114.295 46.2641 114.041 46.4514C113.783 46.634 113.489 46.7586 113.179 46.8169C112.868 46.8752 112.549 46.8657 112.242 46.7891C112.553 46.7406 112.848 46.9587 113.024 47.2237C113.084 47.3191 113.133 47.4327 113.236 47.4796C113.339 47.5265 113.519 47.4675 113.64 47.5311C113.7 47.5704 113.752 47.622 113.791 47.6825C114.167 48.1868 114.865 48.311 115.493 48.3276C116.122 48.3443 116.787 48.3019 117.341 48.6002C117.473 48.6832 117.609 48.7595 117.748 48.8288C118.184 49.0091 118.705 48.8288 119.044 48.5063C119.384 48.1838 119.571 47.728 119.711 47.2782C120.271 45.461 120.165 43.5061 120.047 41.6041C119.862 38.5785 119.478 35.4818 118.458 32.6243Z" fill="#454B69"/>
<path opacity="0.1" d="M118.458 32.6243C118.215 33.4542 118.042 34.3032 117.942 35.1622C117.639 37.2384 117.336 39.3266 117.394 41.4224C117.422 41.8909 117.422 42.3607 117.394 42.8292C117.342 43.2562 117.259 43.6788 117.146 44.0936C117.141 44.1316 117.129 44.1682 117.11 44.2011C117.091 44.234 117.065 44.2624 117.033 44.2844C116.962 44.3192 116.882 44.2844 116.799 44.2753C116.529 44.242 116.331 44.5025 116.122 44.6781C115.919 44.8423 115.67 44.9405 115.409 44.9597C115.149 44.9789 114.889 44.9182 114.664 44.7857C114.733 45.0938 114.711 45.4153 114.6 45.7111C114.49 46.0069 114.295 46.2641 114.041 46.4514C113.783 46.634 113.489 46.7586 113.179 46.8169C112.868 46.8752 112.549 46.8657 112.242 46.7891C112.553 46.7406 112.848 46.9587 113.024 47.2237C113.084 47.3191 113.133 47.4327 113.236 47.4796C113.339 47.5265 113.519 47.4675 113.64 47.5311C113.7 47.5704 113.752 47.622 113.791 47.6825C114.167 48.1868 114.865 48.311 115.493 48.3276C116.122 48.3443 116.787 48.3019 117.341 48.6002C117.473 48.6832 117.609 48.7595 117.748 48.8288C118.184 49.0091 118.705 48.8288 119.044 48.5063C119.384 48.1838 119.571 47.728 119.711 47.2782C120.271 45.461 120.165 43.5061 120.047 41.6041C119.862 38.5785 119.478 35.4818 118.458 32.6243Z" fill="black"/>
<path d="M127.651 88.0175C127.5 88.6732 127.235 89.3032 127.094 89.9634C126.989 90.5303 126.927 91.1044 126.909 91.6806L126.747 94.6002C126.708 95.2922 126.676 96.0206 126.983 96.6415C127.197 97.0716 127.566 97.432 127.672 97.9014C127.836 98.6358 127.311 99.3279 126.82 99.8988L124.397 102.702C123.64 103.58 122.812 104.504 121.689 104.802C121.522 104.858 121.342 104.865 121.172 104.82C120.858 104.717 120.707 104.339 120.752 104.012C120.823 103.689 120.971 103.388 121.182 103.133C121.815 102.244 122.495 101.369 122.907 100.358C123.429 99.072 123.482 97.647 123.451 96.2584C123.331 90.5979 121.903 85.0025 122.065 79.3466C123.301 79.2527 124.585 79.0437 125.822 79.0589C126.926 79.071 126.794 80.1961 126.986 81.0805C127.242 82.251 127.55 83.411 127.722 84.5982C127.811 85.176 127.854 85.7598 127.851 86.3442C127.845 86.9015 127.651 87.4709 127.651 88.0175Z" fill="#FBBEBE"/>
<path opacity="0.05" d="M127.651 88.0175C127.5 88.6732 127.235 89.3032 127.094 89.9634C126.989 90.5303 126.927 91.1044 126.909 91.6806L126.747 94.6002C126.708 95.2922 126.676 96.0206 126.983 96.6415C127.197 97.0716 127.566 97.432 127.672 97.9014C127.836 98.6358 127.311 99.3279 126.82 99.8988L124.397 102.702C123.64 103.58 122.812 104.504 121.689 104.802C121.522 104.858 121.342 104.865 121.172 104.82C120.858 104.717 120.707 104.339 120.752 104.012C120.823 103.689 120.971 103.388 121.182 103.133C121.815 102.244 122.495 101.369 122.907 100.358C123.429 99.072 123.482 97.647 123.451 96.2584C123.331 90.5979 121.903 85.0025 122.065 79.3466C123.301 79.2527 124.585 79.0437 125.822 79.0589C126.926 79.071 126.794 80.1961 126.986 81.0805C127.242 82.251 127.55 83.411 127.722 84.5982C127.811 85.176 127.854 85.7598 127.851 86.3442C127.845 86.9015 127.651 87.4709 127.651 88.0175Z" fill="black"/>
<path d="M126.921 96.7141C127.483 96.599 128.072 96.9034 128.418 97.3607C128.765 97.818 128.906 98.3995 128.961 98.9719C129.001 99.2155 128.973 99.4654 128.88 99.6943C128.791 99.8714 128.635 100.008 128.534 100.179C128.432 100.379 128.368 100.596 128.346 100.819C128.137 102.114 127.926 103.412 127.816 104.719C127.782 105.117 127.751 105.539 127.513 105.864C127.275 106.188 126.768 106.348 126.477 106.074C126.771 104.582 126.918 103.065 126.915 101.545C126.255 101.454 125.681 101.973 125.249 102.481C124.808 102.999 124.403 103.548 124.038 104.122C123.704 104.651 123.4 105.203 122.978 105.662C122.545 106.121 122.006 106.468 121.409 106.672C120.812 106.876 120.174 106.932 119.551 106.834C119.333 106.654 119.492 106.259 119.31 106.039C119.238 105.969 119.16 105.904 119.077 105.847C118.85 105.647 118.872 105.285 118.975 105C119.305 104.077 120.187 103.486 121.02 102.97C122.525 102.025 124.048 101.093 125.562 100.177C126.142 99.8226 126.583 99.2817 126.815 98.6433C126.869 98.4859 127.106 96.652 126.921 96.7141Z" fill="#3F3D56"/>
<path opacity="0.05" d="M126.921 96.7141C127.483 96.599 128.072 96.9034 128.418 97.3607C128.765 97.818 128.906 98.3995 128.961 98.9719C129.001 99.2155 128.973 99.4654 128.88 99.6943C128.791 99.8714 128.635 100.008 128.534 100.179C128.432 100.379 128.368 100.596 128.346 100.819C128.137 102.114 127.926 103.412 127.816 104.719C127.782 105.117 127.751 105.539 127.513 105.864C127.275 106.188 126.768 106.348 126.477 106.074C126.771 104.582 126.918 103.065 126.915 101.545C126.255 101.454 125.681 101.973 125.249 102.481C124.808 102.999 124.403 103.548 124.038 104.122C123.704 104.651 123.4 105.203 122.978 105.662C122.545 106.121 122.006 106.468 121.409 106.672C120.812 106.876 120.174 106.932 119.551 106.834C119.333 106.654 119.492 106.259 119.31 106.039C119.238 105.969 119.16 105.904 119.077 105.847C118.85 105.647 118.872 105.285 118.975 105C119.305 104.077 120.187 103.486 121.02 102.97C122.525 102.025 124.048 101.093 125.562 100.177C126.142 99.8226 126.583 99.2817 126.815 98.6433C126.869 98.4859 127.106 96.652 126.921 96.7141Z" fill="black"/>
<path d="M127.165 86.3745C127.468 90.1603 126.62 93.9218 125.865 97.6394C125.794 97.9371 125.755 98.2418 125.75 98.548C125.78 98.9265 125.841 99.3018 125.934 99.6701C126.218 101.204 125.853 102.777 125.491 104.296C125.239 105.347 124.886 106.534 123.904 106.993C123.212 107.317 122.404 107.177 121.654 107.028C121.407 107.002 121.171 106.908 120.974 106.756C120.705 106.501 120.694 106.082 120.717 105.712C120.977 101.537 123.091 97.5349 122.685 93.3706C122.617 92.6816 122.479 92.0001 122.366 91.3172C121.781 87.7752 121.851 84.1394 121.111 80.6277C121.074 80.5062 121.074 80.3767 121.111 80.2552C121.175 80.1349 121.276 80.0387 121.4 79.9811C122.084 79.5722 122.816 79.2073 123.605 79.0967C124.221 79.0104 124.998 79.0771 125.516 79.4602C126.059 79.8615 126.096 80.7246 126.255 81.3546C126.662 83.0021 127.028 84.6739 127.165 86.3745Z" fill="#FBBEBE"/>
<path d="M126.176 107.614C126.178 107.666 126.167 107.718 126.146 107.766C126.139 107.775 126.13 107.783 126.12 107.787C126.109 107.792 126.098 107.794 126.087 107.793C125.935 107.793 125.772 107.793 125.616 107.793C125.599 107.604 125.592 107.414 125.594 107.223V105.938C125.594 104.917 125.594 103.895 125.64 102.88C125.639 102.843 125.645 102.807 125.656 102.771C125.667 102.749 125.685 102.731 125.708 102.721C125.82 102.668 126.082 102.505 126.179 102.694C126.276 102.883 126.232 103.474 126.236 103.721C126.252 104.546 126.25 105.375 126.236 106.2C126.218 106.671 126.198 107.143 126.176 107.614Z" fill="#3F3D56"/>
<path d="M117.92 62.8633C117.924 63.0026 117.912 63.1419 117.884 63.2783C117.815 63.672 117.732 64.0642 117.637 64.4534C117.582 64.6203 117.56 64.7961 117.572 64.9713C117.6 65.1984 117.743 65.3953 117.837 65.6058C118.212 66.4462 117.808 67.482 118.174 68.3315C118.261 68.5314 118.388 68.7131 118.464 68.9175C118.629 69.3627 118.535 69.8564 118.591 70.3274C118.65 70.6599 118.731 70.9882 118.833 71.3101C119.098 72.355 118.659 73.4695 118.915 74.519C119.134 75.4169 119.354 76.3225 119.369 77.2447C119.381 77.8868 119.293 78.5304 119.369 79.1694C119.445 79.8084 119.708 80.4656 120.252 80.8064C120.682 81.0744 121.212 81.1092 121.721 81.1092C122.698 81.1274 123.679 81.0986 124.654 81.0229C125.629 80.9472 126.679 80.7882 127.366 80.0946C127.104 78.0458 126.867 75.847 127.831 74.0208C128.116 73.4817 128.506 72.9744 128.608 72.3717C128.632 72.2202 128.64 72.0612 128.672 71.9083C128.716 71.729 128.779 71.5549 128.859 71.3889L130.767 67.0428C130.868 66.8096 130.969 66.5764 131.07 66.3432C131.4 65.5861 131.732 64.8289 132.017 64.0581C132.348 63.1495 132.612 62.2167 132.865 61.2839C133.016 60.7236 133.168 60.1558 133.152 59.5758C133.126 59.0621 133.006 58.5576 132.798 58.0872C132.684 57.8131 132.554 57.5436 132.419 57.2801C128.637 56.3889 124.744 56.0558 120.865 56.2913C120.248 56.304 119.636 56.406 119.048 56.5941C118.645 56.7355 118.282 56.9712 117.988 57.2816C117.855 57.4262 117.746 57.5907 117.664 57.7692C117.437 58.2659 117.451 58.8368 117.467 59.382C117.499 60.4071 117.534 61.446 117.817 62.4303C117.866 62.5707 117.901 62.7158 117.92 62.8633Z" fill="#3F3D56"/>
<path d="M120.571 105.514C121.145 105.948 121.819 106.232 122.531 106.338C123.158 106.43 123.847 106.363 124.348 105.97C124.918 105.515 125.105 104.758 125.275 104.049L125.491 103.106C125.57 102.767 125.643 102.428 125.708 102.085C125.873 101.182 125.924 100.262 125.859 99.3459C126.373 99.5458 126.682 100.158 126.715 100.709C126.748 101.26 126.579 101.799 126.423 102.329C126.361 102.586 126.266 102.834 126.141 103.067C126.049 103.218 125.929 103.357 125.85 103.521C125.752 103.762 125.696 104.018 125.684 104.278C125.567 105.128 125.398 105.97 125.178 106.799L124.842 108.18L124.809 108.318L124.513 109.481C124.506 109.523 124.492 109.564 124.472 109.602C124.437 109.66 124.389 109.708 124.333 109.745C123.746 110.175 123.056 110.443 122.332 110.521C121.608 110.599 120.877 110.485 120.211 110.19C120.16 110.169 120.112 110.139 120.07 110.102C119.997 110.002 119.964 109.877 119.978 109.754C119.995 109.38 119.921 109.009 119.764 108.67C119.678 108.545 119.609 108.409 119.557 108.267C119.499 108.043 119.592 107.812 119.683 107.599L120.378 105.971C120.455 105.779 120.446 105.68 120.571 105.514Z" fill="#3F3D56"/>
<path d="M122.204 37.7425C122.229 38.1033 122.3 38.4594 122.414 38.8025C122.5 39.0496 122.649 39.27 122.846 39.4416C123.17 39.0039 123.754 38.854 124.185 38.533C124.565 38.2528 124.833 37.8516 125.116 37.473C125.673 36.7279 126.327 36.0526 126.933 35.3408C127.024 35.2333 127.113 35.1258 127.201 35.0153C127.509 34.6403 127.788 34.2424 128.035 33.825C128.538 32.9604 128.882 31.9654 129.638 31.3098C130.049 30.9539 130.566 30.7177 130.932 30.3133C130.684 29.9484 130.592 29.5062 130.504 29.0731C130.411 28.655 130.339 28.2325 130.289 27.8072C130.275 27.6951 130.267 27.5815 130.263 27.468C130.263 27.4195 130.263 27.371 130.255 27.3165C130.255 26.9698 130.479 26.3731 130.125 26.1778C129.798 25.9976 129.263 25.9961 128.882 26.0006H128.82C127.929 26.0095 127.06 26.279 126.32 26.7759C126.152 26.8792 126.005 27.0133 125.887 27.1712C125.688 27.474 125.678 27.8374 125.693 28.1994C125.693 28.2827 125.7 28.3644 125.706 28.4447C125.706 28.4841 125.706 28.5249 125.706 28.5658C125.72 28.9686 125.681 29.4002 125.404 29.6788C125.101 29.9817 124.619 29.9953 124.209 30.1241C124.141 30.1453 124.075 30.1695 124.012 30.1952C123.56 30.3992 123.174 30.7261 122.899 31.1386C122.59 31.6118 122.371 32.138 122.254 32.6908C122.138 33.1884 122.066 33.695 122.039 34.2051C121.96 35.3757 122.081 36.5689 122.204 37.7425Z" fill="#FBBEBE"/>
<path opacity="0.1" d="M125.699 28.4447C125.699 28.4841 125.699 28.525 125.699 28.5658C126.202 28.7491 127.425 28.2342 127.992 28.2342C129.115 28.2342 129.462 28.4568 130.275 27.8011C130.257 27.6406 130.246 27.4786 130.242 27.3165C130.242 26.9698 130.466 26.3731 130.112 26.1778C129.757 25.9824 129.189 25.9961 128.806 26.0006C127.915 26.0095 127.046 26.279 126.306 26.7759C126.138 26.8792 125.991 27.0133 125.873 27.1712C125.635 27.5346 125.673 28.0116 125.699 28.4447Z" fill="black"/>
<path d="M122.586 23.761C122.586 24.382 122.708 24.997 122.946 25.5708C123.183 26.1446 123.532 26.6659 123.971 27.105C124.41 27.544 124.931 27.8922 125.505 28.1296C126.079 28.3671 126.694 28.4891 127.315 28.4887C128.569 28.4879 129.771 27.9895 130.657 27.1031C131.544 26.2167 132.042 25.0146 132.043 23.761C132.021 22.5216 131.513 21.3405 130.628 20.4718C129.744 19.6032 128.554 19.1165 127.314 19.1165C126.075 19.1165 124.885 19.6032 124 20.4718C123.116 21.3405 122.608 22.5216 122.586 23.761Z" fill="#FBBEBE"/>
<path d="M130.54 29.3489C130.689 29.2243 130.871 29.1463 131.064 29.1248C131.343 29.1248 131.571 29.3534 131.686 29.6063C131.802 29.8592 131.838 30.1409 131.936 30.4013C132.071 30.7533 132.317 31.052 132.636 31.2524C132.859 31.3917 133.124 31.4886 133.276 31.7066C133.517 32.0474 133.37 32.5229 133.167 32.8878C132.41 34.2507 131.047 35.1381 129.728 35.974L128.244 36.9159C127.649 37.3096 127.034 37.671 126.4 37.9986C125.37 38.5059 124.257 38.8315 123.234 39.3494C122.763 39.5871 122.301 39.8703 121.78 39.9551C121.67 39.6048 121.601 39.243 121.574 38.8769C121.321 36.6191 121.071 34.3128 121.574 32.0973C121.668 31.6749 121.8 31.2433 122.096 30.9298C122.291 30.7449 122.513 30.5916 122.755 30.4755C123.356 30.1528 123.973 29.8631 124.606 29.6078C124.902 29.4641 125.227 29.392 125.557 29.3973C125.529 29.6445 125.456 29.8843 125.34 30.1045L122.955 35.4137C122.804 35.7468 122.652 36.0951 122.664 36.4616C122.682 36.9825 123.034 37.4898 122.89 37.991C124.274 35.9702 125.864 34.0977 127.633 32.4032C127.711 32.3385 127.775 32.2587 127.822 32.1685C127.865 32.0268 127.875 31.8769 127.849 31.7309C127.833 31.4522 127.89 31.0797 128.123 30.8935C128.285 30.7632 128.525 30.7254 128.703 30.6118C129.33 30.2166 129.93 29.7698 130.54 29.3489Z" fill="#8F53F0"/>
<path opacity="0.1" d="M117.9 57.701C119.077 58.3279 120.404 58.6338 121.732 58.761C123.06 58.8882 124.395 58.8352 125.728 58.7837C126.739 58.7474 127.749 58.7065 128.756 58.6701C130.131 58.6156 131.482 58.5051 132.797 58.0902C132.683 57.8161 132.553 57.5465 132.418 57.283C128.635 56.3918 124.743 56.0587 120.864 56.2942C120.247 56.3069 119.635 56.4089 119.047 56.597C118.644 56.7384 118.28 56.9741 117.987 57.2845C117.966 57.4254 117.932 57.5647 117.9 57.701Z" fill="black"/>
<path d="M118.114 42.9231C118.638 44.6934 118.279 46.6302 117.952 48.4458C117.757 48.5442 117.696 48.8062 117.739 49.0212C117.804 49.2303 117.888 49.4331 117.99 49.627C118.041 49.7246 118.068 49.8325 118.071 49.9425C118.074 50.0524 118.051 50.1616 118.005 50.2615C117.958 50.3448 117.884 50.4129 117.835 50.4886C117.771 50.6201 117.739 50.7649 117.742 50.9111C117.698 51.5971 117.657 52.2952 117.842 52.9554C117.949 53.3401 118.132 53.7398 118.011 54.1184C117.94 54.3471 117.763 54.5409 117.737 54.7802C117.711 55.0194 117.861 55.2678 117.949 55.5085C118.156 56.0749 118.044 56.7563 117.901 57.3424C119.077 57.9693 120.404 58.2752 121.732 58.4024C123.06 58.5296 124.395 58.4766 125.728 58.4266L128.757 58.3115C130.142 58.257 131.505 58.145 132.827 57.7225C132.954 56.8139 133.062 55.8069 132.551 55.0452C132.452 54.9236 132.372 54.7871 132.314 54.6408C132.223 54.3289 132.42 54.0124 132.483 53.6929C132.612 53.0402 132.18 52.4269 131.799 51.8757C131.743 51.802 131.699 51.7197 131.669 51.6319C131.599 51.3805 131.75 51.1034 131.753 50.8505C131.755 50.777 131.738 50.7042 131.705 50.6385C131.649 50.5325 131.544 50.4598 131.487 50.3538C131.428 50.2165 131.41 50.065 131.435 49.9177C131.505 48.9718 131.619 48.0304 131.778 47.0935C131.793 47.0087 131.808 46.9224 131.828 46.8376C131.856 46.708 131.903 46.5831 131.967 46.4666C132.055 46.3152 132.184 46.1925 132.27 46.0396C132.312 45.9542 132.334 45.8601 132.334 45.7647C132.334 45.6693 132.312 45.5753 132.27 45.4899C132.184 45.3309 132.421 45.1946 132.489 45.0356C132.522 44.9085 132.529 44.7763 132.511 44.6464C132.537 44.4266 132.621 44.2176 132.754 44.0407C132.919 43.7787 133.086 43.5198 133.256 43.2608C134.01 42.0928 134.794 40.9454 135.607 39.8188C136.004 39.2767 136.404 38.7396 136.808 38.2076C137.134 37.779 137.468 37.3429 137.632 36.8296C137.661 36.7403 137.683 36.6493 137.7 36.557C137.79 36.0642 137.719 35.5554 137.497 35.1063C137.303 34.7186 137.008 34.3961 136.749 34.0463C136.461 33.6586 136.215 33.2346 135.884 32.8833C135.554 32.532 135.109 32.2503 134.626 32.2503C134.346 32.2503 134.02 32.329 133.825 32.1291C133.754 32.0565 133.716 31.9595 133.643 31.8914C133.437 31.6961 133.101 31.8293 132.854 31.9686L128.119 34.6444L127.351 35.0805C127.212 35.1638 127.07 35.2456 126.93 35.3304C126.269 35.7146 125.635 36.1447 125.033 36.6176C124.155 37.3202 123.184 37.9683 122.419 38.7921C122.348 38.8678 122.277 38.9435 122.209 39.0268C122.07 38.0637 121.933 37.0991 121.795 36.133C121.745 35.8554 121.726 35.5728 121.741 35.291C121.778 35.0137 121.846 34.7414 121.944 34.4794C121.974 34.387 122.007 34.2916 122.038 34.1977L122.548 32.6667C122.798 31.9171 123.064 31.1373 123.629 30.5846C123.766 30.4677 123.892 30.3384 124.005 30.1984V30.1908C124.058 30.1207 124.094 30.0391 124.11 29.9526C124.126 29.8662 124.121 29.7771 124.097 29.6926L120.108 30.9374C119.921 30.9964 119.731 31.0555 119.551 31.1327C119.334 31.2276 119.13 31.3514 118.945 31.5007C118.645 31.7395 118.412 32.0521 118.268 32.408C118.124 32.7639 118.076 33.151 118.126 33.5314C118.166 33.7797 118.253 34.019 118.305 34.2643C118.396 34.7095 118.54 35.2244 118.346 35.6363C118.152 36.0482 117.978 36.4162 117.796 36.8053C117.646 37.1021 117.521 37.4111 117.424 37.7291C117.316 38.1635 117.272 38.6115 117.295 39.0586C117.318 40.0569 117.491 41.0461 117.807 41.9933C117.902 42.3053 118.02 42.6112 118.114 42.9231Z" fill="#454B69"/>
<path d="M126.255 45.1658L116.797 44.2754L115.145 44.0891L116.663 44.6267L126.255 45.1658Z" fill="#3F3D56"/>
<path d="M126.467 45.6232V44.9114L116.441 44.4163L115.953 44.8357L126.467 45.6232Z" fill="#3F3D56"/>
<path d="M126.436 44.2663C126.225 44.2103 126 44.2209 125.786 44.1709C125.511 44.1043 125.262 43.9347 124.981 43.8998C124.807 43.8875 124.632 43.9002 124.461 43.9377L123.163 44.1648C123.064 44.1815 122.945 44.2133 122.911 44.3087C122.901 44.3521 122.904 44.3972 122.918 44.4393C122.932 44.4814 122.957 44.5189 122.991 44.548C123.223 44.7948 123.597 44.8296 123.933 44.8508L124.841 44.9053C125.017 44.901 125.192 44.9405 125.349 45.0204C125.427 45.0627 125.488 45.132 125.519 45.2155C125.551 45.299 125.551 45.3911 125.52 45.4747C125.471 45.5561 125.398 45.6209 125.312 45.661C124.951 45.8595 124.537 45.938 124.128 45.8851C123.799 45.8223 123.476 45.7301 123.163 45.6095C122.367 45.3547 121.526 45.2661 120.694 45.349C120.479 45.3702 120.226 45.4323 120.149 45.6352C120.128 45.7065 120.125 45.7818 120.141 45.8544C120.156 45.927 120.189 45.9947 120.236 46.0517C120.559 46.506 121.202 46.5181 121.751 46.6392C122.264 46.7569 122.74 47.0034 123.132 47.3555C123.012 47.6023 123.112 47.8946 123.232 48.1414C123.369 48.4238 123.531 48.693 123.718 48.9455C123.818 49.1023 123.959 49.2289 124.125 49.312C124.235 49.3507 124.351 49.3706 124.467 49.371C125.591 49.4404 126.718 49.3789 127.828 49.1878C127.947 49.1796 128.06 49.1322 128.15 49.053C128.207 48.9757 128.243 48.8849 128.255 48.7895C128.37 48.2242 128.471 47.6558 128.557 47.0844C128.612 46.724 128.635 46.3455 128.457 46.0138C128.32 45.7534 128.102 45.6686 127.879 45.4929C127.382 45.1022 127.073 44.4359 126.436 44.2663Z" fill="#FBBEBE"/>
<path d="M114.22 32.5062L116.569 44.1542C116.586 44.2417 116.583 44.3321 116.559 44.4181C116.536 44.5041 116.492 44.5834 116.432 44.6495C116.372 44.7156 116.297 44.7667 116.214 44.7988C116.131 44.8309 116.041 44.843 115.953 44.8342L107.1 43.9604C106.978 43.9488 106.864 43.8983 106.773 43.8165C106.683 43.7346 106.621 43.6258 106.597 43.5061L104.427 32.7303C104.411 32.6476 104.413 32.5622 104.433 32.4803C104.453 32.3984 104.492 32.3221 104.545 32.2567C104.599 32.1914 104.666 32.1388 104.742 32.1026C104.818 32.0664 104.902 32.0475 104.986 32.0474H113.661C113.793 32.0479 113.921 32.0938 114.022 32.1774C114.124 32.261 114.194 32.3771 114.22 32.5062Z" fill="#3F3D56"/>
<path d="M109.815 46.365C109.257 46.0076 109.091 45.2913 108.832 44.6826C108.626 44.2343 108.389 43.8011 108.122 43.3863C107.896 43.0138 107.667 42.561 107.849 42.1643C107.991 41.9112 108.224 41.7217 108.5 41.6343C108.751 41.516 109.033 41.4815 109.304 41.5358C109.607 41.6191 109.833 41.8705 110.039 42.1098L110.769 42.9563C111.102 43.3439 111.444 43.7376 111.883 43.9996C112.149 44.1485 112.431 44.2678 112.724 44.3555C113.248 44.5291 113.778 44.6805 114.314 44.8098C114.622 44.8689 114.922 44.9619 115.21 45.0869C115.268 45.1081 115.321 45.1407 115.367 45.1828C115.412 45.225 115.448 45.2758 115.474 45.3322C115.486 45.4019 115.484 45.4733 115.468 45.5422C115.452 45.6112 115.423 45.6762 115.381 45.7335C115.196 46.0788 114.986 46.7799 114.598 46.9025C114.234 46.9934 113.863 47.0517 113.488 47.0767C113.119 47.1161 112.828 46.9646 112.495 46.8253C112.076 46.6654 111.629 46.5938 111.182 46.6148C110.788 46.6133 110.119 46.6693 109.815 46.365Z" fill="#FBBEBE"/>
<path d="M114.661 44.7856C114.661 44.7856 114.334 47.0268 112.238 46.786C112.238 46.786 113.348 47.2297 113.232 47.4766C113.115 47.7234 115.806 46.995 115.806 46.995L115.945 45.826C115.945 45.826 116.035 45.1824 115.945 45.1642C115.856 45.146 114.661 44.7856 114.661 44.7856Z" fill="#454B69"/>
<path opacity="0.1" d="M114.661 44.7856C114.661 44.7856 114.334 47.0268 112.238 46.786C112.238 46.786 113.348 47.2297 113.232 47.4766C113.115 47.7234 115.806 46.995 115.806 46.995L115.945 45.826C115.945 45.826 116.035 45.1824 115.945 45.1642C115.856 45.146 114.661 44.7856 114.661 44.7856Z" fill="black"/>
<path opacity="0.1" d="M124.309 35.4316C124.103 35.5358 123.934 35.7001 123.824 35.9026C123.649 36.1813 123.516 36.4845 123.43 36.8021C123.327 37.1882 123.279 37.6198 122.994 37.8984" fill="black"/>
<path opacity="0.1" d="M133.088 41.6298C132.935 42.1745 132.998 42.7573 133.265 43.2562C134.019 42.0882 134.803 40.9408 135.617 39.8142C136.007 39.2751 136.404 38.7395 136.808 38.2075C137.134 37.7789 137.469 37.3428 137.632 36.8295C137.661 36.7402 137.684 36.6492 137.7 36.5569C137.498 36.261 137.198 36.0464 136.852 35.9512C136.303 37.5442 134.909 38.686 133.914 40.0474C133.539 40.5165 133.259 41.0539 133.088 41.6298Z" fill="black"/>
<path opacity="0.1" d="M126.076 49.7797L129.37 49.8918C129.651 49.9009 129.998 49.9569 130.086 50.2234C130.113 50.3082 130.107 50.4006 130.135 50.4839C130.227 50.7867 130.628 50.82 130.942 50.8185C131.214 50.8185 131.487 50.8291 131.758 50.8503C131.759 50.7768 131.742 50.704 131.709 50.6383C131.653 50.5323 131.549 50.4596 131.491 50.3536C131.432 50.2163 131.415 50.0648 131.44 49.9175C131.51 48.9716 131.624 48.0302 131.782 47.0933C131.797 47.0085 131.812 46.9222 131.832 46.8374C131.555 46.6966 131.275 46.5633 130.973 46.5951C130.702 46.6239 130.454 46.7844 130.183 46.7693C129.712 46.7466 129.388 46.2211 128.919 46.1908C128.816 46.1988 128.713 46.1864 128.616 46.1545C128.464 46.0787 128.443 45.8819 128.367 45.735C128.254 45.5185 127.936 45.4655 127.698 45.5215C127.704 46.0194 127.672 46.517 127.603 47.01C127.579 47.2266 127.528 47.4393 127.451 47.643C127.362 47.8492 127.249 48.0448 127.116 48.226C126.768 48.7485 126.429 49.2588 126.076 49.7797Z" fill="black"/>
<path d="M137.026 35.7664C137.612 35.9178 138.027 36.4629 138.198 37.0429C138.369 37.6229 138.339 38.2392 138.323 38.8419C138.265 41.0828 138.417 43.3242 138.778 45.5367C138.95 46.5967 139.171 47.6567 139.106 48.7334C139.07 49.3149 138.938 49.9145 138.564 50.3613C137.977 51.0669 136.953 51.2108 136.035 51.176C134.388 51.1108 132.77 50.6293 131.121 50.6384C130.808 50.6384 130.408 50.6035 130.314 50.3052C130.287 50.2204 130.293 50.1296 130.266 50.0448C130.179 49.7782 129.833 49.7222 129.551 49.7116L126.256 49.6011C126.609 49.0802 126.948 48.5683 127.301 48.0474C127.433 47.8656 127.546 47.6702 127.637 47.4644C127.713 47.2599 127.764 47.0468 127.788 46.8299C127.858 46.3374 127.89 45.8402 127.882 45.3428C128.12 45.2868 128.438 45.3428 128.552 45.5564C128.629 45.7078 128.653 45.9001 128.801 45.9758C128.899 46.0082 129.002 46.02 129.104 46.0106C129.574 46.0409 129.899 46.5679 130.369 46.5906C130.64 46.6058 130.89 46.4392 131.159 46.4165C131.586 46.3726 131.968 46.6542 132.36 46.8269C132.681 46.9669 133.027 47.0392 133.377 47.0392C133.727 47.0392 134.073 46.9669 134.394 46.8269C134.491 46.7845 134.597 46.6648 134.518 46.5937C134.465 46.5467 134.377 46.5831 134.313 46.5513C134.192 46.4922 134.28 46.3135 134.348 46.1969C134.539 45.8607 134.404 45.4398 134.22 45.0945C134.035 44.7492 133.799 44.4146 133.794 44.0345C133.805 43.911 133.805 43.7869 133.794 43.6635C133.735 43.4868 133.641 43.3236 133.518 43.1834C133.181 42.6898 133.132 42.0371 133.279 41.4556C133.443 40.8781 133.716 40.3374 134.083 39.8626C135.083 38.5027 136.476 37.3609 137.026 35.7664Z" fill="#454B69"/>
<path opacity="0.1" d="M128.113 34.6488L127.346 35.0849C127.581 35.1937 127.822 35.2897 128.068 35.3726C129.797 35.9541 129.181 36.7597 131.006 36.7355C132.249 36.7219 133.668 36.6265 134.537 37.5138C134.949 37.9318 135.155 38.5042 135.35 39.0569C135.44 39.3068 135.529 39.5597 135.617 39.8141C136.008 39.275 136.405 38.7394 136.809 38.2074C137.134 37.7788 137.469 37.3427 137.632 36.8294C137.81 36.2589 137.762 35.642 137.498 35.1061C137.304 34.7184 137.008 34.3959 136.75 34.0461C136.462 33.6584 136.215 33.2344 135.885 32.8831C135.555 32.5318 135.11 32.2501 134.626 32.2501C134.346 32.2501 134.021 32.3289 133.825 32.129C133.754 32.0563 133.716 31.9594 133.644 31.8912C133.438 31.6959 133.102 31.8291 132.855 31.9685L128.113 34.6488Z" fill="black"/>
<path d="M123.536 20.2735C123.561 20.0479 123.617 19.8268 123.701 19.6163C123.78 19.4545 123.882 19.305 124.004 19.1726C124.403 18.722 124.892 18.3607 125.44 18.112C125.988 17.8633 126.582 17.733 127.184 17.7294C127.287 17.7239 127.391 17.7404 127.487 17.7779C127.511 17.7891 127.534 17.8028 127.555 17.8188C128.421 17.2358 129.428 16.6603 130.367 16.4332C131.02 16.2808 131.7 16.2902 132.348 16.4604C133.135 16.6967 133.408 17.3251 133.746 18.0111C134.286 19.1139 135.105 20.0558 136.123 20.7429C136.779 21.1836 137.554 21.5652 137.869 22.289C138.163 22.9644 137.963 23.7382 137.895 24.4726C137.813 25.4639 137.977 26.4602 138.374 27.3725C138.77 28.2848 139.386 29.0849 140.166 29.7015C141.061 30.3936 142.256 30.9751 142.447 32.0896C142.583 32.8846 142.136 33.6448 141.799 34.3762C141.087 35.9238 140.843 37.8107 141.679 39.2932C141.917 39.7157 142.238 40.1003 142.365 40.5667C142.588 41.395 142.114 42.2976 141.404 42.7791C140.693 43.2606 139.801 43.3848 138.944 43.3848C138.32 43.3848 137.645 43.2909 137.203 42.8533C136.9 42.5595 136.758 42.1507 136.618 41.7585C136.256 40.7368 135.894 39.7152 135.534 38.6935C135.337 38.1423 135.131 37.5699 134.721 37.1519C133.852 36.2645 132.431 36.3584 131.19 36.3736C129.363 36.3963 129.978 35.5907 128.252 35.0107C127.236 34.6685 126.132 34.0855 125.896 33.0421C125.664 32.0215 126.362 31.0493 126.977 30.2028C127.437 29.5718 127.873 28.9232 128.284 28.2569C128.682 27.6088 129.065 26.9273 129.176 26.1747C129.359 24.9239 126.326 24.2258 125.871 23.0462C125.741 22.7131 125.632 22.3722 125.544 22.0255C125.326 22.0104 125.123 21.9892 124.982 21.9831C124.402 21.9574 123.748 21.7302 123.55 21.1836C123.442 20.8943 123.483 20.5763 123.536 20.2735Z" fill="#3F3D56"/>
<g opacity="0.1">
<path d="M128.642 17.3631C128.546 17.3256 128.443 17.3091 128.339 17.3146H128.297C128.941 16.9093 129.641 16.5997 130.375 16.3954C130.431 16.3818 130.491 16.3712 130.55 16.3606C129.907 16.6565 129.292 17.0082 128.71 17.4115C128.689 17.3935 128.666 17.3773 128.642 17.3631Z" fill="black"/>
<path d="M123.535 20.2372C123.56 20.0122 123.615 19.7916 123.7 19.5815C123.779 19.4193 123.881 19.2693 124.003 19.1363C124.645 18.4117 125.514 17.926 126.468 17.7583C125.968 18.0009 125.522 18.3407 125.155 18.7577C125.033 18.8907 124.931 19.0407 124.852 19.2029C124.768 19.413 124.712 19.6336 124.687 19.8586C124.615 20.1576 124.618 20.47 124.698 20.7672C124.896 21.3124 125.55 21.541 126.13 21.5653C126.271 21.5653 126.474 21.5925 126.692 21.6092C126.78 21.9553 126.889 22.2956 127.019 22.6283C127.474 23.8079 130.502 24.506 130.324 25.7569C130.213 26.514 129.83 27.1924 129.432 27.839C129.033 28.4856 128.585 29.1534 128.125 29.7849C127.51 30.6314 126.812 31.6021 127.044 32.6257C127.275 33.6494 128.384 34.2536 129.4 34.5943C131.129 35.1773 130.511 35.983 132.338 35.9572C133.579 35.9421 135 35.8482 135.869 36.7356C136.279 37.155 136.485 37.7259 136.682 38.2786C137.043 39.2993 137.404 40.3204 137.766 41.3421C137.906 41.7358 138.054 42.1432 138.351 42.4369C138.793 42.8746 139.468 42.9654 140.092 42.9684C140.447 42.972 140.802 42.9451 141.152 42.8882C140.489 43.2471 139.702 43.3425 138.941 43.3425C138.318 43.3425 137.642 43.2486 137.2 42.811C136.897 42.5172 136.755 42.1098 136.616 41.7161C136.253 40.6945 135.892 39.6733 135.531 38.6527C135.334 38.1 135.128 37.5291 134.718 37.1096C133.849 36.2222 132.428 36.3161 131.187 36.3312C129.36 36.354 129.975 35.5484 128.249 34.9684C127.233 34.6261 126.129 34.0431 125.893 32.9998C125.661 31.9791 126.359 31.0054 126.974 30.1589C127.434 29.528 127.87 28.8794 128.281 28.2131C128.679 27.5665 129.062 26.8835 129.173 26.1309C129.356 24.8801 126.323 24.182 125.868 23.0023C125.739 22.6697 125.629 22.3293 125.541 21.9832C125.323 21.9666 125.12 21.9454 124.98 21.9393C124.4 21.9151 123.745 21.6864 123.547 21.1413C123.468 20.8456 123.464 20.5349 123.535 20.2372Z" fill="black"/>
</g>
</g>
<defs>
<linearGradient id="paint0_linear_4462_41425" x1="64.4892" y1="110.775" x2="64.4892" y2="8.46952" gradientUnits="userSpaceOnUse">
<stop stop-color="#808080" stop-opacity="0.25"/>
<stop offset="0.54" stop-color="#808080" stop-opacity="0.12"/>
<stop offset="1" stop-color="#808080" stop-opacity="0.1"/>
</linearGradient>
<linearGradient id="paint1_linear_4462_41425" x1="123.227" y1="110.546" x2="123.227" y2="15.8305" gradientUnits="userSpaceOnUse">
<stop stop-color="#808080" stop-opacity="0.25"/>
<stop offset="0.54" stop-color="#808080" stop-opacity="0.12"/>
<stop offset="1" stop-color="#808080" stop-opacity="0.1"/>
</linearGradient>
<clipPath id="clip0_4462_41425">
<rect width="163" height="111.07" fill="white"/>
</clipPath>
</defs>
</svg>
