<svg width="32" height="32" viewBox="0 0 32 32" fill="none" xmlns="http://www.w3.org/2000/svg">
<g clip-path="url(#clip0_4865_154543)">
<path d="M21 8.99994C21 8.48812 20.8047 7.9763 20.4142 7.58579C20.0237 7.19526 19.5118 7 19 7M19 15C22.3137 15 25 12.3137 25 9C25 5.68629 22.3137 3 19 3C15.6863 3 13 5.68629 13 9C13 9.27368 13.0183 9.54308 13.0538 9.80704C13.1122 10.2412 13.1414 10.4583 13.1217 10.5956C13.1013 10.7387 13.0752 10.8157 13.0047 10.9419C12.937 11.063 12.8177 11.1823 12.5791 11.4209L7.46863 16.5314C7.29568 16.7043 7.2092 16.7908 7.14736 16.8917C7.09253 16.9812 7.05213 17.0787 7.02763 17.1808C7 17.2959 7 17.4182 7 17.6627V19.4C7 19.9601 7 20.2401 7.10899 20.454C7.20487 20.6422 7.35785 20.7951 7.54601 20.891C7.75992 21 8.03995 21 8.6 21H11V19H13V17H15L16.5791 15.4209C16.8177 15.1823 16.937 15.063 17.0581 14.9953C17.1843 14.9248 17.2613 14.8987 17.4044 14.8783C17.5417 14.8586 17.7588 14.8878 18.193 14.9462C18.4569 14.9817 18.7263 15 19 15Z" stroke="#989898" stroke-width="1.5" stroke-linecap="round" stroke-linejoin="round"/>
</g>
<defs>
<clipPath id="clip0_4865_154543">
<path d="M0 2C0 0.895431 0.895431 0 2 0H30C31.1046 0 32 0.895431 32 2V30C32 31.1046 31.1046 32 30 32H2C0.895431 32 0 31.1046 0 30V2Z" fill="white"/>
</clipPath>
</defs>
</svg>
