<svg width="32" height="33" viewBox="0 0 32 33" fill="none" xmlns="http://www.w3.org/2000/svg">
<g clip-path="url(#clip0_4586_42138)">
<path d="M24 24.0701V17.0701M16 24.0701V14.0701M8 24.0701L8 20.0701M17.4067 9.09757L22.5751 11.0357M14.7988 9.47099L9.20023 13.6699M25.0607 10.5094C25.6464 11.0952 25.6464 12.0449 25.0607 12.6307C24.4749 13.2165 23.5251 13.2165 22.9393 12.6307C22.3536 12.0449 22.3536 11.0952 22.9393 10.5094C23.5251 9.92362 24.4749 9.92362 25.0607 10.5094ZM9.06066 13.5094C9.64645 14.0952 9.64645 15.0449 9.06066 15.6307C8.47487 16.2165 7.52513 16.2165 6.93934 15.6307C6.35355 15.0449 6.35355 14.0952 6.93934 13.5094C7.52513 12.9236 8.47487 12.9236 9.06066 13.5094ZM17.0607 7.50941C17.6464 8.09519 17.6464 9.04494 17.0607 9.63073C16.4749 10.2165 15.5251 10.2165 14.9393 9.63073C14.3536 9.04494 14.3536 8.09519 14.9393 7.50941C15.5251 6.92362 16.4749 6.92362 17.0607 7.50941Z" stroke="#989898" stroke-width="1.5" stroke-linecap="round" stroke-linejoin="round"/>
</g>
<defs>
<clipPath id="clip0_4586_42138">
<path d="M0 2.07007C0 0.965499 0.895431 0.0700684 2 0.0700684H30C31.1046 0.0700684 32 0.965499 32 2.07007V30.0701C32 31.1746 31.1046 32.0701 30 32.0701H2C0.895431 32.0701 0 31.1746 0 30.0701V2.07007Z" fill="white"/>
</clipPath>
</defs>
</svg>
