<svg width="163" height="112" viewBox="0 0 163 112" fill="none" xmlns="http://www.w3.org/2000/svg">
<g clip-path="url(#clip0_4045_153071)">
<path opacity="0.1" d="M161.852 42.6018H147.93V59.4772H160.834C160.868 59.6514 160.901 59.8255 160.937 59.9997H147.93V73.6057L147.995 73.5845C148.363 73.4558 148.728 73.3195 149.089 73.1726L149.324 73.0787C149.694 72.9243 150.059 72.7612 150.419 72.5896C150.546 72.5306 150.673 72.4685 150.799 72.4049C152.801 71.4188 154.646 70.1432 156.276 68.6191C156.323 68.5797 156.367 68.5358 156.411 68.4949C156.632 68.2814 156.85 68.0634 157.062 67.8407C157.141 67.759 157.214 67.6772 157.296 67.5924C157.545 67.3213 157.786 67.0412 158.021 66.7595C158.056 66.7171 158.089 66.6747 158.124 66.6354C159.069 65.4761 159.862 64.2008 160.483 62.8405C160.503 62.8011 160.519 62.7572 160.538 62.7163C160.728 62.2893 160.9 61.8562 161.048 61.4155C161.11 61.2308 161.171 61.0445 161.224 60.8583C161.243 60.8023 161.258 60.7462 161.275 60.6917C162.046 57.9902 162.135 55.1796 162.135 52.3857C162.135 52.0597 162.135 51.7341 162.135 51.409C162.135 50.2809 162.119 49.1451 162.099 48.0109C162.099 47.7171 162.084 47.4234 162.078 47.1281C162.058 46.38 162.032 45.6289 161.996 44.8808C161.987 44.6734 161.976 44.4644 161.964 44.2585C161.964 44.1388 161.952 44.0192 161.943 43.8996C161.916 43.4645 161.885 43.0319 161.852 42.6018Z" fill="#8F53F0"/>
<path opacity="0.1" d="M147.93 23.8126H155.568C154.317 22.0728 152.96 20.412 151.505 18.8396C150.371 17.6009 149.177 16.3925 147.93 15.2295V23.8126Z" fill="#8F53F0"/>
<path opacity="0.1" d="M147.93 24.335V42.0796H161.808C161.808 42.0282 161.808 41.9752 161.795 41.9282C161.782 41.7874 161.77 41.6481 161.757 41.5088C161.743 41.3452 161.725 41.1802 161.708 41.0166C161.692 40.8531 161.67 40.6607 161.649 40.4836C161.628 40.3064 161.61 40.1277 161.587 39.9505C161.564 39.7734 161.543 39.5962 161.519 39.4205C161.495 39.2449 161.472 39.0677 161.446 38.892C161.425 38.7406 161.404 38.5998 161.381 38.4544C161.349 38.2469 161.316 38.041 161.281 37.835C161.281 37.8048 161.271 37.773 161.266 37.7442C161.014 36.2402 160.673 34.7525 160.244 33.2891C159.79 31.7392 159.215 30.2277 158.522 28.7689C157.777 27.2245 156.911 25.7415 155.933 24.3335L147.93 24.335Z" fill="#8F53F0"/>
<path opacity="0.1" d="M114.866 42.6019V59.4773H144.604V42.6019H114.866ZM114.866 59.9982V71.4267C118.328 70.3197 122.286 70.7679 125.875 71.6765C128.654 72.3807 131.362 73.3423 134.136 74.0313C135.375 74.3485 136.633 74.5862 137.902 74.743L138.214 74.7778L138.668 74.8187L139.122 74.852C139.138 74.8506 139.154 74.8506 139.169 74.852C139.236 74.852 139.304 74.852 139.372 74.8611H139.442C139.524 74.8611 139.605 74.8702 139.687 74.8702C139.804 74.8702 139.922 74.8702 140.04 74.8808H140.192C140.308 74.8808 140.426 74.8808 140.544 74.8808H140.803H141.012C141.102 74.8808 141.189 74.8808 141.277 74.8717C141.42 74.8717 141.562 74.8596 141.706 74.8505L141.971 74.8323C142.08 74.8323 142.19 74.8172 142.298 74.8066C142.53 74.7884 142.752 74.7657 142.987 74.7369C143.078 74.7263 143.17 74.7157 143.261 74.7021L143.396 74.6854C143.624 74.6552 143.85 74.6203 144.079 74.581C144.247 74.5552 144.415 74.5249 144.585 74.4931V59.9982H114.866ZM136.984 23.8063V24.3272H114.866V42.0794H144.604V24.3333H143.113V23.8124H144.604V12.3446C138.82 7.68353 132.058 4.03406 124.528 2.35015C121.356 1.64837 118.115 1.31002 114.866 1.34163V23.8124L136.984 23.8063ZM68.9918 23.7064L69.0963 23.8063H111.539V1.4976C103.983 2.12604 96.6143 4.66401 90.6737 8.86923C87.8192 10.8878 85.2555 13.2819 82.0527 14.8295C80.3721 15.6635 78.5361 16.138 76.6618 16.2227L68.9918 23.7064ZM68.6996 14.5539V19.6041L72.8003 15.6018C71.2754 15.0749 70.0731 14.716 68.6935 14.56L68.6996 14.5539ZM68.5633 78.0881H68.6996V89.1592C70.2472 89.0431 71.7888 88.8846 73.3243 88.6837C80.1893 87.7972 86.9162 86.0543 93.348 83.4957C94.0385 83.217 94.724 82.9308 95.4044 82.637C95.8577 82.4351 96.3084 82.2332 96.7567 82.0313C97.429 81.7224 98.0963 81.4049 98.7586 81.0788C101.691 79.6402 104.519 77.9987 107.222 76.1664C107.39 76.0513 107.56 75.9363 107.726 75.8197C108.06 75.5875 108.393 75.3532 108.724 75.117C108.889 74.9974 109.054 74.8793 109.218 74.7581L109.559 74.5068C109.898 74.2539 110.236 74.001 110.578 73.7496C110.894 73.5225 111.214 73.2953 111.538 73.0833V59.9997H77.4386C77.4629 59.924 77.4856 59.8483 77.5113 59.768C77.4841 59.8453 77.4598 59.9195 77.4371 59.9997H68.6935V78.0851L68.5633 78.0881ZM68.6996 24.3303V42.0794H111.539V24.3333L68.6996 24.3303ZM68.6996 42.5988V59.4773H111.539V42.6019L68.6996 42.5988ZM60.1347 15.0733L65.3681 20.1811V14.5342C63.6145 14.6433 61.8701 14.823 60.1347 15.0733ZM23.6898 42.6019V59.4773H65.3681V42.6019H23.6898ZM33.763 84.2816C40.0798 86.6863 46.6843 88.2533 53.4081 88.9426H53.4369C54.7069 89.0769 55.9814 89.1809 57.2605 89.2546H57.3074C59.9863 89.406 62.6757 89.4408 65.3605 89.3409V59.9982H23.6898L23.8413 79.4297M12.1493 59.4773H20.369V42.6019H17.1177C16.78 43.194 16.453 43.7921 16.1425 44.3963C15.9759 44.7189 15.8139 45.046 15.6564 45.3731C13.5167 49.8175 12.1569 54.6966 12.1493 59.4773ZM12.1493 59.9982C12.2159 63.4266 12.9882 66.7929 14.6827 69.9018C16.091 72.4761 18.0475 74.7475 20.3629 76.7161V59.9982H12.1493ZM17.4221 42.0794H20.369V37.688C19.3051 39.0954 18.3213 40.5615 17.4221 42.0794ZM35.88 23.8124H64.3853L64.4883 23.7124L64.3369 23.561L56.3216 15.7457C53.9415 16.2404 51.5911 16.8689 49.2816 17.628C49.0636 17.6991 48.8455 17.7794 48.629 17.8475C44.1726 19.3603 39.8971 21.3607 35.88 23.8124ZM23.6898 33.7114V42.0794H60.2422H65.3651V24.8164L64.7805 24.3409H35.0471C30.8738 26.9625 27.0565 30.1121 23.6898 33.7114Z" fill="#8F53F0"/>
<path opacity="0.1" d="M147.93 33.2859V42.0795H161.808C161.808 42.028 161.808 41.975 161.795 41.928C161.782 41.7872 161.77 41.6479 161.757 41.5086C161.743 41.345 161.725 41.18 161.708 41.0164C161.692 40.8529 161.67 40.6606 161.649 40.4834C161.628 40.3062 161.61 40.1275 161.587 39.9504C161.564 39.7732 161.543 39.596 161.519 39.4203C161.495 39.2447 161.472 39.0675 161.446 38.8919C161.425 38.7404 161.404 38.5996 161.381 38.4542C161.349 38.2468 161.316 38.0408 161.281 37.8349C161.281 37.8046 161.271 37.7728 161.266 37.744C161.014 36.24 160.673 34.7523 160.244 33.2889L147.93 33.2859Z" fill="#8F53F0"/>
<path opacity="0.1" d="M161.852 42.6018H147.93V59.4772H160.834C160.868 59.6514 160.901 59.8255 160.937 59.9997H147.93V73.6057L147.995 73.5845C148.363 73.4558 148.728 73.3195 149.089 73.1726L149.324 73.0787C149.694 72.9243 150.059 72.7612 150.419 72.5896C150.546 72.5306 150.673 72.4685 150.799 72.4049C152.801 71.4188 154.646 70.1432 156.276 68.6191C156.323 68.5797 156.367 68.5358 156.411 68.4949C156.632 68.2814 156.85 68.0634 157.062 67.8407C157.141 67.759 157.214 67.6772 157.296 67.5924C157.545 67.3213 157.786 67.0412 158.021 66.7595C158.056 66.7171 158.089 66.6747 158.124 66.6354C159.069 65.4761 159.862 64.2008 160.483 62.8405C160.503 62.8011 160.519 62.7572 160.538 62.7163C160.728 62.2893 160.9 61.8562 161.048 61.4155C161.11 61.2308 161.171 61.0445 161.224 60.8583C161.243 60.8023 161.258 60.7462 161.275 60.6917C162.046 57.9902 162.135 55.1796 162.135 52.3857C162.135 52.0597 162.135 51.7341 162.135 51.409C162.135 50.2809 162.119 49.1451 162.099 48.0109C162.099 47.7171 162.084 47.4234 162.078 47.1281C162.058 46.38 162.032 45.6289 161.996 44.8808C161.987 44.6734 161.976 44.4644 161.964 44.2585C161.964 44.1388 161.952 44.0192 161.943 43.8996C161.916 43.4645 161.885 43.0319 161.852 42.6018Z" fill="#8F53F0"/>
<path opacity="0.1" d="M134.137 26.8759V42.0811H144.606V26.8759H143.114V21.7273H136.986V26.8759H134.137Z" fill="#8F53F0"/>
<path opacity="0.1" d="M144.606 42.6018H134.137V59.4772H144.606V42.6018Z" fill="#8F53F0"/>
<path opacity="0.1" d="M144.606 60H134.137V74.0316C135.376 74.3481 136.633 74.5858 137.902 74.7433L138.215 74.7781L138.67 74.819C138.821 74.8311 138.973 74.8432 139.124 74.8523H139.171C139.238 74.8523 139.306 74.8523 139.374 74.8614H139.444C139.525 74.8614 139.609 74.869 139.69 74.8705C139.809 74.8705 139.925 74.8705 140.043 74.8796H140.195C140.311 74.8796 140.428 74.8796 140.548 74.8796H140.805C140.875 74.8796 140.946 74.8796 141.015 74.8796L141.28 74.8705C141.421 74.8705 141.565 74.8584 141.707 74.8493L141.971 74.8311L142.3 74.8054C142.53 74.7872 142.754 74.763 142.987 74.7357L143.261 74.7009L143.396 74.6842C143.625 74.654 143.85 74.6191 144.079 74.5798C144.248 74.554 144.417 74.5222 144.586 74.4919L144.606 60Z" fill="#8F53F0"/>
<path opacity="0.1" d="M77.3281 25.0798H68.6951V42.0795H77.3281V25.0798Z" fill="#8F53F0"/>
<path opacity="0.1" d="M68.6951 42.6018V59.4772H111.541V52.1995H88.7187V56.4925H77.3266V42.6018H68.6951Z" fill="#8F53F0"/>
<path opacity="0.1" d="M68.5573 78.0942H68.6936V89.1593C70.2412 89.0432 71.7828 88.8847 73.3183 88.6838C80.1886 87.7986 86.9208 86.0552 93.3571 83.4943C95.1975 82.7573 97.001 81.9527 98.7677 81.0805C101.696 79.6397 104.522 77.9978 107.224 76.1665C107.898 75.7092 108.563 75.2403 109.218 74.7597C109.672 74.4266 110.126 74.0844 110.581 73.7542C110.897 73.5256 111.217 73.2999 111.542 73.0864V59.9998H77.4478C77.472 59.9211 77.4947 59.8484 77.519 59.7666C77.4932 59.8438 77.469 59.918 77.4463 59.9998H68.6936V78.0867L68.5573 78.0942Z" fill="#8F53F0"/>
<path opacity="0.1" d="M46.1804 23.8124H51.8045V22.2572H49.2817V17.6279C49.0636 17.7006 48.844 17.7794 48.6275 17.8475V22.2572H46.1804V23.8124Z" fill="#8F53F0"/>
<path opacity="0.1" d="M32.6242 42.0796H60.2437H60.2346H60.2467H65.3681V25.08H63.9174V37.6487H57.2847V30.2089H51.8044V24.335H46.1803V30.2089H40.703V37.6457H32.6242V42.0796Z" fill="#8F53F0"/>
<path opacity="0.1" d="M32.6242 42.6018V59.4772H65.3681V42.6018H32.6242ZM33.7675 84.2816C40.0843 86.6863 46.6888 88.2533 53.4126 88.9426H53.4414C54.7114 89.0769 55.9859 89.1809 57.265 89.2546H57.312C59.9908 89.406 62.6802 89.4408 65.365 89.3409V59.9982H32.6242V65.9812H23.6898L23.7368 79.3404" fill="#8F53F0"/>
<path opacity="0.1" d="M19.792 60H12.1553C12.222 63.4269 12.9958 66.7917 14.6903 69.9005C16.0971 72.4839 18.0551 74.7463 20.3689 76.7149V65.9815H19.792V60Z" fill="#8F53F0"/>
<path opacity="0.1" d="M12.1508 59.4775H19.792V45.3733H15.664C13.5182 49.8178 12.1569 54.6984 12.1508 59.4775Z" fill="#8F53F0"/>
<path opacity="0.1" d="M73.3198 29.8062H68.6951V35.1365H73.3198V29.8062Z" fill="#8F53F0"/>
<path opacity="0.1" d="M73.3198 40.853H68.6951V42.0796H73.3198V40.853Z" fill="#8F53F0"/>
<path opacity="0.1" d="M73.3198 42.6018H68.6951V46.1831H73.3198V42.6018Z" fill="#8F53F0"/>
<path opacity="0.1" d="M73.3198 51.9014H68.6951V57.2317H73.3198V51.9014Z" fill="#8F53F0"/>
<path opacity="0.1" d="M73.3198 62.9497H68.6951V68.2801H73.3198V62.9497Z" fill="#8F53F0"/>
<path opacity="0.1" d="M68.6936 78.0867L68.5573 78.0943H68.6936V79.3315H73.3183V73.9966H68.6936V78.0867Z" fill="#8F53F0"/>
<path opacity="0.1" d="M68.6935 85.042V89.1594C70.2411 89.0433 71.7827 88.8848 73.3182 88.6839V85.0496L68.6935 85.042Z" fill="#8F53F0"/>
<path opacity="0.1" d="M111.541 59.0867H91.7217V59.4774H111.541V59.0867Z" fill="#8F53F0"/>
<path opacity="0.1" d="M111.541 60H91.7217V61.5007H111.541V60Z" fill="#8F53F0"/>
<path opacity="0.1" d="M111.541 66.4189H91.7217V68.8327H111.541V66.4189Z" fill="#8F53F0"/>
<path opacity="0.1" d="M91.7201 73.7437V76.1665H107.224C107.898 75.7092 108.563 75.2403 109.218 74.7598C109.672 74.4266 110.127 74.0859 110.581 73.7543L91.7201 73.7437Z" fill="#8F53F0"/>
<path opacity="0.1" d="M91.7201 81.0806V83.4944H93.3571C95.1985 82.7574 97.002 81.9528 98.7677 81.0806H91.7201Z" fill="#8F53F0"/>
<path opacity="0.1" d="M53.4141 47.7068H57.315V44.2375H53.4141V47.7068Z" fill="#8F53F0"/>
<path opacity="0.1" d="M137.894 31.5415H141.795V28.0722H137.894V31.5415Z" fill="#8F53F0"/>
<path opacity="0.1" d="M137.894 39.6006H141.795V36.1313H137.894V39.6006Z" fill="#8F53F0"/>
<path opacity="0.1" d="M137.894 47.6582H141.795V44.1889H137.894V47.6582Z" fill="#8F53F0"/>
<path opacity="0.1" d="M137.894 55.7173H141.795V52.248H137.894V55.7173Z" fill="#8F53F0"/>
<path opacity="0.1" d="M137.894 63.7766H141.795V60.3073H137.894V63.7766Z" fill="#8F53F0"/>
<path opacity="0.1" d="M137.894 71.834H141.795V68.3647H137.894V71.834Z" fill="#8F53F0"/>
<path opacity="0.1" d="M38.5194 47.7068H42.4203V44.2375H38.5194V47.7068Z" fill="#8F53F0"/>
<path opacity="0.1" d="M53.4141 56.2642H57.315V52.7949H53.4141V56.2642Z" fill="#8F53F0"/>
<path opacity="0.1" d="M38.5194 56.2642H42.4203V52.7949H38.5194V56.2642Z" fill="#8F53F0"/>
<path opacity="0.1" d="M53.4141 64.8213H57.315V61.352H53.4141V64.8213Z" fill="#8F53F0"/>
<path opacity="0.1" d="M38.5194 64.8213H42.4203V61.352H38.5194V64.8213Z" fill="#8F53F0"/>
<path opacity="0.1" d="M53.4141 73.3801H57.315V69.9108H53.4141V73.3801Z" fill="#8F53F0"/>
<path opacity="0.1" d="M38.5194 73.3801H42.4203V69.9108H38.5194V73.3801Z" fill="#8F53F0"/>
<path opacity="0.1" d="M53.4141 81.9375H57.315V78.4682H53.4141V81.9375Z" fill="#8F53F0"/>
<path opacity="0.1" d="M38.5194 81.9375H42.4203V78.4682H38.5194V81.9375Z" fill="#8F53F0"/>
<path opacity="0.1" d="M57.3165 89.2623V87.0242H53.4156V88.9443L57.3165 89.2623Z" fill="#8F53F0"/>
<path opacity="0.1" d="M147.93 37.7395V39.7248H161.281V37.7395H147.93ZM159.952 37.8652H161.046V39.6006H159.952V37.8652ZM158.622 37.8652H159.717V39.6006H158.622V37.8652ZM157.296 37.8652H158.39V39.6006H157.296V37.8652ZM155.966 37.8652H157.061V39.6006H155.966V37.8652ZM154.638 37.8652H155.737V39.6006H154.642L154.638 37.8652ZM153.308 37.8652H154.403V39.6006H153.314L153.308 37.8652ZM151.979 37.8652H153.074V39.6006H151.979V37.8652ZM150.651 37.8652H151.746V39.6006H150.651V37.8652ZM149.323 37.8652H150.418V39.6006H149.323V37.8652ZM147.995 37.8652H149.089V39.6006H147.995V37.8652Z" fill="#8F53F0"/>
<path opacity="0.1" d="M147.93 43.5181V45.5033H161.281V43.5181H147.93ZM159.952 43.6438H161.046V45.3776H159.952V43.6438ZM158.622 43.6438H159.717V45.3776H158.622V43.6438ZM157.296 43.6438H158.39V45.3776H157.296V43.6438ZM155.966 43.6438H157.061V45.3776H155.966V43.6438ZM154.638 43.6438H155.737V45.3776H154.642L154.638 43.6438ZM153.308 43.6438H154.403V45.3776H153.314L153.308 43.6438ZM151.979 43.6438H153.074V45.3776H151.979V43.6438ZM150.651 43.6438H151.746V45.3776H150.651V43.6438ZM149.323 43.6438H150.418V45.3776H149.323V43.6438ZM147.995 43.6438H149.089V45.3776H147.995V43.6438Z" fill="#8F53F0"/>
<path opacity="0.1" d="M147.93 49.2969V51.2806H161.281V49.2969H147.93ZM159.952 49.421H161.046V51.1549H159.952V49.421ZM158.622 49.421H159.717V51.1549H158.622V49.421ZM157.296 49.421H158.39V51.1549H157.296V49.421ZM155.966 49.421H157.061V51.1549H155.966V49.421ZM154.638 49.421H155.737V51.1549H154.642L154.638 49.421ZM153.308 49.421H154.403V51.1549H153.314L153.308 49.421ZM151.979 49.421H153.074V51.1549H151.979V49.421ZM150.651 49.421H151.746V51.1549H150.651V49.421ZM149.323 49.421H150.418V51.1549H149.323V49.421ZM147.995 49.421H149.089V51.1549H147.995V49.421Z" fill="#8F53F0"/>
<path opacity="0.1" d="M147.93 55.0737V57.056H161.281V55.0737H147.93ZM159.952 55.1964H161.046V56.9348H159.952V55.1964ZM158.622 55.1964H159.717V56.9348H158.622V55.1964ZM157.296 55.1964H158.39V56.9348H157.296V55.1964ZM155.966 55.1964H157.061V56.9348H155.966V55.1964ZM154.638 55.1964H155.737V56.9348H154.642L154.638 55.1964ZM153.308 55.1964H154.403V56.9348H153.314L153.308 55.1964ZM151.979 55.1964H153.074V56.9348H151.979V55.1964ZM150.651 55.1964H151.746V56.9348H150.651V55.1964ZM149.323 55.1964H150.418V56.9348H149.323V55.1964ZM147.995 55.1964H149.089V56.9348H147.995V55.1964Z" fill="#8F53F0"/>
<path opacity="0.1" d="M147.93 60.8494V62.8407H160.483C160.501 62.8013 160.519 62.7574 160.536 62.7165H159.952V60.9751H161.046V61.4081C161.11 61.2234 161.171 61.0371 161.224 60.8494H147.93ZM158.622 60.9751H159.717V62.7089H158.622V60.9751ZM157.296 60.9751H158.39V62.7089H157.296V60.9751ZM155.966 60.9751H157.061V62.7089H155.966V60.9751ZM154.638 60.9751H155.737V62.7089H154.642L154.638 60.9751ZM153.308 60.9751H154.403V62.7089H153.314L153.308 60.9751ZM151.979 60.9751H153.074V62.7089H151.979V60.9751ZM150.651 60.9751H151.746V62.7089H150.651V60.9751ZM149.323 60.9751H150.418V62.7089H149.323V60.9751ZM147.995 60.9751H149.089V62.7089H147.995V60.9751Z" fill="#8F53F0"/>
<path opacity="0.1" d="M147.93 66.6265V68.6102H156.275C156.323 68.5693 156.366 68.5269 156.41 68.486H155.966V66.7522H157.061V67.8379L157.296 67.588V66.7552H158.021C158.056 66.7128 158.089 66.6704 158.124 66.631L147.93 66.6265ZM154.638 66.7506H155.737V68.486H154.642L154.638 66.7506ZM153.308 66.7506H154.403V68.486H153.314L153.308 66.7506ZM151.979 66.7506H153.074V68.486H151.979V66.7506ZM150.651 66.7506H151.746V68.486H150.651V66.7506ZM149.323 66.7506H150.418V68.486H149.323V66.7506ZM147.995 66.7506H149.089V68.486H147.995V66.7506Z" fill="#8F53F0"/>
<path opacity="0.1" d="M147.93 72.405V73.6059L147.995 73.5847V72.5247H149.089V73.1698L149.323 73.0728V72.5322H150.418V72.5928C150.546 72.5338 150.673 72.4717 150.799 72.4081L147.93 72.405Z" fill="#8F53F0"/>
<path opacity="0.1" d="M77.4372 59.9984C77.4614 59.9226 77.4841 59.8469 77.5099 59.7667C77.4841 59.8439 77.4599 59.9226 77.4372 59.9984ZM136.984 23.8125V24.3334H143.113V23.8125H136.984ZM77.4372 59.9984C77.4614 59.9226 77.4841 59.8469 77.5099 59.7667C77.4841 59.8439 77.4599 59.9226 77.4372 59.9984ZM77.4372 59.9984C77.4614 59.9226 77.4841 59.8469 77.5099 59.7667C77.4841 59.8439 77.4599 59.9226 77.4372 59.9984Z" fill="#8F53F0"/>
<path opacity="0.1" d="M163 105.705H11.2861V111.068H163V105.705Z" fill="#8F53F0"/>
<path d="M16.6316 71.604H15.8639V88.8701H16.6316V71.604Z" fill="#535461"/>
<path d="M21.4502 88.8171L21.4017 89.5954L21.3351 90.6933L21.3063 91.1476L21.2382 92.2455L21.2094 92.6998L21.1412 93.7961L20.3674 106.282C20.334 106.819 20.0974 107.323 19.7056 107.693C19.3139 108.062 18.7963 108.268 18.258 108.27H14.2375C13.6999 108.268 13.183 108.063 12.7914 107.694C12.3997 107.326 12.1626 106.823 12.1281 106.286L11.3528 93.8007L11.2861 92.7043L11.2574 92.25L11.1877 91.1521L11.1604 90.6979L11.0923 89.6L11.0438 88.8216C11.0347 88.6725 11.0563 88.523 11.1071 88.3825C11.158 88.242 11.237 88.1134 11.3394 88.0046C11.4419 87.8958 11.5655 87.8091 11.7027 87.7498C11.8399 87.6906 11.9877 87.6601 12.1372 87.6602H20.3583C20.5074 87.6599 20.6549 87.6901 20.7918 87.749C20.9287 87.8079 21.0521 87.8942 21.1543 88.0026C21.2566 88.111 21.3356 88.2392 21.3865 88.3792C21.4374 88.5193 21.4591 88.6683 21.4502 88.8171Z" fill="#3F3D56"/>
<path d="M21.4032 89.5955L21.3351 90.6933H11.1604L11.0938 89.5955H21.4032Z" fill="#9D9CB5"/>
<path d="M21.3078 91.1506L21.2397 92.25H11.2574L11.1892 91.1506H21.3078Z" fill="#9D9CB5"/>
<path d="M21.2094 92.7075L21.1428 93.8054H11.3543L11.2861 92.7075H21.2094Z" fill="#9D9CB5"/>
<path d="M9.92176 78.0759C14.3875 81.306 16.247 86.3607 16.247 86.3607C16.247 86.3607 10.8652 86.176 6.40403 82.9444C1.94288 79.7129 0.0666504 74.6597 0.0666504 74.6597C0.0666504 74.6597 5.45456 74.8444 9.92176 78.0759Z" fill="#8F53F0"/>
<path d="M0.0666504 74.6597C0.0666504 74.6597 5.65293 77.761 7.44435 80.3277C9.23577 82.8945 16.241 86.3607 16.241 86.3607" stroke="#535461" stroke-width="2" stroke-miterlimit="10"/>
<path d="M12.8035 71.5661C15.2355 73.3242 16.247 76.0757 16.247 76.0757C16.247 76.0757 13.3183 75.9742 10.8864 74.2161C8.45438 72.458 7.44434 69.7065 7.44434 69.7065C7.44434 69.7065 10.373 69.8065 12.8035 71.5661Z" fill="#8F53F0"/>
<path d="M7.44434 69.7065C7.44434 69.7065 10.4836 71.395 11.4603 72.7912C12.437 74.1874 16.247 76.0757 16.247 76.0757" stroke="#535461" stroke-width="2" stroke-miterlimit="10"/>
<path d="M19.7799 75.935C16.9875 79.0045 16.3969 83.0144 16.3969 83.0144C16.3969 83.0144 20.3341 82.0482 23.1265 78.9787C25.9189 75.9092 26.5094 71.9009 26.5094 71.9009C26.5094 71.9009 22.5723 72.8655 19.7799 75.935Z" fill="#8F53F0"/>
<path d="M26.5094 71.9009C26.5094 71.9009 22.8751 75.0461 21.9468 77.2146C21.0186 79.3831 16.3969 83.0144 16.3969 83.0144" stroke="#535461" stroke-width="2" stroke-miterlimit="10"/>
<path opacity="0.2" d="M61.5262 11.6118C63.1813 11.6118 64.523 10.2701 64.523 8.61498C64.523 6.95988 63.1813 5.61816 61.5262 5.61816C59.8711 5.61816 58.5294 6.95988 58.5294 8.61498C58.5294 10.2701 59.8711 11.6118 61.5262 11.6118Z" stroke="#6C63FF" stroke-miterlimit="10"/>
<path opacity="0.2" d="M61.5263 14.0316C64.5178 14.0316 66.943 11.6065 66.943 8.61491C66.943 5.62337 64.5178 3.19824 61.5263 3.19824C58.5347 3.19824 56.1096 5.62337 56.1096 8.61491C56.1096 11.6065 58.5347 14.0316 61.5263 14.0316Z" stroke="#6C63FF" stroke-miterlimit="10"/>
<path opacity="0.2" d="M61.5264 17.154C66.2424 17.154 70.0656 13.3309 70.0656 8.61486C70.0656 3.8988 66.2424 0.0756836 61.5264 0.0756836C56.8103 0.0756836 52.9872 3.8988 52.9872 8.61486C52.9872 13.3309 56.8103 17.154 61.5264 17.154Z" stroke="#6C63FF" stroke-miterlimit="10"/>
<path d="M82.2299 109.821C82.1496 109.224 81.7392 108.458 81.7392 108.458L79.548 105.255H79.5677C79.5677 105.255 79.2209 103.645 79.5677 102.858C79.9145 102.07 78.3351 100.123 78.3351 100.123C78.3351 100.123 78.1428 99.6353 78.6379 99.0357C79.1331 98.436 78.3351 96.6764 78.3351 96.6764C78.3351 96.6764 77.9489 93.0042 77.9111 92.4363C77.8732 91.8685 77.5643 88.7656 77.5643 88.7656L76.8314 82.1708L75.5291 64.6957L75.5048 64.3686C75.6669 64.2914 75.7517 64.243 75.7517 64.243L75.4791 54.5862L75.7047 54.3878C77.6733 52.6509 82.2026 48.6335 82.1587 48.5411C82.0996 48.429 81.609 41.8252 81.553 40.167C81.5036 38.9874 81.2414 37.8265 80.7792 36.7401C80.6656 36.519 80.3385 35.0744 80.2022 34.4565L80.1432 34.1824C80.1432 34.1824 78.8136 31.7096 78.9317 30.586C79.0498 29.4624 79.2785 28.6174 76.4452 28.2252C76.4452 28.2252 74.0556 27.8784 72.6489 26.9319C71.8088 26.3658 70.8946 25.9184 69.9322 25.6024C69.9322 25.6024 69.4113 24.6938 68.904 24.8695V22.9402C69.2935 22.7876 69.6286 22.5222 69.8663 22.1779C70.104 21.8337 70.2334 21.4263 70.2381 21.008V14.0588C70.2301 13.4944 69.9983 12.9562 69.5937 12.5627C69.189 12.1691 68.6446 11.9523 68.0802 11.96H62.0548C61.9676 11.9622 61.8806 11.9698 61.7943 11.9827V8.80266C61.7943 8.75671 61.7848 8.71126 61.7666 8.66907C61.7484 8.62689 61.7217 8.58887 61.6883 8.55735C61.6208 8.49118 61.53 8.4542 61.4354 8.45438C61.3417 8.45316 61.2513 8.48913 61.184 8.5544C61.1168 8.61968 61.0781 8.70895 61.0765 8.80266V12.2083C60.7406 12.3837 60.4586 12.6471 60.261 12.9704C60.0633 13.2937 59.9573 13.6647 59.9544 14.0437V20.9928C59.959 21.411 60.0882 21.8182 60.3256 22.1625C60.563 22.5067 60.8978 22.7723 61.287 22.9251V24.7589C61.0432 24.7301 60.6813 24.8982 60.2694 25.7372C60.2694 25.7372 58.2069 26.8986 57.4937 27.0304C56.7804 27.1621 54.2561 28.0222 54.2561 28.0222C53.8724 28.2914 53.4149 28.4353 52.9462 28.4341C52.1558 28.4341 51.5001 30.1211 51.597 31.0387C51.6939 31.9564 51.5379 32.6303 50.8065 32.6681C50.0751 32.706 50.4749 34.1718 50.4779 34.1824C50.4688 34.2233 50.4446 34.3339 50.4098 34.4944C50.2674 35.1349 49.9555 36.5084 49.8464 36.7235C49.3808 37.8091 49.1161 38.9702 49.0651 40.1503C49.0075 41.8161 48.5154 48.4124 48.4593 48.5244C48.423 48.5986 51.5273 51.3713 53.7125 53.3081L54.0274 53.5868L53.0235 62.7529C53.0235 62.7529 53.0235 63.7796 54.0562 64.5488C54.0562 64.6533 54.0562 64.7639 54.0441 64.8759C54.0002 65.9359 53.9124 67.2458 53.7412 67.5865C53.4384 68.1923 53.5095 71.4071 53.5095 71.4071C53.5095 71.4071 53.2067 77.9656 52.816 78.6758C52.4253 79.386 52.3526 80.8867 52.4692 81.1865C52.5858 81.4864 52.0831 89.3547 52.0831 89.3547L51.6969 92.8755C51.6969 92.8755 51.8135 96.2478 51.4667 96.3235C51.12 96.3993 50.9261 98.7207 50.9261 98.7207C50.9261 98.7207 49.6935 100.37 50.2326 100.969C50.7717 101.569 50.1523 101.831 50.0963 101.981C50.0403 102.131 48.9212 102.693 49.7314 104.79C49.7389 104.811 49.7495 104.829 49.7586 104.849C49.0015 105.874 46.5983 109.194 46.7436 109.695C46.8536 110.02 47.0832 110.29 47.3857 110.452C47.9505 110.782 48.9212 110.935 50.4628 110.452C53.0265 109.646 52.8342 109.065 52.8342 109.065C52.8342 109.065 52.8539 108.129 53.9139 108.053C54.9739 107.978 55.7643 107.024 55.7643 107.024L55.6402 106.569L55.4691 105.944C55.4903 105.758 55.6205 105.452 56.2065 105.278C57.0939 105.016 56.8622 103.368 56.8622 103.368C56.8622 103.368 56.785 101.643 57.1651 101.419C57.5452 101.195 57.3953 98.3467 57.3953 98.3467C57.3953 98.3467 57.8208 96.2857 58.4371 94.8986C59.0534 93.5115 59.7863 85.2706 59.7863 85.2706C59.7863 85.2706 60.2861 81.2244 60.7494 80.0629C61.2128 78.9014 61.6368 75.6411 61.6368 75.6411C61.6368 75.6411 64.4898 70.2457 64.5276 69.0463C64.5276 69.0463 64.8971 67.9227 65.253 69.1599C65.6089 70.3971 66.6477 73.356 66.6477 73.356L67.6501 76.9904L68.8449 82.4222L69.6157 86.9939C69.6157 86.9939 69.5021 88.7354 69.8095 89.3411C70.1169 89.9468 70.5425 91.3263 70.3108 91.5898C70.0791 91.8533 70.7742 93.0875 70.9665 93.3494C71.1588 93.6114 70.9665 99.1583 70.9665 99.1583C70.9665 99.1583 71.8523 103.878 73.1244 104.702C73.2136 104.758 73.3079 104.806 73.406 104.845C73.3878 105.356 73.3697 106.041 73.3939 106.398C73.3914 106.478 73.4048 106.558 73.4333 106.633C73.5484 106.784 74.8597 107.793 75.1293 107.793C75.3988 107.793 76.3619 108.45 76.4013 108.768C76.4407 109.086 79.2194 110.434 79.6116 110.473C80.0038 110.513 81.9134 110.847 82.186 110.322C82.251 110.163 82.2663 109.988 82.2299 109.821ZM75.4034 42.3052L75.6018 42.4718C75.6018 42.4718 75.8032 44.0179 75.9485 44.4797C76.0939 44.9416 75.9198 45.8426 75.9198 45.8426C75.9198 45.8426 75.9485 46.4892 76.1212 46.8254C76.2938 47.1616 75.782 47.8945 75.782 47.8945H75.3125L75.1611 42.1068L75.4034 42.3052ZM54.5302 47.3024C54.4581 47.1535 54.4473 46.9822 54.4999 46.8254C54.5414 46.7411 54.5744 46.6528 54.5983 46.5619C54.6553 46.3259 54.6902 46.0851 54.7028 45.8426C54.7032 45.8401 54.7032 45.8376 54.7028 45.835C54.6877 45.7472 54.5393 44.9265 54.6756 44.4722C54.8118 44.0179 55.0223 42.4642 55.0223 42.4642L55.1541 42.3536L55.4569 42.0992C55.4569 42.0992 55.466 42.0023 55.4781 41.8433C55.5433 43.2062 55.5947 44.6963 55.5115 44.7781C55.36 44.9295 54.7982 46.3893 54.933 46.4438C54.9769 46.462 54.9163 47.0495 54.8149 47.8339C54.7011 47.668 54.6057 47.4903 54.5302 47.3039V47.3024Z" fill="url(#paint0_linear_4045_153071)"/>
<path d="M61.8732 8.96157V13.5545C61.8732 13.6468 61.8365 13.7354 61.7711 13.8007C61.7058 13.8661 61.6172 13.9028 61.5249 13.9028C61.4325 13.9028 61.3439 13.8661 61.2786 13.8007C61.2133 13.7354 61.1766 13.6468 61.1766 13.5545V8.96157C61.1766 8.91583 61.1856 8.87054 61.2031 8.82829C61.2206 8.78603 61.2462 8.74764 61.2786 8.71529C61.3109 8.68295 61.3493 8.6573 61.3916 8.63979C61.4338 8.62229 61.4791 8.61328 61.5249 8.61328C61.617 8.61407 61.7051 8.65102 61.7703 8.71617C61.8354 8.78131 61.8724 8.86944 61.8732 8.96157Z" fill="#6F758D"/>
<path d="M68.7692 21.2397V28.3767C68.7676 28.9469 68.5403 29.4933 68.1371 29.8965C67.7339 30.2997 67.1875 30.5269 66.6173 30.5285H63.5342C62.9637 30.5273 62.4169 30.3002 62.0134 29.897C61.6099 29.4937 61.3825 28.9471 61.3809 28.3767V21.2397C61.3829 20.6694 61.6104 20.123 62.0139 19.7198C62.4173 19.3167 62.9639 19.0895 63.5342 19.0879H66.6173C67.1875 19.0895 67.7339 19.3167 68.1371 19.7199C68.5403 20.1231 68.7676 20.6695 68.7692 21.2397Z" fill="#6F758D"/>
<path d="M56.6457 47.9838L56.0566 55.2524C56.0566 55.2524 55.1722 54.4514 54.0274 53.4065C51.9074 51.4727 48.8939 48.7031 48.9288 48.6304C48.9848 48.5183 49.4618 41.9235 49.5178 40.2684C49.5674 39.0915 49.8237 37.9326 50.275 36.8445C50.381 36.631 50.6838 35.2606 50.8216 34.62C50.8656 34.4201 50.8913 34.2914 50.8913 34.2914L51.8741 33.8977C51.8741 33.8977 55.9991 38.4997 55.9991 38.5845C55.9991 38.6693 55.7189 42.2037 55.7189 42.2037L55.4251 42.4596L55.2979 42.5686C55.2979 42.5686 55.1011 44.1132 54.9602 44.5751C54.8285 45.0142 54.9724 45.8425 54.9875 45.9289V45.9364C54.975 46.1783 54.9405 46.4186 54.8845 46.6542C54.8618 46.7453 54.8304 46.8341 54.7906 46.9192C54.7398 47.0757 54.7501 47.2455 54.8194 47.3947C54.8973 47.6026 54.9989 47.8007 55.1223 47.9853L56.6457 47.9838Z" fill="#3F3D56"/>
<path d="M81.6453 48.6289C81.6892 48.7167 77.2886 52.7327 75.3821 54.4666L74.5175 55.251L73.9284 47.9823H75.4427C75.4427 47.9823 75.9485 47.2524 75.7804 46.9223C75.6123 46.5922 75.5835 45.9395 75.5835 45.9395C75.5835 45.9395 75.7516 45.0415 75.6123 44.5766C75.473 44.1117 75.2746 42.5702 75.2746 42.5702L75.0823 42.3976L74.8536 42.1977C74.8536 42.1977 74.5705 38.6678 74.5705 38.583C74.5705 38.4982 78.6954 33.8962 78.6954 33.8962L79.6767 34.29C79.6767 34.29 79.6994 34.396 79.7342 34.564C79.8675 35.1698 80.1885 36.6235 80.2945 36.8431C80.7464 37.9309 81.0027 39.09 81.0517 40.2669C81.1123 41.9221 81.5893 48.5169 81.6453 48.6289Z" fill="#3F3D56"/>
<path d="M81.6636 110.316C81.4016 110.84 79.5435 110.504 79.168 110.467C78.7924 110.431 76.0894 109.082 76.0516 108.765C76.0137 108.449 75.0779 107.791 74.8174 107.791C74.5569 107.791 73.2834 106.781 73.1698 106.631C73.1427 106.557 73.1299 106.478 73.132 106.398C73.0926 105.783 73.1698 104.199 73.1698 104.199L78.5956 104.502L81.2335 108.464C81.2335 108.464 81.6303 109.221 81.709 109.827C81.7408 109.991 81.725 110.16 81.6636 110.316Z" fill="#3F3D56"/>
<path opacity="0.1" d="M81.6636 110.316C81.4016 110.84 79.5435 110.504 79.168 110.467C78.7924 110.431 76.0894 109.082 76.0516 108.765C76.0137 108.449 75.0779 107.791 74.8174 107.791C74.5569 107.791 73.2834 106.781 73.1698 106.631C73.1427 106.557 73.1299 106.478 73.132 106.398C73.0926 105.783 73.1698 104.199 73.1698 104.199L78.5956 104.502L81.2335 108.464C81.2335 108.464 81.6303 109.221 81.709 109.827C81.7408 109.991 81.725 110.16 81.6636 110.316Z" fill="black"/>
<path opacity="0.1" d="M81.6635 110.316C81.4016 110.84 79.5435 110.503 79.168 110.467C78.7924 110.431 76.0894 109.082 76.0515 108.765C76.0137 108.449 75.0778 107.791 74.8174 107.791C74.5569 107.791 73.2834 106.781 73.1698 106.631C73.1427 106.557 73.1298 106.478 73.1319 106.398L74.8916 107.513C74.8916 107.513 76.0137 108.224 76.3135 108.655C76.6133 109.085 78.9726 109.964 79.168 109.981C79.3194 109.996 80.864 109.699 81.709 109.83C81.7401 109.993 81.7244 110.161 81.6635 110.316Z" fill="black"/>
<path d="M56.0158 107.042C56.0158 107.042 55.248 107.996 54.2198 108.07C53.9492 108.073 53.6899 108.179 53.4951 108.367C53.3003 108.555 53.1846 108.81 53.1719 109.08C53.1719 109.08 53.3597 109.662 50.8717 110.466C49.374 110.95 48.4321 110.797 47.8824 110.466C47.5866 110.302 47.3645 110.031 47.2616 109.708C47.0935 109.11 50.4037 104.56 50.4037 104.56L53.4157 104.372L55.5675 105.346L55.8961 106.577L56.0158 107.042Z" fill="#3F3D56"/>
<path opacity="0.1" d="M56.0158 107.042C56.0158 107.042 55.248 107.996 54.2198 108.07C53.9492 108.073 53.6899 108.179 53.4951 108.367C53.3003 108.555 53.1846 108.81 53.1719 109.08C53.1719 109.08 53.3597 109.662 50.8717 110.466C49.374 110.95 48.4321 110.797 47.8824 110.466C47.5866 110.302 47.3645 110.031 47.2616 109.708C47.0935 109.11 50.4037 104.56 50.4037 104.56L53.4157 104.372L55.5675 105.346L55.8961 106.577L56.0158 107.042Z" fill="black"/>
<path opacity="0.1" d="M56.0157 107.042C56.0157 107.042 55.2479 107.996 54.2197 108.07C53.9491 108.073 53.6898 108.179 53.495 108.367C53.3002 108.554 53.1845 108.81 53.1718 109.08C53.1718 109.08 53.3596 109.661 50.8716 110.465C49.3739 110.95 48.432 110.797 47.8823 110.465C49.2952 110.314 52.4146 109.427 52.7281 109.118C53.1021 108.742 53.5701 107.714 53.8881 107.696C54.1076 107.682 55.2282 107.007 55.9006 106.589L56.0157 107.042Z" fill="black"/>
<path d="M79.1135 102.87C78.7773 103.656 79.1135 105.264 79.1135 105.264C79.1135 105.264 74.0996 105.528 72.8654 104.704C71.6313 103.88 70.7696 99.166 70.7696 99.166C70.7696 99.166 70.9559 93.6297 70.7696 93.3662C70.5834 93.1027 69.9095 91.87 70.1336 91.6096C70.3577 91.3491 69.9458 89.962 69.6475 89.3639C69.3492 88.7657 69.4597 87.0439 69.4597 87.0439L68.7117 82.4798L67.5517 77.0541L66.5795 73.4197C66.5795 73.4197 65.5695 70.4638 65.2257 69.2281C64.882 67.9924 64.5216 69.1161 64.5216 69.1161C64.4852 70.3139 61.7156 75.7018 61.7156 75.7018C61.7156 75.7018 61.3037 78.956 60.8539 80.116C60.4042 81.2759 59.9196 85.3176 59.9196 85.3176C59.9196 85.3176 59.2094 93.5479 58.6097 94.932C58.0101 96.316 57.6103 98.3801 57.6103 98.3801C57.6103 98.3801 57.7617 101.224 57.3862 101.448C57.0106 101.672 57.0833 103.394 57.0833 103.394C57.0833 103.394 57.3074 105.04 56.4458 105.303C55.5841 105.567 55.7356 106.126 55.7356 106.126C55.7356 106.126 50.9473 106.907 50.1599 104.816C49.3724 102.725 50.4628 102.16 50.5142 102.01C50.5657 101.86 51.1714 101.599 50.646 101C50.1205 100.4 51.3198 98.7541 51.3198 98.7541C51.3198 98.7541 51.5076 96.4357 51.8438 96.36C52.18 96.2842 52.0679 92.9179 52.0679 92.9179L52.4419 89.4017C52.4419 89.4017 52.9296 81.544 52.8175 81.2442C52.7054 80.9443 52.7796 79.4482 53.1537 78.738C53.5277 78.0278 53.8245 71.4799 53.8245 71.4799C53.8245 71.4799 53.7488 68.262 54.0486 67.6638C54.2182 67.3246 54.303 66.0208 54.3515 64.9563C54.3818 64.1461 54.3909 63.4737 54.3909 63.4737L58.5794 61.9019L63.9704 60.1816L68.4982 62.3501L75.1202 63.6221L75.2035 64.7654L76.4619 82.2239L77.1736 88.8096C77.1736 88.8096 77.4765 91.914 77.5113 92.4743C77.5461 93.0345 77.9217 96.7037 77.9217 96.7037C77.9217 96.7037 78.7076 98.4618 78.2246 99.06C77.7415 99.6581 77.9217 100.146 77.9217 100.146C77.9217 100.146 79.4557 102.084 79.1135 102.87Z" fill="#3F3D56"/>
<path opacity="0.1" d="M71.2633 27.518L69.543 58.1796L60.1876 56.2155L58.3356 43.9239L60.1695 27.4241L61.5505 27.6012L63.987 27.9117L66.3993 28.0616L69.013 27.7693L71.2633 27.518Z" fill="black"/>
<path d="M71.2633 27.7435L69.543 58.4037L60.1876 56.4397L58.3356 44.148L60.1695 27.6497L61.5505 27.8253L63.987 28.1358L66.3993 28.2857L69.013 27.9934L71.2633 27.7435Z" fill="#8F53F0"/>
<path d="M63.5736 28.5659L66.9414 28.678L65.995 30.003C65.995 30.003 66.0616 32.6803 66.5114 33.448C66.9611 34.2158 66.8294 46.0759 66.8294 46.0759L65.939 47.7779L64.405 45.8699L64.4231 30.212L63.5736 28.5659Z" fill="#3F3D56"/>
<path opacity="0.1" d="M63.5736 28.5659L66.9414 28.678L65.995 30.003C65.995 30.003 66.0616 32.6803 66.5114 33.448C66.9611 34.2158 66.8294 46.0759 66.8294 46.0759L65.939 47.7779L64.405 45.8699L64.4231 30.212L63.5736 28.5659Z" fill="black"/>
<path opacity="0.1" d="M68.8494 25.0859L65.7072 28.5658L67.5032 30.436L70.4773 27.5376L68.8494 25.0859Z" fill="black"/>
<path d="M68.642 25.0905L65.7057 28.3402L67.5017 30.2119L70.4819 27.312L69.0266 25.1193C69.0067 25.0874 68.9796 25.0607 68.9475 25.0413C68.9153 25.0219 68.879 25.0103 68.8416 25.0075C68.8041 25.0047 68.7666 25.0108 68.7319 25.0252C68.6972 25.0396 68.6664 25.062 68.642 25.0905Z" fill="#8F53F0"/>
<path opacity="0.1" d="M64.3792 28.3978L61.1991 25.2178L60.8993 26.882L62.3591 30.53L64.3792 28.3978Z" fill="black"/>
<path d="M64.4912 28.1737L61.3112 24.9922L61.0114 26.6579L62.4711 30.3059L64.4912 28.1737Z" fill="#8F53F0"/>
<path opacity="0.1" d="M75.1989 64.7654C73.6747 65.4948 72.0414 65.97 70.3638 66.1722C67.2776 66.566 65.2575 62.6378 65.2575 62.6378L64.0794 64.1718C63.7054 65.7997 57.9979 66.2101 55.6795 65.5923C55.1984 65.474 54.7462 65.2598 54.35 64.9623C54.3803 64.1522 54.3893 63.4798 54.3893 63.4798L58.5794 61.9019L63.9704 60.1816L68.4981 62.3501L75.1202 63.6221L75.1989 64.7654Z" fill="black"/>
<path opacity="0.1" d="M71.2618 27.7422L69.5415 58.4024L60.1876 56.4338L58.3356 44.1436L60.1695 27.6377L61.5505 27.8134C61.515 28.4127 61.4472 29.0097 61.3476 29.6018C61.1235 30.6497 62.5075 38.0955 62.5075 38.0955C62.5075 38.0955 65.1379 46.4439 66.3236 45.2415C67.5093 44.0392 69.1856 37.6836 69.1856 37.6836C70.3274 35.3258 69.2053 28.7235 69.1205 28.5826C69.0615 28.3855 69.0254 28.1823 69.013 27.9769L71.2618 27.7422Z" fill="black"/>
<path opacity="0.1" d="M75.3034 51.4621L75.3821 54.4664L74.5175 55.2509L73.9284 47.9822H75.2186L75.3034 51.4621Z" fill="black"/>
<path opacity="0.1" d="M54.989 45.9272V45.9348C54.9765 46.1767 54.942 46.417 54.886 46.6526C54.886 46.586 54.886 46.5481 54.8739 46.5436C54.8194 46.5193 54.8845 46.2453 54.989 45.9272Z" fill="black"/>
<path opacity="0.1" d="M56.6457 47.9838L56.0566 55.2525C56.0566 55.2525 55.1723 54.4514 54.0275 53.4066L54.1638 52.1194C54.1638 52.1194 54.6468 48.9545 54.8225 47.3948C54.9004 47.6026 55.002 47.8008 55.1253 47.9854L56.6457 47.9838Z" fill="black"/>
<path d="M61.7201 25.1042C61.7201 25.1042 61.1598 24.2819 60.3935 25.8719C60.3935 25.8719 58.3916 27.0319 57.6996 27.1621C57.0076 27.2923 54.5574 28.154 54.5574 28.154C54.187 28.4223 53.7412 28.5665 53.2839 28.5659C52.5176 28.5659 51.8816 30.2483 51.9755 31.1659C52.0694 32.0836 51.9195 32.7559 51.2078 32.7938C50.496 32.8317 50.8898 34.3081 50.8898 34.3081L55.6235 39.7339C55.6235 39.7339 55.9263 44.7311 55.7749 44.8825C55.6235 45.0339 55.0814 46.4907 55.2131 46.5483C55.3448 46.6058 54.5014 52.1239 54.5014 52.1239L53.3596 62.8407C53.3596 62.8407 53.3596 64.6351 55.6795 65.253C57.9994 65.8708 63.7053 65.4589 64.0794 63.831L65.2575 62.297C65.2575 62.297 67.2776 66.2342 70.3637 65.833C73.4499 65.4317 75.4155 64.3186 75.4155 64.3186L75.0778 51.4667L74.8537 42.2067L79.6798 34.2945C79.6798 34.2945 78.3896 31.8246 78.5016 30.7025C78.6137 29.5804 78.8393 28.734 76.0894 28.3448C76.0894 28.3448 73.7694 27.9995 72.4035 27.0546C71.5911 26.4899 70.7031 26.0428 69.7656 25.7265C69.7656 25.7265 69.1447 24.606 68.6087 25.0905C68.6087 25.0905 68.9994 26.8108 68.9524 27.1197C68.9055 27.4286 69.0357 28.7945 69.1205 28.9369C69.2053 29.0792 70.3319 35.6801 69.1856 38.0378C69.1856 38.0378 67.5093 44.3979 66.3236 45.5942C65.1379 46.7905 62.5075 38.4482 62.5075 38.4482C62.5075 38.4482 61.1234 31.0039 61.3476 29.956C61.5717 28.9081 61.7201 25.1042 61.7201 25.1042Z" fill="#3F3D56"/>
<path d="M65.7255 49.6315C66.1804 49.6315 66.5492 49.2626 66.5492 48.8077C66.5492 48.3527 66.1804 47.9839 65.7255 47.9839C65.2705 47.9839 64.9017 48.3527 64.9017 48.8077C64.9017 49.2626 65.2705 49.6315 65.7255 49.6315Z" fill="#3F3D56"/>
<path d="M65.7255 53.5126C66.1804 53.5126 66.5492 53.1437 66.5492 52.6888C66.5492 52.2338 66.1804 51.865 65.7255 51.865C65.2705 51.865 64.9017 52.2338 64.9017 52.6888C64.9017 53.1437 65.2705 53.5126 65.7255 53.5126Z" fill="#3F3D56"/>
<path opacity="0.1" d="M65.7255 49.6315C66.1804 49.6315 66.5492 49.2626 66.5492 48.8077C66.5492 48.3527 66.1804 47.9839 65.7255 47.9839C65.2705 47.9839 64.9017 48.3527 64.9017 48.8077C64.9017 49.2626 65.2705 49.6315 65.7255 49.6315Z" fill="black"/>
<path opacity="0.1" d="M65.7255 53.5126C66.1804 53.5126 66.5492 53.1437 66.5492 52.6888C66.5492 52.2338 66.1804 51.865 65.7255 51.865C65.2705 51.865 64.9017 52.2338 64.9017 52.6888C64.9017 53.1437 65.2705 53.5126 65.7255 53.5126Z" fill="black"/>
<path opacity="0.1" d="M73.1213 101.748C73.1213 101.748 76.4998 102.01 76.8374 102.272C77.1751 102.534 73.1213 101.748 73.1213 101.748Z" fill="black"/>
<path opacity="0.1" d="M53.0038 99.0916C53.0038 99.0916 53.7155 99.9895 53.4157 100.401C53.1158 100.813 53.0038 99.0916 53.0038 99.0916Z" fill="black"/>
<path opacity="0.1" d="M53.864 102.325C53.864 102.325 55.1738 101.465 55.6978 102.037C56.2217 102.61 53.864 102.325 53.864 102.325Z" fill="black"/>
<path opacity="0.1" d="M68.7692 21.2397V23.4006C68.499 23.5193 68.2071 23.5806 67.9121 23.5808H62.241C61.9447 23.581 61.6517 23.5191 61.3809 23.3991V21.2397C61.3829 20.6694 61.6104 20.123 62.0139 19.7198C62.4173 19.3167 62.9639 19.0895 63.5342 19.0879H66.6173C67.1874 19.0899 67.7336 19.3172 68.1367 19.7204C68.5398 20.1235 68.7672 20.6696 68.7692 21.2397Z" fill="black"/>
<path opacity="0.1" d="M61.8732 11.96V13.556C61.8732 13.6484 61.8365 13.737 61.7711 13.8023C61.7058 13.8676 61.6172 13.9043 61.5249 13.9043C61.4325 13.9043 61.3439 13.8676 61.2786 13.8023C61.2133 13.737 61.1766 13.6484 61.1766 13.556V12.2128C61.3915 12.087 61.6276 12.0013 61.8732 11.96Z" fill="black"/>
<path d="M68.2467 12.1055H61.9048C60.9012 12.1055 60.0876 12.919 60.0876 13.9226V21.4048C60.0876 22.4084 60.9012 23.222 61.9048 23.222H68.2467C69.2503 23.222 70.0639 22.4084 70.0639 21.4048V13.9226C70.0639 12.919 69.2503 12.1055 68.2467 12.1055Z" fill="#DCDFED"/>
<path opacity="0.1" d="M67.9077 19.5316V24.0639H62.2411V19.5225C62.6132 19.2403 63.0674 19.0877 63.5344 19.0879H66.6175C67.0844 19.0916 67.5373 19.2474 67.9077 19.5316Z" fill="black"/>
<path opacity="0.1" d="M67.9742 12.1055H62.1275V23.6975H67.9742V12.1055Z" fill="black"/>
<path d="M67.9122 12.1055H62.2411V23.6975H67.9122V12.1055Z" fill="#6F758D"/>
<path d="M64.4914 16.1047H62.6575V16.4439H64.4914V16.1047Z" fill="#DCDFED"/>
<path d="M67.541 16.1047H65.7072V16.4439H67.541V16.1047Z" fill="#DCDFED"/>
<path d="M66.6235 19.8511H63.5283V20.054H66.6235V19.8511Z" fill="#DCDFED"/>
<path d="M103.996 32.3213L106.189 43.1546C106.214 43.2747 106.277 43.3836 106.369 43.4653C106.461 43.547 106.576 43.5974 106.698 43.6089L108.159 43.7513C108.267 43.9403 108.364 44.1349 108.452 44.3343C108.712 44.94 108.882 45.6669 109.443 46.0258C109.746 46.3286 110.429 46.2756 110.82 46.2771C111.23 46.262 111.64 46.3189 112.031 46.4452C111.986 46.4399 111.94 46.4399 111.895 46.4452C112.149 46.547 112.396 46.6685 112.631 46.8087C112.649 46.8329 112.669 46.8571 112.684 46.8814C112.746 46.9768 112.796 47.0918 112.901 47.1388C112.87 47.1994 113.014 47.2009 113.244 47.1691C113.267 47.1731 113.289 47.1803 113.309 47.1903C113.371 47.2315 113.423 47.2858 113.461 47.3493C113.841 47.8551 114.547 47.9807 115.183 47.9974C115.819 48.0141 116.491 47.9701 117.051 48.2715C117.185 48.3427 117.309 48.432 117.448 48.4926C117.441 48.5587 117.443 48.6256 117.456 48.691C117.521 48.9004 117.606 49.1032 117.71 49.2967C117.761 49.395 117.789 49.5037 117.792 49.6144C117.794 49.7252 117.772 49.8351 117.725 49.9357C117.678 50.0175 117.602 50.0871 117.554 50.1629C117.489 50.2951 117.456 50.441 117.459 50.5884C117.415 51.2774 117.372 51.98 117.56 52.6433C117.669 53.0294 117.854 53.4307 117.733 53.8123C117.66 54.0425 117.48 54.2379 117.454 54.4771C117.428 54.7164 117.58 54.9678 117.669 55.2085C117.88 55.7794 117.765 56.4639 117.619 57.0529C117.628 57.0581 117.638 57.0627 117.648 57.0666C117.541 57.1923 117.452 57.3325 117.384 57.483C117.153 57.9812 117.168 58.5551 117.185 59.1033C117.216 60.1346 117.251 61.1779 117.537 62.1683C117.586 62.3091 117.62 62.4548 117.637 62.6029C117.642 62.7426 117.63 62.8825 117.601 63.0193C117.533 63.4161 117.45 63.8113 117.351 64.202C117.296 64.3693 117.274 64.5457 117.286 64.7214C117.315 64.9501 117.459 65.1484 117.554 65.3604C117.934 66.2054 117.525 67.2457 117.895 68.0953C117.983 68.2967 118.111 68.4784 118.187 68.6843C118.354 69.1386 118.26 69.6293 118.316 70.1017C118.376 70.4358 118.458 70.7656 118.561 71.0891C118.829 72.14 118.385 73.2606 118.644 74.3145C118.865 75.2231 119.09 76.1317 119.099 77.0569C119.112 77.7035 119.023 78.3502 119.099 78.9922C119.174 79.6343 119.441 80.296 119.991 80.6383C120.283 80.8048 120.61 80.9012 120.946 80.9199C121.597 84.3074 121.559 87.7994 122.126 91.2051C122.239 91.8926 122.379 92.568 122.448 93.2691C122.771 96.5097 121.561 99.6549 120.878 102.858L120.769 102.924C119.928 103.448 119.034 104.039 118.7 104.966C118.597 105.252 118.573 105.617 118.803 105.818C118.889 105.874 118.97 105.937 119.046 106.006C119.229 106.227 119.068 106.624 119.289 106.805C119.434 106.83 119.58 106.845 119.727 106.851C119.626 107.091 119.525 107.332 119.424 107.573C119.332 107.787 119.238 108.02 119.295 108.246C119.348 108.389 119.419 108.525 119.506 108.65C119.665 108.991 119.739 109.365 119.721 109.74C119.708 109.865 119.742 109.99 119.816 110.09C119.858 110.128 119.906 110.159 119.959 110.179C120.632 110.475 121.372 110.588 122.103 110.509C122.834 110.429 123.532 110.159 124.126 109.725C124.183 109.688 124.232 109.64 124.268 109.583C124.287 109.544 124.301 109.502 124.309 109.46C124.405 109.068 124.502 108.676 124.597 108.283C124.609 108.238 124.62 108.191 124.632 108.146C124.744 107.682 124.858 107.22 124.971 106.757C125.123 106.106 125.288 105.453 125.398 104.788C125.398 105.158 125.398 105.526 125.398 105.895V107.189C125.395 107.379 125.401 107.57 125.418 107.759C125.577 107.759 125.736 107.759 125.895 107.759C125.906 107.761 125.918 107.76 125.929 107.755C125.939 107.751 125.949 107.743 125.955 107.734C125.977 107.686 125.987 107.634 125.986 107.582C126.009 107.11 126.026 106.636 126.036 106.162C126.055 105.332 126.058 104.496 126.043 103.669C126.043 103.482 126.061 103.095 126.031 102.836C126.109 102.653 126.174 102.464 126.225 102.272C126.302 102.011 126.376 101.748 126.44 101.483C126.54 101.469 126.642 101.469 126.743 101.483C126.746 103.012 126.597 104.538 126.299 106.038C126.593 106.312 127.112 106.153 127.349 105.826C127.585 105.499 127.615 105.069 127.651 104.675C127.762 103.36 127.974 102.057 128.188 100.754C128.21 100.53 128.274 100.312 128.377 100.111C128.478 99.9381 128.637 99.8079 128.727 99.6231C128.821 99.3931 128.849 99.1414 128.808 98.8963C128.754 98.3223 128.612 97.7378 128.26 97.2775C127.93 96.8459 127.382 96.5521 126.844 96.6157L126.811 96.5551C126.499 95.9297 126.531 95.1923 126.57 94.5017C126.614 93.7163 126.658 92.9309 126.703 92.1455C126.832 91.2793 126.934 90.4131 126.994 89.5454C127.146 88.9882 127.35 88.446 127.486 87.8797C127.486 87.33 127.682 86.7576 127.688 86.1927C127.69 85.6052 127.646 85.0183 127.556 84.4377C127.383 83.2444 127.071 82.0769 126.813 80.9018C126.77 80.7034 126.743 80.4929 126.714 80.2854C126.89 80.1831 127.051 80.0589 127.196 79.9159C126.931 77.8565 126.69 75.6456 127.665 73.8103C127.954 73.2681 128.35 72.7502 128.451 72.1445C128.477 71.9931 128.484 71.8326 128.516 71.6796C128.561 71.4989 128.624 71.3233 128.705 71.1557L130.635 66.7869L130.947 66.0843C131.281 65.3271 131.616 64.57 131.902 63.7871C132.238 62.8785 132.508 61.9351 132.761 60.9977C132.912 60.4359 133.064 59.8635 133.053 59.282C133.025 58.7657 132.903 58.2587 132.694 57.7859C132.649 57.6784 132.6 57.5724 132.543 57.4664C132.602 57.4482 132.659 57.4346 132.717 57.4164C132.846 56.5002 132.955 55.4902 132.438 54.7239C132.337 54.6021 132.256 54.4651 132.197 54.3181C132.105 54.0047 132.305 53.6851 132.368 53.3641C132.499 52.7084 132.057 52.0921 131.678 51.5394C131.62 51.4656 131.575 51.3827 131.545 51.294C131.475 51.0427 131.628 50.7625 131.631 50.5081C131.631 50.4405 131.616 50.3737 131.587 50.3128C133.048 50.3976 134.49 50.7792 135.956 50.8352C136.884 50.8716 137.924 50.7262 138.514 50.0175C138.891 49.5632 139.025 48.965 139.062 48.3805C139.128 47.3038 138.91 46.2317 138.729 45.1672C138.61 44.4448 138.517 43.718 138.442 42.9881C138.594 43.0017 138.745 43.0093 138.897 43.0093C139.764 43.0093 140.667 42.8821 141.385 42.4036C142.102 41.925 142.582 41.0119 142.357 40.1805C142.23 39.7111 141.903 39.3235 141.663 38.901C140.818 37.4094 141.058 35.5119 141.784 33.9568C142.125 33.2208 142.576 32.4576 142.44 31.658C142.246 30.5374 141.039 29.9544 140.134 29.2579C139.347 28.6395 138.725 27.8356 138.324 26.918C137.923 26.0005 137.757 24.998 137.838 24.0002C137.908 23.2627 138.109 22.4859 137.814 21.806C137.496 21.0776 136.71 20.6945 136.048 20.2523C135.021 19.5621 134.192 18.6144 133.645 17.5038C133.307 16.8133 133.029 16.1803 132.232 15.9441C131.592 15.776 130.92 15.7636 130.274 15.9077L130.407 15.8441C130.347 15.8547 130.286 15.8668 130.229 15.8805L130.135 15.9062C129.525 15.7735 128.893 15.7771 128.284 15.9168C127.053 16.2121 125.71 17.0965 124.702 17.8248C124.4 18.0349 124.122 18.2782 123.875 18.5502C123.849 18.579 123.82 18.6047 123.794 18.6335C123.673 18.7675 123.571 18.9178 123.492 19.0802C123.439 19.1987 123.4 19.3226 123.375 19.4497C123.271 19.799 123.228 20.1639 123.249 20.5279C123.195 20.6036 123.142 20.6793 123.098 20.7596C122.454 21.7806 122.225 23.009 122.458 24.1933C122.691 25.3777 123.367 26.4283 124.349 27.1303C124.167 27.5435 123.953 27.9416 123.708 28.3205C123.448 28.7415 123.172 29.1549 122.89 29.5622L119.862 30.5011C119.671 30.5617 119.48 30.6207 119.297 30.698C119.075 30.7922 118.867 30.9166 118.679 31.0675C118.376 31.3065 118.14 31.6204 117.994 31.9783C117.849 32.3362 117.799 32.7257 117.849 33.1087C117.863 33.1875 117.881 33.2602 117.899 33.3419C117.808 33.8053 117.739 34.2763 117.669 34.7442C117.578 35.3757 117.487 36.0071 117.404 36.6401C117.093 37.2673 116.957 37.9667 117.01 38.6647C117.021 39.0866 117.058 39.5074 117.121 39.9246C117.11 40.2956 117.106 40.6666 117.121 41.0376C117.15 41.5082 117.15 41.98 117.121 42.4505C117.069 42.8802 116.985 43.3054 116.87 43.7225C116.865 43.7606 116.853 43.7974 116.834 43.8306C116.815 43.8637 116.789 43.8924 116.758 43.9148L116.723 43.9239L116.52 43.9042L116.296 43.8785C116.295 43.8466 116.293 43.8147 116.288 43.7831L113.9 32.1002C113.872 31.9709 113.801 31.8552 113.698 31.7725C113.594 31.6897 113.466 31.645 113.334 31.6459H104.561C104.477 31.6459 104.394 31.6644 104.318 31.6999C104.242 31.7354 104.175 31.7872 104.121 31.8517C104.067 31.9161 104.028 31.9915 104.007 32.0726C103.985 32.1538 103.982 32.2387 103.996 32.3213ZM131.787 46.2696C131.806 46.2213 131.827 46.1742 131.852 46.1287C131.941 45.9773 132.072 45.8531 132.155 45.7002C132.198 45.614 132.22 45.5192 132.22 45.4231C132.22 45.327 132.198 45.2321 132.155 45.146C132.069 44.9945 132.306 44.8507 132.376 44.6917C132.409 44.5636 132.417 44.4304 132.399 44.2995C132.425 44.0791 132.511 43.8699 132.646 43.6937C132.812 43.4303 132.98 43.1698 133.151 42.9093C133.201 42.8306 133.254 42.7579 133.303 42.6761C133.331 42.7283 133.362 42.7788 133.395 42.8276C133.519 42.9677 133.614 43.1315 133.674 43.3091C133.684 43.4336 133.684 43.5587 133.674 43.6831C133.674 44.0708 133.919 44.4115 134.105 44.7538C134.292 45.096 134.428 45.5245 134.234 45.8622C134.166 45.9803 134.083 46.1651 134.199 46.2196C134.264 46.2499 134.351 46.2196 134.407 46.262C134.486 46.3332 134.378 46.4528 134.28 46.4967C133.955 46.6368 133.605 46.7091 133.251 46.7091C132.898 46.7091 132.548 46.6368 132.223 46.4967C132.087 46.4256 131.938 46.3438 131.787 46.2696ZM113.161 44.2434L115.584 44.4812C115.383 44.5796 115.161 44.6254 114.937 44.6144L114.35 44.4388C114.35 44.4388 114.35 44.4781 114.33 44.5448C114.22 44.516 114.107 44.4888 113.997 44.463C113.714 44.3964 113.435 44.3222 113.158 44.2434H113.161Z" fill="url(#paint1_linear_4045_153071)"/>
<path d="M131.825 18.0172C132.365 19.1174 133.183 20.0571 134.199 20.7429C134.855 21.1836 135.63 21.5652 135.945 22.2891C136.239 22.9644 136.039 23.7382 135.971 24.4727C135.889 25.464 136.053 26.4602 136.45 27.3725C136.846 28.2849 137.462 29.085 138.242 29.7016C139.137 30.3936 140.332 30.9751 140.523 32.0896C140.659 32.8847 140.22 33.6448 139.875 34.3763C139.163 35.9239 138.919 37.8107 139.755 39.2932C139.993 39.7157 140.314 40.1003 140.441 40.5667C140.665 41.3951 140.19 42.2976 139.48 42.7791C138.769 43.2607 137.877 43.3849 137.02 43.3849C136.397 43.3849 135.721 43.291 135.279 42.8533C134.976 42.5596 134.834 42.1507 134.694 41.7585L133.61 38.6935C133.413 38.1423 133.207 37.5699 132.797 37.152C131.928 36.2646 130.507 36.3585 129.266 36.3736C127.436 36.3953 125.615 36.1081 123.881 35.5241C122.866 35.1819 121.761 34.5989 121.526 33.5555C121.294 32.5349 121.992 31.5627 122.607 30.7162C123.068 30.0852 123.503 29.4366 123.913 28.7703C124.312 28.1222 124.695 27.4407 124.804 26.6881C124.988 25.4373 124.402 24.2228 123.947 23.0432C123.493 21.8635 123.177 20.4689 123.837 19.3907C124.122 18.9712 124.485 18.6111 124.907 18.3307C125.899 17.6053 127.232 16.727 128.449 16.4317C129.102 16.2794 129.782 16.2887 130.43 16.459C131.215 16.6967 131.49 17.3252 131.825 18.0172Z" fill="#3F3D56"/>
<path d="M118.458 32.6243C118.215 33.4542 118.042 34.3032 117.942 35.1622C117.639 37.2384 117.336 39.3266 117.394 41.4224C117.422 41.8909 117.422 42.3607 117.394 42.8292C117.342 43.2562 117.259 43.6788 117.145 44.0936C117.141 44.1316 117.129 44.1682 117.11 44.2011C117.091 44.234 117.065 44.2624 117.033 44.2844C116.962 44.3192 116.882 44.2844 116.799 44.2753C116.529 44.242 116.331 44.5025 116.122 44.6781C115.918 44.8423 115.67 44.9405 115.409 44.9597C115.149 44.9789 114.889 44.9182 114.663 44.7857C114.733 45.0938 114.711 45.4153 114.6 45.7111C114.49 46.0069 114.295 46.2641 114.041 46.4514C113.783 46.634 113.489 46.7586 113.178 46.8169C112.868 46.8752 112.549 46.8657 112.242 46.7891C112.552 46.7406 112.848 46.9587 113.023 47.2237C113.084 47.3191 113.132 47.4327 113.235 47.4796C113.338 47.5265 113.519 47.4675 113.64 47.5311C113.7 47.5704 113.752 47.622 113.791 47.6825C114.167 48.1868 114.865 48.311 115.493 48.3276C116.122 48.3443 116.786 48.3019 117.341 48.6002C117.473 48.6832 117.609 48.7595 117.748 48.8288C118.184 49.0091 118.705 48.8288 119.044 48.5063C119.384 48.1838 119.571 47.728 119.711 47.2782C120.271 45.461 120.165 43.5061 120.047 41.6041C119.862 38.5785 119.477 35.4818 118.458 32.6243Z" fill="#454B69"/>
<path opacity="0.1" d="M118.458 32.6243C118.215 33.4542 118.042 34.3032 117.942 35.1622C117.639 37.2384 117.336 39.3266 117.394 41.4224C117.422 41.8909 117.422 42.3607 117.394 42.8292C117.342 43.2562 117.259 43.6788 117.145 44.0936C117.141 44.1316 117.129 44.1682 117.11 44.2011C117.091 44.234 117.065 44.2624 117.033 44.2844C116.962 44.3192 116.882 44.2844 116.799 44.2753C116.529 44.242 116.331 44.5025 116.122 44.6781C115.918 44.8423 115.67 44.9405 115.409 44.9597C115.149 44.9789 114.889 44.9182 114.663 44.7857C114.733 45.0938 114.711 45.4153 114.6 45.7111C114.49 46.0069 114.295 46.2641 114.041 46.4514C113.783 46.634 113.489 46.7586 113.178 46.8169C112.868 46.8752 112.549 46.8657 112.242 46.7891C112.552 46.7406 112.848 46.9587 113.023 47.2237C113.084 47.3191 113.132 47.4327 113.235 47.4796C113.338 47.5265 113.519 47.4675 113.64 47.5311C113.7 47.5704 113.752 47.622 113.791 47.6825C114.167 48.1868 114.865 48.311 115.493 48.3276C116.122 48.3443 116.786 48.3019 117.341 48.6002C117.473 48.6832 117.609 48.7595 117.748 48.8288C118.184 49.0091 118.705 48.8288 119.044 48.5063C119.384 48.1838 119.571 47.728 119.711 47.2782C120.271 45.461 120.165 43.5061 120.047 41.6041C119.862 38.5785 119.477 35.4818 118.458 32.6243Z" fill="black"/>
<path d="M127.651 88.0175C127.5 88.6732 127.235 89.3032 127.094 89.9634C126.989 90.5303 126.928 91.1044 126.909 91.6806L126.747 94.6002C126.708 95.2922 126.676 96.0206 126.984 96.6415C127.197 97.0716 127.567 97.432 127.673 97.9014C127.836 98.6358 127.311 99.3279 126.82 99.8988L124.397 102.702C123.64 103.58 122.812 104.504 121.69 104.802C121.522 104.858 121.342 104.865 121.172 104.82C120.858 104.717 120.707 104.339 120.752 104.012C120.824 103.689 120.971 103.388 121.182 103.133C121.815 102.244 122.495 101.369 122.907 100.358C123.43 99.072 123.483 97.647 123.451 96.2584C123.331 90.5979 121.903 85.0025 122.065 79.3466C123.301 79.2527 124.585 79.0437 125.822 79.0589C126.926 79.071 126.794 80.1961 126.987 81.0805C127.243 82.251 127.55 83.411 127.723 84.5982C127.811 85.176 127.854 85.7598 127.851 86.3442C127.845 86.9015 127.651 87.4709 127.651 88.0175Z" fill="#FBBEBE"/>
<path opacity="0.05" d="M127.651 88.0175C127.5 88.6732 127.235 89.3032 127.094 89.9634C126.989 90.5303 126.928 91.1044 126.909 91.6806L126.747 94.6002C126.708 95.2922 126.676 96.0206 126.984 96.6415C127.197 97.0716 127.567 97.432 127.673 97.9014C127.836 98.6358 127.311 99.3279 126.82 99.8988L124.397 102.702C123.64 103.58 122.812 104.504 121.69 104.802C121.522 104.858 121.342 104.865 121.172 104.82C120.858 104.717 120.707 104.339 120.752 104.012C120.824 103.689 120.971 103.388 121.182 103.133C121.815 102.244 122.495 101.369 122.907 100.358C123.43 99.072 123.483 97.647 123.451 96.2584C123.331 90.5979 121.903 85.0025 122.065 79.3466C123.301 79.2527 124.585 79.0437 125.822 79.0589C126.926 79.071 126.794 80.1961 126.987 81.0805C127.243 82.251 127.55 83.411 127.723 84.5982C127.811 85.176 127.854 85.7598 127.851 86.3442C127.845 86.9015 127.651 87.4709 127.651 88.0175Z" fill="black"/>
<path d="M126.92 96.7141C127.482 96.599 128.071 96.9034 128.418 97.3607C128.765 97.818 128.905 98.3995 128.96 98.9719C129 99.2155 128.972 99.4654 128.88 99.6943C128.79 99.8714 128.634 100.008 128.533 100.179C128.431 100.379 128.368 100.596 128.345 100.819C128.136 102.114 127.926 103.412 127.815 104.719C127.782 105.117 127.75 105.539 127.512 105.864C127.274 106.188 126.767 106.348 126.476 106.074C126.77 104.582 126.917 103.065 126.914 101.545C126.254 101.454 125.68 101.973 125.248 102.481C124.807 102.999 124.402 103.548 124.037 104.122C123.704 104.651 123.399 105.203 122.977 105.662C122.544 106.121 122.006 106.468 121.408 106.672C120.811 106.876 120.173 106.932 119.55 106.834C119.332 106.654 119.491 106.259 119.309 106.039C119.237 105.969 119.159 105.904 119.076 105.847C118.849 105.647 118.872 105.285 118.975 105C119.305 104.077 120.186 103.486 121.019 102.97C122.524 102.025 124.047 101.093 125.562 100.177C126.141 99.8226 126.582 99.2817 126.814 98.6433C126.869 98.4859 127.105 96.652 126.92 96.7141Z" fill="#3F3D56"/>
<path opacity="0.05" d="M126.92 96.7141C127.482 96.599 128.071 96.9034 128.418 97.3607C128.765 97.818 128.905 98.3995 128.96 98.9719C129 99.2155 128.972 99.4654 128.88 99.6943C128.79 99.8714 128.634 100.008 128.533 100.179C128.431 100.379 128.368 100.596 128.345 100.819C128.136 102.114 127.926 103.412 127.815 104.719C127.782 105.117 127.75 105.539 127.512 105.864C127.274 106.188 126.767 106.348 126.476 106.074C126.77 104.582 126.917 103.065 126.914 101.545C126.254 101.454 125.68 101.973 125.248 102.481C124.807 102.999 124.402 103.548 124.037 104.122C123.704 104.651 123.399 105.203 122.977 105.662C122.544 106.121 122.006 106.468 121.408 106.672C120.811 106.876 120.173 106.932 119.55 106.834C119.332 106.654 119.491 106.259 119.309 106.039C119.237 105.969 119.159 105.904 119.076 105.847C118.849 105.647 118.872 105.285 118.975 105C119.305 104.077 120.186 103.486 121.019 102.97C122.524 102.025 124.047 101.093 125.562 100.177C126.141 99.8226 126.582 99.2817 126.814 98.6433C126.869 98.4859 127.105 96.652 126.92 96.7141Z" fill="black"/>
<path d="M127.165 86.3745C127.468 90.1603 126.62 93.9218 125.866 97.6394C125.795 97.9371 125.756 98.2418 125.751 98.548C125.781 98.9265 125.842 99.3018 125.934 99.6701C126.219 101.204 125.854 102.777 125.492 104.296C125.239 105.347 124.886 106.534 123.905 106.993C123.213 107.317 122.404 107.177 121.655 107.028C121.407 107.002 121.172 106.908 120.975 106.756C120.705 106.501 120.695 106.082 120.717 105.712C120.978 101.537 123.092 97.5349 122.686 93.3706C122.618 92.6816 122.48 92.0001 122.367 91.3172C121.782 87.7752 121.852 84.1394 121.111 80.6277C121.075 80.5062 121.075 80.3767 121.111 80.2552C121.175 80.1349 121.277 80.0387 121.4 79.9811C122.085 79.5722 122.816 79.2073 123.605 79.0967C124.222 79.0104 124.998 79.0771 125.516 79.4602C126.06 79.8615 126.096 80.7246 126.255 81.3546C126.663 83.0021 127.029 84.6739 127.165 86.3745Z" fill="#FBBEBE"/>
<path d="M126.175 107.614C126.177 107.666 126.167 107.718 126.145 107.766C126.138 107.775 126.129 107.783 126.119 107.787C126.109 107.792 126.097 107.794 126.086 107.793C125.934 107.793 125.771 107.793 125.615 107.793C125.598 107.604 125.591 107.414 125.594 107.223V105.938C125.594 104.917 125.594 103.895 125.639 102.88C125.639 102.843 125.644 102.807 125.656 102.771C125.666 102.749 125.685 102.731 125.707 102.721C125.819 102.668 126.081 102.505 126.178 102.694C126.275 102.883 126.231 103.474 126.236 103.721C126.251 104.546 126.249 105.375 126.236 106.2C126.218 106.671 126.197 107.143 126.175 107.614Z" fill="#3F3D56"/>
<path d="M117.919 62.8633C117.924 63.0026 117.911 63.1419 117.883 63.2783C117.815 63.672 117.731 64.0642 117.636 64.4534C117.582 64.6203 117.559 64.7961 117.571 64.9713C117.6 65.1984 117.742 65.3953 117.836 65.6058C118.211 66.4462 117.807 67.482 118.174 68.3315C118.26 68.5314 118.387 68.7131 118.463 68.9175C118.628 69.3627 118.534 69.8564 118.59 70.3274C118.649 70.6599 118.73 70.9882 118.832 71.3101C119.097 72.355 118.658 73.4695 118.914 74.519C119.134 75.4169 119.353 76.3225 119.368 77.2447C119.38 77.8868 119.293 78.5304 119.368 79.1694C119.444 79.8084 119.708 80.4656 120.251 80.8064C120.681 81.0744 121.211 81.1092 121.72 81.1092C122.697 81.1274 123.678 81.0986 124.653 81.0229C125.629 80.9472 126.678 80.7882 127.365 80.0946C127.103 78.0458 126.866 75.847 127.83 74.0208C128.115 73.4817 128.506 72.9744 128.607 72.3717C128.631 72.2202 128.639 72.0612 128.671 71.9083C128.715 71.729 128.778 71.5549 128.859 71.3889L130.767 67.0428C130.868 66.8096 130.968 66.5764 131.069 66.3432C131.4 65.5861 131.731 64.8289 132.016 64.0581C132.347 63.1495 132.611 62.2167 132.864 61.2839C133.015 60.7236 133.167 60.1558 133.152 59.5758C133.125 59.0621 133.005 58.5576 132.797 58.0872C132.684 57.8131 132.553 57.5436 132.419 57.2801C128.636 56.3889 124.744 56.0558 120.865 56.2913C120.247 56.304 119.635 56.406 119.047 56.5941C118.644 56.7355 118.281 56.9712 117.987 57.2816C117.854 57.4262 117.745 57.5907 117.663 57.7692C117.436 58.2659 117.45 58.8368 117.466 59.382C117.498 60.4071 117.533 61.446 117.816 62.4303C117.865 62.5707 117.9 62.7158 117.919 62.8633Z" fill="#3F3D56"/>
<path d="M120.571 105.514C121.144 105.948 121.818 106.232 122.53 106.338C123.157 106.43 123.846 106.363 124.347 105.97C124.917 105.515 125.104 104.758 125.274 104.049L125.491 103.106C125.569 102.767 125.642 102.428 125.707 102.085C125.872 101.182 125.923 100.262 125.859 99.3459C126.372 99.5458 126.681 100.158 126.714 100.709C126.747 101.26 126.578 101.799 126.422 102.329C126.36 102.586 126.265 102.834 126.14 103.067C126.048 103.218 125.928 103.357 125.849 103.521C125.751 103.762 125.695 104.018 125.683 104.278C125.566 105.128 125.397 105.97 125.177 106.799L124.841 108.18L124.808 108.318L124.512 109.481C124.505 109.523 124.491 109.564 124.471 109.602C124.436 109.66 124.388 109.708 124.332 109.745C123.745 110.175 123.055 110.443 122.331 110.521C121.607 110.599 120.876 110.485 120.21 110.19C120.159 110.169 120.111 110.139 120.069 110.102C119.996 110.002 119.963 109.877 119.977 109.754C119.994 109.38 119.92 109.009 119.763 108.67C119.677 108.545 119.608 108.409 119.556 108.267C119.498 108.043 119.591 107.812 119.682 107.599L120.377 105.971C120.454 105.779 120.445 105.68 120.571 105.514Z" fill="#3F3D56"/>
<path d="M122.203 37.7425C122.229 38.1033 122.299 38.4594 122.413 38.8025C122.499 39.0496 122.648 39.27 122.845 39.4416C123.169 39.0039 123.754 38.854 124.184 38.533C124.564 38.2528 124.832 37.8516 125.115 37.473C125.672 36.7279 126.326 36.0526 126.932 35.3408C127.023 35.2333 127.112 35.1258 127.2 35.0153C127.508 34.6403 127.787 34.2424 128.035 33.825C128.537 32.9604 128.881 31.9654 129.637 31.3098C130.049 30.9539 130.565 30.7177 130.931 30.3133C130.683 29.9484 130.591 29.5062 130.503 29.0731C130.41 28.655 130.338 28.2325 130.288 27.8072C130.274 27.6951 130.267 27.5815 130.262 27.468C130.262 27.4195 130.262 27.371 130.255 27.3165C130.255 26.9698 130.479 26.3731 130.124 26.1778C129.797 25.9976 129.263 25.9961 128.881 26.0006H128.819C127.928 26.0095 127.059 26.279 126.319 26.7759C126.151 26.8792 126.004 27.0133 125.886 27.1712C125.687 27.474 125.677 27.8374 125.692 28.1994C125.692 28.2827 125.699 28.3644 125.706 28.4447C125.706 28.4841 125.706 28.5249 125.706 28.5658C125.719 28.9686 125.68 29.4002 125.403 29.6788C125.1 29.9817 124.618 29.9953 124.208 30.1241C124.14 30.1453 124.075 30.1695 124.011 30.1952C123.559 30.3992 123.173 30.7261 122.898 31.1386C122.589 31.6118 122.37 32.138 122.253 32.6908C122.137 33.1884 122.065 33.695 122.038 34.2051C121.959 35.3757 122.08 36.5689 122.203 37.7425Z" fill="#FBBEBE"/>
<path opacity="0.1" d="M125.698 28.4447C125.698 28.4841 125.698 28.525 125.698 28.5658C126.201 28.7491 127.424 28.2342 127.991 28.2342C129.114 28.2342 129.461 28.4568 130.274 27.8011C130.256 27.6406 130.245 27.4786 130.241 27.3165C130.241 26.9698 130.465 26.3731 130.111 26.1778C129.756 25.9824 129.188 25.9961 128.805 26.0006C127.914 26.0095 127.045 26.279 126.305 26.7759C126.137 26.8792 125.99 27.0133 125.872 27.1712C125.634 27.5346 125.672 28.0116 125.698 28.4447Z" fill="black"/>
<path d="M122.586 23.761C122.586 24.382 122.708 24.997 122.946 25.5708C123.184 26.1446 123.532 26.6659 123.971 27.105C124.41 27.544 124.932 27.8922 125.506 28.1296C126.079 28.3671 126.694 28.4891 127.315 28.4887C128.569 28.4879 129.771 27.9895 130.658 27.1031C131.544 26.2167 132.042 25.0146 132.043 23.761C132.021 22.5216 131.513 21.3405 130.629 20.4718C129.744 19.6032 128.554 19.1165 127.315 19.1165C126.075 19.1165 124.885 19.6032 124.001 20.4718C123.116 21.3405 122.608 22.5216 122.586 23.761Z" fill="#FBBEBE"/>
<path d="M130.541 29.3489C130.69 29.2243 130.872 29.1463 131.065 29.1248C131.343 29.1248 131.572 29.3534 131.687 29.6063C131.802 29.8592 131.838 30.1409 131.937 30.4013C132.072 30.7533 132.317 31.052 132.636 31.2524C132.859 31.3917 133.124 31.4886 133.277 31.7066C133.518 32.0474 133.371 32.5229 133.168 32.8878C132.411 34.2507 131.048 35.1381 129.729 35.974L128.245 36.9159C127.65 37.3096 127.034 37.671 126.401 37.9986C125.371 38.5059 124.258 38.8315 123.234 39.3494C122.763 39.5871 122.301 39.8703 121.78 39.9551C121.671 39.6048 121.602 39.243 121.574 38.8769C121.322 36.6191 121.072 34.3128 121.574 32.0973C121.668 31.6749 121.8 31.2433 122.097 30.9298C122.291 30.7449 122.514 30.5916 122.756 30.4755C123.356 30.1528 123.974 29.8631 124.606 29.6078C124.902 29.4641 125.228 29.392 125.557 29.3973C125.53 29.6445 125.456 29.8843 125.341 30.1045L122.956 35.4137C122.804 35.7468 122.653 36.0951 122.665 36.4616C122.683 36.9825 123.034 37.4898 122.89 37.991C124.275 35.9702 125.864 34.0977 127.633 32.4032C127.711 32.3385 127.776 32.2587 127.823 32.1685C127.866 32.0268 127.875 31.8769 127.85 31.7309C127.833 31.4522 127.891 31.0797 128.124 30.8935C128.286 30.7632 128.525 30.7254 128.704 30.6118C129.331 30.2166 129.93 29.7698 130.541 29.3489Z" fill="#8F53F0"/>
<path opacity="0.1" d="M117.901 57.701C119.078 58.3279 120.404 58.6338 121.732 58.761C123.06 58.8882 124.396 58.8352 125.728 58.7837C126.74 58.7474 127.75 58.7065 128.757 58.6701C130.132 58.6156 131.483 58.5051 132.797 58.0902C132.684 57.8161 132.553 57.5465 132.419 57.283C128.636 56.3918 124.743 56.0587 120.864 56.2942C120.247 56.3069 119.635 56.4089 119.047 56.597C118.644 56.7384 118.281 56.9741 117.987 57.2845C117.966 57.4254 117.933 57.5647 117.901 57.701Z" fill="black"/>
<path d="M118.114 42.9231C118.638 44.6934 118.279 46.6302 117.952 48.4458C117.757 48.5442 117.696 48.8062 117.739 49.0212C117.804 49.2303 117.888 49.4331 117.99 49.627C118.041 49.7246 118.069 49.8325 118.071 49.9425C118.074 50.0524 118.051 50.1616 118.005 50.2615C117.958 50.3448 117.884 50.4129 117.836 50.4886C117.772 50.6201 117.74 50.7649 117.742 50.9111C117.698 51.5971 117.657 52.2952 117.842 52.9554C117.949 53.3401 118.133 53.7398 118.011 54.1184C117.94 54.3471 117.763 54.5409 117.737 54.7802C117.712 55.0194 117.861 55.2678 117.949 55.5085C118.157 56.0749 118.045 56.7563 117.901 57.3424C119.077 57.9693 120.404 58.2752 121.732 58.4024C123.06 58.5296 124.396 58.4766 125.728 58.4266L128.757 58.3115C130.142 58.257 131.505 58.145 132.827 57.7225C132.955 56.8139 133.062 55.8069 132.552 55.0452C132.452 54.9236 132.372 54.7871 132.314 54.6408C132.223 54.3289 132.42 54.0124 132.484 53.6929C132.612 53.0402 132.181 52.4269 131.799 51.8757C131.743 51.802 131.699 51.7197 131.669 51.6319C131.599 51.3805 131.751 51.1034 131.754 50.8505C131.755 50.777 131.738 50.7042 131.705 50.6385C131.649 50.5325 131.545 50.4598 131.487 50.3538C131.428 50.2165 131.41 50.065 131.436 49.9177C131.505 48.9718 131.619 48.0304 131.778 47.0935C131.793 47.0087 131.808 46.9224 131.828 46.8376C131.857 46.708 131.903 46.5831 131.967 46.4666C132.055 46.3152 132.184 46.1925 132.27 46.0396C132.313 45.9542 132.335 45.8601 132.335 45.7647C132.335 45.6693 132.313 45.5753 132.27 45.4899C132.184 45.3309 132.421 45.1946 132.49 45.0356C132.522 44.9085 132.529 44.7763 132.511 44.6464C132.537 44.4266 132.621 44.2176 132.755 44.0407C132.92 43.7787 133.086 43.5198 133.256 43.2608C134.01 42.0928 134.794 40.9454 135.608 39.8188C136.004 39.2767 136.405 38.7396 136.808 38.2076C137.134 37.779 137.469 37.3429 137.632 36.8296C137.661 36.7403 137.684 36.6493 137.7 36.557C137.791 36.0642 137.719 35.5554 137.497 35.1063C137.304 34.7186 137.008 34.3961 136.749 34.0463C136.462 33.6586 136.215 33.2346 135.885 32.8833C135.555 32.532 135.109 32.2503 134.626 32.2503C134.346 32.2503 134.021 32.329 133.825 32.1291C133.754 32.0565 133.716 31.9595 133.644 31.8914C133.438 31.6961 133.101 31.8293 132.855 31.9686L128.119 34.6444L127.352 35.0805C127.212 35.1638 127.07 35.2456 126.931 35.3304C126.269 35.7146 125.635 36.1447 125.033 36.6176C124.155 37.3202 123.184 37.9683 122.42 38.7921C122.348 38.8678 122.277 38.9435 122.209 39.0268C122.071 38.0637 121.933 37.0991 121.796 36.133C121.745 35.8554 121.727 35.5728 121.741 35.291C121.778 35.0137 121.846 34.7414 121.944 34.4794C121.974 34.387 122.008 34.2916 122.038 34.1977L122.548 32.6667C122.798 31.9171 123.065 31.1373 123.629 30.5846C123.766 30.4677 123.892 30.3384 124.005 30.1984V30.1908C124.058 30.1207 124.094 30.0391 124.11 29.9526C124.126 29.8662 124.122 29.7771 124.097 29.6926L120.109 30.9374C119.921 30.9964 119.732 31.0555 119.551 31.1327C119.334 31.2276 119.13 31.3514 118.946 31.5007C118.645 31.7395 118.412 32.0521 118.268 32.408C118.125 32.7639 118.076 33.151 118.126 33.5314C118.166 33.7797 118.254 34.019 118.305 34.2643C118.396 34.7095 118.54 35.2244 118.346 35.6363C118.152 36.0482 117.978 36.4162 117.796 36.8053C117.646 37.1021 117.521 37.4111 117.424 37.7291C117.316 38.1635 117.273 38.6115 117.295 39.0586C117.318 40.0569 117.491 41.0461 117.807 41.9933C117.902 42.3053 118.02 42.6112 118.114 42.9231Z" fill="#454B69"/>
<path d="M126.255 45.1658L116.797 44.2754L115.145 44.0891L116.664 44.6267L126.255 45.1658Z" fill="#3F3D56"/>
<path d="M126.467 45.6232V44.9114L116.441 44.4163L115.954 44.8357L126.467 45.6232Z" fill="#3F3D56"/>
<path d="M126.435 44.2663C126.225 44.2103 125.999 44.2209 125.786 44.1709C125.51 44.1043 125.262 43.9347 124.98 43.8998C124.806 43.8875 124.631 43.9002 124.461 43.9377L123.163 44.1648C123.063 44.1815 122.945 44.2133 122.91 44.3087C122.901 44.3521 122.903 44.3972 122.918 44.4393C122.932 44.4814 122.957 44.5189 122.99 44.548C123.222 44.7948 123.596 44.8296 123.932 44.8508L124.841 44.9053C125.017 44.901 125.191 44.9405 125.348 45.0204C125.427 45.0627 125.487 45.132 125.519 45.2155C125.55 45.299 125.55 45.3911 125.519 45.4747C125.47 45.5561 125.398 45.6209 125.312 45.661C124.951 45.8595 124.536 45.938 124.128 45.8851C123.798 45.8223 123.476 45.7301 123.163 45.6095C122.366 45.3547 121.526 45.2661 120.693 45.349C120.478 45.3702 120.225 45.4323 120.148 45.6352C120.128 45.7065 120.125 45.7818 120.14 45.8544C120.155 45.927 120.188 45.9947 120.236 46.0517C120.558 46.506 121.202 46.5181 121.75 46.6392C122.264 46.7569 122.739 47.0034 123.131 47.3555C123.012 47.6023 123.112 47.8946 123.231 48.1414C123.368 48.4238 123.531 48.693 123.717 48.9455C123.817 49.1023 123.958 49.2289 124.125 49.312C124.235 49.3507 124.35 49.3706 124.467 49.371C125.59 49.4404 126.718 49.3789 127.827 49.1878C127.946 49.1796 128.06 49.1322 128.15 49.053C128.207 48.9757 128.243 48.8849 128.254 48.7895C128.369 48.2242 128.47 47.6558 128.557 47.0844C128.611 46.724 128.634 46.3455 128.457 46.0138C128.319 45.7534 128.101 45.6686 127.879 45.4929C127.382 45.1022 127.073 44.4359 126.435 44.2663Z" fill="#FBBEBE"/>
<path d="M114.22 32.5062L116.568 44.1542C116.586 44.2417 116.582 44.3321 116.559 44.4181C116.535 44.5041 116.491 44.5834 116.431 44.6495C116.372 44.7156 116.297 44.7667 116.214 44.7988C116.13 44.8309 116.041 44.843 115.952 44.8342L107.099 43.9604C106.978 43.9488 106.863 43.8983 106.773 43.8165C106.682 43.7346 106.62 43.6258 106.597 43.5061L104.427 32.7303C104.41 32.6476 104.412 32.5622 104.432 32.4803C104.453 32.3984 104.491 32.3221 104.545 32.2567C104.598 32.1914 104.665 32.1388 104.741 32.1026C104.818 32.0664 104.901 32.0475 104.985 32.0474H113.661C113.793 32.0479 113.92 32.0938 114.022 32.1774C114.124 32.261 114.193 32.3771 114.22 32.5062Z" fill="#3F3D56"/>
<path d="M109.815 46.365C109.257 46.0076 109.091 45.2913 108.832 44.6826C108.626 44.2343 108.389 43.8011 108.122 43.3863C107.896 43.0138 107.667 42.561 107.849 42.1643C107.991 41.9112 108.224 41.7217 108.5 41.6343C108.751 41.516 109.033 41.4815 109.304 41.5358C109.607 41.6191 109.833 41.8705 110.039 42.1098L110.769 42.9563C111.102 43.3439 111.444 43.7376 111.883 43.9996C112.149 44.1485 112.431 44.2678 112.724 44.3555C113.247 44.5291 113.777 44.6805 114.314 44.8098C114.622 44.8689 114.922 44.9619 115.21 45.0869C115.268 45.1081 115.321 45.1407 115.367 45.1828C115.412 45.225 115.448 45.2758 115.473 45.3322C115.486 45.4019 115.484 45.4733 115.468 45.5422C115.452 45.6112 115.423 45.6762 115.381 45.7335C115.196 46.0788 114.986 46.7799 114.598 46.9025C114.234 46.9934 113.863 47.0517 113.488 47.0767C113.119 47.1161 112.828 46.9646 112.495 46.8253C112.076 46.6654 111.629 46.5938 111.182 46.6148C110.788 46.6133 110.119 46.6693 109.815 46.365Z" fill="#FBBEBE"/>
<path d="M114.662 44.7856C114.662 44.7856 114.335 47.0268 112.239 46.786C112.239 46.786 113.349 47.2297 113.232 47.4766C113.116 47.7234 115.807 46.995 115.807 46.995L115.946 45.826C115.946 45.826 116.035 45.1824 115.946 45.1642C115.857 45.146 114.662 44.7856 114.662 44.7856Z" fill="#454B69"/>
<path opacity="0.1" d="M114.662 44.7856C114.662 44.7856 114.335 47.0268 112.239 46.786C112.239 46.786 113.349 47.2297 113.232 47.4766C113.116 47.7234 115.807 46.995 115.807 46.995L115.946 45.826C115.946 45.826 116.035 45.1824 115.946 45.1642C115.857 45.146 114.662 44.7856 114.662 44.7856Z" fill="black"/>
<path opacity="0.1" d="M124.309 35.4316C124.104 35.5358 123.935 35.7001 123.825 35.9026C123.65 36.1813 123.517 36.4845 123.431 36.8021C123.328 37.1882 123.28 37.6198 122.995 37.8984" fill="black"/>
<path opacity="0.1" d="M133.088 41.6298C132.935 42.1745 132.998 42.7573 133.265 43.2562C134.019 42.0882 134.803 40.9408 135.617 39.8142C136.007 39.2751 136.404 38.7395 136.808 38.2075C137.134 37.7789 137.469 37.3428 137.632 36.8295C137.661 36.7402 137.684 36.6492 137.7 36.5569C137.498 36.261 137.198 36.0464 136.852 35.9512C136.303 37.5442 134.909 38.686 133.914 40.0474C133.539 40.5165 133.259 41.0539 133.088 41.6298Z" fill="black"/>
<path opacity="0.1" d="M126.077 49.7797L129.37 49.8918C129.652 49.9009 129.999 49.9569 130.086 50.2234C130.114 50.3082 130.108 50.4006 130.135 50.4839C130.227 50.7867 130.629 50.82 130.942 50.8185C131.215 50.8185 131.487 50.8291 131.758 50.8503C131.759 50.7768 131.743 50.704 131.71 50.6383C131.654 50.5323 131.549 50.4596 131.492 50.3536C131.433 50.2163 131.415 50.0648 131.44 49.9175C131.51 48.9716 131.624 48.0302 131.782 47.0933C131.798 47.0085 131.813 46.9222 131.832 46.8374C131.555 46.6966 131.275 46.5633 130.974 46.5951C130.703 46.6239 130.454 46.7844 130.183 46.7693C129.712 46.7466 129.388 46.2211 128.919 46.1908C128.817 46.1988 128.714 46.1864 128.616 46.1545C128.465 46.0787 128.443 45.8819 128.368 45.735C128.254 45.5185 127.936 45.4655 127.698 45.5215C127.704 46.0194 127.673 46.517 127.603 47.01C127.579 47.2266 127.529 47.4393 127.452 47.643C127.362 47.8492 127.25 48.0448 127.117 48.226C126.769 48.7485 126.429 49.2588 126.077 49.7797Z" fill="black"/>
<path d="M137.025 35.7664C137.611 35.9178 138.026 36.4629 138.197 37.0429C138.369 37.6229 138.338 38.2392 138.323 38.8419C138.264 41.0828 138.417 43.3242 138.777 45.5367C138.95 46.5967 139.171 47.6567 139.106 48.7334C139.07 49.3149 138.938 49.9145 138.564 50.3613C137.976 51.0669 136.953 51.2108 136.035 51.176C134.387 51.1108 132.77 50.6293 131.121 50.6384C130.808 50.6384 130.408 50.6035 130.314 50.3052C130.287 50.2204 130.293 50.1296 130.265 50.0448C130.179 49.7782 129.832 49.7222 129.551 49.7116L126.256 49.6011C126.608 49.0802 126.948 48.5683 127.3 48.0474C127.433 47.8656 127.546 47.6702 127.637 47.4644C127.713 47.2599 127.764 47.0468 127.788 46.8299C127.858 46.3374 127.889 45.8402 127.882 45.3428C128.12 45.2868 128.438 45.3428 128.551 45.5564C128.628 45.7078 128.653 45.9001 128.801 45.9758C128.899 46.0082 129.002 46.02 129.104 46.0106C129.573 46.0409 129.899 46.5679 130.368 46.5906C130.639 46.6058 130.889 46.4392 131.159 46.4165C131.586 46.3726 131.968 46.6542 132.36 46.8269C132.68 46.9669 133.027 47.0392 133.377 47.0392C133.727 47.0392 134.073 46.9669 134.393 46.8269C134.49 46.7845 134.596 46.6648 134.518 46.5937C134.465 46.5467 134.377 46.5831 134.313 46.5513C134.192 46.4922 134.28 46.3135 134.348 46.1969C134.539 45.8607 134.404 45.4398 134.219 45.0945C134.035 44.7492 133.798 44.4146 133.794 44.0345C133.804 43.911 133.804 43.7869 133.794 43.6635C133.735 43.4868 133.641 43.3236 133.518 43.1834C133.18 42.6898 133.132 42.0371 133.279 41.4556C133.443 40.8781 133.716 40.3374 134.083 39.8626C135.082 38.5027 136.476 37.3609 137.025 35.7664Z" fill="#454B69"/>
<path opacity="0.1" d="M128.113 34.6488L127.346 35.0849C127.581 35.1937 127.822 35.2897 128.068 35.3726C129.797 35.9541 129.181 36.7597 131.006 36.7355C132.249 36.7219 133.668 36.6265 134.537 37.5138C134.949 37.9318 135.155 38.5042 135.35 39.0569C135.439 39.3068 135.529 39.5597 135.617 39.8141C136.007 39.275 136.405 38.7394 136.808 38.2074C137.134 37.7788 137.469 37.3427 137.632 36.8294C137.81 36.2589 137.762 35.642 137.497 35.1061C137.304 34.7184 137.008 34.3959 136.749 34.0461C136.462 33.6584 136.215 33.2344 135.885 32.8831C135.555 32.5318 135.109 32.2501 134.626 32.2501C134.346 32.2501 134.021 32.3289 133.825 32.129C133.754 32.0563 133.716 31.9594 133.644 31.8912C133.438 31.6959 133.101 31.8291 132.855 31.9685L128.113 34.6488Z" fill="black"/>
<path d="M123.536 20.2735C123.561 20.0479 123.616 19.8268 123.701 19.6163C123.78 19.4545 123.882 19.305 124.004 19.1726C124.403 18.722 124.892 18.3607 125.44 18.112C125.988 17.8633 126.582 17.733 127.184 17.7294C127.287 17.7239 127.39 17.7404 127.487 17.7779C127.511 17.7891 127.533 17.8028 127.555 17.8188C128.421 17.2358 129.428 16.6603 130.367 16.4332C131.019 16.2808 131.699 16.2902 132.347 16.4604C133.135 16.6967 133.408 17.3251 133.745 18.0111C134.285 19.1139 135.105 20.0558 136.123 20.7429C136.778 21.1836 137.554 21.5652 137.869 22.289C138.162 22.9644 137.963 23.7382 137.894 24.4726C137.812 25.4639 137.977 26.4602 138.373 27.3725C138.769 28.2848 139.385 29.0849 140.166 29.7015C141.061 30.3936 142.256 30.9751 142.446 32.0896C142.583 32.8846 142.136 33.6448 141.798 34.3762C141.087 35.9238 140.843 37.8107 141.679 39.2932C141.916 39.7157 142.237 40.1003 142.365 40.5667C142.587 41.395 142.113 42.2976 141.403 42.7791C140.693 43.2606 139.801 43.3848 138.944 43.3848C138.32 43.3848 137.645 43.2909 137.202 42.8533C136.899 42.5595 136.757 42.1507 136.618 41.7585C136.255 40.7368 135.894 39.7152 135.534 38.6935C135.337 38.1423 135.131 37.5699 134.72 37.1519C133.851 36.2645 132.431 36.3584 131.189 36.3736C129.363 36.3963 129.978 35.5907 128.251 35.0107C127.235 34.6685 126.131 34.0855 125.895 33.0421C125.663 32.0215 126.361 31.0493 126.976 30.2028C127.437 29.5718 127.872 28.9232 128.283 28.2569C128.681 27.6088 129.064 26.9273 129.175 26.1747C129.358 24.9239 126.325 24.2258 125.871 23.0462C125.741 22.7131 125.631 22.3722 125.544 22.0255C125.326 22.0104 125.123 21.9892 124.982 21.9831C124.402 21.9574 123.748 21.7302 123.549 21.1836C123.442 20.8943 123.483 20.5763 123.536 20.2735Z" fill="#3F3D56"/>
<g opacity="0.1">
<path d="M128.642 17.3631C128.546 17.3256 128.442 17.3091 128.339 17.3146H128.297C128.941 16.9093 129.641 16.5997 130.374 16.3954C130.43 16.3818 130.491 16.3712 130.55 16.3606C129.907 16.6565 129.291 17.0082 128.71 17.4115C128.689 17.3935 128.666 17.3773 128.642 17.3631Z" fill="black"/>
<path d="M123.536 20.2372C123.561 20.0122 123.616 19.7916 123.701 19.5815C123.78 19.4193 123.882 19.2693 124.004 19.1363C124.646 18.4117 125.515 17.926 126.469 17.7583C125.969 18.0009 125.523 18.3407 125.156 18.7577C125.034 18.8907 124.932 19.0407 124.853 19.2029C124.769 19.413 124.713 19.6336 124.688 19.8586C124.616 20.1576 124.619 20.47 124.699 20.7672C124.897 21.3124 125.551 21.541 126.131 21.5653C126.272 21.5653 126.475 21.5925 126.693 21.6092C126.781 21.9553 126.89 22.2956 127.02 22.6283C127.474 23.8079 130.503 24.506 130.324 25.7569C130.214 26.514 129.831 27.1924 129.432 27.839C129.034 28.4856 128.586 29.1534 128.126 29.7849C127.511 30.6314 126.813 31.6021 127.044 32.6257C127.276 33.6494 128.384 34.2536 129.401 34.5943C131.13 35.1773 130.512 35.983 132.338 35.9572C133.58 35.9421 135 35.8482 135.87 36.7356C136.28 37.155 136.486 37.7259 136.683 38.2786C137.043 39.2993 137.405 40.3204 137.767 41.3421C137.906 41.7358 138.055 42.1432 138.352 42.4369C138.794 42.8746 139.469 42.9654 140.093 42.9684C140.448 42.972 140.803 42.9451 141.153 42.8882C140.49 43.2471 139.702 43.3425 138.942 43.3425C138.318 43.3425 137.643 43.2486 137.201 42.811C136.898 42.5172 136.756 42.1098 136.616 41.7161C136.254 40.6945 135.892 39.6733 135.532 38.6527C135.335 38.1 135.129 37.5291 134.719 37.1096C133.85 36.2222 132.429 36.3161 131.187 36.3312C129.361 36.354 129.976 35.5484 128.25 34.9684C127.234 34.6261 126.13 34.0431 125.893 32.9998C125.662 31.9791 126.36 31.0054 126.975 30.1589C127.435 29.528 127.871 28.8794 128.281 28.2131C128.68 27.5665 129.063 26.8835 129.173 26.1309C129.357 24.8801 126.324 24.182 125.869 23.0023C125.739 22.6697 125.63 22.3293 125.542 21.9832C125.324 21.9666 125.121 21.9454 124.98 21.9393C124.4 21.9151 123.746 21.6864 123.548 21.1413C123.469 20.8456 123.464 20.5349 123.536 20.2372Z" fill="black"/>
</g>
</g>
<defs>
<linearGradient id="paint0_linear_4045_153071" x1="64.4883" y1="110.775" x2="64.4883" y2="8.46952" gradientUnits="userSpaceOnUse">
<stop stop-color="#808080" stop-opacity="0.25"/>
<stop offset="0.54" stop-color="#808080" stop-opacity="0.12"/>
<stop offset="1" stop-color="#808080" stop-opacity="0.1"/>
</linearGradient>
<linearGradient id="paint1_linear_4045_153071" x1="123.227" y1="110.546" x2="123.227" y2="15.8305" gradientUnits="userSpaceOnUse">
<stop stop-color="#808080" stop-opacity="0.25"/>
<stop offset="0.54" stop-color="#808080" stop-opacity="0.12"/>
<stop offset="1" stop-color="#808080" stop-opacity="0.1"/>
</linearGradient>
<clipPath id="clip0_4045_153071">
<rect width="163" height="111.07" fill="white"/>
</clipPath>
</defs>
</svg>
