<svg width="20" height="20" viewBox="0 0 20 20" fill="none" xmlns="http://www.w3.org/2000/svg">
<g clip-path="url(#clip0_4698_165952)">
<path d="M8.33366 12.5L5.77095 15.0948C5.41348 15.4567 5.23475 15.6377 5.08112 15.6504C4.94784 15.6615 4.81734 15.6079 4.73029 15.5064C4.62996 15.3893 4.62996 15.135 4.62996 14.6263V13.3263C4.62996 12.87 4.25622 12.5398 3.80466 12.4736V12.4736C2.71178 12.3135 1.85347 11.4552 1.69339 10.3623C1.66699 10.1821 1.66699 9.9671 1.66699 9.53704V5.66667C1.66699 4.26654 1.66699 3.56647 1.93948 3.0317C2.17916 2.56129 2.56161 2.17884 3.03202 1.93916C3.5668 1.66667 4.26686 1.66667 5.66699 1.66667H11.8337C13.2338 1.66667 13.9339 1.66667 14.4686 1.93916C14.939 2.17884 15.3215 2.56129 15.5612 3.0317C15.8337 3.56647 15.8337 4.26654 15.8337 5.66667V9.16667M15.8337 18.3333L14.02 17.0724C13.765 16.8952 13.6376 16.8065 13.4988 16.7437C13.3757 16.6879 13.2462 16.6473 13.1133 16.6228C12.9635 16.5952 12.8083 16.5952 12.4978 16.5952H11.0003C10.0669 16.5952 9.60019 16.5952 9.24368 16.4136C8.93007 16.2538 8.6751 15.9988 8.51532 15.6852C8.33366 15.3287 8.33366 14.862 8.33366 13.9286V11.8333C8.33366 10.8999 8.33366 10.4332 8.51532 10.0767C8.6751 9.76308 8.93007 9.50812 9.24368 9.34833C9.60019 9.16667 10.0669 9.16667 11.0003 9.16667H15.667C16.6004 9.16667 17.0671 9.16667 17.4236 9.34833C17.7372 9.50812 17.9922 9.76308 18.152 10.0767C18.3337 10.4332 18.3337 10.8999 18.3337 11.8333V14.0952C18.3337 14.8718 18.3337 15.2601 18.2068 15.5664C18.0376 15.9748 17.7132 16.2992 17.3048 16.4684C16.9985 16.5952 16.6102 16.5952 15.8337 16.5952V18.3333Z" stroke="#64748B" stroke-width="1.5" stroke-linecap="round" stroke-linejoin="round"/>
</g>
<defs>
<clipPath id="clip0_4698_165952">
<rect width="20" height="20" fill="white"/>
</clipPath>
</defs>
</svg>
