<svg width="32" height="32" viewBox="0 0 32 32" fill="none" xmlns="http://www.w3.org/2000/svg">
<path d="M0 16C0 7.16344 7.16344 0 16 0C24.8366 0 32 7.16344 32 16C32 24.8366 24.8366 32 16 32C7.16344 32 0 24.8366 0 16Z" fill="#E1D7FD"/>
<g clip-path="url(#clip0_132_437595)">
<path d="M13 17.5C13 17.5 14.125 19 16 19C17.875 19 19 17.5 19 17.5M18.25 13.75H18.2575M13 13.75H14.5M23.5 16C23.5 20.1421 20.1421 23.5 16 23.5C11.8579 23.5 8.5 20.1421 8.5 16C8.5 11.8579 11.8579 8.5 16 8.5C20.1421 8.5 23.5 11.8579 23.5 16ZM18.625 13.75C18.625 13.9571 18.4571 14.125 18.25 14.125C18.0429 14.125 17.875 13.9571 17.875 13.75C17.875 13.5429 18.0429 13.375 18.25 13.375C18.4571 13.375 18.625 13.5429 18.625 13.75Z" stroke="#8F53F0" stroke-width="1.5" stroke-linecap="round" stroke-linejoin="round"/>
</g>
<defs>
<clipPath id="clip0_132_437595">
<rect width="18" height="18" fill="white" transform="translate(7 7)"/>
</clipPath>
</defs>
</svg>
