<svg width="32" height="33" viewBox="0 0 32 33" fill="none" xmlns="http://www.w3.org/2000/svg">
<g clip-path="url(#clip0_4585_42116)">
<path d="M16 26.0701C21.5228 26.0701 26 21.5929 26 16.0701C26 10.5472 21.5228 6.07007 16 6.07007C10.4772 6.07007 6 10.5472 6 16.0701C6 21.5929 10.4772 26.0701 16 26.0701Z" stroke="#989898" stroke-width="1.5" stroke-linecap="round" stroke-linejoin="round"/>
<path d="M16 22.0701C19.3137 22.0701 22 19.3838 22 16.0701C22 12.7564 19.3137 10.0701 16 10.0701C12.6863 10.0701 10 12.7564 10 16.0701C10 19.3838 12.6863 22.0701 16 22.0701Z" stroke="#989898" stroke-width="1.5" stroke-linecap="round" stroke-linejoin="round"/>
<path d="M16 18.0701C17.1046 18.0701 18 17.1746 18 16.0701C18 14.9655 17.1046 14.0701 16 14.0701C14.8954 14.0701 14 14.9655 14 16.0701C14 17.1746 14.8954 18.0701 16 18.0701Z" stroke="#989898" stroke-width="1.5" stroke-linecap="round" stroke-linejoin="round"/>
</g>
<defs>
<clipPath id="clip0_4585_42116">
<path d="M0 2.07007C0 0.965499 0.895431 0.0700684 2 0.0700684H30C31.1046 0.0700684 32 0.965499 32 2.07007V30.0701C32 31.1746 31.1046 32.0701 30 32.0701H2C0.895431 32.0701 0 31.1746 0 30.0701V2.07007Z" fill="white"/>
</clipPath>
</defs>
</svg>
