<svg width="32" height="33" viewBox="0 0 32 33" fill="none" xmlns="http://www.w3.org/2000/svg">
<g clip-path="url(#clip0_4583_42105)">
<path d="M11.5 8.57007C11.5 7.18936 12.6193 6.07007 14 6.07007C15.3807 6.07007 16.5 7.18936 16.5 8.57007V10.0701H17.5C18.8978 10.0701 19.5967 10.0701 20.1481 10.2984C20.8831 10.6029 21.4672 11.1869 21.7716 11.922C22 12.4733 22 13.1722 22 14.5701H23.5C24.8807 14.5701 26 15.6894 26 17.0701C26 18.4508 24.8807 19.5701 23.5 19.5701H22V21.2701C22 22.9502 22 23.7903 21.673 24.432C21.3854 24.9965 20.9265 25.4555 20.362 25.7431C19.7202 26.0701 18.8802 26.0701 17.2 26.0701H16.5V24.3201C16.5 23.0774 15.4926 22.0701 14.25 22.0701C13.0074 22.0701 12 23.0774 12 24.3201V26.0701H10.8C9.11984 26.0701 8.27976 26.0701 7.63803 25.7431C7.07354 25.4555 6.6146 24.9965 6.32698 24.432C6 23.7903 6 22.9502 6 21.2701V19.5701H7.5C8.88071 19.5701 10 18.4508 10 17.0701C10 15.6894 8.88071 14.5701 7.5 14.5701H6C6 13.1722 6 12.4733 6.22836 11.922C6.53284 11.1869 7.11687 10.6029 7.85195 10.2984C8.40326 10.0701 9.10218 10.0701 10.5 10.0701H11.5V8.57007Z" stroke="#989898" stroke-width="1.5" stroke-linecap="round" stroke-linejoin="round"/>
</g>
<defs>
<clipPath id="clip0_4583_42105">
<path d="M0 2.07007C0 0.965499 0.895431 0.0700684 2 0.0700684H30C31.1046 0.0700684 32 0.965499 32 2.07007V30.0701C32 31.1746 31.1046 32.0701 30 32.0701H2C0.895431 32.0701 0 31.1746 0 30.0701V2.07007Z" fill="white"/>
</clipPath>
</defs>
</svg>
