<svg width="40" height="40" viewBox="0 0 40 40" fill="none" xmlns="http://www.w3.org/2000/svg">
<g clip-path="url(#clip0_219_221342)">
<path d="M20.6664 19.3333L14.3331 25.6666M21.3454 14.3589C22.1574 14.8977 22.9379 15.5329 23.6672 16.2623C24.4028 16.9979 25.0427 17.7855 25.5845 18.6051M18.1697 17.264L16.2532 16.6252C16.0324 16.5516 15.7893 16.5984 15.6117 16.7487L13.7069 18.3604C13.317 18.6904 13.4278 19.3183 13.9071 19.4949L15.7119 20.1598M19.7871 24.235L20.452 26.0398C20.6286 26.5191 21.2566 26.6299 21.5865 26.2399L23.1983 24.3351C23.3486 24.1575 23.3954 23.9144 23.3218 23.6937L22.6829 21.7771M24.8988 13.5138L21.6278 14.0589C21.2746 14.1178 20.9507 14.2914 20.706 14.5529L16.2973 19.2656C15.1546 20.4872 15.1864 22.3949 16.3692 23.5778C17.552 24.7606 19.4597 24.7924 20.6813 23.6496L25.3941 19.2409C25.6556 18.9963 25.8292 18.6723 25.888 18.3191L26.4332 15.0481C26.5836 14.1457 25.8012 13.3634 24.8988 13.5138Z" stroke="#334155" stroke-width="1.46667" stroke-linecap="round" stroke-linejoin="round"/>
</g>
<defs>
<clipPath id="clip0_219_221342">
<rect width="16" height="16" fill="white" transform="translate(12 12)"/>
</clipPath>
</defs>
</svg>
