<svg width="32" height="33" viewBox="0 0 32 33" fill="none" xmlns="http://www.w3.org/2000/svg">
<g clip-path="url(#clip0_4592_42182)">
<path d="M15.9998 13.0701V17.0701M15.9998 21.0701H16.0098M14.6151 7.96178L6.39019 22.1684C5.93398 22.9564 5.70588 23.3504 5.73959 23.6737C5.769 23.9558 5.91677 24.2121 6.14613 24.3789C6.40908 24.5701 6.86435 24.5701 7.77487 24.5701H24.2246C25.1352 24.5701 25.5904 24.5701 25.8534 24.3789C26.0827 24.2121 26.2305 23.9558 26.2599 23.6737C26.2936 23.3504 26.0655 22.9564 25.6093 22.1684L17.3844 7.96177C16.9299 7.17661 16.7026 6.78403 16.4061 6.65218C16.1474 6.53716 15.8521 6.53716 15.5935 6.65218C15.2969 6.78403 15.0696 7.17661 14.6151 7.96178Z" stroke="#989898" stroke-width="1.5" stroke-linecap="round" stroke-linejoin="round"/>
</g>
<defs>
<clipPath id="clip0_4592_42182">
<path d="M0 2.07007C0 0.965499 0.895431 0.0700684 2 0.0700684H30C31.1046 0.0700684 32 0.965499 32 2.07007V30.0701C32 31.1746 31.1046 32.0701 30 32.0701H2C0.895431 32.0701 0 31.1746 0 30.0701V2.07007Z" fill="white"/>
</clipPath>
</defs>
</svg>
