<svg width="96" height="112" viewBox="0 0 96 112" fill="none" xmlns="http://www.w3.org/2000/svg">
<g clip-path="url(#clip0_4462_32746)">
<path d="M95.6372 98.5938H69.9678V98.2614C76.6876 98.2614 83.1321 95.592 87.8837 90.8404C92.6353 86.0888 95.3048 79.6442 95.3048 72.9244V55.01H95.6372V98.5938Z" fill="#F2F2F2"/>
<path d="M25.597 33.8447C24.9146 34.1047 24.2178 34.325 23.51 34.5047C22.5751 34.7326 22.0473 34.8382 21.1449 34.488C21.1132 34.4757 21.083 34.4635 21.0544 34.4515C19.344 33.7243 17.8819 32.5156 16.8461 30.9724C15.8103 29.4292 15.2454 27.6182 15.2202 25.7598C15.2157 25.6961 15.2157 25.629 15.2157 25.5636C15.2149 25.2487 15.2299 24.9339 15.2608 24.6204C15.3004 24.1935 15.3687 23.7697 15.4653 23.3519L15.4563 23.3503C14.7257 22.6032 14.4446 21.5799 14.5378 20.5516C14.6016 19.8545 14.8229 19.181 15.1848 18.5819C15.5468 17.9827 16.04 17.4735 16.6273 17.0926C17.5478 16.5139 18.5856 16.1476 19.6654 16.0202C19.9553 15.9868 20.2469 15.9699 20.5388 15.9696H23.2807C23.8471 15.837 24.4224 15.7463 25.002 15.6982H25.0065C30.525 15.2405 34.8769 18.8989 34.471 23.3502C34.468 23.3552 34.4635 23.3601 34.4605 23.365C34.3433 23.5562 34.2395 23.7377 34.1478 23.911C34.0592 24.0728 33.984 24.2281 33.9194 24.3752C33.4158 25.513 35.809 43.1652 34.9506 43.4333C34.462 43.5853 32.4928 30.4498 32.846 32.9476C33.291 36.0813 28.1394 32.9049 25.597 33.8447Z" fill="#2F2E41"/>
<path d="M33.9098 65.755L41.5595 82.0519L12.1328 79.0715L18.2755 63.4268L33.9098 65.755Z" fill="#FFB6B6"/>
<path d="M49.2656 98.4296C44.1485 100.133 38.7559 100.855 33.3709 100.559L31.0292 96.761C31.0292 96.761 30.9312 98.1753 30.7849 100.337C28.2215 100.04 25.6915 99.504 23.2281 98.7354C18.5564 97.2745 14.1772 95.011 9.73822 92.9236C8.83911 87.5639 8.50174 79.2991 13.4726 74.4878L40.228 79.3905C40.228 79.3905 44.5208 82.6013 43.3724 83.7514C42.224 84.8998 42.0462 84.722 42.8007 85.4765C43.5552 86.231 45.1856 87.2398 45.2022 87.8996C45.2088 88.1572 47.0386 92.8289 49.2656 98.4296Z" fill="#2F2E41"/>
<path d="M29.2376 34.2634L22.7736 34.7144L18.5957 38.7516L17.1325 39.0128C15.8172 39.2473 14.6337 39.9563 13.8065 41.0053C12.9792 42.0543 12.5656 43.3705 12.6442 44.7041C12.9452 49.8034 13.6191 57.4225 15.0276 59.8945C17.2115 63.7274 19.0154 62.5248 17.2115 63.7274C15.4076 64.93 14.1965 63.985 15.0276 65.8856C15.8586 67.7862 13.9043 70.2241 13.9043 70.2241L13.1264 71.002L13.9515 71.3402L40.2427 74.7612C40.2427 74.7612 37.9694 64.54 39.3911 62.0291C40.8128 59.5183 44.2599 51.9285 41.1834 48.9587L38.1753 38.3731L33.0011 36.8471L29.2376 34.2634Z" fill="#8F53F0"/>
<path d="M68.3675 76.2144C67.9349 76.2007 67.5105 76.0932 67.1235 75.8993C66.7366 75.7054 66.3964 75.4298 66.1264 75.0915C65.8565 74.7531 65.6632 74.3602 65.5601 73.9399C65.4569 73.5196 65.4463 73.0818 65.5289 72.657L53.1963 64.3049L54.6678 60.3257L69.2429 70.3527C69.9477 70.545 70.5574 70.9892 70.9566 71.601C71.3558 72.2128 71.5167 72.9499 71.4088 73.6724C71.3009 74.3949 70.9317 75.0528 70.3712 75.5213C69.8106 75.9898 69.0977 76.2364 68.3675 76.2144Z" fill="#FFB6B6"/>
<path d="M33.5342 37.8732L31.7422 38.5828L41.3019 57.2535L61.092 70.7431L63.9447 65.9217L48.8802 52.9097L42.8491 41.3429C42.0004 39.7151 40.5785 38.4595 38.8582 37.8187C37.1379 37.1779 35.2411 37.1973 33.5342 37.8732Z" fill="#8F53F0"/>
<path d="M25.6695 32.6215C29.2543 32.6215 32.1603 29.7155 32.1603 26.1307C32.1603 22.5459 29.2543 19.6399 25.6695 19.6399C22.0847 19.6399 19.1787 22.5459 19.1787 26.1307C19.1787 29.7155 22.0847 32.6215 25.6695 32.6215Z" fill="#FFB6B6"/>
<path d="M31.3138 23.3859C31.2056 23.443 31.0988 23.4956 30.9906 23.5482C30.8779 23.6023 30.7651 23.6564 30.6509 23.7075C28.4787 24.6922 26.7093 24.8019 25.636 23.3859C25.6066 22.6409 25.4389 21.9078 25.1414 21.2242C25.194 21.9882 24.9926 22.7481 24.5687 23.3859H22.407C20.1806 24.8636 19.0382 26.221 20.5835 31.072C20.6842 31.3907 21.3742 42.7133 21.5712 43.5837C18.2008 42.2909 15.2935 28.5646 15.2199 24.9477C15.2154 24.8891 15.2154 24.8275 15.2154 24.7673C15.2145 24.4776 15.2295 24.188 15.2605 23.9C15.3001 23.5067 15.3685 23.1168 15.4649 22.7334L15.4559 22.7319C15.113 22.4041 14.8514 22.0007 14.6919 21.5539C14.5324 21.1071 14.4795 20.6292 14.5374 20.1583C15.1028 19.418 15.8024 18.7908 16.5999 18.3093C17.325 17.9582 18.0808 17.6744 18.8578 17.4615C18.8773 17.457 18.8938 17.4525 18.9134 17.448C19.1509 17.3833 19.3944 17.3247 19.638 17.2736C20.1398 17.1683 20.6472 17.0915 21.1578 17.0436C21.1953 17.0421 21.2314 17.0391 21.2645 17.0391C21.4687 17.0392 21.6691 17.0942 21.8448 17.1984C21.8463 17.1984 21.8463 17.1999 21.8493 17.1999C22.018 17.3008 22.158 17.4433 22.2557 17.6139C22.3533 17.7846 22.4054 17.9774 22.407 18.174H24.8152C24.9039 18.174 24.9926 18.177 25.0813 18.1815C28.4351 18.3153 31.1304 19.7495 31.3033 23.0461C31.3108 23.1604 31.3138 23.2716 31.3138 23.3859Z" fill="#2F2E41"/>
<path d="M17.076 23.6468C19.4377 23.6468 21.3522 21.7323 21.3522 19.3707C21.3522 17.009 19.4377 15.0945 17.076 15.0945C14.7143 15.0945 12.7998 17.009 12.7998 19.3707C12.7998 21.7323 14.7143 23.6468 17.076 23.6468Z" fill="#2F2E41"/>
<path d="M22.9466 17.3929C22.4608 19.704 20.0639 21.0863 17.7709 20.5209C16.6698 20.2493 15.7216 19.5515 15.135 18.5809C14.5484 17.6103 14.3714 16.4464 14.6429 15.3452C15.2084 13.0523 17.9912 13.7133 19.8186 12.2172C22.4036 10.1008 23.6017 14.2761 22.9466 17.3929Z" fill="#2F2E41"/>
<path d="M13.4455 81.7267C17.09 66.8645 24.3113 54.0901 36.2706 44.0816C36.7335 43.3201 37.4794 42.7734 38.3449 42.5613C39.2103 42.3492 40.1246 42.4891 40.887 42.9502L69.3174 60.1882C70.0788 60.651 70.6256 61.397 70.8377 62.2624C71.0498 63.1279 70.9099 64.0421 70.4488 64.8046C65.8841 80.0548 59.0472 93.288 47.6237 102.45C47.1609 103.211 46.4149 103.758 45.5495 103.97C44.684 104.182 43.7698 104.042 43.0074 103.581L14.5769 86.3431C13.8155 85.8802 13.2688 85.1342 13.0567 84.2688C12.8446 83.4034 12.9844 82.4891 13.4455 81.7267Z" fill="#F2F2F2"/>
<path opacity="0.2" d="M18.4987 86.7352C17.7373 86.2724 17.1906 85.5264 16.9785 84.661C16.7664 83.7955 16.9063 82.8813 17.3674 82.1189C21.0119 67.2566 28.2331 54.4823 40.1924 44.4737C40.4988 43.9753 40.9314 43.5667 41.4464 43.2892L40.887 42.9499C40.1245 42.4888 39.2103 42.349 38.3449 42.5611C37.4794 42.7732 36.7335 43.3199 36.2706 44.0813C24.3113 54.0898 17.09 66.8641 13.4455 81.7264C12.9844 82.4889 12.8446 83.4031 13.0567 84.2685C13.2688 85.134 13.8155 85.8799 14.5769 86.3428L43.0073 103.581C43.5133 103.885 44.0908 104.051 44.6813 104.06C45.2718 104.069 45.8543 103.922 46.3697 103.634L18.4987 86.7352Z" fill="black"/>
<path d="M51.8406 78.4318L32.7568 66.9331C32.4536 66.7499 32.2355 66.4538 32.1504 66.11C32.0654 65.7661 32.1203 65.4025 32.3031 65.0991C32.4859 64.7956 32.7817 64.5772 33.1255 64.4917C33.4693 64.4062 33.8329 64.4606 34.1366 64.6431L53.2204 76.1418C53.5228 76.3253 53.7402 76.6213 53.8248 76.9648C53.9094 77.3084 53.8544 77.6714 53.6718 77.9745C53.4892 78.2775 53.1939 78.4958 52.8507 78.5816C52.5074 78.6673 52.1442 78.6134 51.8406 78.4318Z" fill="white"/>
<path d="M40.7386 63.1834L36.5402 60.6537C36.2359 60.4717 36.0164 60.1763 35.93 59.8324C35.8436 59.4886 35.8972 59.1245 36.0793 58.8202C36.2613 58.5159 36.5567 58.2965 36.9006 58.21C37.2444 58.1236 37.6085 58.1773 37.9128 58.3593L37.92 58.3637L42.1184 60.8934C42.421 61.0769 42.6384 61.3729 42.7231 61.7165C42.8077 62.0601 42.7527 62.4232 42.5701 62.7263C42.3875 63.0294 42.0922 63.2477 41.7488 63.3334C41.4055 63.4191 41.0422 63.3651 40.7386 63.1834Z" fill="white"/>
<path d="M48.8071 83.4656L29.7233 71.9669C29.4198 71.7841 29.2013 71.4883 29.1157 71.1444C29.0302 70.8006 29.0846 70.4368 29.2671 70.1331C29.4496 69.8294 29.7453 69.6106 30.089 69.5247C30.4328 69.4389 30.7966 69.493 31.1005 69.6752L31.1032 69.6768L50.187 81.1755C50.4894 81.3591 50.7068 81.6551 50.7914 81.9986C50.876 82.3421 50.821 82.7052 50.6384 83.0082C50.4558 83.3113 50.1605 83.5296 49.8172 83.6153C49.474 83.701 49.1108 83.6472 48.8071 83.4656Z" fill="white"/>
<path d="M54.2634 56.7508C57.3419 56.7508 59.8374 54.2552 59.8374 51.1768C59.8374 48.0983 57.3419 45.6028 54.2634 45.6028C51.185 45.6028 48.6895 48.0983 48.6895 51.1768C48.6895 54.2552 51.185 56.7508 54.2634 56.7508Z" fill="#3F3D56"/>
<path d="M44.6558 110.904C51.2354 110.904 56.5693 105.57 56.5693 98.9902C56.5693 92.4105 51.2354 87.0767 44.6558 87.0767C38.0761 87.0767 32.7422 92.4105 32.7422 98.9902C32.7422 105.57 38.0761 110.904 44.6558 110.904Z" fill="white"/>
<path d="M44.6559 111.07C42.2668 111.07 39.9313 110.361 37.9448 109.034C35.9583 107.707 34.41 105.82 33.4957 103.613C32.5814 101.406 32.3422 98.9768 32.8083 96.6336C33.2744 94.2903 34.4248 92.1379 36.1142 90.4485C37.8036 88.7591 39.956 87.6086 42.2992 87.1425C44.6425 86.6764 47.0713 86.9156 49.2786 87.8299C51.4859 88.7442 53.3725 90.2924 54.6999 92.2789C56.0272 94.2654 56.7357 96.6009 56.7357 98.9901C56.7321 102.193 55.4583 105.263 53.1936 107.528C50.929 109.792 47.8586 111.066 44.6559 111.07ZM44.6559 87.2428C42.3325 87.2428 40.0613 87.9318 38.1294 89.2226C36.1976 90.5134 34.6919 92.3481 33.8028 94.4947C32.9136 96.6412 32.681 99.0032 33.1343 101.282C33.5876 103.561 34.7064 105.654 36.3493 107.297C37.9922 108.94 40.0854 110.059 42.3642 110.512C44.643 110.965 47.005 110.732 49.1515 109.843C51.2981 108.954 53.1328 107.448 54.4236 105.517C55.7144 103.585 56.4033 101.313 56.4033 98.9901C56.3998 95.8756 55.161 92.8896 52.9587 90.6874C50.7564 88.4851 47.7704 87.2463 44.6559 87.2428Z" fill="#3F3D56"/>
<path d="M43.0301 105.191C42.8243 105.191 42.6214 105.143 42.4374 105.051C42.2534 104.959 42.0934 104.825 41.97 104.66L38.7198 100.327C38.6152 100.188 38.5391 100.029 38.4958 99.8605C38.4524 99.6918 38.4428 99.5163 38.4673 99.3439C38.4919 99.1715 38.5502 99.0057 38.6389 98.8558C38.7276 98.706 38.8449 98.5751 38.9842 98.4706C39.1235 98.3662 39.282 98.2902 39.4507 98.247C39.6194 98.2038 39.795 98.1943 39.9673 98.219C40.1397 98.2437 40.3055 98.3022 40.4552 98.391C40.605 98.4798 40.7358 98.5973 40.8402 98.7366L42.9666 101.572L48.4279 93.3797C48.5245 93.2349 48.6486 93.1105 48.7932 93.0137C48.9378 92.9168 49.1 92.8494 49.2707 92.8153C49.4413 92.7812 49.617 92.781 49.7878 92.8147C49.9585 92.8485 50.1209 92.9156 50.2657 93.0121C50.4105 93.1087 50.5349 93.2328 50.6317 93.3774C50.7286 93.522 50.796 93.6842 50.8301 93.8549C50.8642 94.0255 50.8644 94.2013 50.8306 94.372C50.7969 94.5427 50.7298 94.7051 50.6333 94.8499L44.1329 104.601C44.0153 104.777 43.8571 104.922 43.6716 105.025C43.4862 105.128 43.2788 105.184 43.067 105.19C43.0547 105.19 43.0424 105.191 43.0301 105.191Z" fill="#8F53F0"/>
<path d="M83.131 38.6176C83.6044 38.5771 83.9654 38.2773 83.9372 37.948C83.9091 37.6187 83.5025 37.3845 83.0291 37.425C82.5556 37.4655 82.1947 37.7653 82.2229 38.0946C82.251 38.4239 82.6576 38.6581 83.131 38.6176Z" fill="white"/>
<path d="M88.4572 36.8107C88.9306 36.7703 89.2916 36.4705 89.2634 36.1411C89.2353 35.8118 88.8286 35.5776 88.3552 35.6181C87.8818 35.6586 87.5209 35.9584 87.549 36.2877C87.5772 36.617 87.9838 36.8512 88.4572 36.8107Z" fill="#3F3D56"/>
<path d="M80.6057 34.5539C81.0791 34.5134 81.44 34.2136 81.4118 33.8843C81.3837 33.555 80.9771 33.3208 80.5037 33.3613C80.0303 33.4018 79.6693 33.7015 79.6975 34.0309C79.7256 34.3602 80.1322 34.5944 80.6057 34.5539Z" fill="#FF6584"/>
<path d="M78.3713 33.2444C78.5751 33.1984 78.6866 32.9236 78.6204 32.6307C78.5542 32.3378 78.3354 32.1377 78.1316 32.1837C77.9279 32.2298 77.8163 32.5045 77.8825 32.7974C77.9487 33.0903 78.1675 33.2905 78.3713 33.2444Z" fill="#E6E6E6"/>
<path d="M76.7805 30.0655C76.9842 30.0194 77.0958 29.7447 77.0296 29.4518C76.9634 29.1589 76.7446 28.9587 76.5408 29.0048C76.3371 29.0508 76.2255 29.3256 76.2917 29.6185C76.3579 29.9114 76.5767 30.1115 76.7805 30.0655Z" fill="#3F3D56"/>
<path d="M84.4133 34.5298C84.617 34.4838 84.7286 34.209 84.6624 33.9161C84.5962 33.6232 84.3774 33.4231 84.1736 33.4691C83.9699 33.5152 83.8583 33.7899 83.9245 34.0828C83.9907 34.3757 84.2095 34.5759 84.4133 34.5298Z" fill="#E6E6E6"/>
<path d="M82.0861 36.4612C82.2899 36.4152 82.4014 36.1404 82.3353 35.8475C82.2691 35.5546 82.0502 35.3545 81.8465 35.4005C81.6427 35.4466 81.5312 35.7213 81.5974 36.0142C81.6636 36.3071 81.8824 36.5073 82.0861 36.4612Z" fill="#FF6584"/>
<path d="M86.3225 38.0342C86.5262 37.9882 86.6378 37.7134 86.5716 37.4205C86.5054 37.1276 86.2866 36.9275 86.0828 36.9735C85.879 37.0196 85.7675 37.2943 85.8337 37.5872C85.8999 37.8801 86.1187 38.0803 86.3225 38.0342Z" fill="#3F3D56"/>
<path d="M61.1392 13.9922C61.2203 13.6718 60.9128 13.3174 60.4522 13.2007C59.9916 13.084 59.5524 13.2491 59.4712 13.5695C59.39 13.8899 59.6976 14.2443 60.1582 14.361C60.6188 14.4777 61.058 14.3126 61.1392 13.9922Z" fill="white"/>
<path d="M55.5142 13.9561C55.5953 13.6357 55.2878 13.2813 54.8272 13.1646C54.3666 13.0478 53.9274 13.213 53.8462 13.5334C53.765 13.8538 54.0726 14.2081 54.5332 14.3249C54.9938 14.4416 55.433 14.2765 55.5142 13.9561Z" fill="#3F3D56"/>
<path d="M62.1948 18.6587C62.276 18.3383 61.9685 17.9839 61.5079 17.8672C61.0473 17.7505 60.6081 17.9156 60.5269 18.236C60.4457 18.5564 60.7533 18.9108 61.2138 19.0275C61.6744 19.1442 62.1136 18.9791 62.1948 18.6587Z" fill="#FF6584"/>
<path d="M63.5055 20.4184C63.5389 20.12 63.3976 19.8592 63.19 19.836C62.9824 19.8128 62.7871 20.036 62.7537 20.3344C62.7204 20.6328 62.8617 20.8936 63.0693 20.9168C63.2769 20.94 63.4722 20.7168 63.5055 20.4184Z" fill="#E6E6E6"/>
<path d="M63.9684 23.9431C64.0018 23.6446 63.8605 23.3839 63.6529 23.3607C63.4453 23.3375 63.25 23.5606 63.2166 23.8591C63.1833 24.1575 63.3245 24.4182 63.5322 24.4414C63.7398 24.4646 63.9351 24.2415 63.9684 23.9431Z" fill="#3F3D56"/>
<path d="M58.2184 17.226C58.2518 16.9276 58.1105 16.6669 57.9029 16.6437C57.6953 16.6205 57.5 16.8436 57.4666 17.142C57.4333 17.4404 57.5745 17.7012 57.7822 17.7244C57.9898 17.7476 58.1851 17.5245 58.2184 17.226Z" fill="#E6E6E6"/>
<path d="M61.0485 16.1628C61.0819 15.8644 60.9406 15.6036 60.733 15.5804C60.5254 15.5572 60.3301 15.7804 60.2967 16.0788C60.2634 16.3772 60.4046 16.6379 60.6122 16.6611C60.8198 16.6843 61.0152 16.4612 61.0485 16.1628Z" fill="#FF6584"/>
<path d="M57.5612 13.2897C57.5946 12.9913 57.4533 12.7306 57.2457 12.7074C57.0381 12.6842 56.8427 12.9073 56.8094 13.2057C56.7761 13.5042 56.9173 13.7649 57.1249 13.7881C57.3325 13.8113 57.5279 13.5882 57.5612 13.2897Z" fill="#3F3D56"/>
<path d="M0.332386 43.5837H0V0H25.6694V0.332386C18.9496 0.332386 12.505 3.00181 7.75341 7.75341C3.00181 12.505 0.332386 18.9496 0.332386 25.6694V43.5837Z" fill="#F2F2F2"/>
<path d="M15.2183 81.8839C14.7935 81.7098 14.4116 81.4456 14.099 81.1094C13.7864 80.7732 13.5505 80.3731 13.4077 79.9368C13.2649 79.5005 13.2186 79.0384 13.2719 78.5824C13.3253 78.1265 13.4771 77.6875 13.7167 77.296L4.55859 64.4225L7.49659 61.0139L18.2621 76.3835C18.8911 76.8359 19.3323 77.5034 19.5021 78.2595C19.6719 79.0155 19.5585 79.8076 19.1833 80.4856C18.8081 81.1636 18.1973 81.6804 17.4665 81.9381C16.7357 82.1958 15.9358 82.1765 15.2183 81.8839Z" fill="#FFB6B6"/>
<path d="M15.4286 41.0883C14.9653 40.8157 14.4199 40.7172 13.8905 40.8104C13.3611 40.9036 12.8822 41.1824 12.5399 41.5969L0.166016 58.9024L11.6333 75.1893L16.1206 70.3697L9.14045 59.401L18.4171 50.5686C19.1794 48.8985 19.2958 47.0052 18.7439 45.2544C18.192 43.5035 17.0108 42.0193 15.4286 41.0883Z" fill="#8F53F0"/>
</g>
<defs>
<clipPath id="clip0_4462_32746">
<rect width="95.6367" height="111.07" fill="white"/>
</clipPath>
</defs>
</svg>
