<svg width="32" height="33" viewBox="0 0 32 33" fill="none" xmlns="http://www.w3.org/2000/svg">
<g clip-path="url(#clip0_4581_42094)">
<path d="M14 21.7287V24.0701C14 25.1746 14.8954 26.0701 16 26.0701C17.1046 26.0701 18 25.1746 18 24.0701V21.7287M16 6.07007V7.07007M7 16.0701H6M9.5 9.57007L8.8999 8.96997M22.5 9.57007L23.1002 8.96997M26 16.0701H25M22 16.0701C22 19.3838 19.3137 22.0701 16 22.0701C12.6863 22.0701 10 19.3838 10 16.0701C10 12.7564 12.6863 10.0701 16 10.0701C19.3137 10.0701 22 12.7564 22 16.0701Z" stroke="#989898" stroke-width="1.5" stroke-linecap="round" stroke-linejoin="round"/>
</g>
<defs>
<clipPath id="clip0_4581_42094">
<path d="M0 2.07007C0 0.965499 0.895431 0.0700684 2 0.0700684H30C31.1046 0.0700684 32 0.965499 32 2.07007V30.0701C32 31.1746 31.1046 32.0701 30 32.0701H2C0.895431 32.0701 0 31.1746 0 30.0701V2.07007Z" fill="white"/>
</clipPath>
</defs>
</svg>
