<svg width="32" height="33" viewBox="0 0 32 33" fill="none" xmlns="http://www.w3.org/2000/svg">
<g clip-path="url(#clip0_4593_42149)">
<path d="M13 22.5701H19M10.6 6.07007H21.4C21.9601 6.07007 22.2401 6.07007 22.454 6.17906C22.6422 6.27494 22.7951 6.42792 22.891 6.61608C23 6.82999 23 7.11002 23 7.67007V9.74459C23 10.2338 23 10.4784 22.9447 10.7085C22.8957 10.9126 22.8149 11.1077 22.7053 11.2866C22.5816 11.4885 22.4086 11.6614 22.0627 12.0073L19.1314 14.9387C18.7354 15.3347 18.5373 15.5327 18.4632 15.7611C18.3979 15.9619 18.3979 16.1782 18.4632 16.3791C18.5373 16.6074 18.7354 16.8054 19.1314 17.2014L22.0627 20.1328C22.4086 20.4787 22.5816 20.6517 22.7053 20.8535C22.8149 21.0324 22.8957 21.2275 22.9447 21.4316C23 21.6618 23 21.9064 23 22.3956V24.4701C23 25.0301 23 25.3101 22.891 25.5241C22.7951 25.7122 22.6422 25.8652 22.454 25.9611C22.2401 26.0701 21.9601 26.0701 21.4 26.0701H10.6C10.0399 26.0701 9.75992 26.0701 9.54601 25.9611C9.35785 25.8652 9.20487 25.7122 9.10899 25.5241C9 25.3101 9 25.0301 9 24.4701V22.3956C9 21.9064 9 21.6618 9.05526 21.4316C9.10425 21.2275 9.18506 21.0324 9.29472 20.8535C9.4184 20.6517 9.59135 20.4787 9.93726 20.1328L12.8686 17.2014C13.2646 16.8054 13.4627 16.6074 13.5368 16.3791C13.6021 16.1782 13.6021 15.9619 13.5368 15.7611C13.4627 15.5327 13.2646 15.3347 12.8686 14.9387L9.93726 12.0073C9.59136 11.6614 9.4184 11.4885 9.29472 11.2866C9.18506 11.1077 9.10425 10.9126 9.05526 10.7085C9 10.4784 9 10.2338 9 9.74458V7.67007C9 7.11002 9 6.82999 9.10899 6.61608C9.20487 6.42792 9.35785 6.27494 9.54601 6.17906C9.75992 6.07007 10.0399 6.07007 10.6 6.07007Z" stroke="#989898" stroke-width="1.5" stroke-linecap="round" stroke-linejoin="round"/>
</g>
<defs>
<clipPath id="clip0_4593_42149">
<path d="M0 2.07007C0 0.965499 0.895431 0.0700684 2 0.0700684H30C31.1046 0.0700684 32 0.965499 32 2.07007V30.0701C32 31.1746 31.1046 32.0701 30 32.0701H2C0.895431 32.0701 0 31.1746 0 30.0701V2.07007Z" fill="white"/>
</clipPath>
</defs>
</svg>
