<svg width="36" height="36" viewBox="0 0 36 36" fill="none" xmlns="http://www.w3.org/2000/svg">
<path d="M16.5 9C17.49 9 18.48 9 19.5 9C19.5 14.94 19.5 20.88 19.5 27C18.51 27 17.52 27 16.5 27C16.5 21.06 16.5 15.12 16.5 9Z" fill="#8F53F0"/>
<path d="M19.5 9.01299C20.0551 9.01069 20.6103 9.00891 21.1654 9.00785C21.231 9.00772 21.2965 9.00759 21.362 9.00746C21.375 9.00744 21.3881 9.00741 21.4015 9.00738C21.6128 9.00694 21.8241 9.00615 22.0354 9.00523C22.2521 9.00428 22.4689 9.00373 22.6856 9.00352C22.8194 9.00338 22.9532 9.00295 23.087 9.00213C23.1787 9.0016 23.2704 9.00144 23.3621 9.00157C23.415 9.00163 23.4679 9.00153 23.5209 9.00099C23.5693 9.0005 23.6178 9.00048 23.6662 9.00082C23.6921 9.00089 23.7179 9.00045 23.7438 9C23.8536 9.00143 23.8536 9.00143 23.8969 9.03532C23.9483 9.09766 23.9483 9.09766 23.9483 9.13877C23.9571 9.13877 23.9659 9.13877 23.9749 9.13877C24.0282 9.20684 24.0282 9.20684 24.0282 9.2394C24.037 9.2394 24.0458 9.2394 24.0549 9.2394C24.0742 9.26334 24.0923 9.28814 24.1098 9.3133C24.1194 9.32701 24.1291 9.34073 24.139 9.35486C24.1614 9.39034 24.1614 9.39034 24.1614 9.4155C24.1702 9.4155 24.179 9.4155 24.188 9.4155C24.2081 9.43937 24.2081 9.43937 24.2297 9.47053C24.2368 9.48074 24.244 9.49096 24.2514 9.50148C24.268 9.5287 24.268 9.5287 24.268 9.55386C24.2767 9.55386 24.2855 9.55386 24.2946 9.55386C24.3094 9.57089 24.3094 9.57089 24.3255 9.59488C24.3315 9.6037 24.3375 9.61252 24.3436 9.62161C24.3531 9.63594 24.3531 9.63594 24.3628 9.65055C24.3693 9.66019 24.3758 9.66983 24.3825 9.67977C24.4021 9.70902 24.4216 9.73835 24.4411 9.76769C24.4522 9.78426 24.4633 9.80084 24.4744 9.81741C24.5476 9.92752 24.5476 9.92752 24.5476 9.95636C24.5564 9.95636 24.5652 9.95636 24.5743 9.95636C24.5905 9.97989 24.6056 10.0041 24.6201 10.0287C24.6524 10.0837 24.6524 10.0837 24.6904 10.135C24.7075 10.1576 24.7075 10.1576 24.7075 10.1954C24.7162 10.1954 24.725 10.1954 24.7341 10.1954C24.7514 10.218 24.7514 10.218 24.7707 10.2496C24.7778 10.2611 24.7849 10.2726 24.7922 10.2844C24.8199 10.3311 24.847 10.3782 24.8739 10.4253C24.8931 10.4582 24.9132 10.4903 24.9339 10.5224C25.0168 10.6516 25.0889 10.7866 25.1619 10.921C25.1669 10.93 25.1718 10.9391 25.1769 10.9485C25.4248 11.4039 25.4248 11.4039 25.533 11.6352C25.5532 11.6785 25.5743 11.7213 25.5958 11.7639C25.6421 11.8554 25.6824 11.9484 25.7217 12.0427C25.7446 12.0975 25.7681 12.1515 25.7946 12.2047C25.8252 12.2667 25.8505 12.3303 25.8755 12.3944C25.8976 12.4511 25.921 12.5072 25.9452 12.5632C25.9884 12.6642 26.0263 12.7667 26.0637 12.8697C26.0786 12.9105 26.0936 12.9512 26.1087 12.992C26.2001 13.2389 26.2853 13.4863 26.3598 13.7383C26.3712 13.7768 26.383 13.8153 26.395 13.8537C26.4318 13.9723 26.4649 14.0911 26.4945 14.2114C26.512 14.2824 26.531 14.3529 26.5512 14.4232C26.6232 14.6781 26.6764 14.9363 26.7259 15.1957C26.7277 15.2054 26.7296 15.2151 26.7315 15.2251C26.7351 15.2443 26.7388 15.2635 26.7425 15.2828C26.7538 15.342 26.7662 15.4009 26.7791 15.4599C26.8015 15.5645 26.8168 15.6697 26.8317 15.7754C26.8361 15.8059 26.8405 15.8363 26.8448 15.8668C26.8477 15.8866 26.8505 15.9065 26.8534 15.9264C26.8606 15.9765 26.8681 16.0266 26.8763 16.0766C26.9778 16.6917 27.0008 17.3172 26.9999 17.9387C26.9999 17.9952 26.9999 18.0516 27 18.1081C27.0004 18.4676 26.9923 18.8249 26.9607 19.1834C26.959 19.2035 26.959 19.2035 26.9572 19.224C26.9364 19.4645 26.9109 19.7042 26.8783 19.9436C26.8764 19.9583 26.8744 19.9731 26.8723 19.9883C26.8358 20.2559 26.784 20.5211 26.7318 20.7863C26.7287 20.8022 26.7256 20.8181 26.7224 20.8344C26.6696 21.1027 26.6139 21.3713 26.5407 21.6354C26.5296 21.6757 26.5188 21.716 26.5079 21.7563C26.4602 21.9332 26.4116 22.1098 26.3568 22.285C26.3487 22.3109 26.3407 22.3368 26.3327 22.3628C26.2643 22.5843 26.1897 22.8026 26.1085 23.0202C26.093 23.0617 26.0779 23.1032 26.0628 23.1448C26.0231 23.2541 25.9835 23.3626 25.9347 23.4686C25.911 23.5224 25.8914 23.5775 25.8716 23.6326C25.8562 23.6708 25.8396 23.7073 25.8215 23.7443C25.785 23.8191 25.7531 23.8952 25.7213 23.9718C25.6635 24.1099 25.6013 24.2443 25.5299 24.3766C25.5057 24.4211 25.5057 24.4211 25.4886 24.4684C25.4676 24.5218 25.4407 24.5706 25.4117 24.6203C25.3672 24.6978 25.326 24.7762 25.2868 24.8562C25.2453 24.9405 25.2004 25.0217 25.1512 25.1023C25.0967 25.192 25.0486 25.2845 25.0005 25.3774C24.9916 25.3942 24.9827 25.411 24.9738 25.4277C24.965 25.4277 24.9562 25.4277 24.9472 25.4277C24.9457 25.4348 24.9443 25.4419 24.9428 25.4492C24.9325 25.4825 24.9168 25.5069 24.8972 25.5362C24.8564 25.5989 24.8211 25.6633 24.7874 25.7296C24.7786 25.7296 24.7698 25.7296 24.7607 25.7296C24.7593 25.7367 24.7579 25.7437 24.7564 25.751C24.7459 25.7847 24.7302 25.8097 24.7106 25.8395C24.7031 25.8509 24.6956 25.8622 24.6879 25.8739C24.6762 25.8916 24.6762 25.8916 24.6642 25.9096C24.6565 25.9212 24.6489 25.9329 24.641 25.9449C24.6075 25.9957 24.5736 26.0458 24.5362 26.0941C24.5062 26.1301 24.5062 26.1301 24.4944 26.1698C24.4856 26.1698 24.4768 26.1698 24.4677 26.1698C24.4643 26.181 24.4609 26.1921 24.4574 26.2036C24.441 26.2456 24.4225 26.273 24.3936 26.3082C24.3431 26.3714 24.2979 26.4366 24.2542 26.5042C24.2417 26.5231 24.2283 26.5415 24.2147 26.5598C24.2059 26.5598 24.1971 26.5598 24.188 26.5598C24.1823 26.5742 24.1823 26.5742 24.1764 26.5888C24.1614 26.6227 24.1614 26.6227 24.1348 26.6604C24.126 26.6604 24.1172 26.6604 24.1081 26.6604C24.1046 26.6696 24.1011 26.6787 24.0975 26.6882C24.0707 26.7471 24.0285 26.7955 23.9883 26.8467C23.9797 26.8578 23.9712 26.8689 23.9624 26.8804C23.9542 26.8909 23.9459 26.9014 23.9375 26.9122C23.93 26.9218 23.9225 26.9314 23.9148 26.9413C23.9082 26.9482 23.9017 26.9551 23.895 26.9623C23.8862 26.9623 23.8775 26.9623 23.8684 26.9623C23.864 26.9747 23.8596 26.9872 23.8551 27C22.4179 27 20.9807 27 19.5 27C19.5323 26.9389 19.5323 26.9389 19.5666 26.912C19.5754 26.912 19.5842 26.912 19.5932 26.912C19.5932 26.9037 19.5932 26.8953 19.5932 26.8868C19.602 26.8868 19.6108 26.8868 19.6199 26.8868C19.6199 26.8785 19.6199 26.8702 19.6199 26.8616C19.6287 26.8616 19.6374 26.8616 19.6465 26.8616C19.6465 26.8533 19.6465 26.845 19.6465 26.8365C19.6553 26.8365 19.6641 26.8365 19.6731 26.8365C19.6731 26.8282 19.6731 26.8199 19.6731 26.8113C19.6819 26.8113 19.6907 26.8113 19.6998 26.8113C19.6998 26.803 19.6998 26.7947 19.6998 26.7862C19.7086 26.7862 19.7174 26.7862 19.7264 26.7862C19.7298 26.7788 19.7332 26.7715 19.7367 26.764C19.7548 26.7328 19.7749 26.7131 19.8022 26.6887C19.8555 26.6395 19.9045 26.5882 19.9528 26.5346C19.9588 26.528 19.9648 26.5214 19.9709 26.5146C19.991 26.4925 20.011 26.4703 20.0311 26.4481C20.0408 26.4373 20.0408 26.4373 20.0508 26.4263C20.0853 26.3884 20.0853 26.3884 20.1126 26.3459C20.1214 26.3459 20.1302 26.3459 20.1393 26.3459C20.1426 26.3368 20.1459 26.3278 20.1493 26.3184C20.1675 26.2796 20.1889 26.2515 20.2192 26.2201C20.228 26.2201 20.2368 26.2201 20.2458 26.2201C20.2516 26.2057 20.2516 26.2057 20.2575 26.1911C20.2725 26.1573 20.2725 26.1573 20.2991 26.1195C20.3079 26.1195 20.3167 26.1195 20.3257 26.1195C20.3315 26.1051 20.3315 26.1051 20.3374 26.0904C20.3524 26.0566 20.3524 26.0566 20.379 26.0189C20.3878 26.0189 20.3966 26.0189 20.4056 26.0189C20.4089 26.0101 20.4122 26.0012 20.4156 25.9922C20.4346 25.951 20.4572 25.9165 20.4856 25.8805C20.4943 25.8805 20.5031 25.8805 20.5122 25.8805C20.521 25.8556 20.5298 25.8307 20.5388 25.8051C20.5476 25.8051 20.5564 25.8051 20.5655 25.8051C20.5743 25.7802 20.583 25.7552 20.5921 25.7296C20.6009 25.7296 20.6097 25.7296 20.6187 25.7296C20.6215 25.7195 20.6242 25.7094 20.6271 25.6989C20.6512 25.6399 20.6871 25.5925 20.7253 25.5409C20.776 25.4717 20.8213 25.4016 20.8633 25.3274C20.8878 25.2846 20.9135 25.2426 20.9392 25.2005C20.9818 25.1308 21.0214 25.0601 21.0582 24.9875C21.067 24.9875 21.0758 24.9875 21.0849 24.9875C21.0866 24.9802 21.0883 24.9729 21.0901 24.9654C21.0981 24.9373 21.1087 24.9133 21.122 24.887C21.1268 24.8774 21.1316 24.8678 21.1366 24.858C21.1418 24.8478 21.147 24.8376 21.1523 24.8271C21.1576 24.8165 21.163 24.806 21.1685 24.7951C21.2114 24.7104 21.2555 24.6262 21.3003 24.5424C21.3042 24.535 21.3082 24.5276 21.3122 24.52C21.321 24.5036 21.3299 24.4872 21.3387 24.4708C21.3615 24.4281 21.3834 24.386 21.4012 24.3413C21.4264 24.2803 21.4544 24.2208 21.4828 24.1612C21.5267 24.0687 21.5677 23.9755 21.6068 23.8811C21.6187 23.8529 21.6308 23.8247 21.6429 23.7966C21.6942 23.6777 21.7424 23.5583 21.7861 23.4367C21.8016 23.3938 21.8175 23.3521 21.8369 23.3106C21.8655 23.2457 21.886 23.179 21.9073 23.1117C21.9403 23.0087 21.9744 22.9062 22.0113 22.8043C22.0588 22.6722 22.0985 22.5383 22.1373 22.4036C22.149 22.3632 22.1608 22.3229 22.1727 22.2825C22.227 22.0984 22.2798 21.9144 22.3225 21.7275C22.3328 21.6828 22.3442 21.6385 22.3561 21.5943C22.378 21.5122 22.3972 21.4296 22.4159 21.3468C22.4193 21.3315 22.4228 21.3161 22.4264 21.3003C22.4708 21.1024 22.5105 20.904 22.5445 20.7043C22.5504 20.6703 22.5563 20.6363 22.5623 20.6023C22.6418 20.1469 22.7 19.6869 22.7363 19.2266C22.7375 19.2124 22.7386 19.1982 22.7398 19.1836C22.7919 18.5143 22.7978 17.8341 22.763 17.1637C22.7618 17.1409 22.7618 17.1409 22.7606 17.1175C22.7338 16.6274 22.6754 16.1401 22.6032 15.6543C22.6009 15.6393 22.6009 15.6393 22.5987 15.624C22.5422 15.2441 22.4671 14.8695 22.3754 14.4958C22.3632 14.4459 22.3513 14.3959 22.3396 14.3459C22.2767 14.0781 22.2068 13.8137 22.1209 13.5517C22.0962 13.4761 22.0728 13.4002 22.0496 13.3242C21.9948 13.1454 21.9356 12.9682 21.8726 12.7918C21.8628 12.7642 21.8532 12.7366 21.8437 12.7089C21.8178 12.6333 21.7882 12.5604 21.7553 12.4874C21.736 12.4436 21.7183 12.3994 21.7008 12.3549C21.6669 12.2687 21.6321 12.1828 21.5968 12.097C21.592 12.0852 21.5871 12.0733 21.5821 12.0611C21.5526 11.9896 21.5207 11.9196 21.4867 11.8499C21.4658 11.807 21.446 11.7638 21.4262 11.7205C21.3847 11.6305 21.3414 11.5415 21.297 11.4528C21.2839 11.4264 21.2709 11.4 21.2579 11.3735C21.2082 11.2723 21.1566 11.173 21.0982 11.0758C21.0886 11.0597 21.079 11.0436 21.0694 11.0275C21.0538 11.0013 21.0382 10.9751 21.0226 10.9489C20.9935 10.9003 20.9648 10.8514 20.9367 10.8023C20.75 10.4775 20.5349 10.1655 20.2948 9.87387C20.2886 9.86627 20.2823 9.85866 20.2759 9.85083C20.2621 9.83417 20.2482 9.8176 20.2343 9.80105C20.2192 9.78027 20.2192 9.78027 20.2192 9.75511C20.2104 9.75511 20.2016 9.75511 20.1926 9.75511C20.1725 9.73398 20.1725 9.73398 20.1509 9.70637C20.1438 9.69732 20.1366 9.68827 20.1292 9.67895C20.1126 9.65448 20.1126 9.65448 20.1126 9.62933C20.1039 9.62933 20.0951 9.62933 20.086 9.62933C20.0672 9.60899 20.0672 9.60899 20.0452 9.58059C19.9915 9.51365 19.9332 9.45201 19.8729 9.39034C19.8627 9.37987 19.8627 9.37987 19.8523 9.3692C19.7562 9.27041 19.6583 9.17365 19.5568 9.0797C19.5377 9.06187 19.5188 9.04375 19.5 9.02557C19.5 9.02142 19.5 9.01727 19.5 9.01299Z" fill="#8F53F0"/>
<path d="M11.3065 9.00031C11.3224 9.00033 11.3383 9.00035 11.3546 9.00038C11.373 9.00025 11.3914 9.00013 11.4103 9C11.4406 9.00027 11.4406 9.00027 11.4714 9.00055C11.4931 9.00053 11.5147 9.00047 11.5364 9.00039C11.5959 9.00025 11.6555 9.0005 11.715 9.00082C11.7792 9.00109 11.8434 9.001 11.9076 9.00095C12.0188 9.00092 12.13 9.00111 12.2413 9.00147C12.4021 9.00198 12.5629 9.00214 12.7237 9.00222C12.9846 9.00236 13.2455 9.00278 13.5065 9.00337C13.7599 9.00395 14.0134 9.00439 14.2669 9.00466C14.2903 9.00469 14.2903 9.00469 14.3142 9.00471C14.3926 9.00479 14.4709 9.00487 14.5493 9.00495C15.1995 9.0056 15.8498 9.00671 16.5 9.00812C16.4848 9.02221 16.4695 9.03629 16.4542 9.05037C16.4458 9.05822 16.4373 9.06606 16.4285 9.07414C16.4001 9.09987 16.3703 9.12407 16.3395 9.14795C16.3223 9.16131 16.3223 9.16131 16.3048 9.17494C16.2814 9.19308 16.2579 9.21122 16.2345 9.22936C16.1691 9.28031 16.1066 9.33228 16.0467 9.38721C15.9972 9.43235 15.9454 9.47579 15.8941 9.51961C15.8613 9.54652 15.8613 9.54652 15.8456 9.57394C15.8351 9.57394 15.8246 9.57394 15.8137 9.57394C15.8075 9.58434 15.8075 9.58434 15.8012 9.59496C15.7789 9.62855 15.7533 9.65904 15.7259 9.69024C15.7162 9.70146 15.7065 9.71268 15.6965 9.72423C15.6878 9.73273 15.6791 9.74122 15.6701 9.74997C15.6595 9.74997 15.649 9.74997 15.6381 9.74997C15.6342 9.75911 15.6302 9.76825 15.626 9.77767C15.6045 9.81597 15.5792 9.84098 15.5444 9.87256C15.2222 10.1767 14.9461 10.5315 14.7124 10.8816C14.7016 10.8977 14.6908 10.9138 14.6799 10.9299C14.6552 10.9665 14.6307 11.0031 14.6062 11.0397C14.5826 11.075 14.5587 11.1101 14.5344 11.1451C14.3837 11.3635 14.2549 11.5909 14.1349 11.8207C14.1139 11.8606 14.0915 11.9 14.0685 11.9392C14.0235 12.0167 13.9828 12.0954 13.9427 12.1745C13.9305 12.1985 13.9182 12.2225 13.9058 12.2466C13.8571 12.342 13.8134 12.438 13.7736 12.536C13.7541 12.5808 13.7309 12.6236 13.7069 12.6671C13.6801 12.7239 13.6552 12.7811 13.6301 12.8384C13.6266 12.8465 13.6231 12.8546 13.6194 12.8629C13.566 12.985 13.5177 13.1077 13.4742 13.2323C13.455 13.287 13.434 13.3411 13.4125 13.3953C13.3318 13.5992 13.2638 13.8057 13.1962 14.0125C13.1884 14.0363 13.1884 14.0363 13.1805 14.0605C13.0687 14.4035 12.9759 14.7478 12.8966 15.0962C12.8831 15.1555 12.8692 15.2147 12.855 15.2738C12.7378 15.7653 12.6688 16.2677 12.6216 16.7661C12.6203 16.7803 12.6189 16.7945 12.6175 16.8092C12.555 17.4781 12.5479 18.1582 12.5897 18.8282C12.5911 18.8511 12.5911 18.8511 12.5926 18.8744C12.6271 19.4012 12.6969 19.9289 12.7972 20.4503C12.8 20.4645 12.8027 20.4788 12.8055 20.4935C12.8319 20.6295 12.859 20.765 12.8976 20.8993C12.9107 20.9469 12.9214 20.9948 12.9319 21.0428C12.9666 21.2012 13.0038 21.3595 13.0553 21.5152C13.0691 21.5586 13.0815 21.6022 13.0938 21.646C13.1952 22.0058 13.3228 22.3594 13.4598 22.7117C13.4836 22.7726 13.5068 22.8337 13.5291 22.895C13.597 23.0806 13.669 23.2677 13.7674 23.4448C13.7916 23.4895 13.8132 23.5348 13.8346 23.5804C13.8387 23.589 13.8428 23.5976 13.847 23.6065C13.8551 23.6236 13.8631 23.6407 13.8712 23.6578C13.9008 23.7205 13.9314 23.7829 13.9623 23.8452C13.9668 23.8543 13.9713 23.8633 13.9759 23.8727C14.0504 24.0232 14.1309 24.1708 14.2162 24.3177C14.2331 24.3473 14.2497 24.377 14.2661 24.4067C14.3334 24.529 14.408 24.6467 14.4884 24.7639C14.5134 24.8006 14.5378 24.8376 14.5618 24.8747C14.5694 24.8863 14.577 24.8979 14.5848 24.9099C14.6007 24.9391 14.6007 24.9391 14.6007 24.9768C14.6113 24.9768 14.6218 24.9768 14.6326 24.9768C14.6389 24.9871 14.6451 24.9973 14.6515 25.0078C14.7429 25.1553 14.8488 25.295 14.9568 25.4352C14.9656 25.4467 14.9744 25.4582 14.9834 25.47C15.0007 25.4925 15.0181 25.5149 15.0355 25.5373C15.0433 25.5475 15.0511 25.5577 15.0592 25.5681C15.0697 25.5817 15.0697 25.5817 15.0804 25.5955C15.0955 25.6181 15.0955 25.6181 15.0955 25.6432C15.106 25.6432 15.1166 25.6432 15.1274 25.6432C15.1379 25.6681 15.1485 25.693 15.1593 25.7187C15.1699 25.7187 15.1804 25.7187 15.1913 25.7187C15.2018 25.7436 15.2123 25.7685 15.2232 25.7941C15.2337 25.7941 15.2442 25.7941 15.2551 25.7941C15.2656 25.819 15.2762 25.8439 15.287 25.8696C15.2976 25.8696 15.3081 25.8696 15.3189 25.8696C15.343 25.8934 15.343 25.8934 15.3688 25.9246C15.3774 25.9348 15.386 25.945 15.3949 25.9555C15.4147 25.9827 15.4147 25.9827 15.4147 26.0079C15.4252 26.0079 15.4358 26.0079 15.4466 26.0079C15.5105 26.0759 15.5105 26.0759 15.5105 26.1085C15.521 26.1085 15.5315 26.1085 15.5424 26.1085C15.6062 26.1765 15.6062 26.1765 15.6062 26.2091C15.6168 26.2091 15.6273 26.2091 15.6381 26.2091C15.6642 26.2333 15.6882 26.2574 15.712 26.2829C15.7187 26.2899 15.7254 26.2969 15.7323 26.3041C15.7818 26.3566 15.7818 26.3566 15.7818 26.3851C15.7923 26.3851 15.8029 26.3851 15.8137 26.3851C15.8339 26.4031 15.853 26.4219 15.8716 26.4409C15.9513 26.5199 16.0386 26.5924 16.1278 26.6648C16.1385 26.6737 16.1493 26.6825 16.1603 26.6916C16.1749 26.7034 16.1749 26.7034 16.1897 26.7155C16.2127 26.7372 16.2127 26.7372 16.2287 26.7749C16.2392 26.7749 16.2497 26.7749 16.2606 26.7749C16.2606 26.7832 16.2606 26.7915 16.2606 26.8C16.2711 26.8 16.2817 26.8 16.2925 26.8C16.2925 26.8083 16.2925 26.8166 16.2925 26.8252C16.3031 26.8252 16.3136 26.8252 16.3244 26.8252C16.3244 26.8335 16.3244 26.8418 16.3244 26.8503C16.335 26.8503 16.3455 26.8503 16.3564 26.8503C16.3564 26.8586 16.3564 26.8669 16.3564 26.8755C16.3669 26.8755 16.3774 26.8755 16.3883 26.8755C16.3883 26.8838 16.3883 26.8921 16.3883 26.9006C16.4026 26.9057 16.4026 26.9057 16.4172 26.9108C16.4521 26.9258 16.4747 26.9396 16.5 26.9635C16.5 26.9718 16.5 26.9801 16.5 26.9886C15.8368 26.9907 15.1735 26.9922 14.5103 26.9931C14.432 26.9932 14.3537 26.9934 14.2755 26.9935C14.2599 26.9935 14.2443 26.9935 14.2282 26.9935C13.9758 26.9939 13.7234 26.9946 13.4709 26.9954C13.212 26.9963 12.953 26.9967 12.6941 26.9969C12.5342 26.997 12.3744 26.9974 12.2146 26.9981C12.105 26.9986 11.9955 26.9987 11.8859 26.9986C11.8227 26.9986 11.7595 26.9987 11.6962 26.9991C11.6383 26.9996 11.5804 26.9996 11.5225 26.9993C11.4917 26.9992 11.4608 26.9996 11.4299 27C11.2984 26.9987 11.2984 26.9987 11.2479 26.9694C11.2235 26.9473 11.2042 26.9257 11.1852 26.9006C11.1753 26.8906 11.1655 26.8806 11.1553 26.8703C11.1286 26.8414 11.102 26.8125 11.0755 26.7835C11.066 26.7733 11.0566 26.7632 11.0468 26.7527C11.0379 26.7429 11.029 26.7332 11.0198 26.7232C11.0076 26.71 11.0076 26.71 10.9953 26.6965C10.9777 26.6743 10.9777 26.6743 10.9777 26.6491C10.9672 26.6491 10.9567 26.6491 10.9458 26.6491C10.882 26.5811 10.882 26.5811 10.882 26.5486C10.8714 26.5486 10.8609 26.5486 10.8501 26.5486C10.8309 26.5302 10.8309 26.5302 10.8095 26.5044C10.8016 26.4949 10.7938 26.4855 10.7856 26.4758C10.7773 26.4656 10.7689 26.4553 10.7603 26.4448C10.7428 26.4238 10.7253 26.4027 10.7078 26.3817C10.6993 26.3714 10.6908 26.3611 10.682 26.3505C10.6533 26.316 10.624 26.2818 10.5947 26.2476C10.5319 26.1734 10.4716 26.098 10.4114 26.0225C10.3732 25.9745 10.3347 25.9266 10.2951 25.8793C10.2884 25.8712 10.2817 25.8632 10.2748 25.8549C10.2567 25.8333 10.2385 25.8117 10.2204 25.7902C10.1957 25.7564 10.1957 25.7564 10.1957 25.7187C10.1851 25.7187 10.1746 25.7187 10.1638 25.7187C10.158 25.7102 10.1522 25.7016 10.1462 25.6929C10.0967 25.6207 10.0455 25.5502 9.98982 25.481C9.97223 25.4546 9.97223 25.4546 9.97223 25.4169C9.9617 25.4169 9.95117 25.4169 9.94031 25.4169C9.93451 25.4075 9.92871 25.398 9.92273 25.3883C9.88411 25.3264 9.84532 25.2656 9.79867 25.2071C9.74994 25.1446 9.71168 25.0794 9.67286 25.0129C9.63177 24.9431 9.58738 24.875 9.54131 24.8071C9.47288 24.706 9.40958 24.6036 9.34879 24.4995C9.32402 24.4571 9.29899 24.4148 9.27397 24.3725C9.26932 24.3646 9.26467 24.3567 9.25988 24.3486C9.23694 24.3098 9.21333 24.2714 9.18818 24.2334C9.15253 24.1783 9.12652 24.1203 9.09891 24.0625C9.08067 24.0257 9.06086 23.9902 9.03955 23.9544C9.00138 23.8898 8.96977 23.8238 8.93853 23.7569C8.91451 23.7056 8.88919 23.655 8.862 23.6047C8.8254 23.5367 8.79423 23.4676 8.76324 23.398C8.7448 23.3581 8.72467 23.3192 8.70339 23.2802C8.67487 23.2273 8.65022 23.1742 8.62758 23.1196C8.59694 23.0463 8.56544 22.9733 8.53331 22.9003C8.52448 22.8802 8.51565 22.8601 8.50682 22.8399C8.49342 22.8094 8.47999 22.7789 8.46649 22.7484C8.4061 22.6118 8.35247 22.4749 8.30476 22.3353C8.29357 22.303 8.2815 22.271 8.26922 22.239C7.86937 21.1962 7.63821 20.1014 7.51426 18.5353C7.51234 18.4876 7.51026 18.4399 7.50817 18.3921C7.49573 18.1002 7.49833 17.8101 7.51036 17.5182C7.51137 17.4936 7.51137 17.4936 7.5124 17.4686C7.55735 16.3987 7.71907 15.2846 8.1017 14.2542C8.12561 14.1894 8.14538 14.1237 8.16573 14.0581C8.25617 13.7701 8.36647 13.4882 8.4876 13.2075C8.51119 13.1528 8.5342 13.0979 8.55682 13.0429C8.62359 12.881 8.69676 12.7222 8.777 12.5642C8.81794 12.4835 8.85722 12.4027 8.89292 12.3205C8.92252 12.2524 8.95619 12.1871 8.99535 12.1221C9.01658 12.0853 9.03461 12.048 9.05252 12.0101C9.08534 11.9417 9.12278 11.8755 9.16265 11.8095C9.19179 11.7612 9.21973 11.7126 9.24651 11.6634C9.28679 11.5896 9.32867 11.5168 9.37478 11.4451C9.38607 11.4275 9.39736 11.4098 9.40864 11.3921C9.41461 11.3828 9.42058 11.3734 9.42673 11.3638C9.45326 11.3222 9.47955 11.2804 9.50584 11.2386C9.53429 11.1935 9.56283 11.1483 9.59136 11.1031C9.60589 11.0801 9.62041 11.0571 9.63489 11.034C9.72115 10.8969 9.80989 10.7621 9.90839 10.6301C9.92977 10.6008 9.951 10.5715 9.97223 10.5421C10.0574 10.4248 10.1425 10.3074 10.2276 10.1901C10.2381 10.1901 10.2487 10.1901 10.2595 10.1901C10.2611 10.1832 10.2626 10.1763 10.2642 10.1693C10.2786 10.1316 10.3017 10.1031 10.3283 10.0698C10.3339 10.0628 10.3394 10.0559 10.3452 10.0487C10.3576 10.0331 10.37 10.0176 10.3825 10.002C10.4047 9.97443 10.4266 9.94676 10.4486 9.91908C10.5262 9.82157 10.6044 9.72442 10.6845 9.62816C10.6911 9.62009 10.6977 9.61202 10.7045 9.60371C10.7202 9.58494 10.7371 9.56679 10.7543 9.54879C10.7648 9.54879 10.7754 9.54879 10.7862 9.54879C10.7921 9.53556 10.7921 9.53556 10.7982 9.52207C10.8209 9.48095 10.848 9.44642 10.882 9.41048C10.8925 9.41048 10.903 9.41048 10.9139 9.41048C10.9182 9.40135 10.9225 9.39223 10.9269 9.38282C10.9456 9.348 10.9672 9.31857 10.9937 9.2871C11.0019 9.27716 11.0102 9.26722 11.0186 9.25699C11.0262 9.24955 11.0338 9.24211 11.0416 9.23444C11.0521 9.23444 11.0626 9.23444 11.0735 9.23444C11.0804 9.22005 11.0804 9.22005 11.0875 9.20537C11.1054 9.17157 11.1054 9.17157 11.1373 9.13385C11.1479 9.13385 11.1584 9.13385 11.1693 9.13385C11.1752 9.12024 11.1752 9.12024 11.1812 9.10635C11.2096 9.05603 11.2351 9.01374 11.3065 9.00031Z" fill="#8F53F0"/>
<path d="M24 9.00639C24.8074 9.00524 25.6147 9.00435 26.4221 9.00382C26.5173 9.00376 26.6126 9.00369 26.7079 9.00363C26.7363 9.00361 26.7363 9.00361 26.7653 9.00359C27.0726 9.00337 27.3799 9.00297 27.6872 9.00251C28.0024 9.00204 28.3176 9.00176 28.6328 9.00166C28.8274 9.00159 29.022 9.00137 29.2165 9.00096C29.3499 9.0007 29.4832 9.00062 29.6165 9.00068C29.6935 9.00071 29.7705 9.00066 29.8475 9.00039C29.9179 9.00015 29.9884 9.00014 30.0588 9.00031C30.0844 9.00033 30.1099 9.00027 30.1354 9.00011C30.17 8.99991 30.2047 9.00001 30.2393 9.0002C30.2586 9.00018 30.2778 9.00016 30.2976 9.00014C30.3603 9.00763 30.3949 9.02454 30.4436 9.05671C30.4436 9.06501 30.4436 9.07332 30.4436 9.08187C30.4546 9.08498 30.4656 9.0881 30.4769 9.0913C30.5274 9.10905 30.5678 9.13125 30.6123 9.15735C30.6351 9.17058 30.6351 9.17058 30.6584 9.18408C30.6699 9.19186 30.6814 9.19965 30.6932 9.20767C30.6932 9.21597 30.6932 9.22427 30.6932 9.23282C30.7045 9.23594 30.7158 9.23905 30.7274 9.24226C30.7755 9.25953 30.8104 9.27967 30.8493 9.3083C30.8493 9.3166 30.8493 9.32491 30.8493 9.33346C30.875 9.34176 30.9007 9.35007 30.9273 9.35862C30.9273 9.36692 30.9273 9.37523 30.9273 9.38378C30.9376 9.38378 30.9479 9.38378 30.9585 9.38378C30.9585 9.39208 30.9585 9.40038 30.9585 9.40894C30.9672 9.41207 30.9758 9.4152 30.9848 9.41842C31.0271 9.43682 31.0617 9.45907 31.0989 9.48363C31.1549 9.52052 31.1549 9.52052 31.213 9.55523C31.226 9.56376 31.226 9.56376 31.2393 9.57247C31.2393 9.58078 31.2393 9.58908 31.2393 9.59763C31.2516 9.60152 31.2516 9.60152 31.2641 9.60549C31.318 9.63028 31.3594 9.66387 31.4041 9.69827C31.422 9.71192 31.4399 9.72555 31.4578 9.73915C31.4656 9.74519 31.4735 9.75122 31.4816 9.75743C31.5073 9.77647 31.5073 9.77647 31.5513 9.79891C31.5513 9.80721 31.5513 9.81551 31.5513 9.82407C31.5616 9.82407 31.5719 9.82407 31.5825 9.82407C31.6007 9.84177 31.6189 9.85951 31.6367 9.87747C31.6615 9.90043 31.6876 9.91933 31.7165 9.93895C31.7921 9.99162 31.8629 10.0478 31.9336 10.1047C31.9464 10.1149 31.9592 10.1251 31.9725 10.1356C31.9846 10.1454 31.9967 10.1551 32.0092 10.1651C32.0201 10.1739 32.0311 10.1827 32.0424 10.1918C32.0662 10.214 32.0662 10.214 32.0662 10.2392C32.0765 10.2392 32.0868 10.2392 32.0974 10.2392C32.0974 10.2475 32.0974 10.2558 32.0974 10.2644C32.1077 10.2644 32.118 10.2644 32.1286 10.2644C32.1286 10.2727 32.1286 10.281 32.1286 10.2895C32.1389 10.2895 32.1492 10.2895 32.1598 10.2895C32.1598 10.2978 32.1598 10.3061 32.1598 10.3147C32.1701 10.3147 32.1804 10.3147 32.191 10.3147C32.191 10.323 32.191 10.3313 32.191 10.3398C32.2013 10.3398 32.2116 10.3398 32.2222 10.3398C32.242 10.3552 32.242 10.3552 32.2661 10.3784C32.3047 10.4151 32.3436 10.4517 32.3832 10.4878C32.4017 10.5048 32.4202 10.5218 32.4387 10.5387C32.4524 10.5512 32.4524 10.5512 32.4663 10.5638C32.4748 10.5717 32.4834 10.5796 32.4922 10.5877C32.4999 10.5948 32.5076 10.6019 32.5156 10.6091C32.5343 10.6292 32.5343 10.6292 32.5499 10.6669C32.5602 10.6669 32.5705 10.6669 32.5811 10.6669C32.6046 10.6853 32.6046 10.6853 32.6298 10.7094C32.6382 10.7172 32.6466 10.7251 32.6553 10.7332C32.6747 10.755 32.6747 10.755 32.6747 10.7801C32.685 10.7801 32.6953 10.7801 32.7059 10.7801C32.7362 10.8067 32.7362 10.8067 32.7702 10.8414C32.7815 10.8528 32.7928 10.8642 32.8045 10.8759C32.8307 10.9059 32.8307 10.9059 32.8307 10.9311C32.841 10.9311 32.8513 10.9311 32.8619 10.9311C32.8854 10.9522 32.8854 10.9522 32.9107 10.9798C32.9191 10.9889 32.9275 10.9979 32.9361 11.0072C32.9555 11.0317 32.9555 11.0317 32.9555 11.0569C32.9658 11.0569 32.9761 11.0569 32.9867 11.0569C33.0081 11.0764 33.0081 11.0764 33.0326 11.1038C33.0417 11.1139 33.0507 11.1239 33.06 11.1342C33.0696 11.145 33.0792 11.1558 33.0891 11.1669C33.1088 11.1889 33.1285 11.2108 33.1483 11.2327C33.1628 11.2489 33.1628 11.2489 33.1776 11.2654C33.2247 11.3175 33.2736 11.3686 33.3225 11.4198C33.3456 11.4468 33.3456 11.4468 33.3456 11.472C33.3559 11.472 33.3662 11.472 33.3768 11.472C33.4392 11.5401 33.4392 11.5401 33.4392 11.5726C33.4495 11.5726 33.4598 11.5726 33.4704 11.5726C33.4807 11.5975 33.491 11.6224 33.5016 11.6481C33.5119 11.6481 33.5222 11.6481 33.5328 11.6481C33.5584 11.6762 33.582 11.7042 33.6053 11.7335C33.6124 11.7423 33.6195 11.751 33.6268 11.76C33.6495 11.7882 33.6721 11.8164 33.6947 11.8447C33.7098 11.8634 33.7249 11.8822 33.74 11.9009C33.7742 11.9434 33.8084 11.9858 33.8423 12.0284C33.8543 12.0431 33.8665 12.0577 33.8791 12.072C33.9228 12.1224 33.9228 12.1224 33.9228 12.1639C33.9331 12.1639 33.9434 12.1639 33.954 12.1639C33.9668 12.1826 33.9668 12.1826 33.9798 12.2017C34.0394 12.2885 34.1001 12.3741 34.1676 12.4571C34.2262 12.5294 34.2787 12.6032 34.3285 12.6796C34.3433 12.7018 34.3582 12.724 34.3731 12.7462C34.475 12.8992 34.5707 13.0544 34.6608 13.2121C34.6876 13.2587 34.7167 13.3024 34.7497 13.3463C34.7603 13.3694 34.7709 13.3925 34.7812 13.4156C34.7997 13.4535 34.8214 13.4897 34.8433 13.5264C34.9233 13.6613 34.9901 13.8009 35.0593 13.9396C35.0737 13.968 35.0883 13.9962 35.1033 14.0243C35.3972 14.5757 35.6083 15.1892 35.7383 15.7794C35.7482 15.8242 35.7593 15.8688 35.7707 15.9134C35.8531 16.2456 35.9132 16.5815 35.9511 16.9189C35.9524 16.9307 35.9537 16.9424 35.9551 16.9544C35.9594 16.9934 35.9636 17.0324 35.9677 17.0715C35.9695 17.0886 35.9695 17.0886 35.9714 17.1062C35.9992 17.3841 36.0004 17.6627 35.9999 17.9413C35.9998 17.9909 35.9999 18.0404 36 18.0899C36.0005 18.4059 35.992 18.7199 35.954 19.0347C35.9527 19.0462 35.9513 19.0577 35.9499 19.0696C35.9028 19.4676 35.8313 19.8613 35.7271 20.2522C35.7169 20.2909 35.7071 20.3296 35.6975 20.3684C35.6646 20.5 35.6287 20.6297 35.5823 20.7586C35.5664 20.8028 35.5516 20.8471 35.5373 20.8916C35.4716 21.0952 35.3941 21.2946 35.3123 21.4943C35.2977 21.5309 35.284 21.5676 35.2707 21.6045C35.2523 21.6547 35.2283 21.7015 35.2022 21.7495C35.1839 21.7899 35.1668 21.8307 35.1495 21.8714C35.0903 22.0094 35.0213 22.1416 34.9445 22.2739C34.9137 22.3293 34.8874 22.3859 34.8617 22.443C34.8433 22.4791 34.8433 22.4791 34.8206 22.509C34.795 22.5441 34.7791 22.5786 34.762 22.6168C34.7427 22.6576 34.718 22.6959 34.6932 22.7346C34.6511 22.8011 34.6106 22.868 34.5716 22.9357C34.5196 23.0257 34.4654 23.1125 34.4015 23.1975C34.3721 23.2384 34.3462 23.2803 34.3207 23.3227C34.279 23.3913 34.2324 23.455 34.1804 23.5188C34.1533 23.5528 34.131 23.5871 34.1101 23.6239C34.0998 23.6239 34.0895 23.6239 34.0789 23.6239C34.0772 23.6306 34.0756 23.6374 34.074 23.6443C34.0604 23.682 34.039 23.7149 34.0164 23.7497C34.0061 23.7497 33.9958 23.7497 33.9852 23.7497C33.9839 23.7564 33.9825 23.7631 33.981 23.77C33.9657 23.8103 33.94 23.8415 33.9121 23.877C33.9008 23.8915 33.8895 23.906 33.8782 23.9205C33.8697 23.9313 33.8697 23.9313 33.8611 23.9423C33.8295 23.9834 33.8 24.0255 33.7703 24.0675C33.764 24.0747 33.7577 24.0819 33.7512 24.0893C33.7409 24.0893 33.7306 24.0893 33.72 24.0893C33.7097 24.1142 33.6994 24.1391 33.6888 24.1648C33.6785 24.1648 33.6682 24.1648 33.6576 24.1648C33.6473 24.1897 33.637 24.2146 33.6264 24.2403C33.6161 24.2403 33.6058 24.2403 33.5952 24.2403C33.5915 24.2489 33.5878 24.2576 33.584 24.2665C33.5599 24.3106 33.5275 24.3483 33.4928 24.3873C33.447 24.4379 33.447 24.4379 33.408 24.4919C33.3977 24.4919 33.3874 24.4919 33.3768 24.4919C33.3723 24.5015 33.3678 24.5111 33.3631 24.5209C33.3456 24.5548 33.3456 24.5548 33.3144 24.5925C33.3041 24.5925 33.2938 24.5925 33.2832 24.5925C33.2799 24.6008 33.2767 24.6091 33.2734 24.6177C33.2443 24.6689 33.2055 24.7144 33.1583 24.756C33.148 24.756 33.1377 24.756 33.1271 24.756C33.1236 24.7646 33.1201 24.7732 33.1164 24.782C33.0911 24.8277 33.0596 24.8696 33.0179 24.907C33.0076 24.907 32.9973 24.907 32.9867 24.907C32.9829 24.9137 32.979 24.9205 32.975 24.9274C32.9507 24.9646 32.9238 24.9988 32.8931 25.0328C32.8828 25.0328 32.8725 25.0328 32.8619 25.0328C32.8577 25.04 32.8535 25.0472 32.8492 25.0546C32.8301 25.0841 32.8085 25.1098 32.7839 25.1366C32.7758 25.1454 32.7678 25.1543 32.7595 25.1635C32.7521 25.1702 32.7447 25.1769 32.7371 25.1837C32.7268 25.1837 32.7165 25.1837 32.7059 25.1837C32.7014 25.1913 32.6969 25.1988 32.6922 25.2065C32.6747 25.2341 32.6747 25.2341 32.6435 25.2718C32.6332 25.2718 32.6229 25.2718 32.6123 25.2718C32.6089 25.2785 32.6056 25.2852 32.6021 25.2921C32.5733 25.3331 32.5343 25.3652 32.4943 25.3992C32.4377 25.4449 32.4377 25.4449 32.3938 25.4982C32.3835 25.4982 32.3732 25.4982 32.3626 25.4982C32.3585 25.5055 32.3543 25.5128 32.35 25.5202C32.331 25.5492 32.3111 25.574 32.2846 25.5989C32.2743 25.5989 32.264 25.5989 32.2534 25.5989C32.2534 25.6072 32.2534 25.6155 32.2534 25.624C32.2431 25.624 32.2328 25.624 32.2222 25.624C32.2222 25.6323 32.2222 25.6406 32.2222 25.6492C32.2119 25.6492 32.2016 25.6492 32.191 25.6492C32.185 25.6601 32.185 25.6601 32.1789 25.6713C32.1579 25.7023 32.1347 25.723 32.1038 25.7479C32.0866 25.7619 32.0866 25.7619 32.0691 25.7762C32.0567 25.7861 32.0443 25.796 32.0316 25.8062C32.0189 25.8165 32.0062 25.8267 31.9931 25.8373C31.9663 25.859 31.9394 25.8806 31.9125 25.9022C31.8712 25.9353 31.8301 25.9686 31.789 26.0019C31.7629 26.0229 31.7368 26.0439 31.7108 26.0649C31.6984 26.0749 31.686 26.0849 31.6733 26.0953C31.6618 26.1044 31.6504 26.1136 31.6386 26.123C31.6285 26.1311 31.6184 26.1392 31.608 26.1476C31.5825 26.1649 31.5825 26.1649 31.5513 26.1649C31.5513 26.1732 31.5513 26.1815 31.5513 26.1901C31.541 26.1901 31.5307 26.1901 31.5201 26.1901C31.5201 26.1984 31.5201 26.2067 31.5201 26.2153C31.5098 26.2153 31.4995 26.2153 31.4889 26.2153C31.4889 26.2236 31.4889 26.2319 31.4889 26.2404C31.466 26.259 31.466 26.259 31.4343 26.2805C31.377 26.3197 31.3209 26.3597 31.2653 26.4004C31.2393 26.4165 31.2393 26.4165 31.2081 26.4165C31.2081 26.4248 31.2081 26.4331 31.2081 26.4417C31.1978 26.4417 31.1875 26.4417 31.1769 26.4417C31.1769 26.45 31.1769 26.4583 31.1769 26.4669C31.1417 26.4915 31.1065 26.5147 31.0696 26.5376C31.0595 26.5441 31.0493 26.5506 31.0389 26.5573C30.9625 26.6052 30.9625 26.6052 30.9273 26.6052C30.9273 26.6135 30.9273 26.6218 30.9273 26.6304C30.917 26.6304 30.9067 26.6304 30.8961 26.6304C30.8961 26.6387 30.8961 26.647 30.8961 26.6555C30.8703 26.6638 30.8446 26.6722 30.818 26.6807C30.818 26.689 30.818 26.6973 30.818 26.7059C30.7918 26.7248 30.7918 26.7248 30.7576 26.7452C30.7464 26.752 30.7351 26.7587 30.7236 26.7657C30.6932 26.7813 30.6932 26.7813 30.662 26.7813C30.662 26.7896 30.662 26.7979 30.662 26.8065C30.5776 26.8568 30.5776 26.8568 30.5372 26.8568C30.5372 26.8651 30.5372 26.8734 30.5372 26.882C30.4528 26.9323 30.4528 26.9323 30.4124 26.9323C30.4124 26.9406 30.4124 26.9489 30.4124 26.9575C30.3413 26.9905 30.2903 26.9999 30.2086 26.9998C30.1978 26.9999 30.187 26.9999 30.1759 27C30.1398 27.0001 30.1037 26.9999 30.0676 26.9997C30.0415 26.9997 30.0154 26.9998 29.9892 26.9998C29.9174 26.9999 29.8455 26.9998 29.7737 26.9996C29.6962 26.9994 29.6188 26.9995 29.5413 26.9995C29.4071 26.9995 29.2729 26.9994 29.1387 26.9992C28.9446 26.9989 28.7506 26.9988 28.5565 26.9987C28.2417 26.9986 27.9269 26.9984 27.612 26.998C27.3062 26.9977 27.0004 26.9974 26.6945 26.9973C26.6757 26.9973 26.6568 26.9972 26.6374 26.9972C26.5429 26.9972 26.4483 26.9971 26.3537 26.9971C25.5692 26.9967 24.7846 26.996 24 26.9952C24 26.9869 24 26.9786 24 26.97C24.0099 26.9668 24.0198 26.9636 24.03 26.9603C24.1375 26.9247 24.244 26.8872 24.3501 26.849C24.3635 26.8441 24.377 26.8393 24.3909 26.8343C24.4422 26.8157 24.4918 26.7976 24.5398 26.774C24.581 26.7544 24.6234 26.7422 24.6683 26.7292C24.7291 26.7099 24.786 26.6845 24.8435 26.6595C24.8628 26.6512 24.8628 26.6512 24.8825 26.6427C24.9087 26.6314 24.9349 26.6201 24.9611 26.6088C24.9953 26.594 25.0295 26.5793 25.0638 26.5647C25.267 26.4783 25.267 26.4783 25.4666 26.3867C25.5134 26.3662 25.5134 26.3662 25.5602 26.3662C25.5602 26.3579 25.5602 26.3496 25.5602 26.3411C25.5763 26.3342 25.5763 26.3342 25.5928 26.3272C25.6799 26.2896 25.7627 26.2504 25.843 26.204C25.8722 26.1901 25.8722 26.1901 25.919 26.1901C25.919 26.1818 25.919 26.1735 25.919 26.1649C25.9501 26.1485 25.9501 26.1485 25.9951 26.1288C26.097 26.0824 26.1934 26.0307 26.2899 25.9774C26.3467 25.9462 26.3992 25.9182 26.4651 25.9008C26.4651 25.8925 26.4651 25.8842 26.4651 25.8756C26.4948 25.8574 26.5256 25.8402 26.5568 25.8237C26.5738 25.8146 26.5908 25.8055 26.6083 25.7961C26.6523 25.775 26.6523 25.775 26.6835 25.775C26.6835 25.7667 26.6835 25.7584 26.6835 25.7498C26.768 25.6995 26.768 25.6995 26.8083 25.6995C26.8083 25.6912 26.8083 25.6829 26.8083 25.6743C26.8345 25.6573 26.8617 25.6412 26.8893 25.6256C26.935 25.5997 26.9796 25.574 27.0227 25.5453C27.058 25.5234 27.058 25.5234 27.0892 25.5234C27.0892 25.5151 27.0892 25.5068 27.0892 25.4982C27.1173 25.4777 27.1173 25.4777 27.1565 25.4534C27.233 25.4054 27.3075 25.3559 27.3817 25.3056C27.4168 25.2844 27.4168 25.2844 27.448 25.2844C27.448 25.2761 27.448 25.2678 27.448 25.2592C27.4583 25.2592 27.4686 25.2592 27.4792 25.2592C27.4792 25.2509 27.4792 25.2426 27.4792 25.2341C27.5061 25.2147 27.5339 25.1962 27.5621 25.1782C27.6222 25.1403 27.6222 25.1403 27.6779 25.0984C27.6977 25.0831 27.6977 25.0831 27.7289 25.0831C27.7289 25.0748 27.7289 25.0665 27.7289 25.0579C27.7392 25.0579 27.7495 25.0579 27.7601 25.0579C27.7601 25.0496 27.7601 25.0413 27.7601 25.0328C27.7704 25.0328 27.7807 25.0328 27.7913 25.0328C27.7913 25.0245 27.7913 25.0162 27.7913 25.0076C27.8016 25.0076 27.8119 25.0076 27.8225 25.0076C27.8225 24.9993 27.8225 24.991 27.8225 24.9825C27.8328 24.9825 27.8431 24.9825 27.8537 24.9825C27.8537 24.9742 27.8537 24.9659 27.8537 24.9573C27.8764 24.9393 27.8764 24.9393 27.9079 24.9182C27.9787 24.8696 28.0446 24.8178 28.1101 24.7647C28.1213 24.7557 28.1326 24.7467 28.1441 24.7374C28.1548 24.7288 28.1654 24.7202 28.1764 24.7114C28.186 24.7036 28.1955 24.6959 28.2054 24.6879C28.2296 24.6686 28.2296 24.6686 28.2437 24.6428C28.254 24.6428 28.2643 24.6428 28.2749 24.6428C28.2749 24.6345 28.2749 24.6262 28.2749 24.6177C28.2852 24.6177 28.2955 24.6177 28.3061 24.6177C28.3061 24.6094 28.3061 24.601 28.3061 24.5925C28.3164 24.5925 28.3267 24.5925 28.3373 24.5925C28.3373 24.5842 28.3373 24.5759 28.3373 24.5673C28.3476 24.5673 28.3579 24.5673 28.3685 24.5673C28.3685 24.559 28.3685 24.5507 28.3685 24.5422C28.3788 24.5422 28.3891 24.5422 28.3997 24.5422C28.4034 24.5352 28.4071 24.5282 28.4109 24.521C28.4358 24.4848 28.4671 24.4577 28.5021 24.4274C28.5501 24.3873 28.5501 24.3873 28.587 24.3409C28.5973 24.3409 28.6076 24.3409 28.6182 24.3409C28.6182 24.3326 28.6182 24.3243 28.6182 24.3157C28.6285 24.3157 28.6388 24.3157 28.6494 24.3157C28.6533 24.3087 28.6573 24.3016 28.6614 24.2943C28.6831 24.2616 28.7089 24.2352 28.7381 24.2065C28.7911 24.1541 28.8421 24.1009 28.8921 24.0468C28.8995 24.04 28.9069 24.0333 28.9146 24.0264C28.9249 24.0264 28.9352 24.0264 28.9458 24.0264C28.9497 24.0197 28.9535 24.0129 28.9575 24.006C28.9818 23.9688 29.0088 23.9346 29.0394 23.9006C29.0497 23.9006 29.06 23.9006 29.0706 23.9006C29.0774 23.8862 29.0774 23.8862 29.0843 23.8715C29.1018 23.8377 29.1018 23.8377 29.133 23.8C29.1433 23.8 29.1536 23.8 29.1642 23.8C29.171 23.7856 29.171 23.7856 29.1779 23.7709C29.1954 23.7371 29.1954 23.7371 29.2266 23.6993C29.2369 23.6993 29.2472 23.6993 29.2579 23.6993C29.2621 23.6901 29.2663 23.6808 29.2706 23.6713C29.2884 23.6377 29.3081 23.6115 29.3344 23.5819C29.3434 23.5717 29.3523 23.5615 29.3616 23.551C29.3711 23.5403 29.3806 23.5296 29.3905 23.5185C29.4102 23.496 29.4299 23.4735 29.4496 23.451C29.4643 23.4343 29.4643 23.4343 29.4792 23.4173C29.5196 23.371 29.5591 23.3242 29.5982 23.2771C29.6046 23.2694 29.6111 23.2617 29.6177 23.2538C29.644 23.2221 29.6641 23.1948 29.6791 23.1584C29.6894 23.1584 29.6997 23.1584 29.7103 23.1584C29.7136 23.1484 29.7168 23.1384 29.7202 23.1281C29.7485 23.0683 29.7898 23.0183 29.8332 22.965C29.8916 22.8928 29.9451 22.8213 29.9911 22.7433C30.0014 22.7433 30.0117 22.7433 30.0223 22.7433C30.0239 22.7367 30.0254 22.7302 30.027 22.7234C30.0416 22.6828 30.0649 22.6464 30.0887 22.6089C30.094 22.6003 30.0993 22.5918 30.1048 22.583C30.1661 22.4856 30.2288 22.3889 30.2916 22.2921C30.408 22.1139 30.408 22.1139 30.5072 21.9292C30.5205 21.9027 30.5354 21.8778 30.5518 21.8525C30.5871 21.7973 30.613 21.7397 30.64 21.6815C30.6591 21.6424 30.6794 21.6042 30.7009 21.5659C30.7634 21.4541 30.8144 21.3404 30.8631 21.2243C30.8796 21.1854 30.8964 21.1466 30.9133 21.1078C31.0062 20.8942 31.094 20.6809 31.1658 20.4619C31.1762 20.4308 31.187 20.3998 31.198 20.3688C31.2389 20.254 31.2737 20.1387 31.3058 20.0221C31.3213 19.9659 31.3373 19.9101 31.3573 19.8547C31.4835 19.494 31.5385 19.1053 31.5855 18.7336C31.5866 18.7248 31.5877 18.716 31.5889 18.7069C31.5924 18.677 31.5953 18.6471 31.5981 18.6172C31.5995 18.6038 31.6009 18.5905 31.6023 18.5768C31.618 18.4013 31.6161 18.2255 31.6158 18.0496C31.6157 18.0037 31.6157 17.9578 31.6158 17.912C31.6163 17.6597 31.6066 17.4111 31.5718 17.1603C31.5698 17.146 31.5698 17.1459 31.5678 17.1313C31.4874 16.554 31.3387 15.978 31.1301 15.422C31.1255 15.4097 31.1209 15.3974 31.1162 15.3847C31.0575 15.2271 30.9961 15.0703 30.9321 14.9141C30.9266 14.9004 30.921 14.8868 30.9153 14.8727C30.8822 14.7928 30.845 14.7152 30.8041 14.6377C30.7838 14.5985 30.7665 14.5588 30.7498 14.5186C30.7151 14.4389 30.673 14.3638 30.628 14.2878C30.5993 14.2394 30.5725 14.1904 30.546 14.1412C30.5415 14.1329 30.537 14.1246 30.5324 14.116C30.5135 14.0811 30.4946 14.0462 30.476 14.0111C30.3959 13.861 30.3057 13.7167 30.2096 13.5728C30.1802 13.5288 30.151 13.4848 30.1218 13.4407C30.115 13.4305 30.1081 13.4204 30.1011 13.4099C30.0949 13.4005 30.0886 13.3911 30.0822 13.3813C30.0767 13.373 30.0711 13.3647 30.0654 13.3562C30.0536 13.3338 30.0536 13.3338 30.0536 13.296C30.0433 13.296 30.033 13.296 30.0223 13.296C30.0066 13.2738 29.9911 13.2515 29.9755 13.2292C29.9625 13.2106 29.9625 13.2106 29.9492 13.1916C29.9287 13.1577 29.9287 13.1577 29.9287 13.1199C29.9184 13.1199 29.9081 13.1199 29.8975 13.1199C29.8819 13.0974 29.8663 13.0749 29.8507 13.0523C29.8377 13.0335 29.8377 13.0335 29.8244 13.0143C29.8039 12.9815 29.8039 12.9815 29.8039 12.9564C29.7936 12.9564 29.7833 12.9564 29.7727 12.9564C29.7676 12.9489 29.7625 12.9415 29.7573 12.9338C29.7278 12.8908 29.6984 12.848 29.6664 12.8062C29.6479 12.7803 29.6479 12.7803 29.6479 12.7551C29.6376 12.7551 29.6273 12.7551 29.6167 12.7551C29.6064 12.7302 29.5961 12.7053 29.5855 12.6796C29.5752 12.6796 29.5649 12.6796 29.5543 12.6796C29.544 12.6547 29.5337 12.6298 29.5231 12.6042C29.5128 12.6042 29.5025 12.6042 29.4919 12.6042C29.4711 12.5797 29.4711 12.5797 29.448 12.5468C29.4185 12.5056 29.3885 12.4662 29.3534 12.428C29.3203 12.3903 29.3203 12.3903 29.3203 12.3651C29.31 12.3651 29.2997 12.3651 29.2891 12.3651C29.266 12.3406 29.2447 12.3161 29.2237 12.2904C29.1717 12.228 29.1175 12.1681 29.0584 12.1099C29.0394 12.0884 29.0394 12.0884 29.0394 12.0632C29.0291 12.0632 29.0188 12.0632 29.0082 12.0632C28.9847 12.0421 28.9847 12.0421 28.9595 12.0145C28.9511 12.0054 28.9427 11.9964 28.934 11.9871C28.9146 11.9626 28.9146 11.9626 28.9146 11.9374C28.9043 11.9374 28.894 11.9374 28.8834 11.9374C28.862 11.918 28.862 11.918 28.8366 11.8903C28.783 11.8328 28.7264 11.7778 28.6681 11.7234C28.6182 11.676 28.6182 11.676 28.6182 11.6481C28.6079 11.6481 28.5976 11.6481 28.587 11.6481C28.587 11.6398 28.587 11.6315 28.587 11.6229C28.5767 11.6229 28.5664 11.6229 28.5558 11.6229C28.5324 11.6018 28.5102 11.5799 28.4885 11.5577C28.4512 11.5196 28.4148 11.4841 28.3718 11.4501C28.3373 11.4217 28.3373 11.4217 28.3373 11.3965C28.327 11.3965 28.3167 11.3965 28.3061 11.3965C28.3061 11.3882 28.3061 11.3799 28.3061 11.3714C28.2958 11.3714 28.2855 11.3714 28.2749 11.3714C28.2749 11.3631 28.2749 11.3547 28.2749 11.3462C28.2646 11.3462 28.2543 11.3462 28.2437 11.3462C28.2437 11.3379 28.2437 11.3296 28.2437 11.321C28.2334 11.321 28.2231 11.321 28.2125 11.321C28.2125 11.3127 28.2125 11.3044 28.2125 11.2959C28.2022 11.2959 28.1919 11.2959 28.1813 11.2959C28.1813 11.2876 28.1813 11.2793 28.1813 11.2707C28.171 11.2707 28.1607 11.2707 28.1501 11.2707C28.1501 11.2624 28.1501 11.2541 28.1501 11.2456C28.1398 11.2456 28.1295 11.2456 28.1189 11.2456C28.1189 11.2373 28.1189 11.229 28.1189 11.2204C28.1059 11.2161 28.1059 11.2161 28.0926 11.2118C28.0462 11.1905 28.0141 11.1642 27.9785 11.1323C27.9785 11.124 27.9785 11.1157 27.9785 11.1072C27.9579 11.0989 27.9373 11.0906 27.9161 11.082C27.9161 11.0737 27.9161 11.0654 27.9161 11.0569C27.9058 11.0569 27.8955 11.0569 27.8849 11.0569C27.8849 11.0486 27.8849 11.0403 27.8849 11.0317C27.8746 11.0317 27.8643 11.0317 27.8537 11.0317C27.8537 11.0234 27.8537 11.0151 27.8537 11.0065C27.8434 11.0065 27.8331 11.0065 27.8225 11.0065C27.8225 10.9982 27.8225 10.9899 27.8225 10.9814C27.8141 10.9787 27.8058 10.976 27.7972 10.9732C27.7464 10.95 27.7066 10.9185 27.6645 10.8863C27.6077 10.8407 27.6077 10.8407 27.5416 10.8053C27.5416 10.797 27.5416 10.7887 27.5416 10.7801C27.5313 10.7801 27.521 10.7801 27.5104 10.7801C27.5104 10.7718 27.5104 10.7635 27.5104 10.755C27.5001 10.755 27.4898 10.755 27.4792 10.755C27.4792 10.7467 27.4792 10.7383 27.4792 10.7298C27.4706 10.7267 27.462 10.7237 27.4531 10.7206C27.4089 10.7012 27.3735 10.6773 27.3349 10.6512C27.2721 10.609 27.2085 10.5689 27.1417 10.5309C27.1346 10.526 27.1276 10.521 27.1204 10.5159C27.1204 10.5076 27.1204 10.4993 27.1204 10.4908C27.1078 10.4861 27.1078 10.4861 27.095 10.4813C27.0489 10.4618 27.0065 10.44 26.9644 10.4153C26.9644 10.407 26.9644 10.3987 26.9644 10.3901C26.9525 10.3865 26.9406 10.3829 26.9283 10.3791C26.8864 10.365 26.8864 10.365 26.8396 10.3398C26.8396 10.3315 26.8396 10.3232 26.8396 10.3147C26.8276 10.311 26.8157 10.3074 26.8035 10.3037C26.7615 10.2895 26.7615 10.2895 26.7147 10.2644C26.7147 10.256 26.7147 10.2477 26.7147 10.2392C26.7028 10.2356 26.6909 10.2319 26.6787 10.2282C26.6367 10.214 26.6367 10.214 26.5899 10.1889C26.5899 10.1806 26.5899 10.1723 26.5899 10.1637C26.5785 10.1604 26.567 10.157 26.5552 10.1535C26.5125 10.1388 26.48 10.1221 26.4427 10.1C26.3759 10.0615 26.308 10.0249 26.2389 9.98917C26.2293 9.98423 26.2198 9.97928 26.21 9.97418C26.1592 9.94796 26.1592 9.94796 26.1063 9.9247C26.1063 9.9164 26.1063 9.9081 26.1063 9.89954C26.0971 9.89799 26.0879 9.89643 26.0784 9.89483C26.0224 9.88208 25.9763 9.85476 25.9278 9.82957C25.9052 9.81802 25.8826 9.80647 25.86 9.79493C25.8488 9.78918 25.8376 9.78344 25.8261 9.77752C25.6901 9.70773 25.5524 9.64223 25.4111 9.5797C25.3503 9.55273 25.2904 9.5252 25.2316 9.49542C25.1442 9.45241 25.0512 9.41924 24.9584 9.38466C24.8931 9.36025 24.8287 9.33451 24.7645 9.3083C24.6463 9.26024 24.5269 9.2146 24.4069 9.16955C24.3748 9.15748 24.3427 9.14536 24.3106 9.13322C24.2076 9.09426 24.1043 9.05584 24 9.01897C24 9.01482 24 9.01067 24 9.00639Z" fill="#8F53F0"/>
<path d="M5.76642 9.00022C5.77724 9.00016 5.78806 9.0001 5.79921 9.00004C5.83546 8.99991 5.87169 9.00013 5.90793 9.00036C5.93418 9.00033 5.96043 9.00029 5.98668 9.00023C6.0588 9.00011 6.13092 9.00031 6.20305 9.00057C6.28082 9.00078 6.3586 9.00071 6.43638 9.00067C6.57113 9.00065 6.70589 9.0008 6.84064 9.00109C7.03547 9.0015 7.2303 9.00163 7.42513 9.00169C7.74122 9.0018 8.05732 9.00214 8.37341 9.00261C8.68048 9.00307 8.98755 9.00343 9.29462 9.00364C9.31354 9.00366 9.33247 9.00367 9.35197 9.00368C9.44691 9.00375 9.54185 9.00381 9.6368 9.00388C10.4245 9.0044 11.2123 9.00528 12 9.00641C11.9594 9.03156 11.9232 9.05098 11.8755 9.06631C11.8637 9.07021 11.8518 9.07411 11.8395 9.07813C11.8269 9.08222 11.8143 9.08631 11.8013 9.09053C11.6933 9.12633 11.5883 9.16477 11.4844 9.20767C11.4099 9.23841 11.3346 9.26736 11.2586 9.29574C11.1343 9.34243 11.0136 9.39361 10.8933 9.44669C10.8707 9.45659 10.8707 9.45659 10.8477 9.46669C10.8199 9.47892 10.7921 9.49117 10.7644 9.50345C10.7175 9.52405 10.6705 9.54433 10.6234 9.56463C10.4693 9.63163 10.318 9.70148 10.1694 9.77612C10.1542 9.78374 10.1542 9.78374 10.1387 9.79152C10.0885 9.81696 10.0401 9.8433 9.99255 9.87189C9.94243 9.89956 9.94243 9.89956 9.89567 9.89956C9.89567 9.90786 9.89567 9.91616 9.89567 9.92472C9.86877 9.93874 9.84096 9.95164 9.81286 9.96403C9.71539 10.0085 9.62684 10.0595 9.53716 10.1134C9.45 10.1637 9.45 10.1637 9.41245 10.1637C9.41245 10.172 9.41245 10.1803 9.41245 10.1889C9.3281 10.2392 9.3281 10.2392 9.28775 10.2392C9.28775 10.2475 9.28775 10.2558 9.28775 10.2644C9.2034 10.3147 9.2034 10.3147 9.16305 10.3147C9.16305 10.323 9.16305 10.3313 9.16305 10.3398C9.0787 10.3902 9.0787 10.3902 9.03835 10.3902C9.03835 10.3985 9.03835 10.4068 9.03835 10.4153C9.01217 10.4343 9.01217 10.4343 8.97795 10.4546C8.96674 10.4614 8.95553 10.4682 8.94397 10.4752C8.91365 10.4908 8.91365 10.4908 8.88247 10.4908C8.88247 10.4991 8.88247 10.5074 8.88247 10.516C8.85629 10.5349 8.85629 10.5349 8.82207 10.5553C8.81086 10.562 8.79965 10.5688 8.7881 10.5758C8.75777 10.5914 8.75777 10.5914 8.7266 10.5914C8.7266 10.5997 8.7266 10.608 8.7266 10.6166C8.69957 10.6368 8.67145 10.6561 8.64282 10.6748C8.62726 10.6851 8.61171 10.6953 8.59569 10.7059C8.55513 10.7298 8.55513 10.7298 8.52396 10.7298C8.52396 10.7381 8.52396 10.7464 8.52396 10.755C8.51367 10.755 8.50338 10.755 8.49278 10.755C8.49278 10.7633 8.49278 10.7716 8.49278 10.7801C8.4825 10.7801 8.47221 10.7801 8.46161 10.7801C8.46161 10.7884 8.46161 10.7967 8.46161 10.8053C8.43544 10.8241 8.40831 10.8421 8.38075 10.8595C8.33353 10.8896 8.2896 10.919 8.24746 10.9536C8.21221 10.9814 8.21221 10.9814 8.18103 10.9814C8.18103 10.9897 8.18103 10.998 8.18103 11.0066C8.17074 11.0066 8.16046 11.0066 8.14986 11.0066C8.14986 11.0149 8.14986 11.0232 8.14986 11.0317C8.13957 11.0317 8.12928 11.0317 8.11868 11.0317C8.11868 11.04 8.11868 11.0483 8.11868 11.0569C8.10839 11.0569 8.09811 11.0569 8.08751 11.0569C8.08751 11.0652 8.08751 11.0735 8.08751 11.082C8.07722 11.082 8.06693 11.082 8.05633 11.082C8.05633 11.0903 8.05633 11.0986 8.05633 11.1072C8.04604 11.1072 8.03576 11.1072 8.02516 11.1072C8.02516 11.1155 8.02516 11.1238 8.02516 11.1324C8.01487 11.1324 8.00458 11.1324 7.99398 11.1324C7.99398 11.1407 7.99398 11.149 7.99398 11.1575C7.98369 11.1575 7.9734 11.1575 7.96281 11.1575C7.96281 11.1658 7.96281 11.1741 7.96281 11.1827C7.95252 11.1827 7.94223 11.1827 7.93163 11.1827C7.93163 11.191 7.93163 11.1993 7.93163 11.2078C7.9102 11.2283 7.9102 11.2283 7.88487 11.2456C7.87458 11.2456 7.86429 11.2456 7.85369 11.2456C7.85369 11.2539 7.85369 11.2622 7.85369 11.2707C7.8434 11.2707 7.83312 11.2707 7.82252 11.2707C7.82252 11.279 7.82252 11.2873 7.82252 11.2959C7.81223 11.2959 7.80194 11.2959 7.79134 11.2959C7.79134 11.3042 7.79134 11.3125 7.79134 11.321C7.78105 11.321 7.77077 11.321 7.76017 11.321C7.76017 11.3294 7.76017 11.3377 7.76017 11.3462C7.74988 11.3462 7.73959 11.3462 7.72899 11.3462C7.72899 11.3545 7.72899 11.3628 7.72899 11.3714C7.7187 11.3714 7.70842 11.3714 7.69782 11.3714C7.69782 11.3797 7.69782 11.388 7.69782 11.3965C7.68753 11.3965 7.67724 11.3965 7.66664 11.3965C7.66328 11.4032 7.65993 11.41 7.65647 11.4169C7.62774 11.4579 7.5887 11.49 7.54876 11.5239C7.49227 11.5697 7.49227 11.5697 7.44841 11.623C7.43813 11.623 7.42784 11.623 7.41724 11.623C7.41724 11.6313 7.41724 11.6396 7.41724 11.6481C7.40695 11.6481 7.39666 11.6481 7.38606 11.6481C7.38188 11.6553 7.3777 11.6625 7.3734 11.6699C7.35424 11.6994 7.33267 11.7252 7.30813 11.7519C7.30009 11.7608 7.29205 11.7697 7.28377 11.7788C7.27268 11.7889 7.27268 11.7889 7.26136 11.7991C7.25107 11.7991 7.24079 11.7991 7.23019 11.7991C7.22488 11.8088 7.22488 11.8088 7.21947 11.8187C7.1915 11.8607 7.16005 11.9016 7.12107 11.9374C7.11079 11.9374 7.1005 11.9374 7.0899 11.9374C7.08411 11.9476 7.08411 11.9476 7.07821 11.9579C7.05395 11.9951 7.02701 12.0292 6.99637 12.0632C6.98608 12.0632 6.9758 12.0632 6.9652 12.0632C6.96144 12.0722 6.95768 12.0812 6.95381 12.0905C6.93119 12.1312 6.90285 12.1592 6.8668 12.193C6.82283 12.2351 6.7828 12.2761 6.74794 12.3235C6.73734 12.3372 6.72673 12.351 6.7158 12.3652C6.70551 12.3652 6.69522 12.3652 6.68462 12.3652C6.68076 12.374 6.6769 12.3828 6.67293 12.3919C6.65077 12.433 6.62426 12.4676 6.59109 12.5035C6.58081 12.5035 6.57052 12.5035 6.55992 12.5035C6.54963 12.5284 6.53934 12.5533 6.52874 12.579C6.51846 12.579 6.50817 12.579 6.49757 12.579C6.49226 12.5946 6.49226 12.5946 6.48685 12.6105C6.46251 12.6629 6.43166 12.7111 6.38845 12.7551C6.37817 12.7551 6.36788 12.7551 6.35728 12.7551C6.35352 12.7658 6.34976 12.7765 6.34589 12.7875C6.32404 12.8351 6.2938 12.8745 6.25888 12.9163C6.20463 12.9826 6.1538 13.0495 6.10788 13.1199C6.09759 13.1199 6.0873 13.1199 6.0767 13.1199C6.07495 13.1269 6.07321 13.1338 6.07141 13.141C6.05934 13.1753 6.04135 13.2046 6.02117 13.2363C6.01408 13.2475 6.00699 13.2587 5.99968 13.2703C5.99423 13.2788 5.98879 13.2873 5.98318 13.296C5.97289 13.296 5.9626 13.296 5.952 13.296C5.95057 13.3026 5.94915 13.3092 5.94768 13.3159C5.93239 13.3572 5.90666 13.393 5.88088 13.4305C5.82783 13.5091 5.77935 13.5888 5.73274 13.67C5.70025 13.7265 5.66649 13.7823 5.63148 13.8378C5.58776 13.9077 5.54807 13.9785 5.50973 14.0504C5.47898 14.108 5.44661 14.1648 5.41325 14.2214C5.33383 14.3572 5.2686 14.4966 5.20702 14.6382C5.18989 14.6761 5.1711 14.7128 5.15119 14.7498C4.72756 15.5605 4.49641 16.4993 4.40883 17.3718C4.40742 17.3853 4.40601 17.3988 4.40456 17.4127C4.33712 18.0777 4.39132 18.7409 4.54053 19.3965C4.55035 19.4404 4.55929 19.4844 4.56801 19.5284C4.60258 19.7028 4.6486 19.8752 4.7031 20.0463C4.71633 20.0878 4.72899 20.1294 4.74146 20.1711C4.79052 20.3341 4.84626 20.4945 4.90845 20.6545C4.92429 20.6956 4.93974 20.7368 4.95512 20.7779C5.02375 20.9623 5.02375 20.9623 5.10619 21.1429C5.12668 21.1851 5.14489 21.2278 5.16297 21.2708C5.22461 21.417 5.29796 21.558 5.37526 21.6992C5.38992 21.7262 5.40454 21.7532 5.41916 21.7803C5.42814 21.7968 5.43714 21.8134 5.44617 21.83C5.47486 21.8826 5.50261 21.9355 5.53016 21.9885C5.578 22.0789 5.63219 22.1662 5.68745 22.2537C5.71014 22.2899 5.7321 22.3264 5.75423 22.3628C5.80842 22.4507 5.86758 22.5364 5.92776 22.6217C5.93852 22.6372 5.93852 22.6372 5.94951 22.653C5.95599 22.6623 5.96248 22.6715 5.96917 22.681C5.98318 22.7056 5.98318 22.7056 5.98318 22.7433C5.99346 22.7433 6.00375 22.7433 6.01435 22.7433C6.01893 22.7504 6.02351 22.7574 6.02823 22.7647C6.17689 22.9895 6.34623 23.2062 6.52431 23.4164C6.53289 23.4266 6.54146 23.4368 6.5503 23.4472C6.55812 23.4564 6.56594 23.4655 6.57399 23.475C6.59109 23.4981 6.59109 23.4981 6.59109 23.5232C6.60138 23.5232 6.61167 23.5232 6.62227 23.5232C6.64487 23.5472 6.6661 23.572 6.68657 23.5971C6.69786 23.6109 6.70915 23.6246 6.72079 23.6387C6.74697 23.6742 6.74697 23.6742 6.74697 23.6994C6.75726 23.6994 6.76755 23.6994 6.77815 23.6994C6.8405 23.7674 6.8405 23.7674 6.8405 23.8C6.85078 23.8 6.86107 23.8 6.87167 23.8C6.93402 23.8681 6.93402 23.8681 6.93402 23.9006C6.94431 23.9006 6.9546 23.9006 6.9652 23.9006C6.9887 23.9218 6.9887 23.9218 7.01391 23.9494C7.02651 23.9629 7.02651 23.9629 7.03936 23.9768C7.05872 24.0013 7.05872 24.0013 7.05872 24.0264C7.06901 24.0264 7.0793 24.0264 7.0899 24.0264C7.11133 24.0459 7.11133 24.0459 7.13666 24.0736C7.19023 24.1311 7.24673 24.186 7.30499 24.2404C7.35489 24.2879 7.35489 24.2879 7.35489 24.3158C7.36518 24.3158 7.37546 24.3158 7.38606 24.3158C7.38606 24.3241 7.38606 24.3324 7.38606 24.3409C7.39635 24.3409 7.40664 24.3409 7.41724 24.3409C7.44122 24.3625 7.46412 24.385 7.48641 24.4077C7.5334 24.4562 7.5334 24.4562 7.58535 24.5011C7.60429 24.517 7.60429 24.517 7.60429 24.5422C7.61458 24.5422 7.62487 24.5422 7.63547 24.5422C7.63547 24.5505 7.63547 24.5588 7.63547 24.5673C7.64575 24.5673 7.65604 24.5673 7.66664 24.5673C7.66664 24.5756 7.66664 24.584 7.66664 24.5925C7.67693 24.5925 7.68722 24.5925 7.69782 24.5925C7.69782 24.6008 7.69782 24.6091 7.69782 24.6177C7.7081 24.6177 7.71839 24.6177 7.72899 24.6177C7.72899 24.626 7.72899 24.6343 7.72899 24.6428C7.73928 24.6428 7.74957 24.6428 7.76017 24.6428C7.78252 24.6611 7.78252 24.6611 7.80857 24.6865C7.8688 24.7436 7.93297 24.7967 7.99885 24.8496C8.00999 24.8586 8.02114 24.8677 8.03261 24.877C8.04327 24.8856 8.05393 24.8942 8.06492 24.903C8.07451 24.9107 8.0841 24.9185 8.09398 24.9264C8.11796 24.9459 8.11796 24.9459 8.14986 24.9573C8.14986 24.9656 8.14986 24.9739 8.14986 24.9825C8.16014 24.9825 8.17043 24.9825 8.18103 24.9825C8.18103 24.9908 8.18103 24.9991 8.18103 25.0076C8.19132 25.0076 8.20161 25.0076 8.21221 25.0076C8.21221 25.0159 8.21221 25.0242 8.21221 25.0328C8.2225 25.0328 8.23278 25.0328 8.24338 25.0328C8.24338 25.0411 8.24338 25.0494 8.24338 25.058C8.25367 25.058 8.26396 25.058 8.27456 25.058C8.27456 25.0663 8.27456 25.0746 8.27456 25.0831C8.28752 25.0876 8.28752 25.0876 8.30074 25.0921C8.34571 25.1122 8.37918 25.1374 8.41679 25.1657C8.46652 25.2043 8.46652 25.2043 8.52396 25.2341C8.52396 25.2424 8.52396 25.2507 8.52396 25.2592C8.53425 25.2592 8.54454 25.2592 8.55513 25.2592C8.55513 25.2675 8.55513 25.2758 8.55513 25.2844C8.5639 25.2876 8.57266 25.2909 8.58168 25.2942C8.62165 25.3113 8.65571 25.3313 8.69153 25.3536C8.71021 25.3651 8.71021 25.3651 8.72928 25.3768C8.73868 25.3836 8.74809 25.3905 8.75777 25.3976C8.75777 25.4059 8.75777 25.4142 8.75777 25.4228C8.77465 25.4274 8.77465 25.4274 8.79187 25.4322C8.84002 25.4495 8.87484 25.4696 8.91365 25.4982C8.91365 25.5065 8.91365 25.5148 8.91365 25.5234C8.9302 25.5278 8.9302 25.5278 8.94708 25.5324C8.99944 25.5514 9.03654 25.576 9.08024 25.6059C9.13403 25.6441 9.13403 25.6441 9.19423 25.6743C9.19423 25.6827 9.19423 25.691 9.19423 25.6995C9.20612 25.7031 9.21802 25.7068 9.23027 25.7105C9.27217 25.7247 9.27217 25.7247 9.31893 25.7498C9.31893 25.7581 9.31893 25.7664 9.31893 25.775C9.33532 25.7797 9.33532 25.7797 9.35205 25.7844C9.40303 25.8023 9.44583 25.8237 9.49039 25.8505C9.49039 25.8588 9.49039 25.8671 9.49039 25.8756C9.5011 25.8787 9.51181 25.8817 9.52284 25.8848C9.57674 25.9037 9.62399 25.9284 9.67263 25.9546C9.68241 25.9598 9.69218 25.9651 9.70226 25.9704C9.73332 25.987 9.76433 26.0036 9.79533 26.0203C9.82639 26.0369 9.85746 26.0536 9.88856 26.0702C9.90786 26.0805 9.92714 26.0908 9.94639 26.1011C9.99066 26.1248 10.0344 26.147 10.0827 26.165C10.0827 26.1733 10.0827 26.1816 10.0827 26.1901C10.091 26.1912 10.0992 26.1923 10.1077 26.1934C10.159 26.2062 10.1991 26.2282 10.2444 26.2514C10.3087 26.2844 10.3726 26.3145 10.4412 26.3411C10.4412 26.3494 10.4412 26.3577 10.4412 26.3662C10.4497 26.3675 10.4582 26.3689 10.4669 26.3702C10.5124 26.3809 10.5497 26.3974 10.5913 26.4158C10.6093 26.4237 10.6273 26.4316 10.6458 26.4398C10.6879 26.4585 10.7297 26.4776 10.7715 26.4967C10.9071 26.5585 11.0436 26.6162 11.1851 26.6687C11.246 26.6914 11.3035 26.7154 11.3609 26.7436C11.3896 26.752 11.4182 26.7604 11.4469 26.7687C11.5057 26.7879 11.5615 26.8114 11.618 26.8346C11.7424 26.8854 11.8668 26.936 12 26.97C12 26.9783 12 26.9867 12 26.9952C11.1974 26.9961 10.3947 26.9967 9.59206 26.9971C9.49736 26.9972 9.40265 26.9972 9.30794 26.9973C9.28908 26.9973 9.27023 26.9973 9.2508 26.9973C8.9453 26.9975 8.63979 26.9978 8.33428 26.9981C8.02093 26.9985 7.70757 26.9987 7.39421 26.9988C7.20078 26.9988 7.00734 26.999 6.8139 26.9993C6.68135 26.9995 6.54879 26.9995 6.41624 26.9995C6.3397 26.9995 6.26317 26.9995 6.18663 26.9997C6.11659 26.9999 6.04656 26.9999 5.97652 26.9998C5.95115 26.9998 5.92579 26.9998 5.90042 26.9999C5.86598 27.0001 5.83155 27 5.79711 26.9998C5.7684 26.9999 5.7684 26.9999 5.73911 26.9999C5.68154 26.9947 5.64334 26.9807 5.59349 26.9575C5.59349 26.9492 5.59349 26.9409 5.59349 26.9323C5.58159 26.9287 5.5697 26.925 5.55744 26.9213C5.51555 26.9071 5.51555 26.9071 5.46879 26.882C5.46879 26.8737 5.46879 26.8654 5.46879 26.8568C5.45689 26.8532 5.44499 26.8496 5.43274 26.8458C5.39085 26.8317 5.39085 26.8317 5.34408 26.8065C5.34408 26.7982 5.34408 26.7899 5.34408 26.7814C5.33283 26.7782 5.32158 26.7751 5.30999 26.7719C5.26184 26.7547 5.22702 26.7345 5.18821 26.7059C5.18821 26.6976 5.18821 26.6893 5.18821 26.6807C5.1769 26.6777 5.16558 26.6746 5.15393 26.6715C5.10464 26.6535 5.07439 26.6321 5.03525 26.6021C4.97666 26.5581 4.91724 26.5187 4.85149 26.4819C4.8443 26.4769 4.8371 26.472 4.82969 26.4669C4.82969 26.4586 4.82969 26.4503 4.82969 26.4417C4.81941 26.4417 4.80912 26.4417 4.79852 26.4417C4.79852 26.4334 4.79852 26.4251 4.79852 26.4165C4.78988 26.4136 4.78124 26.4106 4.77234 26.4076C4.72737 26.3875 4.6939 26.3622 4.65628 26.334C4.60655 26.2953 4.60655 26.2953 4.54912 26.2656C4.54912 26.2573 4.54912 26.249 4.54912 26.2404C4.53883 26.2404 4.52854 26.2404 4.51794 26.2404C4.51794 26.2321 4.51794 26.2238 4.51794 26.2153C4.50765 26.2153 4.49736 26.2153 4.48676 26.2153C4.48676 26.207 4.48676 26.1987 4.48676 26.1901C4.47648 26.1901 4.46619 26.1901 4.45559 26.1901C4.45559 26.1818 4.45559 26.1735 4.45559 26.165C4.44201 26.1601 4.44201 26.1601 4.42817 26.1552C4.38978 26.1383 4.36416 26.1195 4.33322 26.0946C4.32168 26.0854 4.31013 26.0761 4.29824 26.0666C4.28595 26.0567 4.27365 26.0467 4.26099 26.0364C4.24827 26.0262 4.23556 26.0159 4.22246 26.0054C4.19565 25.9838 4.16887 25.9621 4.14212 25.9404C4.10102 25.9071 4.05975 25.8739 4.01847 25.8408C3.99246 25.8198 3.96646 25.7988 3.94047 25.7777C3.92184 25.7628 3.92184 25.7628 3.90283 25.7475C3.88581 25.7337 3.88581 25.7337 3.86845 25.7195C3.85839 25.7114 3.84834 25.7033 3.83797 25.6949C3.8165 25.6743 3.8165 25.6743 3.8165 25.6492C3.80621 25.6492 3.79592 25.6492 3.78532 25.6492C3.78532 25.6409 3.78532 25.6326 3.78532 25.624C3.77503 25.624 3.76475 25.624 3.75415 25.624C3.75415 25.6157 3.75415 25.6074 3.75415 25.5989C3.74386 25.5989 3.73357 25.5989 3.72297 25.5989C3.72297 25.5906 3.72297 25.5823 3.72297 25.5737C3.71268 25.5737 3.7024 25.5737 3.6918 25.5737C3.67041 25.5544 3.65015 25.5343 3.63042 25.514C3.56365 25.4465 3.49321 25.383 3.42023 25.3199C3.30211 25.2155 3.30211 25.2155 3.30211 25.1837C3.29182 25.1837 3.28153 25.1837 3.27093 25.1837C3.24061 25.1571 3.24061 25.1571 3.20663 25.1224C3.19534 25.111 3.18405 25.0997 3.17241 25.0879C3.14623 25.058 3.14623 25.058 3.14623 25.0328C3.13594 25.0328 3.12565 25.0328 3.11505 25.0328C3.09155 25.0117 3.09155 25.0117 3.06634 24.984C3.05374 24.9705 3.05374 24.9705 3.04089 24.9566C3.02153 24.9322 3.02153 24.9322 3.02153 24.907C3.01124 24.907 3.00095 24.907 2.99035 24.907C2.96496 24.882 2.96496 24.882 2.93482 24.8472C2.89926 24.8066 2.86368 24.7662 2.82626 24.7267C2.81983 24.7199 2.8134 24.7131 2.80678 24.7061C2.78844 24.6868 2.77005 24.6676 2.75167 24.6483C2.72536 24.6177 2.72536 24.6177 2.72536 24.5925C2.71508 24.5925 2.70479 24.5925 2.69419 24.5925C2.63184 24.5244 2.63184 24.5244 2.63184 24.4919C2.62155 24.4919 2.61126 24.4919 2.60066 24.4919C2.57649 24.4647 2.57649 24.4647 2.54903 24.4282C2.51615 24.3851 2.4831 24.343 2.44576 24.3024C2.41361 24.2654 2.41361 24.2654 2.41361 24.2403C2.40332 24.2403 2.39304 24.2403 2.38244 24.2403C2.367 24.2029 2.367 24.2029 2.35126 24.1648C2.34097 24.1648 2.33069 24.1648 2.32009 24.1648C2.30465 24.1274 2.30465 24.1274 2.28891 24.0893C2.27862 24.0893 2.26833 24.0893 2.25774 24.0893C2.23916 24.068 2.23916 24.068 2.21779 24.0374C2.18868 23.9967 2.15894 23.9566 2.12688 23.9173C2.1205 23.9094 2.11411 23.9016 2.10753 23.8935C2.09478 23.878 2.08196 23.8625 2.06907 23.847C2.02392 23.7916 2.02392 23.7916 2.02392 23.7497C2.01363 23.7497 2.00334 23.7497 1.99275 23.7497C1.93039 23.6663 1.93039 23.6663 1.93039 23.6239C1.92011 23.6239 1.90982 23.6239 1.89922 23.6239C1.89391 23.6159 1.88861 23.608 1.88314 23.5998C1.83789 23.5324 1.7917 23.4655 1.74432 23.399C1.68486 23.3155 1.62797 23.2309 1.57188 23.1459C1.56087 23.1294 1.54984 23.1129 1.53882 23.0965C1.46236 22.9818 1.39131 22.8656 1.32315 22.7476C1.29737 22.703 1.27035 22.659 1.24248 22.6152C1.22857 22.5917 1.21731 22.5681 1.20654 22.5436C1.18934 22.5049 1.1686 22.4692 1.14517 22.4327C1.10594 22.371 1.07575 22.3075 1.04561 22.2425C1.0287 22.2074 1.01027 22.1736 0.990266 22.1395C0.951014 22.0712 0.917397 22.0014 0.884076 21.9311C0.878825 21.9201 0.873574 21.9091 0.868165 21.8978C0.838369 21.8344 0.81204 21.7709 0.789583 21.7055C0.77667 21.6718 0.77667 21.6718 0.754401 21.6317C0.731119 21.5878 0.711894 21.5441 0.693675 21.4987C0.688807 21.4866 0.688806 21.4866 0.683839 21.4742C0.677016 21.4572 0.670219 21.4401 0.663448 21.4231C0.65334 21.3977 0.643115 21.3723 0.632878 21.3469C0.593309 21.2482 0.557845 21.149 0.525397 21.0486C0.509712 21.0006 0.492087 20.9533 0.473926 20.9059C0.434687 20.8007 0.404819 20.6942 0.375529 20.587C0.363237 20.5421 0.350336 20.4974 0.33656 20.4527C0.280194 20.27 0.239036 20.0859 0.200169 19.9003C0.196871 19.8849 0.193573 19.8695 0.190175 19.8536C0.14978 19.6645 0.115168 19.4754 0.0881327 19.2847C0.0869056 19.2761 0.0856785 19.2675 0.0844142 19.2587C0.0442873 18.9753 0.0209611 18.6916 0.00922034 18.4065C0.00887589 18.3982 0.00853108 18.3899 0.00817619 18.3814C-0.0151857 17.8131 0.0112356 17.245 0.0910554 16.68C0.0929792 16.6663 0.0929792 16.6663 0.0949418 16.6523C0.124081 16.4465 0.164643 16.2431 0.21326 16.0397C0.233167 15.9564 0.250025 15.8727 0.266051 15.7888C0.277691 15.7339 0.295059 15.6804 0.312144 15.6265C0.325144 15.5846 0.337164 15.5427 0.348921 15.5006C0.406231 15.2962 0.47173 15.095 0.54506 14.8939C0.560352 14.8513 0.574647 14.8085 0.58876 14.7657C0.633024 14.6318 0.69025 14.5019 0.74773 14.3714C0.764382 14.3331 0.780002 14.2946 0.795421 14.256C0.820277 14.1951 0.850429 14.1365 0.881701 14.0775C0.902605 14.0363 0.920724 13.9947 0.938632 13.9525C0.969388 13.8818 1.00581 13.8143 1.04602 13.7469C1.08785 13.6763 1.12471 13.6043 1.16041 13.5316C1.18422 13.4836 1.21086 13.4407 1.24454 13.3967C1.25386 13.379 1.26262 13.3612 1.27084 13.3432C1.34171 13.1966 1.42972 13.0557 1.52512 12.9187C1.55377 12.8768 1.5823 12.8348 1.61085 12.7929C1.63212 12.7617 1.6534 12.7305 1.67467 12.6993C1.68965 12.6773 1.70455 12.6552 1.71937 12.6331C1.77309 12.553 1.82891 12.4741 1.88655 12.3958C1.89543 12.3838 1.90431 12.3717 1.91346 12.3593C1.93149 12.3348 1.94954 12.3104 1.96761 12.2859C1.98303 12.2651 1.99842 12.2442 2.01374 12.2233C2.10701 12.0961 2.20635 11.9722 2.30736 11.8489C2.32166 11.8314 2.33594 11.814 2.35018 11.7964C2.37026 11.7718 2.39048 11.7472 2.41075 11.7227C2.41686 11.7152 2.42298 11.7076 2.42928 11.6999C2.44403 11.6822 2.45989 11.6651 2.47596 11.6481C2.48625 11.6481 2.49654 11.6481 2.50714 11.6481C2.52257 11.6108 2.52257 11.6108 2.53831 11.5726C2.5486 11.5726 2.55889 11.5726 2.56949 11.5726C2.57399 11.563 2.57849 11.5534 2.58313 11.5436C2.60066 11.5097 2.60066 11.5097 2.63184 11.472C2.64213 11.472 2.65241 11.472 2.66301 11.472C2.66703 11.463 2.67105 11.454 2.67519 11.4447C2.69534 11.4069 2.71956 11.376 2.74875 11.3423C2.75823 11.3312 2.76771 11.3201 2.77748 11.3086C2.786 11.3003 2.79452 11.2919 2.8033 11.2833C2.81359 11.2833 2.82388 11.2833 2.83448 11.2833C2.83898 11.2737 2.84348 11.2641 2.84812 11.2542C2.86565 11.2204 2.86565 11.2204 2.89683 11.1827C2.90712 11.1827 2.9174 11.1827 2.928 11.1827C2.93379 11.1726 2.93379 11.1726 2.93969 11.1622C2.96396 11.125 2.99089 11.0909 3.02153 11.0569C3.03182 11.0569 3.0421 11.0569 3.0527 11.0569C3.05656 11.0478 3.06042 11.0387 3.06439 11.0294C3.08579 10.9905 3.11074 10.9624 3.14623 10.9311C3.15652 10.9311 3.16681 10.9311 3.1774 10.9311C3.18158 10.9239 3.18576 10.9167 3.19007 10.9093C3.20922 10.8798 3.2308 10.854 3.25534 10.8273C3.26338 10.8184 3.27142 10.8095 3.2797 10.8004C3.28709 10.7937 3.29449 10.787 3.30211 10.7801C3.31239 10.7801 3.32268 10.7801 3.33328 10.7801C3.33714 10.7731 3.341 10.7661 3.34497 10.7589C3.36803 10.7245 3.39461 10.6961 3.42681 10.6669C3.43709 10.6669 3.44738 10.6669 3.45798 10.6669C3.4618 10.6598 3.46562 10.6527 3.46955 10.6454C3.49269 10.6114 3.52064 10.5867 3.55346 10.5584C3.6158 10.5038 3.67302 10.4472 3.72876 10.3881C3.73714 10.3805 3.74551 10.3729 3.75415 10.365C3.76443 10.365 3.77472 10.365 3.78532 10.365C3.78532 10.3567 3.78532 10.3484 3.78532 10.3398C3.79561 10.3398 3.8059 10.3398 3.8165 10.3398C3.8165 10.3315 3.8165 10.3232 3.8165 10.3147C3.82679 10.3147 3.83707 10.3147 3.84767 10.3147C3.84767 10.3064 3.84767 10.2981 3.84767 10.2895C3.85796 10.2895 3.86825 10.2895 3.87885 10.2895C3.87885 10.2812 3.87885 10.2729 3.87885 10.2644C3.88914 10.2644 3.89942 10.2644 3.91002 10.2644C3.91002 10.2561 3.91002 10.2478 3.91002 10.2392C3.92031 10.2392 3.9306 10.2392 3.9412 10.2392C3.94468 10.2323 3.94817 10.2254 3.95176 10.2183C3.97856 10.1801 4.0144 10.1514 4.05275 10.1207C4.06059 10.1143 4.06843 10.108 4.0765 10.1014C4.09303 10.0881 4.10959 10.0748 4.12619 10.0615C4.15165 10.0411 4.17695 10.0205 4.20223 9.99995C4.21832 9.98698 4.23441 9.97403 4.25051 9.96108C4.2581 9.95491 4.26568 9.94874 4.2735 9.94238C4.3273 9.89956 4.3273 9.89956 4.36206 9.89956C4.36206 9.89125 4.36206 9.88295 4.36206 9.8744C4.37235 9.8744 4.38264 9.8744 4.39324 9.8744C4.39324 9.8661 4.39324 9.85779 4.39324 9.84924C4.40353 9.84924 4.41382 9.84924 4.42441 9.84924C4.42441 9.84094 4.42441 9.83263 4.42441 9.82408C4.4347 9.82408 4.44499 9.82408 4.45559 9.82408C4.45559 9.81578 4.45559 9.80747 4.45559 9.79892C4.46588 9.79892 4.47617 9.79892 4.48676 9.79892C4.48676 9.79062 4.48676 9.78232 4.48676 9.77376C4.50966 9.75514 4.50966 9.75514 4.54132 9.73366C4.59859 9.69452 4.65462 9.65449 4.71023 9.61381C4.73617 9.59765 4.73617 9.59765 4.76734 9.59765C4.76734 9.58934 4.76734 9.58104 4.76734 9.57249C4.77763 9.57249 4.78792 9.57249 4.79852 9.57249C4.79852 9.56419 4.79852 9.55588 4.79852 9.54733C4.83207 9.52435 4.86576 9.50268 4.90081 9.48129C4.9209 9.46884 4.94097 9.45637 4.96103 9.44389C4.97069 9.43789 4.98035 9.43189 4.9903 9.4257C5.02217 9.40552 5.05271 9.38429 5.08299 9.36257C5.12586 9.33348 5.12586 9.33348 5.15703 9.33348C5.15703 9.32517 5.15703 9.31687 5.15703 9.30832C5.18322 9.28935 5.18322 9.28935 5.21743 9.26901C5.23425 9.25884 5.23425 9.25884 5.25141 9.24847C5.28173 9.23284 5.28173 9.23284 5.31291 9.23284C5.31291 9.22454 5.31291 9.21623 5.31291 9.20768C5.34811 9.18506 5.38325 9.16397 5.42007 9.14321C5.43022 9.13732 5.44037 9.13144 5.45082 9.12537C5.52702 9.08188 5.52702 9.08188 5.56231 9.08188C5.56231 9.07358 5.56231 9.06528 5.56231 9.05673C5.63102 9.0113 5.67848 9.00013 5.76642 9.00022Z" fill="#8F53F0"/>
</svg>
